<?xml version="1.0" encoding="utf-8"?>
<!-- Generator: Adobe Illustrator 15.0.0, SVG Export Plug-In . SVG Version: 6.00 Build 0)  -->
<!DOCTYPE svg PUBLIC "-//W3C//DTD SVG 1.1//EN" "http://www.w3.org/Graphics/SVG/1.1/DTD/svg11.dtd">
<svg version="1.1" id="Capa_1" xmlns="http://www.w3.org/2000/svg" xmlns:xlink="http://www.w3.org/1999/xlink" x="0px" y="0px"
	 width="800px" height="800px" viewBox="0 0 800 800" enable-background="new 0 0 800 800" xml:space="preserve">
<g>
	<path fill="#103653" d="M746.392,200.003l-92.823-53.594l-53.581-92.81H492.815L399.992,0.005l-92.824,53.594H199.996
		l-53.594,92.824l-92.808,53.58v107.172L0,399.999l53.594,92.823v107.173l92.824,53.594l53.594,92.824h107.172l92.81,53.58
		l92.824-53.594H599.99l53.594-92.824l92.824-53.595V492.809l53.594-92.823l-53.594-92.824V200.003H746.392z M363.891,563.713
		c-7.458,7.458-17.284,11.083-27.066,10.946c-9.785,0.139-19.608-3.488-27.066-10.946L192.774,446.729
		c-14.654-14.654-14.654-38.428,0-53.082l30.969-30.969c14.654-14.654,38.428-14.654,53.082,0l60,59.999l186.325-186.338
		c14.654-14.654,38.428-14.654,53.082,0l30.969,30.969c14.654,14.654,14.654,38.427,0,53.081L363.891,563.713z"/>
</g>
</svg>
