<?xml version="1.0" encoding="utf-8"?>
<!-- Generator: Adobe Illustrator 15.0.0, SVG Export Plug-In . SVG Version: 6.00 Build 0)  -->
<!DOCTYPE svg PUBLIC "-//W3C//DTD SVG 1.1//EN" "http://www.w3.org/Graphics/SVG/1.1/DTD/svg11.dtd">
<svg version="1.1" id="Capa_1" xmlns="http://www.w3.org/2000/svg" xmlns:xlink="http://www.w3.org/1999/xlink" x="0px" y="0px"
	 width="800px" height="800px" viewBox="0 0 800 800" enable-background="new 0 0 800 800" xml:space="preserve">
<g>
	<g>
		<g>
			<g>
				<path fill="#103653" d="M713.486,434.537c51.909-22.96,49.914-101.822-3.989-102.821c19.963-33.94,28.948-72.872-3.992-104.816
					c-28.948-27.951-74.869-29.948-109.808-12.977c6.986-28.95-22.96-47.916-49.916-50.911
					c-24.954-2.995-47.914,12.978-54.902,35.937c-8.984-18.967-26.953-31.944-49.912-29.948
					c-10.981,0.999-21.962,6.988-29.949,15.972c0,0.998-11.978,15.972-9.981,17.969c-1.997-0.998-5.99-4.991-11.979-5.99
					c-37.934-3.993-65.885-10.981-93.835,21.962c-19.965,22.959-24.957,52.908-9.983,77.864
					c-26.954,0.998-56.902,14.974-56.902,45.92c0,18.967,12.977,32.941,28.949,35.938c-18.967,26.952-34.938,57.898-19.965,90.841
					c8.984,19.963,27.951,31.943,48.914,32.94c-17.968,21.963-21.961,59.898-6.988,81.859c20.964,29.945,56.901,27.952,85.85,12.978
					c0.999,28.95,23.958,47.916,53.907,55.901c40.928,10.98,72.871-5.99,93.835-39.929c41.928,41.927,110.805,23.958,127.774-31.944
					C719.476,633.188,793.349,459.491,713.486,434.537z M641.612,565.307c-3.991-2.995-8.984-2-10.978,2.994
					c-14.974,52.907-70.878,69.878-111.805,33.94c0.998-4.991-5.99-7.986-8.984-2.994l0,0c-0.998,0.998-1.996,1.996-1.996,2.994
					c-8.984,12.978-19.965,23.959-31.944,34.939c-46.918,17.972-77.864,0.998-93.836-50.911c1.996-5.989-4.992-10.978-10.981-7.986
					c-3.993,1.997-7.986,3.99-10.981,6.986c-38.932,18.967-59.895,11.98-63.888-21.963c-7.986-23.958-12.977-41.927,7.986-61.889
					c0.999,0,0.999,0,1.997,0c4.991-0.998,3.993-8.986-0.998-8.986l0,0c-0.999,0-1.996-0.996-3.993,0
					c-26.953-1.998-58.896-13.974-55.902-51.907c1.997-24.957,16.971-46.918,32.943-64.887c4.991-5.989,0-13.976-6.988-11.979
					c-18.967-28.95-17.969-44.922,2.995-48.915c5.989-2.995,12.977-3.993,19.965-4.991c5.99-0.998,4.991-8.984,0-10.98
					c-27.951-69.878,53.906-114.8,109.809-78.863c3.992,1.997,7.986-0.998,7.986-4.991c43.923-28.949,68.879-24.956,75.867,9.983
					c1.996,4.991,10.98,4.991,9.982-0.998c0,0,0,0,0-0.999c0.998-0.999,1.996-1.997,2.994-2.995
					c7.986-18.966,12.978-37.933,36.936-38.932c20.963-1.997,51.911,11.979,44.921,37.934c-0.995,2.994,0,4.991,2,6.988
					c-0.996,3.993,2.995,7.986,7.986,6.987c29.946-7.986,59.895-17.969,88.843,0c41.929,26.953,27.955,70.876,4.995,106.814
					c-3.992,5.989,2.995,14.973,9.98,12.978c41.929,22.959,50.913,41.926,25.955,58.896c-7.986,9.982-17.971,15.972-30.946,17.969
					c-1.998,0.998-2.994,1.996-3.994,2.994c0,0,0,0-0.995,0c-8.984,0-8.984,12.978,0,12.978
					C791.352,450.508,701.509,619.212,641.612,565.307z"/>
				<path fill="#103653" d="M412.016,185.969L412.016,185.969L412.016,185.969z"/>
			</g>
			<path fill="#103653" d="M639.617,319.737c-20.964-19.965-66.883-8.984-92.838-7.986c-60.895,0.998-121.789,4.991-182.682,9.982
				c-5.989,0.999-8.984,5.99-8.984,10.981c-0.999,0.998-1.997,1.996-1.997,3.992c-2.995,28.95-5.99,57.899-6.988,86.849
				c-0.999,23.958-9.982,56.9-2.995,79.858c4.991,16.971,11.979,17.969,27.951,19.965c52.907,6.987,113.802-0.998,167.707-1.999
				c27.953,0,70.875,8.986,93.834-12.978c17.973-17.969,17.973-50.907,18.969-73.869
				C651.597,408.58,659.584,338.704,639.617,319.737z M575.729,327.724c14.976,0,24.956-1.997,33.94,1.996
				c-20.965,17.969-47.915,46.918-73.87,63.889c0-9.982-1.995-18.967-10.98-23.959c-17.969-9.982-25.954,5.989-29.946,25.955
				c0-0.998-1-0.998-1-1.996c-6.987-10.981-16.97-15.973-29.947-10.981c-4.991,1.997-6.988,8.984-5.988,13.976
				c0,0.998,0.997,2.994,0.997,3.993c-30.946-14.974-64.886-43.923-89.843-59.896C437.97,333.713,506.85,329.718,575.729,327.724z
				 M358.109,451.505c1.997-33.94,3.993-67.881,3.993-100.823c29.948,21.962,60.894,42.925,90.841,63.888
				c0.998,0.998,1.996,0.998,2.995,1.997c-33.94,23.958-65.885,50.911-96.831,77.864
				C352.12,480.455,357.111,465.482,358.109,451.505z M510.842,505.411c-33.939,0.998-68.879,0.998-102.819,2
				c-16.971,0-30.946,4.99-42.925-5.99c33.941-24.956,69.877-48.914,101.823-76.867c0.997,0.998,2.994,1.996,3.992,2.995
				c5.99,8.983,12.979,16.971,20.963,23.958c0,0,0,0,0,0.998c3.993,9.982,18.967,9.982,21.963,0
				c6.987-8.984,11.979-18.967,15.972-29.947c20.963,25.955,45.918,53.905,73.868,73.871
				C576.728,510.401,541.788,504.413,510.842,505.411z M619.652,485.445c-12.979-9.982-25.955-19.965-38.931-29.947
				c-15.974-12.978-30.947-27.951-45.921-41.927c1.996-1.996,2.994-2.994,4.99-3.992c27.951-22.961,55.903-44.923,83.853-67.882l0,0
				c11.98,13.976,9.984,30.946,10.98,48.914C634.626,420.561,640.615,462.485,619.652,485.445z"/>
			<path fill="#103653" d="M179.474,187.8c-0.997-11.979-7.986-21.961-18.969-25.955c-5.989-1.996-12.976-1.996-17.97,0.999
				c1-15.972-15.971-26.953-30.945-24.957c-12.979,0.995-30.947,11.979-28.949,25.953c-10.979-3.991-21.964-4.992-33.943,0
				c-9.984,3.992-16.97,11.98-19.965,21.964c-3.992,13.972,5.99,29.944,19.965,31.944c-3.991,5.989-7.986,11.979-7.986,17.968
				c-0.995,9.983,4.995,16.971,12.979,21.962c11.979,5.989,26.952,5.989,38.931,0c0.997,20.966,32.94,25.954,47.917,14.973
				c15.971-11.979,17.968-30.945,11.979-47.916c3.991-0.995,8.986-1.997,11.981-3.989C174.48,214.753,180.471,200.778,179.474,187.8
				z M166.498,194.789c-1.998,6.988-6.99,12.978-13.976,14.974c-3.995,0.998-7.986,0.998-10.979,0l-0.997-0.999
				c-1.998-1.997-4.992-0.995-5.989,0.999c-1,0-1.998,0-2.998,0c-3.992,0.998-4.991,5.989-3.992,8.984
				c2.995,3.993,6.99,5.991,11.979,6.988c3.995,10.98,2.995,22.959-6.984,31.944c-12.979,10.981-22.96,2.994-32.944-5.99
				c1-0.999,2.998-2.995,3.994-3.993c2.995-3.991-2.994-8.984-6.989-6.988c-10.978,8.987-26.952,14.978-40.929,6.988
				c-10.978-5.989-5.991-13.972-1.997-21.961c0.997-2.995,1.997-4.991,1.997-7.986c0.999,0,1.998-0.999,1.998-0.999
				c4.993-1.998,1.999-7.986-1.998-8.984c-0.997-0.999-2.995-0.999-3.991,0c-4.995,0-9.981-3.993-11.979-8.985
				c-2-5.992,0.994-12.977,4.992-16.97c8.985-8.984,24.955-9.982,36.934-9.982c1,0,1,0,1,0c1.997,2.994,6.987,0.998,5.99-2.995
				c-7.987-19.965,45.919-31.944,42.921-0.999c0,0.999,0,2,1,2.995l0,0c-2.995,4.995,4.993,8.986,7.985,4.995
				c3.992-5.99,12.976-4.995,17.969-0.998C165.498,177.818,168.493,186.802,166.498,194.789z"/>
			<path fill="#103653" d="M205.944,399.533c-1.998-4.992-4.993-9.982-9.98-11.979c7.985-8.984,8.984-25.955-1-33.942
				c-10.976-8.986-26.95-2.997-30.944,8.986c-4.993-7.986-15.974-10.981-24.959-5.992c-6.986,3.992-9.981,11.981-7.986,19.964
				c-6.984,0-13.974,3.992-17.968,6.987c-8.985,7.986-11.979,19.965-6.986,30.945c3.992,9.983,12.976,17.973,24.955,16.971
				c7.987,0,15.974-4.991,20.966-11.979c5.992,16.969,30.947,17.969,44.922,6.987C203.946,420.498,208.939,409.516,205.944,399.533z
				 M193.965,407.521c-2,5.991-6.986,9.98-11.979,10.979c-8.985,2.994-17.97,0-21.964-7.986c-1.995-3.993-7.985-2.995-9.979,0
				c-1,0-2,0-2.997,0.995c-7.986,10.98-25.953,9.982-29.948-3.99c-1.997-5.993,1-12.978,5.993-16.97
				c4.989-3.993,10.978-2.994,16.966-4.994c2.995-0.995,3.994-3.99,1.999-6.985c-0.997-0.999-1.999-2-2.995-2
				c-0.996-4.991,0-11.979,4.993-13.972c5.992-2.997,11.98,0,15.971,4.991c1,0.999,2,0.999,2.994,0.999c0,0.995,0,1.997,1.001,2.995
				c0.996,5.989,8.984,2.995,7.985-1.998c-1.997-10.979,12.979-14.976,17.972-5.992c1.995,3.994,1.995,7.987,0,11.983
				c-1.998,3.989-5.99,4.991-9.984,7.985c-3.99,2.995-2.995,9.982,2.995,9.982c1,0,2,0,2,0s0,0,0.995,0
				C192.968,393.543,195.963,401.531,193.965,407.521z"/>
		</g>
	</g>
</g>
</svg>
