<?xml version="1.0" encoding="utf-8"?>
<!-- Generator: Adobe Illustrator 15.0.0, SVG Export Plug-In . SVG Version: 6.00 Build 0)  -->
<!DOCTYPE svg PUBLIC "-//W3C//DTD SVG 1.1//EN" "http://www.w3.org/Graphics/SVG/1.1/DTD/svg11.dtd">
<svg version="1.1" id="Calque_1" xmlns="http://www.w3.org/2000/svg" xmlns:xlink="http://www.w3.org/1999/xlink" x="0px" y="0px"
	 width="800px" height="800px" viewBox="0 0 800 800" enable-background="new 0 0 800 800" xml:space="preserve">
<title></title>
<g id="ax">
</g>
<g>
	<path fill="#F79927" d="M729.502,520.032c0.847-2.447,1.328-5.1,1.328-7.881v-19.365c0-55.379-41.13-100.434-91.688-100.434
		h-45.731c-8.322,0-13.469-7.004-25.723-29.504c-0.838-1.539-1.463-2.703-1.787-3.234c-1.725-2.82-3.422-5.656-5.118-8.492
		c-7.519-12.56-14.62-24.424-23.836-34.746c-36.031-40.356-101.097-49.632-136.676-51.566c-38.18-2.074-94.138,0.968-143.875,27.258
		c-51.377,27.161-92.057,90.14-101.229,156.718c-2.714,19.709-3.075,39.709-2.708,55.254c0.082,3.406,0.197,6.598,0.33,9.527
		c0.044,0.938,0.139,1.857,0.284,2.756c0.208,1.283,0.522,2.518,0.922,3.709h31h11.627c10.159-29.715,38.341-51.148,71.451-51.148
		c33.112,0,61.296,21.434,71.452,51.148h209.499c10.158-29.715,38.34-51.148,71.451-51.148c33.112,0,61.295,21.434,71.451,51.148
		H729.502z M239.204,437.927h-27.067c-4.962,0-9.021-4.061-9.021-9.021s4.06-9.021,9.021-9.021h27.067
		c4.963,0,9.021,4.061,9.021,9.021S244.165,437.927,239.204,437.927z M391.034,383.796c0,5.826-4.721,10.547-10.547,10.547H211.769
		c-3.485,0-6.75-1.725-8.714-4.607c-1.964-2.881-2.377-6.549-1.1-9.795c0.438-1.125,11.131-27.826,38.667-53.048
		c25.326-23.2,70.31-49.572,140.776-43.458c5.45,0.474,9.635,5.037,9.635,10.508V383.796z M446.347,437.927h-27.064
		c-4.963,0-9.022-4.061-9.022-9.021s4.06-9.021,9.022-9.021h27.064c4.963,0,9.022,4.061,9.022,9.021
		S451.308,437.927,446.347,437.927z M555.333,389.55c-1.947,2.99-5.271,4.791-8.839,4.791H416.575
		c-5.826,0-10.547-4.719-10.547-10.547v-89.32c0-5.207,3.799-9.634,8.945-10.426c0.967-0.148,24.125-3.535,53.114,6.779
		c26.422,9.398,63.144,32.416,88.052,88.701C557.583,382.79,557.28,386.56,555.333,389.55z"/>
	<g>
		<path fill="#103653" d="M5.956,520.389c2.439,7.789,7.766,14.162,14.999,17.943c6.315,3.305,13.488,4.239,20.279,2.852
			c2.372,2.874,5.31,5.281,8.654,7.03c4.166,2.181,8.635,3.214,13.041,3.214c10.178,0,20.021-5.514,25.061-15.139
			c5.599-10.71,3.625-23.408-3.99-31.929c1.525-5.078,1.506-10.493-0.115-15.669c-2.138-6.832-6.812-12.423-13.156-15.742
			c-6.343-3.316-13.601-3.969-20.434-1.828c-5.48,1.716-10.164,5.064-13.516,9.599c-11.722-0.678-23.024,5.453-28.737,16.375
			C4.26,504.328,3.518,512.6,5.956,520.389z M26.736,506.873c2.261-4.323,7.375-6.214,11.887-4.406
			c2.82,1.135,5.988,0.99,8.694-0.377c2.709-1.371,4.695-3.844,5.45-6.785c0.115-0.441,0.274-0.863,0.479-1.254
			c0.704-1.345,1.896-2.344,3.352-2.798c0.565-0.175,1.141-0.265,1.714-0.265c0.908,0,1.811,0.223,2.638,0.653
			c1.356,0.708,2.352,1.898,2.806,3.354c0.455,1.455,0.317,3.002-0.391,4.355c-0.195,0.376-0.443,0.735-0.734,1.078
			c-2.118,2.479-2.969,5.801-2.306,8.996c0.665,3.192,2.769,5.898,5.7,7.328l0.313,0.153c3.43,1.794,4.783,6.116,2.96,9.604
			c-1.825,3.485-6.148,4.841-9.63,3.013c-1.745-0.913-3.005-2.46-3.55-4.364c-0.921-3.21-3.305-5.796-6.43-6.969
			c-3.119-1.172-6.616-0.799-9.424,1.009c-2.872,1.851-6.521,2.016-9.533,0.444c-2.24-1.174-3.889-3.147-4.645-5.557
			C25.334,511.673,25.563,509.113,26.736,506.873z"/>
		<path fill="#103653" d="M134.519,356.203c-5.587-1.661-11.454,1.527-13.112,7.109c-0.995,3.35-1.92,6.803-2.745,10.262
			c-1.354,5.664,2.142,11.356,7.806,12.71c0.824,0.195,1.647,0.292,2.46,0.292c4.769,0,9.094-3.258,10.251-8.1
			c0.736-3.091,1.563-6.174,2.449-9.161C143.284,363.73,140.102,357.859,134.519,356.203z"/>
		<path fill="#103653" d="M214.963,264.699c-3.238-4.837-9.789-6.142-14.63-2.902c-18.53,12.392-34.499,26.959-47.471,43.301
			c-4.037,5.083-7.839,10.418-11.295,15.848c-1.977,3.1-3.893,6.32-5.697,9.568c-2.829,5.092-0.993,11.513,4.101,14.342
			c1.621,0.902,3.378,1.328,5.11,1.328c3.708,0,7.304-1.956,9.229-5.426c1.599-2.882,3.299-5.734,5.047-8.48
			c3.067-4.818,6.439-9.55,10.023-14.065c11.609-14.626,25.969-27.709,42.677-38.881C216.9,276.094,218.2,269.542,214.963,264.699z"
			/>
		<path fill="#103653" d="M605.7,305.847c-3.477-6.046-5.232-8.398-9.477-14.08l-0.33-0.44
			c-11.869-15.886-26.336-29.909-43.003-41.682c-4.757-3.36-11.337-2.225-14.7,2.528c-3.361,4.76-2.229,11.341,2.529,14.7
			c14.858,10.494,27.733,22.969,38.273,37.076l0.33,0.439c4.137,5.533,5.246,7.021,8.091,11.971c1.95,3.394,5.501,5.293,9.153,5.293
			c1.781,0,3.589-0.454,5.246-1.404C606.862,317.344,608.603,310.896,605.7,305.847z"/>
		<path fill="#103653" d="M623.461,343.498c-0.534-1.318-1.536-3.68-3.391-7.873c-2.354-5.327-8.579-7.731-13.913-5.38
			c-5.326,2.356-7.734,8.583-5.379,13.912c1.902,4.304,2.756,6.33,3.133,7.255c0.252,1.039,0.666,2.055,1.253,3.016
			c1.991,3.258,5.519,5.107,9.128,5.107c1.639,0,3.297-0.379,4.834-1.186C627.259,354.092,624.165,345.232,623.461,343.498z"/>
		<path fill="#103653" d="M406.333,294.957v89.32c0,5.827,4.721,10.547,10.547,10.547h129.918c3.568,0,6.893-1.801,8.84-4.792
			c1.947-2.989,2.25-6.759,0.807-10.021c-24.908-56.284-61.631-79.302-88.053-88.7c-28.988-10.314-52.146-6.928-53.113-6.779
			C410.132,285.323,406.333,289.75,406.333,294.957z M427.427,373.73v-68.829c20.006,0.125,68.896,7.227,102.449,68.829H427.427
			L427.427,373.73z"/>
		<path fill="#103653" d="M202.26,380.423c-1.277,3.247-0.864,6.914,1.1,9.796c1.964,2.883,5.229,4.607,8.714,4.607h168.718
			c5.826,0,10.547-4.721,10.547-10.547v-89.854c0-5.471-4.185-10.034-9.635-10.508c-70.467-6.114-115.45,20.258-140.776,43.458
			C213.391,352.597,202.698,379.298,202.26,380.423z M370.244,373.729H229.583c5.445-8.736,13.985-20.312,26.287-31.435
			c30.133-27.247,68.578-39.994,114.374-37.997V373.729L370.244,373.729z"/>
		<path fill="#103653" d="M410.563,429.389c0,4.961,4.061,9.021,9.022,9.021h27.065c4.961,0,9.021-4.061,9.021-9.021
			s-4.059-9.021-9.021-9.021h-27.065C414.624,420.367,410.563,424.428,410.563,429.389z"/>
		<path fill="#103653" d="M203.419,429.389c0,4.961,4.06,9.021,9.021,9.021h27.067c4.961,0,9.021-4.061,9.021-9.021
			s-4.058-9.021-9.021-9.021H212.44C207.479,420.367,203.419,424.428,203.419,429.389z"/>
		<path fill="#103653" d="M381.541,244.477c-44-0.098-84.164,9.746-84.164,9.746c-16.927,4.58-34.012,10.947-50.531,19.682
			c-48.585,25.683-87.385,77.378-104.7,137.063c-6.593-0.811-16.429-0.633-25.284,5.039c-9.184,5.88-14.672,15.802-16.314,29.494
			c-1.997,16.662,3.682,26.662,8.792,32.118c2.237,2.386,4.702,4.276,7.234,5.812h-3.618c-5.825,0-10.547,4.72-10.547,10.547v33.373
			c0,5.826,4.722,10.547,10.547,10.547h6.237v0.967c0,8.515,6.967,15.481,15.481,15.481h28.418c2.872,0.694,5.854,1.075,8.921,1.075
			h21.612c3.553,25.299,19.686,46.615,41.852,57.396H124.619c-5.825,0-10.547,4.721-10.547,10.547
			c0,5.827,4.722,10.547,10.547,10.547h581.776c5.824,0,10.547-4.72,10.547-10.547c0-5.826-4.723-10.547-10.547-10.547h-52.707
			c22.164-10.781,38.299-32.098,41.851-57.396h16.445c3.039,0,5.989-0.391,8.837-1.075h28.279c8.514,0,15.48-6.967,15.48-15.481
			v-2.868c0-3.286-1.045-6.336-2.813-8.846c3.95-1.306,7.998-3.364,11.67-6.553c8.232-7.153,12.217-17.768,11.851-31.552
			c-0.446-16.778-7.517-25.846-13.368-30.502c-9.049-7.193-19.977-8.142-26.855-7.86c-16.051-46.063-57.332-78.939-105.617-78.939
			h-41.963c-2.243-3.032-5.916-9.229-10.965-18.498c-1.082-1.983-1.9-3.472-2.313-4.146c-1.692-2.768-3.356-5.549-5.02-8.326
			c-7.693-12.854-15.649-26.145-26.199-37.961c-22.98-25.738-55.393-40.34-86.299-48.586
			C466.69,254.227,425.541,244.575,381.541,244.477z M751.675,472.125c2.552,0.446,5.145,1.337,7.178,2.979
			c3.363,2.717,5.164,7.595,5.348,14.5c0.191,7.181-1.356,12.251-4.599,15.068c-1.796,1.558-4.055,2.44-6.255,2.927L751.675,472.125
			z M596.422,544.873c0-13.455,10.906-24.359,24.36-24.359c13.455,0,24.359,10.906,24.359,24.359c0,3.784-0.887,7.352-2.426,10.547
			c-3.934,8.164-12.264,13.813-21.934,13.813s-17.998-5.648-21.932-13.813C597.31,552.225,596.422,548.657,596.422,544.873z
			 M301.283,612.818c22.164-10.781,38.298-32.099,41.85-57.396h202.894c3.552,25.298,19.686,46.615,41.852,57.396H301.283z
			 M244.019,544.873c0-13.455,10.906-24.359,24.361-24.359c13.454,0,24.36,10.906,24.36,24.359c0,3.784-0.889,7.352-2.428,10.547
			c-3.933,8.164-12.264,13.813-21.933,13.813s-17.999-5.648-21.933-13.813C244.906,552.225,244.019,548.657,244.019,544.873z
			 M155.472,449.269c9.172-66.577,49.852-129.557,101.229-156.718c49.737-26.29,105.695-29.332,143.875-27.258
			c35.58,1.935,100.645,11.21,136.676,51.566c9.217,10.321,16.318,22.186,23.836,34.746c1.697,2.836,3.395,5.671,5.119,8.491
			c0.324,0.531,0.949,1.696,1.786,3.235c12.255,22.499,17.401,29.504,25.724,29.504h45.73c50.559,0,91.688,45.055,91.688,100.433
			v19.365c0,2.781-0.48,5.435-1.328,7.882h-37.574c-10.156-29.715-38.34-51.148-71.451-51.148s-61.293,21.433-71.452,51.148H339.83
			c-10.156-29.715-38.34-51.148-71.452-51.148c-33.11,0-61.292,21.433-71.451,51.148H185.3h-31c-0.399-1.191-0.714-2.427-0.922-3.71
			c-0.146-0.898-0.24-1.818-0.284-2.755c-0.133-2.93-0.248-6.121-0.33-9.527C152.396,488.978,152.758,468.978,155.472,449.269z
			 M123.502,516.805v-12.28h8.165c0.085,3.76,0.21,7.275,0.356,10.486c0.026,0.606,0.114,1.195,0.164,1.794H123.502L123.502,516.805
			z M121.492,448.009c0.849-7.086,3.092-11.86,6.67-14.19c1.974-1.287,4.366-1.861,6.685-2.033l-3.506,35.34
			c-2.458-0.813-4.894-2.074-6.666-3.992C121.74,459.956,120.669,454.868,121.492,448.009z"/>
		<path fill="#103653" d="M21.127,623.365c0,5.826,4.722,10.547,10.547,10.547h48.988c5.825,0,10.547-4.721,10.547-10.547
			s-4.722-10.547-10.547-10.547H31.674C25.85,612.818,21.127,617.539,21.127,623.365z"/>
		<path fill="#103653" d="M740.69,623.365c0,5.826,4.721,10.547,10.547,10.547h38.216c5.827,0,10.547-4.721,10.547-10.547
			s-4.72-10.547-10.547-10.547h-38.216C745.411,612.818,740.69,617.539,740.69,623.365z"/>
	</g>
	<g>
		
			<path fill="#103653" stroke="#103653" stroke-width="6" stroke-linecap="round" stroke-linejoin="round" stroke-miterlimit="10" d="
			M254.518,208.866c-1.983,0.147-3.935,0.543-5.855,1.188c-1.852,0.562-3.737,1.165-5.657,1.81c1.783-0.479,3.601-0.999,5.453-1.562
			c1.939-0.6,3.886-0.889,5.841-0.867c-0.098,0.254-0.205,0.486-0.322,0.695c-0.117,0.209-0.263,0.353-0.438,0.431
			c-0.614,0.273-1.241,0.461-1.879,0.561c-0.639,0.101-1.286,0.297-1.944,0.59l-0.351-0.79c-0.2,0.142-0.498,0.3-0.893,0.476
			c-1.096,0.488-2.238,0.813-3.427,0.975c-1.189,0.162-2.333,0.486-3.428,0.975c-0.57,0.254-1.089,0.564-1.557,0.93l0.117,0.263
			c1.443-0.537,2.942-1.034,4.5-1.491c1.556-0.457,3.17-0.873,4.842-1.25c-1.502,0.407-3.091,0.877-4.77,1.415
			c-1.679,0.538-3.22,1.118-4.623,1.743c-0.571,0.254-1.103,0.505-1.597,0.75c-0.495,0.247-0.974,0.5-1.436,0.757
			c0.41,0.92,0.91,1.986,1.5,3.193c0.59,1.209,1.211,2.365,1.859,3.469c0.649,1.103,1.256,2.054,1.822,2.854
			c0.565,0.799,1.038,1.271,1.419,1.417l1.119,0.919c1.249,1.389,3.364,1.418,6.346,0.091c0.658-0.292,1.408-0.732,2.25-1.317
			c0.843-0.584,1.681-1.209,2.518-1.869c0.835-0.661,1.641-1.27,2.418-1.827c0.777-0.555,1.472-0.971,2.087-1.244
			c0.613-0.273,1.003-0.34,1.169-0.205c0.166,0.137,0.317,0.358,0.454,0.665c-1.744,1.04-3.374,2.159-4.889,3.358
			c-1.315,1.06-2.625,2.01-3.931,2.854c1.306-0.844,2.614-1.741,3.924-2.693c1.534-1.156,3.13-2.233,4.786-3.235
			c0.03,0.303,0.064,0.498,0.104,0.585c0.117,0.264,0.323,0.435,0.621,0.512l0.862-0.541c0.244-0.161,0.493-0.311,0.746-0.451
			c0.254-0.139,0.469-0.3,0.65-0.487c0.887-0.131,1.553-0.14,2-0.023c0.446,0.117,0.737,0.33,0.874,0.635
			c0.254,0.571,0.156,1.087-0.295,1.55c-0.451,0.464-0.809,1.044-1.077,1.74l-0.263,0.119c-1.272,0.566-2.456,1.211-3.552,1.936
			c-1.096,0.724-2.177,1.455-3.24,2.191c-1.064,0.738-2.157,1.472-3.274,2.207c-1.119,0.734-2.313,1.384-3.584,1.95l-0.92,0.411
			l-0.395,0.175c0.872-0.282,1.791-0.64,2.755-1.069c1.228-0.546,2.349-1.125,3.366-1.734c1.016-0.61,1.988-1.228,2.92-1.852
			c0.93-0.624,1.836-1.212,2.721-1.763c0.884-0.552,1.808-1.042,2.773-1.472c-0.546,0.664-1.25,1.384-2.111,2.161
			c-0.863,0.778-1.854,1.563-2.974,2.35c-1.121,0.787-2.304,1.55-3.552,2.291c-1.247,0.738-2.507,1.392-3.778,1.958
			c-0.877,0.391-1.752,0.727-2.624,1.01c-0.872,0.284-1.898,0.398-3.078,0.347l-0.388-0.694c-0.711,0.055-1.539-0.064-2.481-0.354
			c-0.944-0.29-1.847-0.635-2.71-1.041c-0.862-0.403-1.618-0.802-2.266-1.197c-0.648-0.393-1.012-0.678-1.09-0.854l-0.461-0.504
			c-0.765-0.657-1.494-1.436-2.184-2.337c-0.691-0.901-1.33-1.837-1.921-2.811c-0.59-0.971-1.154-1.941-1.69-2.912
			c-0.538-0.969-1.023-1.882-1.457-2.741c-0.732-1.408-1.447-2.835-2.145-4.286c-0.698-1.448-1.378-2.919-2.042-4.411
			c-0.664-1.49-1.322-2.998-1.973-4.521c-0.652-1.522-1.318-3.05-2.003-4.586l-0.196,0.088c0.522,1.765,1.114,3.418,1.776,4.962
			c0.661,1.546,1.333,3.084,2.017,4.619l1.142,2.565c1.367,3.07,2.957,6.199,4.77,9.384c1.813,3.187,4.101,6.056,6.867,8.606
			c-1.771-1.26-3.163-2.676-4.178-4.247c-1.015-1.57-1.954-3.032-2.817-4.381c-1.103-1.767-2.1-3.504-2.99-5.21
			c-0.89-1.704-1.746-3.479-2.566-5.32l-0.615-1.382c-1.132-2.542-2.219-5.16-3.259-7.849c-1.04-2.69-1.885-5.649-2.535-8.88
			c-0.263,0.117-0.454,0.044-0.57-0.219c-0.117-0.263-0.142-0.699-0.07-1.309c0.07-0.608,0.222-1.242,0.455-1.898
			c0.233-0.655,0.55-1.269,0.953-1.843c0.401-0.572,0.866-0.977,1.392-1.21l15.655-6.971c1.758-0.414,3.46-0.871,5.104-1.367
			c1.645-0.495,3.342-1.08,5.091-1.753l0.607,1.542c0.117,0.263,0.089,0.526-0.083,0.785c-0.172,0.262-0.677,0.577-1.509,0.948
			c-0.263,0.118-0.586,0.249-0.969,0.392c-0.382,0.146-0.803,0.293-1.26,0.444l0.264,0.592c1.973-0.406,3.602-0.552,4.886-0.442
			c1.284,0.112,2.044,0.43,2.279,0.957c0.273,0.615-0.143,1.246-1.246,1.895c-1.104,0.649-2.62,1.403-4.55,2.262
			c-2.456,1.094-5.08,2.25-7.874,3.467c-2.795,1.218-5.534,2.294-8.219,3.226l-1.118,0.498c0.522,1.765,1.131,3.543,1.824,5.335
			c0.693,1.794,1.428,3.621,2.205,5.481c0.701-0.311,1.376-0.652,2.028-1.021c0.65-0.369,1.347-0.718,2.094-1.051
			c0.613-0.272,1.35-0.534,2.21-0.787c0.86-0.251,1.779-0.49,2.756-0.714c0.976-0.225,1.968-0.416,2.975-0.575
			c1.006-0.159,1.94-0.274,2.803-0.342c0.152-0.016,0.315-0.061,0.491-0.141l1.118-0.497c0.569-0.253,0.993-0.336,1.269-0.25
			c0.275,0.088,0.529,0.395,0.765,0.921c-0.747,0.332-1.467,0.601-2.164,0.805c-0.697,0.205-1.372,0.401-2.024,0.587
			c0.711-0.054,1.421-0.172,2.127-0.356c0.707-0.184,1.451-0.396,2.236-0.642c0.01,0.259,0.044,0.482,0.1,0.665
			c0.056,0.187,0.113,0.345,0.172,0.476c0.477-0.106,0.866-0.031,1.166,0.229c0.3,0.261,0.538,0.588,0.714,0.983
			c0.254,0.57,0.333,1.073,0.239,1.509C254.448,208.384,254.44,208.691,254.518,208.866z M234.675,226.607
			c0.643,0.975,1.354,2.011,2.132,3.109c0.778,1.1,1.678,2.117,2.7,3.053c1.021,0.939,2.195,1.717,3.521,2.334
			c1.072,0.521,2.305,0.813,3.7,0.875c-1.627-0.115-3.132-0.602-4.511-1.458c-1.629-1.061-3.128-2.391-4.495-3.989
			c-1.369-1.597-2.643-3.368-3.823-5.311c-1.138-1.963-2.191-3.859-3.163-5.687c0.57,1.166,1.174,2.343,1.809,3.53
			C233.179,224.252,233.889,225.433,234.675,226.607z M246.035,237.785c-0.687-0.009-1.328-0.091-1.922-0.247
			c-0.424-0.127-0.826-0.264-1.206-0.41c0.38,0.146,0.793,0.252,1.243,0.314C244.788,237.579,245.417,237.693,246.035,237.785z
			 M244.815,206.015c0.804-0.201,1.642-0.443,2.515-0.726c-0.887,0.132-1.706,0.299-2.457,0.502c-0.75,0.203-1.516,0.374-2.295,0.51
			C243.265,206.31,244.011,206.215,244.815,206.015z"/>
		
			<path fill="#103653" stroke="#103653" stroke-width="6" stroke-linecap="round" stroke-linejoin="round" stroke-miterlimit="10" d="
			M273.389,221.571c-0.064-0.231-0.072-0.528-0.024-0.89c0.048-0.363,0.02-0.729-0.083-1.098c-0.172-1.149-0.303-1.971-0.393-2.47
			c-0.089-0.499-0.186-0.931-0.289-1.302c-0.543-1.941-1.188-4.016-1.929-6.227c-0.744-2.209-1.475-4.335-2.196-6.377
			c-0.181-0.647-0.406-1.406-0.675-2.278c-0.27-0.871-0.52-1.547-0.755-2.031c-0.313-1.656-0.645-3.283-0.992-4.881
			c-0.347-1.597-0.747-3.205-1.2-4.824l-0.485-1.732c-0.168-0.601-0.36-1.195-0.573-1.784c0.177,0.1,0.334,0.131,0.474,0.092
			c0.185-0.052,0.362-0.177,0.531-0.373c0.17-0.197,0.347-0.321,0.532-0.374c0.322-0.09,0.686,0.182,1.088,0.817
			c0.402,0.635,0.933,2.131,1.592,4.49l0.624-0.175c-0.492-2.653-0.71-4.811-0.651-6.472c0.058-1.661,0.341-2.563,0.85-2.705
			c0.231-0.065,0.739,0.329,1.526,1.181c0.786,0.852,1.478,2.34,2.072,4.467l0.413-1.462c0.34-0.743,0.732-1.525,1.175-2.347
			c0.443-0.822,0.986-1.596,1.63-2.325c0.643-0.728,1.402-1.402,2.276-2.02c0.874-0.618,1.935-1.102,3.183-1.452
			c2.403-0.671,4.647-0.713,6.731-0.125c2.083,0.588,3.967,1.581,5.654,2.978c1.688,1.397,3.221,3.087,4.597,5.069
			c1.378,1.982,2.587,4.037,3.63,6.162c1.043,2.126,1.925,4.208,2.646,6.25c0.72,2.042,1.288,3.803,1.702,5.281
			c0.375,1.341,0.516,2.162,0.426,2.46c-0.091,0.3-0.337,0.531-0.741,0.693c-1.089-3.533-2.334-7.096-3.739-10.692
			c-1.405-3.593-3.285-6.931-5.642-10.01c2.27,3.303,4.072,6.673,5.408,10.113c1.336,3.438,2.503,6.938,3.498,10.498
			c-0.316-0.062-0.589-0.06-0.82,0.005c-0.186,0.052-0.328,0.166-0.428,0.343c0.103,0.371,0.236,0.756,0.399,1.16
			c0.15,0.357,0.288,0.716,0.415,1.079c0.126,0.365,0.235,0.708,0.326,1.031c0.021,1.141-0.043,1.982-0.192,2.521
			c-0.147,0.541-0.337,0.843-0.569,0.907c-0.277,0.077-0.544,0.016-0.8-0.188c-0.256-0.201-0.517-0.465-0.782-0.79
			c-0.266-0.324-0.541-0.682-0.825-1.078c-0.286-0.393-0.624-0.759-1.018-1.098c-0.128-0.812-0.236-1.467-0.325-1.966
			c-0.09-0.498-0.18-0.908-0.271-1.232c-0.349-1.248-0.792-2.743-1.331-4.487c-0.538-1.743-1.179-3.546-1.924-5.405
			c-0.745-1.86-1.604-3.688-2.581-5.484c-0.977-1.793-2.056-3.337-3.238-4.626c-1.183-1.288-2.486-2.244-3.905-2.87
			c-1.422-0.623-2.942-0.709-4.559-0.257c-1.11,0.311-1.988,0.956-2.637,1.934c-0.648,0.979-1.122,2.134-1.423,3.463
			c-0.3,1.331-0.491,2.743-0.572,4.235c-0.081,1.493-0.084,2.902-0.013,4.228c0.054-1.41,0.113-2.847,0.177-4.312
			c0.063-1.463,0.253-2.837,0.566-4.12c0.313-1.285,0.787-2.4,1.418-3.35c0.632-0.95,1.501-1.58,2.612-1.89
			c1.432-0.4,2.779-0.354,4.039,0.141c1.26,0.496,2.422,1.266,3.488,2.313c1.065,1.049,2.041,2.309,2.927,3.78
			c0.885,1.473,1.672,2.997,2.363,4.573c0.69,1.577,1.287,3.129,1.79,4.659c0.503,1.529,0.909,2.848,1.219,3.957
			c0.246,0.879,0.479,1.76,0.702,2.645c0.223,0.884,0.439,1.797,0.653,2.733c-0.908-1.64-1.733-3.39-2.479-5.25
			c-0.745-1.86-1.495-3.694-2.25-5.502c-0.756-1.806-1.549-3.529-2.38-5.165c-0.833-1.637-1.779-3.103-2.839-4.402l0.292-0.829
			c-0.76-0.934-1.51-1.608-2.249-2.025c-0.74-0.416-1.426-0.685-2.058-0.808c-0.632-0.122-1.187-0.14-1.662-0.059
			c-0.475,0.085-0.782,0.145-0.92,0.184c-1.156,0.323-2.068,1.027-2.736,2.111c-0.669,1.084-1.142,2.426-1.417,4.023
			c-0.276,1.598-0.41,3.393-0.4,5.383c0.007,1.991,0.112,4.056,0.312,6.193c0.199,2.138,0.448,4.274,0.747,6.408
			c0.297,2.135,0.606,4.129,0.926,5.983l0.623-0.174c-0.209-1.635-0.451-3.438-0.727-5.404c-0.277-1.966-0.539-3.973-0.787-6.023
			c-0.25-2.048-0.424-4.055-0.526-6.02c-0.101-1.965-0.071-3.769,0.093-5.41c0.164-1.64,0.509-3.032,1.037-4.178
			c0.493-1.084,1.252-1.846,2.277-2.282c-0.952,0.517-1.626,1.402-2.023,2.66c-0.429,1.315-0.694,2.86-0.796,4.633
			c-0.101,1.773-0.104,3.681-0.007,5.722c0.098,2.041,0.208,3.992,0.329,5.852l1.446,10.511c-0.004,0.699,0.019,1.315,0.069,1.85
			l0.13,1.534c0.037,0.488,0.083,1.011,0.139,1.568c0.057,0.558,0.113,1.202,0.167,1.935l0.025,0.89l-0.417,0.117l-7.662-0.398
			c-0.244,0.02-0.438-0.001-0.579-0.063C273.726,221.75,273.565,221.67,273.389,221.571z M275.501,182.625
			c-0.705,1.044-1.197,2.091-1.476,3.142c-0.28,1.05-0.521,2.103-0.724,3.156l0.019,0.069c0.272-1.521,0.792-3.137,1.56-4.848
			c0.748-1.603,1.955-2.988,3.623-4.153c-0.55,0.354-1.075,0.701-1.578,1.04C276.34,181.444,275.867,181.975,275.501,182.625z
			 M283.181,178.008c-0.245,0.02-0.574,0.087-0.99,0.203c1.583-0.043,3.082-0.027,4.5,0.05c1.416,0.078,2.884,0.602,4.402,1.571
			c-1.084-0.842-2.345-1.386-3.784-1.632C285.869,177.955,284.494,177.892,283.181,178.008z M287.265,185.39
			c-0.447-0.174-0.937-0.273-1.467-0.3c-0.531-0.026-1.182-0.081-1.953-0.164l-0.108-0.12c0.799-0.172,1.541-0.194,2.226-0.062
			c0.684,0.134,1.408,0.492,2.17,1.075L287.265,185.39z M291.271,179.932c0.867,0.605,1.72,1.339,2.559,2.2
			c0.839,0.862,1.578,1.628,2.213,2.298c-0.76-0.935-1.47-1.783-2.132-2.545C293.249,181.124,292.368,180.473,291.271,179.932z"/>
		
			<path fill="#103653" stroke="#103653" stroke-width="6" stroke-linecap="round" stroke-linejoin="round" stroke-miterlimit="10" d="
			M323.695,213.992c-1.665-4.137-3.358-8.135-5.083-11.998c-1.726-3.863-3.501-7.753-5.331-11.676
			c-0.873-1.82-1.644-3.618-2.316-5.393s-1.537-3.537-2.592-5.285c0.319-0.139,0.57-0.354,0.749-0.644
			c0.18-0.291,0.435-0.458,0.77-0.502c0.236-0.032,0.482,0.081,0.734,0.337c0.252,0.258,0.484,0.553,0.699,0.888
			c0.213,0.335,0.417,0.684,0.611,1.044c0.193,0.363,0.323,0.612,0.39,0.748l0.827-0.328c-0.291-0.735-0.546-1.463-0.763-2.187
			c-0.217-0.721-0.376-1.463-0.478-2.225c-0.038-0.286-0.061-0.729-0.069-1.334c-0.008-0.604,0.227-0.938,0.702-1.001
			c0.714-0.095,1.586,0.455,2.617,1.649c1.031,1.195,2.098,2.76,3.203,4.694c1.105,1.936,2.225,4.075,3.36,6.417
			c1.135,2.344,2.188,4.611,3.158,6.807c0.97,2.194,1.825,4.164,2.565,5.904c0.74,1.743,1.257,2.981,1.549,3.716
			c1.027-1.734,1.903-3.522,2.627-5.361c0.723-1.839,1.434-3.689,2.13-5.55c0.697-1.859,1.444-3.702,2.242-5.528
			c0.798-1.824,1.786-3.59,2.963-5.297c0.282-0.424,0.711-1.113,1.288-2.061c0.575-0.948,1.198-1.914,1.866-2.899
			c0.668-0.984,1.338-1.86,2.011-2.628c0.672-0.768,1.247-1.182,1.723-1.247c0.237-0.031,0.474,0.107,0.709,0.414
			c-1.568,2.05-3.123,4.097-4.667,6.142c-1.543,2.046-2.83,4.299-3.858,6.759c1.088-2.372,2.406-4.569,3.953-6.591
			c1.548-2.022,3.161-3.992,4.844-5.911l0.756,0.772c0.229-0.467,0.688-1.011,1.379-1.637c0.691-0.624,1.298-0.972,1.822-1.042
			c0.381-0.05,0.682,0.032,0.904,0.244c0.221,0.213,0.358,0.51,0.409,0.89c0.044,0.333,0.053,0.767,0.028,1.304
			c-0.026,0.537-0.119,0.936-0.276,1.198c-0.194,0.366-0.441,0.688-0.743,0.971c-1.38,1.637-2.691,3.155-3.933,4.554
			c-1.242,1.4-2.364,3.063-3.367,4.989l0.433-0.567c1.083-1.692,2.198-3.221,3.349-4.584c1.15-1.364,2.484-2.703,4.004-4.021
			c-0.703,1.644-1.564,3.078-2.587,4.303c-1.023,1.225-2.042,2.585-3.053,4.074c-0.482,0.743-0.875,1.533-1.173,2.372
			c-0.301,0.838-0.719,1.609-1.254,2.309l-0.671-0.128c-0.644,2.07-1.32,4.183-2.025,6.334c-0.707,2.152-1.503,4.267-2.388,6.346
			c-0.886,2.08-1.918,4.069-3.092,5.969c-1.176,1.899-2.559,3.609-4.148,5.127c-0.104,0.304-0.369,0.594-0.792,0.868
			c-0.425,0.274-0.746,0.499-0.964,0.673l-4.762-1.399c-0.48-1.05-1.004-2.167-1.572-3.35c-0.569-1.183-1.117-2.297-1.643-3.341
			l-0.348,0.119l2.849,6.667c0.053,0.041,0.143,0.078,0.269,0.109c0.125,0.031,0.378,0.106,0.756,0.226
			c0.38,0.119,0.957,0.284,1.737,0.496c0.778,0.21,1.845,0.492,3.199,0.845c1.75-1.395,3.204-2.849,4.36-4.357
			c1.114-1.456,2.147-3.143,3.103-5.062c-0.403,0.974-0.839,1.88-1.309,2.716c-0.463,0.885-0.981,1.728-1.552,2.532
			c-0.572,0.802-1.219,1.578-1.942,2.328c-0.725,0.751-1.571,1.481-2.541,2.19L323.695,213.992z M334.671,194.953
			c1.067-2.901,2.187-5.762,3.361-8.583c-1.324,2.792-2.498,5.61-3.522,8.458c-1.033,2.802-2.193,5.546-3.48,8.236
			C332.426,200.458,333.64,197.754,334.671,194.953z M333.317,209.878c1.942-2.874,3.543-5.847,4.806-8.919
			c1.261-3.075,2.335-6.195,3.22-9.363l-0.018-0.143c-0.619,1.536-1.221,3.105-1.806,4.707c-0.586,1.604-1.187,3.185-1.803,4.744
			c-0.616,1.56-1.283,3.1-2,4.624C334.998,207.052,334.198,208.502,333.317,209.878z M337.571,205.825
			c-0.083,0.11-0.142,0.214-0.176,0.314C337.43,206.039,337.488,205.935,337.571,205.825z M337.686,205.593
			c0.596-1.338,1.142-2.695,1.638-4.068c0.041-0.053,0.082-0.107,0.124-0.162c-0.042,0.055-0.059,0.106-0.052,0.153
			C338.899,202.889,338.33,204.249,337.686,205.593z M339.647,200.683c-0.029,0.15-0.081,0.302-0.157,0.457
			C339.566,200.984,339.618,200.833,339.647,200.683z M340.556,198.238c-0.139,0.407-0.279,0.813-0.417,1.217
			C340.276,199.05,340.417,198.645,340.556,198.238z M343.58,186.577c-0.387,0.729-0.74,1.442-1.059,2.138
			c-0.319,0.696-0.628,1.379-0.926,2.048c0.346-0.675,0.764-1.349,1.256-2.02C343.344,188.074,343.586,187.351,343.58,186.577z"/>
		
			<path fill="#103653" stroke="#103653" stroke-width="6" stroke-linecap="round" stroke-linejoin="round" stroke-miterlimit="10" d="
			M373.253,166.306c0.049,0.242,0.313,0.36,0.793,0.359l0.144,0c0.289,0,0.479,0.024,0.576,0.071
			c2.496,0.766,4.981,1.879,7.456,3.339c2.474,1.463,4.708,3.212,6.702,5.25c1.995,2.037,3.605,4.351,4.833,6.941
			c1.227,2.591,1.842,5.375,1.846,8.351c0.003,2.592-0.499,5.089-1.503,7.489c-1.006,2.402-2.396,4.492-4.168,6.269
			c1.821-1.586,3.271-3.568,4.349-5.945c1.078-2.377,1.614-4.935,1.611-7.669c-0.004-3.072-0.655-5.938-1.953-8.602
			c-1.3-2.662-2.959-5.048-4.977-7.158c-2.019-2.109-4.265-3.919-6.739-5.428s-4.887-2.67-7.24-3.484
			c1.823-0.002,3.684,0.404,5.582,1.217c1.896,0.815,3.71,1.88,5.439,3.198c1.73,1.318,3.327,2.829,4.793,4.53
			c1.466,1.703,2.704,3.442,3.714,5.216l-0.503,0.721c0.961,1.438,1.695,2.998,2.202,4.677c0.506,1.681,0.76,3.408,0.762,5.183
			c0.004,3.409-0.725,6.397-2.185,8.966c-1.462,2.57-3.307,4.709-5.537,6.415c-2.229,1.707-4.676,2.994-7.338,3.861
			c-2.664,0.866-5.172,1.301-7.523,1.304c-1.343,0.002-2.7-0.141-4.068-0.426c-1.368-0.287-2.749-0.766-4.142-1.436l0,0.432
			c1.344,0.766,2.726,1.293,4.142,1.579c1.416,0.287,2.82,0.43,4.212,0.427c3.456-0.003,6.851-0.763,10.186-2.28
			c3.333-1.516,6.151-3.643,8.453-6.381c-2.206,2.835-4.951,5.045-8.237,6.633s-6.706,2.385-10.257,2.388
			c-3.648,0.005-6.601-0.7-8.858-2.113c-2.258-1.412-4.024-3.151-5.298-5.213c-1.274-2.063-2.128-4.246-2.563-6.549
			c-0.435-2.304-0.654-4.367-0.656-6.191c-0.002-2.447,0.319-4.848,0.964-7.201c0.646-2.354,1.638-4.514,2.98-6.484
			c1.341-1.969,3.067-3.663,5.178-5.082c2.109-1.418,4.652-2.417,7.628-2.997l-2.089-0.502c-1.008-0.239-1.728-0.526-2.161-0.862
			c-0.433-0.334-0.649-0.622-0.649-0.862c0-0.384,0.418-0.805,1.259-1.263C371.249,166.537,372.198,166.307,373.253,166.306z
			 M370.024,175.382c1.295-0.48,2.542-0.723,3.743-0.725c1.199,0,2.124,0.178,2.772,0.537c0.649,0.359,0.973,0.731,0.973,1.115
			c0,0.242-0.276,0.504-0.827,0.793c-0.552,0.289-1.248,0.686-2.086,1.19c-0.84,0.504-1.752,1.143-2.734,1.911
			c-0.983,0.77-1.895,1.743-2.732,2.92c-0.84,1.178-1.534,2.606-2.083,4.286c-0.551,1.683-0.824,3.649-0.821,5.906
			c0.004,3.312,0.75,5.807,2.241,7.485c1.489,1.679,3.555,2.515,6.195,2.513c1.68-0.002,3.396-0.293,5.147-0.87
			c1.751-0.578,3.333-1.396,4.749-2.454c1.415-1.057,2.565-2.355,3.452-3.892c0.886-1.538,1.329-3.266,1.327-5.187
			c-0.002-1.44-0.255-2.88-0.761-4.318c-0.507-1.439-1.204-2.818-2.094-4.138c-0.89-1.319-1.946-2.554-3.172-3.704
			c-1.226-1.151-2.559-2.132-4-2.948c-1.393-0.766-2.534-1.353-3.422-1.761c-0.889-0.405-1.524-0.8-1.91-1.185
			c-0.385,0.193-0.924,0.421-1.619,0.685c-0.696,0.266-1.619,0.663-2.771,1.191L370.024,175.382z M374.843,170.84l-0.648-0.287
			c-0.048,0.096-0.12,0.192-0.216,0.287c-0.097,0.097-0.144,0.193-0.144,0.289c0,0.097,0.06,0.228,0.181,0.396
			c0.119,0.169,0.228,0.3,0.325,0.396L374.843,170.84z M374.845,171.993c2.208,0.716,4.322,1.795,6.34,3.233
			c1.729,1.294,3.314,2.708,4.757,4.242c-1.395-1.63-2.909-3.092-4.542-4.387c-1.873-1.533-3.963-2.732-6.268-3.593L374.845,171.993
			z M388.841,196.528c-0.718,1.537-1.724,2.906-3.019,4.107c0.863-0.576,1.594-1.273,2.194-2.09c0.599-0.816,1.089-1.632,1.473-2.45
			c0.383-0.816,0.669-1.56,0.861-2.233c0.143-0.623,0.262-1.127,0.359-1.513C390.181,193.6,389.56,194.991,388.841,196.528z
			 M386.374,179.971c-0.145-0.191-0.289-0.359-0.433-0.503C386.086,179.659,386.229,179.827,386.374,179.971z M393.672,202.714
			c-0.048,0.097-0.12,0.193-0.215,0.289c-0.048,0.047-0.097,0.071-0.145,0.072c-0.048,0,0.072-0.252,0.359-0.756
			c0.288-0.504,0.634-1.104,1.042-1.801c0.407-0.695,0.802-1.428,1.186-2.196c0.334-0.578,0.575-1.082,0.718-1.514
			C395.947,198.872,394.967,200.841,393.672,202.714z M396.617,196.807c0.047-0.095,0.072-0.19,0.072-0.288
			C396.689,196.616,396.665,196.711,396.617,196.807z M396.761,196.375c-0.048,0.048-0.072,0.097-0.072,0.144
			C396.689,196.472,396.713,196.423,396.761,196.375z M397.691,191.046c0.001,0.768-0.047,1.524-0.141,2.267
			c-0.097,0.745-0.263,1.429-0.502,2.053c0.333-1.199,0.501-2.543,0.499-4.032c-0.001-1.104-0.098-2.184-0.291-3.24
			c-0.145-0.911-0.338-1.799-0.579-2.663c0.241,0.864,0.458,1.727,0.651,2.592C397.567,188.983,397.689,189.99,397.691,191.046z"/>
		
			<path fill="#103653" stroke="#103653" stroke-width="6" stroke-linecap="round" stroke-linejoin="round" stroke-miterlimit="10" d="
			M398.906,229.183c0.334,0.427,0.954,0.805,1.857,1.131c0.904,0.326,1.784,0.542,2.642,0.645c1.572,0.19,3.136-0.141,4.689-0.992
			c1.554-0.853,3.091-2.082,4.615-3.685c1.523-1.605,3.019-3.479,4.487-5.622c1.467-2.144,2.901-4.413,4.304-6.805l-0.072-0.009
			c-1.207,1.981-2.492,4.014-3.855,6.098c-1.364,2.083-2.8,3.964-4.308,5.644c-1.509,1.679-3.084,3.012-4.726,3.998
			c-1.643,0.986-3.322,1.376-5.037,1.168c-1.383-0.166-2.692-0.737-3.928-1.707c0.745-0.153,1.425-0.19,2.045-0.116
			c0.189,0.022,0.518,0.11,0.983,0.265c0.762,0.09,1.407,0.144,1.938,0.161c0.529,0.016,1.043-0.032,1.541-0.14
			c0.495-0.11,0.98-0.316,1.452-0.623c0.472-0.305,1.005-0.712,1.599-1.221l0.832,0.318c1.6-1.645,3.135-3.441,4.604-5.391
			c1.469-1.95,2.928-3.925,4.379-5.926l1.633-2.703l-0.627-0.222l-1.384,2.444c-1.355,2.012-2.755,3.982-4.195,5.911
			c-1.442,1.928-3.029,3.659-4.761,5.19c1.914-1.848,3.716-3.951,5.404-6.309c1.686-2.359,3.266-4.828,4.738-7.406l-0.342-0.766
			c-0.107-1.125-0.335-2.241-0.685-3.346c-0.236-0.851-0.516-1.731-0.841-2.64c0.61,2.153,0.967,4.202,1.07,6.148
			c-0.461-0.201-0.817-0.546-1.072-1.036c-0.255-0.49-0.478-1.062-0.663-1.713c-0.187-0.65-0.348-1.322-0.481-2.016
			c-0.135-0.693-0.328-1.393-0.58-2.101l0.436-0.601c-0.619-1.282-1.263-2.859-1.931-4.729c-0.671-1.87-1.38-3.793-2.132-5.769
			c-0.753-1.977-1.521-3.907-2.309-5.792c-0.789-1.883-1.588-3.479-2.396-4.785l-0.24,0.188l6.992,17.162
			c-1.443-3.269-2.999-6.599-4.668-9.992c-1.669-3.394-3.083-7.092-4.242-11.101c0.041-0.333,0.046-0.78,0.017-1.34
			c-0.029-0.559-0.067-1.144-0.114-1.754c-0.047-0.61-0.105-1.221-0.178-1.834c-0.07-0.613-0.148-1.165-0.233-1.66l1.927-0.348
			c0.238,0.028,0.44,0.162,0.605,0.399c0.164,0.237,0.277,0.699,0.34,1.383c0.238,0.028,0.476-0.135,0.713-0.494
			c0.236-0.358,0.49-0.763,0.763-1.213s0.562-0.85,0.87-1.2c0.309-0.351,0.678-0.499,1.105-0.447
			c0.619,0.075,1.13,0.561,1.528,1.454c0.399,0.895,0.753,1.966,1.063,3.211c0.309,1.247,0.645,2.556,1.011,3.93
			c0.366,1.375,0.849,2.581,1.449,3.62c0.605,1.379,1.228,2.735,1.865,4.069c0.636,1.335,1.204,2.733,1.705,4.195
			c0.483,1.993,1.182,4.023,2.092,6.091c0.911,2.068,1.571,4.191,1.985,6.369c1.605-3.673,2.932-6.958,3.984-9.854
			c1.05-2.894,1.944-5.795,2.684-8.703c0.707-1.461,1.368-3.123,1.98-4.982c0.61-1.86,1.026-3.696,1.244-5.508l1.564,0.261
			c0.238,0.03,0.439,0.163,0.605,0.4c0.164,0.237,0.197,0.762,0.1,1.572c-0.028,0.239-0.071,0.488-0.126,0.747
			c-0.058,0.258-0.132,0.577-0.224,0.951l0.643,0.078c0.619-1.521,1.271-2.722,1.959-3.607c0.687-0.883,1.292-1.294,1.816-1.23
			c0.382,0.046,0.703,0.496,0.961,1.349c0.261,0.854,0.274,2.233,0.045,4.139c-0.387,3.193-1.186,6.602-2.396,10.227
			c-1.213,3.624-2.442,7.2-3.689,10.723c-1.922,4.7-4.059,9.18-6.411,13.439s-5.19,8.534-8.513,12.824
			c-1.013,1.182-2.141,2.412-3.383,3.688c-1.241,1.276-2.636,2.402-4.18,3.375c-1.544,0.975-3.253,1.722-5.129,2.245
			c-1.877,0.523-3.959,0.646-6.246,0.369c-1.668-0.201-2.774-0.552-3.318-1.052c-0.543-0.502-0.801-0.871-0.772-1.109
			c0.018-0.144,0.084-0.306,0.204-0.483c1.373,0.648,2.868,1.071,4.489,1.268c1.144,0.139,2.489,0.095,4.04-0.128
			c1.55-0.224,2.969-0.669,4.259-1.334c-1.166,0.439-2.452,0.791-3.862,1.056c-1.41,0.264-2.664,0.331-3.76,0.198
			c-1.715-0.208-3.358-0.624-4.926-1.249c0.041-0.333-0.054-0.659-0.281-0.975c-0.228-0.318-0.493-0.629-0.793-0.931
			c-0.303-0.303-0.567-0.612-0.794-0.93c-0.228-0.318-0.319-0.667-0.272-1.048c0.046-0.382,0.198-0.654,0.46-0.815
			c0.261-0.162,0.552-0.271,0.874-0.329c0.321-0.059,0.653-0.103,0.995-0.133C398.36,229.297,398.656,229.249,398.906,229.183z
			 M424.452,219.434c-1.682,2.31-3.412,4.627-5.191,6.951c-1.779,2.323-3.925,4.468-6.435,6.438
			c2.546-1.869,4.721-3.962,6.524-6.283S422.854,221.851,424.452,219.434z M416.694,202.612c-0.375-1.302-0.835-2.602-1.378-3.901
			c-0.544-1.298-1.149-2.592-1.815-3.881c0.548,1.468,1.119,2.939,1.715,4.414c0.606,1.378,1.163,2.776,1.67,4.19L416.694,202.612z
			 M419.396,194.671c-0.04,0.72-0.006,1.331,0.105,1.826c0.108,0.497,0.249,0.937,0.42,1.32c0.171,0.384,0.346,0.743,0.522,1.079
			s0.335,0.729,0.474,1.18l-0.116-0.231L419.396,194.671z M421.261,200.843l1.65,6.147l0.48-0.376L421.261,200.843z
			 M423.499,206.917l-0.568,0.51c0.076,0.155,0.156,0.298,0.238,0.429c0.08,0.13,0.133,0.295,0.158,0.49l0.426-0.528
			L423.499,206.917z M424.461,206.162c0.259-0.549,0.495-1.101,0.708-1.655l0.636-1.664l-0.402-0.267l-1.124,2.692
			C424.327,205.663,424.388,205.96,424.461,206.162z"/>
		
			<path fill="#103653" stroke="#103653" stroke-width="6" stroke-linecap="round" stroke-linejoin="round" stroke-miterlimit="10" d="
			M467.365,222.504c-1.919,0.188-3.353,0.208-4.304,0.058s-1.782-0.286-2.494-0.403c-2.617-0.618-4.859-1.665-6.73-3.143
			c-1.871-1.477-3.355-3.233-4.453-5.267c-1.1-2.035-1.789-4.28-2.07-6.74c-0.285-2.458-0.123-4.973,0.483-7.542
			c0.354-1.494,0.86-3.016,1.521-4.561c0.661-1.544,1.456-3.033,2.387-4.467c0.929-1.433,1.997-2.721,3.205-3.868
			c1.161-1.156,2.451-2.132,3.873-2.933c-1.447,0.694-2.75,1.621-3.91,2.776c-1.208,1.146-2.3,2.43-3.275,3.851
			c-0.978,1.422-1.801,2.929-2.473,4.52c-0.672,1.594-1.189,3.16-1.553,4.702c-0.463,1.962-0.642,4.127-0.535,6.496
			c0.108,2.368,0.639,4.663,1.594,6.886c0.955,2.222,2.393,4.227,4.314,6.011c1.921,1.786,4.471,3.052,7.646,3.802
			c1.496,0.352,3.11,0.511,4.846,0.477c-2.053,0.749-4.176,0.865-6.37,0.346c-1.776-0.418-3.382-1.082-4.82-1.988
			c-1.438-0.907-2.71-1.997-3.815-3.268s-2.042-2.688-2.808-4.25c-0.767-1.561-1.347-3.178-1.74-4.85l0.763-0.411
			c-0.42-1.775-0.617-3.499-0.592-5.17c0.023-1.67,0.229-3.324,0.615-4.959c0.562-2.382,1.439-4.59,2.636-6.627
			c1.195-2.035,2.586-3.902,4.17-5.6l2.228-1.916c0.401-0.447,0.932-0.864,1.59-1.252s1.372-0.749,2.143-1.085
			c0.77-0.336,1.563-0.617,2.381-0.843c0.817-0.226,1.592-0.426,2.324-0.598c1.88-0.444,3.741-0.806,5.584-1.087
			c1.84-0.28,3.92-0.32,6.24-0.118l-0.23-0.277c-4.397-0.594-8.287-0.414-11.668,0.538c-3.381,0.954-6.288,2.4-8.717,4.343
			c-2.432,1.941-4.401,4.227-5.908,6.854c-1.509,2.628-2.582,5.297-3.221,8.006c-0.343,1.449-0.559,2.938-0.648,4.472
			c-0.092,1.531-0.051,3.083,0.122,4.652c-0.507-3.078-0.39-6.183,0.349-9.313c0.727-3.083,1.963-6.021,3.707-8.816
			c1.744-2.794,4.017-5.216,6.82-7.268c3.408-1.907,6.934-3.159,10.577-3.755c3.641-0.596,7.004-0.53,10.088,0.197
			c0.98,0.232,1.946,0.633,2.897,1.202c0.949,0.569,1.766,1.292,2.447,2.168s1.163,1.915,1.447,3.115
			c0.283,1.202,0.244,2.573-0.12,4.114c-0.298,1.262-0.966,2.731-2.002,4.411c-1.038,1.679-2.353,3.23-3.946,4.654
			c-1.594,1.425-3.419,2.522-5.475,3.295c-2.059,0.772-4.254,0.883-6.588,0.332l-2.314-0.546c-1.64-0.781-3.115-1.586-4.424-2.412
			c-1.31-0.828-2.561-1.529-3.756-2.107c-0.363,0.704-0.637,1.392-0.819,2.063c-0.185,0.672-0.353,1.335-0.507,1.988
			c-0.32,1.356-0.48,2.711-0.479,4.067c0,1.358,0.201,2.649,0.602,3.878c0.399,1.229,1.017,2.324,1.852,3.284
			c0.832,0.962,1.951,1.708,3.355,2.235c0.844,0.396,1.59,0.685,2.238,0.86c0.648,0.179,1.19,0.332,1.631,0.459
			c0.438,0.129,0.748,0.275,0.931,0.442s0.235,0.414,0.158,0.74c-0.5,0.03-1.001,0.011-1.503-0.059
			c-0.501-0.068-1.009-0.165-1.521-0.286c-1.637-0.386-3.045-1.001-4.226-1.848c-1.183-0.845-2.157-1.729-2.926-2.65
			c0.821,1.329,1.927,2.391,3.317,3.186c1.389,0.798,2.809,1.367,4.257,1.708c0.794,0.188,1.628,0.311,2.503,0.369
			c-0.161,0.258-0.246,0.411-0.256,0.458c-0.066,0.28,0.006,0.494,0.218,0.643c0.197-0.002,0.556-0.055,1.073-0.155
			c0.515-0.1,1.044-0.197,1.585-0.292c0.54-0.095,1.062-0.168,1.567-0.222c0.506-0.053,0.852-0.057,1.039-0.014
			c0.234,0.055,0.436,0.14,0.606,0.254c0.17,0.114,0.2,0.406,0.091,0.872c-0.111,0.468-0.407,0.99-0.889,1.566
			C468.818,221.467,468.175,222.004,467.365,222.504z M454.08,212.343c-0.239-0.452-0.479-0.902-0.716-1.354
			c-0.203-0.392-0.36-0.775-0.47-1.146C453.128,210.737,453.522,211.57,454.08,212.343z M459.796,196.897
			c0.115-0.071,0.207-0.197,0.275-0.378c0.066-0.182,0.111-0.319,0.133-0.413l-3.012-1.969l-0.582,0.899L459.796,196.897z
			 M464.243,192.473l1.476,0.645c0.491,0.214,0.948,0.371,1.368,0.47c0.467,0.111,1.053,0.089,1.754-0.067
			c0.703-0.154,1.436-0.438,2.198-0.85c0.764-0.412,1.489-0.98,2.178-1.706c0.69-0.725,1.276-1.596,1.765-2.616l0.24-0.388
			c-0.656-0.155-1.676-0.222-3.059-0.204c-1.387,0.019-2.844,0.131-4.371,0.338c-1.529,0.206-2.986,0.528-4.371,0.966
			c-1.387,0.438-2.412,1.021-3.076,1.751c0.666,0.306,1.326,0.597,1.977,0.874C462.97,191.964,463.61,192.226,464.243,192.473z"/>
		
			<path fill="#103653" stroke="#103653" stroke-width="6" stroke-linecap="round" stroke-linejoin="round" stroke-miterlimit="10" d="
			M483.344,215.616c0.387-1.034,0.829-1.842,1.329-2.424c0.499-0.582,1.066-1.035,1.701-1.362c-0.563,0.404-1.092,0.898-1.592,1.481
			c-0.5,0.581-0.9,1.276-1.203,2.086l-2.369,6.339l1.939,1.187c0.578,0.37,1.173,0.697,1.787,0.976
			c0.611,0.28,1.211,0.529,1.795,0.748c0.629,0.235,1.194,0.435,1.698,0.597c0.503,0.163,1.001,0.335,1.497,0.521l5.167,2.009
			l-5.149-1.85l-0.742-0.276c-0.404-0.152-0.848-0.304-1.328-0.458s-0.99-0.333-1.529-0.535c-0.496-0.185-1.027-0.408-1.594-0.671
			c-0.568-0.263-1.141-0.581-1.721-0.952l-2.006-1.21L483.344,215.616z M527.847,214.807c-1.203,0.472-2.577,0.856-4.121,1.15
			c-1.545,0.294-3.113,0.515-4.705,0.662c-1.594,0.147-3.129,0.214-4.609,0.198s-2.789-0.082-3.923-0.199
			c-1.152-0.071-2.21-0.121-3.173-0.148c-0.965-0.026-1.896-0.004-2.795,0.069c-0.898,0.075-1.813,0.194-2.745,0.357
			c-0.934,0.164-1.922,0.409-2.966,0.736c-0.754,0.231-1.371,0.41-1.854,0.537c-0.483,0.127-0.883,0.234-1.196,0.322
			c-0.315,0.086-0.567,0.146-0.759,0.178c-0.191,0.031-0.371,0.067-0.539,0.105l2.353,1.111c1.821,0.887,3.57,1.757,5.249,2.616
			c1.677,0.858,3.372,1.735,5.088,2.632c0.73,0.376,1.158,0.6,1.285,0.673c0.126,0.074,0.258,0.135,0.393,0.185
			c3.602,1.604,6.124,2.74,7.566,3.405c1.441,0.668,2.061,1.271,1.859,1.811c-0.067,0.181-0.133,0.285-0.193,0.312
			c-1.812-0.779-3.535-1.616-5.172-2.51c-1.639-0.894-3.611-1.823-5.915-2.787c-0.85-0.472-1.849-0.986-2.997-1.545
			c-1.15-0.558-2.353-1.11-3.608-1.655c-1.256-0.548-2.517-1.083-3.78-1.606c-1.266-0.524-2.461-0.997-3.583-1.417
			c-1.036-0.388-1.96-0.721-2.778-1c-0.817-0.279-1.491-0.468-2.019-0.563c1.214,0.454,2.644,1.015,4.291,1.682
			c1.646,0.667,3.334,1.363,5.062,2.086c1.729,0.723,3.415,1.455,5.059,2.199c1.645,0.742,3.039,1.432,4.188,2.064l2.232,1.22
			c1.49,0.813,2.911,1.499,4.267,2.056c1.354,0.558,2.808,1.23,4.358,2.014c-0.31,0.14-0.505,0.324-0.589,0.547
			c-0.151,0.405,0.062,0.69,0.642,0.855c0.578,0.166,1.359,0.509,2.344,1.031c0.764,0.697,1.283,1.261,1.555,1.696
			c0.273,0.436,0.36,0.787,0.26,1.057c-0.102,0.27-0.379,0.461-0.83,0.575c-0.453,0.112-0.973,0.135-1.563,0.068l-1.863-0.159
			c-1.727-1.003-3.41-1.877-5.055-2.62c-1.644-0.741-3.436-1.604-5.375-2.586l-1.678-0.858c-1.372-0.717-2.729-1.404-4.071-2.061
			c-1.345-0.656-2.731-1.329-4.165-2.018l-6.947-3.213c-0.479-0.229-1.006-0.464-1.58-0.706c-0.576-0.241-1.18-0.48-1.809-0.715
			l-1.214-0.453c-0.405-0.152-0.841-0.288-1.307-0.412l-1.239-0.386l1.941-5.193c0.521-1.393,1.267-2.358,2.235-2.893
			c0.968-0.533,1.933-0.853,2.894-0.955c0.488-0.073,0.961-0.102,1.416-0.086c-0.092-0.035-0.189-0.043-0.295-0.034
			c-0.76-0.026-1.545,0.052-2.355,0.235c-0.813,0.184-1.588,0.547-2.328,1.089c-0.742,0.543-1.332,1.399-1.768,2.567l-2.061,5.303
			l6.542,2.446l4.038,1.741c2.063,0.924,4.052,1.874,5.969,2.847c1.916,0.974,3.813,1.963,5.691,2.973l2.032,1.145
			c1.64,0.818,3.169,1.595,4.587,2.33c1.416,0.735,2.867,1.508,4.358,2.322c-0.681-0.101-1.412-0.232-2.196-0.399
			c-0.783-0.165-1.625-0.416-2.524-0.752c-0.854-0.319-1.601-0.65-2.242-0.992c-0.642-0.342-1.395-0.725-2.259-1.152l-2.059-1.076
			c-1.49-0.813-2.924-1.567-4.304-2.263c-1.38-0.695-2.868-1.443-4.464-2.245l-0.127-0.894l-5.463-2.042
			c-0.226-0.084-0.477-0.165-0.754-0.244c-0.279-0.078-0.598-0.185-0.957-0.319l-1.687-0.63c-0.585-0.219-1.166-0.449-1.741-0.689
			c-0.576-0.241-1.184-0.532-1.824-0.874l-1.788-0.976l2.193-5.868c0.556-1.484,1.331-2.564,2.327-3.242
			c0.996-0.677,2.023-1.127,3.08-1.347c1.055-0.22,2.068-0.328,3.041-0.322c0.971,0.004,1.733-0.045,2.283-0.147l2.006-0.634
			c2.301-0.676,4.635-1.161,7.001-1.457c2.364-0.294,4.735-0.329,7.112-0.107l1.113,0.108c1.172-0.124,2.389-0.156,3.648-0.097
			c1.258,0.061,2.482,0.006,3.673-0.164l-0.075-0.412c-1.311,0.074-2.604,0.077-3.886,0.008c-1.28-0.069-2.401-0.052-3.361,0.049
			l-1.114-0.108c-2.482-0.21-4.949-0.161-7.397,0.155c-2.45,0.313-4.751,0.812-6.9,1.494l-1.777,0.641l-0.271-0.101
			c-0.135-0.05-0.332-0.072-0.59-0.067l0.802-0.085c3.2-1.159,6.173-1.88,8.917-2.161c2.744-0.281,5.389-0.329,7.934-0.146
			c1.943,0.01,3.52,0.047,4.724,0.113c1.205,0.067,2.372,0.03,3.501-0.113c-1.603-1.06-3.048-1.921-4.338-2.583
			c-1.289-0.661-2.52-1.211-3.688-1.648c-0.586-0.219-1.152-0.417-1.699-0.596c-0.549-0.179-1.1-0.347-1.656-0.505
			c-0.299-0.162-0.605-0.303-0.92-0.42l-0.875-0.328c-1.575-0.589-3.152-0.997-4.729-1.23c-1.579-0.231-3.122-0.321-4.627-0.269
			c0.117-0.314,0.091-0.619-0.081-0.914s-0.198-0.6-0.081-0.915c0.101-0.27,0.53-0.493,1.289-0.671
			c0.759-0.177,2.036-0.135,3.835,0.127L502.22,197c-1.613-0.346-3.016-0.64-4.206-0.881c-1.192-0.239-2.169-0.502-2.934-0.789
			c-0.495-0.185-0.858-0.346-1.087-0.483c-0.231-0.137-0.341-0.359-0.33-0.661c0.034-0.09,0.09-0.171,0.168-0.245
			c0.078-0.073,0.135-0.153,0.169-0.245c1.234-0.563,2.635-0.949,4.2-1.158c1.563-0.209,3.232-0.252,5.005-0.127
			c1.772,0.125,3.604,0.4,5.495,0.825c1.891,0.425,3.78,0.991,5.668,1.697c1.395,0.521,2.914,1.217,4.563,2.089
			c1.646,0.872,3.459,1.883,5.438,3.033c0.398,0.304,0.757,0.579,1.076,0.825c0.316,0.248,0.652,0.514,1.008,0.799
			c0.354,0.287,0.743,0.613,1.171,0.978c0.427,0.364,0.95,0.816,1.569,1.354c-0.028-0.062,0.232,0.165,0.785,0.678
			c0.549,0.514,1.027,1.257,1.434,2.228L527.847,214.807z M493.131,210.206l-1.769,0.414c-0.676,0.158-1.449,0.278-2.326,0.36
			c-0.877,0.083-1.766,0.367-2.662,0.85c1.324-0.94,2.709-1.486,4.148-1.639c1.441-0.153,2.532-0.194,3.273-0.122L493.131,210.206z
			 M494.183,217.056c-0.631-0.236-1.27-0.206-1.918,0.089s-1.141,0.484-1.478,0.563l0.11,0.117c0.273-0.05,0.793-0.138,1.559-0.263
			c0.763-0.124,1.58-0.254,2.451-0.39c0.87-0.136,1.715-0.267,2.531-0.399c0.817-0.129,1.447-0.239,1.893-0.33
			c-0.276,0.051-0.666,0.097-1.168,0.14c-0.504,0.042-1.021,0.093-1.555,0.148c-0.533,0.058-1.029,0.115-1.486,0.175
			C494.663,216.966,494.351,217.017,494.183,217.056z M493.057,212.253c0.865,0.016,1.485-0.137,1.862-0.456l0.506-0.119
			c1.044-0.326,2.135-0.674,3.272-1.044c1.138-0.369,2.287-0.669,3.45-0.901c-1.495,0.159-2.932,0.506-4.31,1.041
			c-1.38,0.535-2.872,0.963-4.478,1.285c-0.275,0.051-0.573,0.094-0.894,0.128C492.663,212.209,492.86,212.231,493.057,212.253z"/>
	</g>
</g>
</svg>
