<?xml version="1.0" encoding="utf-8"?>
<!-- Generator: Adobe Illustrator 15.0.0, SVG Export Plug-In . SVG Version: 6.00 Build 0)  -->
<!DOCTYPE svg PUBLIC "-//W3C//DTD SVG 1.1//EN" "http://www.w3.org/Graphics/SVG/1.1/DTD/svg11.dtd">
<svg version="1.1" id="Calque_1" xmlns="http://www.w3.org/2000/svg" xmlns:xlink="http://www.w3.org/1999/xlink" x="0px" y="0px"
	 width="841.89px" height="81.404px" viewBox="0 -33.222 841.89 81.404" enable-background="new 0 -33.222 841.89 81.404"
	 xml:space="preserve">
<path fill="#F8F9F6" d="M524.712-2.58c-4.514-1.683-9.473-2.614-14.678-2.614c-10.069,0-19.21,3.487-25.987,9.163
	c-6.854-8.524-18.101-14.09-30.826-14.09c-15.78,0-29.297,8.555-34.965,20.707c-2.062-1.113-4.476-1.766-7.067-1.766
	c-0.379,0-0.753,0.024-1.126,0.051c-4.101-14.557-18.968-25.343-36.69-25.343c-15.214,0-28.321,7.953-34.322,19.413
	c-1.079-0.39-2.257-0.609-3.495-0.609c-1.099,0-2.148,0.178-3.126,0.491c-2.494-2.663-6.258-4.358-10.472-4.358
	c-6.032,0-11.138,3.476-12.919,8.287c-6.652-5.156-15.357-8.287-24.897-8.287c-12.725,0-23.973,5.565-30.827,14.09
	c-6.776-5.677-15.919-9.163-25.986-9.163c-5.206,0-10.163,0.93-14.675,2.614c-1.618-17.16-17.86-30.644-37.673-30.644
	c-16.648,0-30.772,9.522-35.822,22.743c-1.853-0.835-3.941-1.316-6.164-1.316c-3.122,0-5.99,0.94-8.285,2.504
	c-2.19-10.799-12.841-19.002-25.678-19.002c-13.934,0-25.286,9.666-26.039,21.827c-5.155-2.329-10.99-3.653-17.176-3.653
	c-7.79,0-15.028,2.086-21.045,5.658C33.1,2.027,30.348,0.655,27.23,0.655c-1.234,0-2.409,0.218-3.486,0.606
	C20.296-7.538,11.027-13.931,0-14.266v62.447h841.89v-65.314c-6.903-6.558-16.741-10.662-27.668-10.662
	c-0.49,0-0.978,0.01-1.464,0.026c-0.023,0.029-0.049,0.056-0.071,0.085c-0.046-0.026-0.092-0.051-0.137-0.077
	c-15.917,0.612-29.271,9.932-34.152,22.708c-1.852-0.835-3.943-1.315-6.166-1.315c-3.121,0-5.989,0.939-8.284,2.505
	c-2.188-10.802-12.838-19.003-25.677-19.003c-11.425,0-21.11,6.5-24.652,15.542c-1.074-0.389-2.25-0.607-3.483-0.607
	c-3.12,0-5.87,1.374-7.542,3.47c-6.017-3.574-13.255-5.658-21.046-5.658c-6.188,0-12.021,1.322-17.177,3.653
	c-0.751-12.164-12.103-21.825-26.041-21.828c-15.13-0.004-24.384,10.305-25.676,19.003c-2.295-1.565-5.164-2.506-8.286-2.506
	c-2.222,0-4.312,0.48-6.163,1.317c-5.049-13.221-19.173-22.742-35.822-22.742c-2.332,0-4.612,0.193-6.828,0.551
	c-6.521,1.193-12.43,3.872-17.254,7.627c-0.048-0.133-0.109-0.259-0.162-0.39C530.614-19.86,525.576-11.745,524.712-2.58z"/>
<g>
	<path fill="#F79927" d="M737.859,13.606c-0.571-0.505-1.365,0.171-1.936-0.334c-0.251,0.366,0.01,0.326,0.336,0.316
		c-0.242,0.193-0.473,0.389-0.321,0.627c0.042-0.004,0.083-0.006,0.124-0.012c0.135-0.061,0.238-0.114,0.344-0.065
		c-0.112,0.029-0.228,0.052-0.344,0.065c-0.034,0.016-0.07,0.031-0.109,0.047c-0.01-0.014-0.006-0.023-0.015-0.035
		c-1.421,0.11-2.562-0.97-4.085-0.659c1.627,0.699,3.383,1.047,5.153,1.021c-0.371-0.413-0.636-0.536-0.355-0.968
		C737.043,13.629,737.471,13.749,737.859,13.606z M729.751,12.021l0.031-0.066c-0.494-0.147-1.055-0.327-1.609-0.343
		c-0.092,0.158-0.121,0.345-0.082,0.523C728.651,12.314,729.226,11.939,729.751,12.021z M725.524,12.473
		c1.182,0.227,2.484,0.188,3.614,0.871c0.189-0.232,0.326-0.01,0.388-0.142c-0.498-0.313-0.958-0.362-1.466-1
		c-0.958,0.681-1.7-0.146-2.572,0.174l-0.097,0.035L725.524,12.473z M747.333,9.636l-0.03,0.066l0.102,0.128
		c0.719,0.011,0.791-0.84,1.072-1.272C747.898,8.935,747.847,9.392,747.333,9.636z M767.218,9.044
		c0.138,0.225,0.01,0.326,0.146,0.551l0.066,0.03c0.285-0.27,0.429,0.119,0.754,0.107l1.806-1.814
		C768.942,7.753,768.339,8.359,767.218,9.044z M754.595,13.564l0.066,0.031c0.417-0.208,0.275-0.595,0.398-0.86
		C754.571,12.749,754.357,13.211,754.595,13.564z M770.729,4.241c-0.563-0.342,0.058-0.296-0.349-0.806
		c-0.484,0.178-0.313,0.499-0.73,0.708C769.893,4.657,770.317,4.612,770.729,4.241z M774.861,35.571
		c-0.016,0.001-0.03,0.004-0.047,0.004c-0.001,0.024,0.004,0.047,0.017,0.063L774.861,35.571z M786.72,24.027
		c-0.012-0.005-0.021-0.006-0.031-0.01c0,0.024,0.002,0.048-0.001,0.076L786.72,24.027z M775.732,11.139
		c-0.019,0.01-0.037,0.021-0.056,0.028c0.008,0.016,0.019,0.021,0.024,0.038L775.732,11.139z M778.563,25.152
		c-0.041,0-0.072,0.013-0.108,0.02c0.004,0.005,0.009,0.009,0.012,0.015L778.563,25.152L778.563,25.152z M730.905,13.521
		c0.172,0.119,0.387,0.161,0.592,0.111c-0.474-0.539-1.091-0.424-1.681-0.536C730.152,13.411,730.631,13.071,730.905,13.521z
		 M792.762,26.425c0.001,0.015-0.004,0.021-0.005,0.036c0.024-0.004,0.047-0.001,0.071-0.006L792.762,26.425L792.762,26.425z
		 M775.177,28.645c0.014,0.017,0.019,0.035,0.029,0.052l0.036-0.021L775.177,28.645z M758.412,26.665l-0.041,0.042
		c0.004,0.007,0.007,0.017,0.012,0.022L758.412,26.665z M758.749,22.642c0.019-0.023,0.042-0.039,0.063-0.061
		C758.787,22.588,758.764,22.608,758.749,22.642z M790.996,1.092l-0.027,0.021c0.031,0.007,0.063,0.012,0.095,0.02
		C791.041,1.117,791.019,1.11,790.996,1.092L790.996,1.092z M764.456,24.722c-0.028,0.021-0.051,0.051-0.063,0.085l0.139-0.082
		C764.506,24.723,764.479,24.725,764.456,24.722L764.456,24.722z M766.07,31.821l-0.021,0.007c-0.001,0.02-0.01,0.038-0.01,0.06
		L766.07,31.821z M734.249,12.898c-0.464-0.214-0.983-0.134-1.473-0.118l0.036,0.097c-0.418,0.209-0.852-0.072-1.305,0.038
		C732.377,13.319,733.382,13.313,734.249,12.898z M771.665,1.7c0.006,0.02-0.002,0.033,0,0.052c0.022-0.009,0.042-0.012,0.066-0.021
		L771.665,1.7z M769.538,0.394c-0.022,0.011-0.038,0.021-0.058,0.032c0.01,0.015,0.018,0.02,0.027,0.034L769.538,0.394z
		 M781.194,6.115c-0.012-0.024-0.023-0.04-0.035-0.06c-0.013,0.009-0.017,0.021-0.031,0.028L781.194,6.115z"/>
	<path fill="#F79927" d="M748.746,32.956c0.106,0.291-0.185,0.397,0.146,0.552c0.586-0.051,0.862-0.646,1.646-0.604
		c-0.244-0.516-0.719-0.012-1.055-0.327c-0.538-0.571-0.686-1.122-0.176-1.529c0.325-0.009,0.56,0.18,0.978-0.029
		c-0.142-0.387,0.012-0.718,0.46-0.992c0.102,0.127,0.173,0.321,0.111,0.453c1.678-0.67,2.748-1.941,4.429-1.404
		c0.021-0.393,0.47-0.666,0.327-1.054c0.494,0.148,1.131-0.359,1.578,0.41c-0.302,0.824-1.391,0.4-1.662,1.158
		c-1.444-1.393-1.907,1.689-3.775,1.386c-0.179,0.561-0.179,0.561-0.623,0.997c-0.168-0.158-0.275-0.449-0.469-0.377
		c0.108,0.291-0.509,0.406-0.011,0.718c0.723,0.174,1.615-0.537,2.281-0.068l0.607-0.442c0.085,0.136,0.125,0.294,0.111,0.454
		c0.353-0.239,0.342-0.565,0.597-0.769l0.407,0.509c0.092-0.197,0.135-0.981,0.663-0.736c-0.088,0.361,0.213,0.581,0.151,0.713
		c-0.315,0.337-0.515,0.244-0.713,0.152c-0.179,0.56-0.358,1.12-0.802,1.557c-0.692-0.239-0.453-0.933-0.432-1.325
		c-0.254,0.204-0.361-0.086-0.585,0.05l-0.169-0.157l-0.061,0.132c-0.021,0.393,0.055,0.749-0.329,1.055
		c-1.188,0.116-2.28,0.715-3.017,1.655c0.444-0.552,0.286,0.303-0.104,0.162c0.051,0.156,0.09,0.313,0.135,0.47
		c0.642-0.165,1.313-0.425,1.875-1.276c0.718,0.012,2.152,1.079,1.622,1.877c0.265,0.123,0.673-0.411,0.993-0.584
		c0.371,0.413,0.82,0.14,1.191,0.553c-0.122,0.264-0.144,0.655,0.029,0.979c0.586-0.051,1.34,0.057,1.646-0.604
		c0.137,0.225,0.01,0.326,0.146,0.551c-0.678,0.248-1.143,1.078-2.019,1.234c-0.22,0.3,0.019,0.652-0.135,0.982
		c0.203,0.255,0.499,0.312,0.755,0.107c-0.139,0.82-0.689,0.967-1.403,1.119c0.22-0.301,0.077-0.688,0.297-0.987
		c-0.569-0.506-1.216-0.323-1.787-0.828c0.547-0.311,0.567-0.703,1.271-1.181c-0.087,0.361,0.336,0.317,0.6,0.44
		c-0.274-0.45-0.115-0.618,0.099-1.081c-1.044-0.001-1.636,0.931-2.598,0.404c-0.145,0.657-0.245,0.529-0.99,0.747
		c-0.304-0.383-0.116-0.616-0.253-0.841c0.479-0.34,0.846-0.09,1.243,0.094c0.052-0.458,0.5-0.733,0.952-0.844
		c-0.781-1.087-2.285-0.095-3.411-0.617c-0.02,0.017-0.026,0.033-0.038,0.05c0.035,0.135,0.08,0.265,0.111,0.399
		c0.063,0.096,0.113,0.188,0.079,0.266l-0.024,0.015c0.118,0.545,0.202,1.095,0.253,1.65c0.134,0.073,0.267,0.104,0.374-0.021
		c-0.034,0.307-0.178,0.287-0.355,0.198c0.034,0.44,0.048,0.882,0.038,1.324c0.092,0.05,0.183,0.103,0.271,0.144
		c0.127-0.102,0.692,0.24,0.58-0.213c0.225-0.138,0.045,0.422,0.464,0.214c-0.244-0.515-0.173-0.321,0.5-0.731
		c0.005,0.162-0.153,0.33-0.016,0.555l-0.771,0.446c-0.167-0.157-0.387,0.143-0.529-0.245l-0.214,0.464
		c-0.137,0.066-0.257,0.164-0.347,0.288c-0.021,0.224-0.04,0.448-0.074,0.673c0.237,0.195,0.092,0.39,0.209,0.709
		c0.356-0.077,0.276-0.595,0.448-0.274c0.207,0.194,0.304,0.379,0.343,0.556c1.328-0.011,2.67,0.276,4.041,0.912
		c0.345,0.156,0.675,0.341,0.996,0.537c0.023-0.014,0.037-0.033,0.063-0.047c0.049,0.058,0.089,0.114,0.126,0.171
		c0.667,0.431,1.281,0.94,1.817,1.533c1.508-1.335,3.187-2.465,4.992-3.358c-0.127-0.071-0.24-0.163-0.338-0.271
		c0.348-0.402,0.556,0.015,0.872-0.32c0.072,0.068,0.127,0.151,0.162,0.244c1.637-0.745,3.354-1.294,5.12-1.636
		c-0.025-0.044-0.054-0.079-0.074-0.134c0.285-0.271,0.515-0.244,0.836-0.417l0.27,0.38c0.088-0.013,0.175-0.033,0.262-0.045
		c0.142-0.176,0.016-0.376-0.017-0.578c0.256-0.203,0.367,0.25,0.591,0.113c-0.041,0.171-0.093,0.304-0.155,0.418
		c3.4-0.397,6.845-0.024,10.081,1.092c0.398-0.147,0.814-0.239,1.238-0.276c0.796-0.677,1.749-1.521,2.517-0.924
		c0.418-0.207,0.113-0.59,0.694-0.804c1.273,0.028,3.258-2.349,4.565-1.18c-1.375-0.155-2.202,1.631-3.741,1.481
		c-0.024,0.229-0.377,0.468-0.174,0.724c-0.234-0.189-0.718-0.012-1.08-0.099c-0.22,0.301,0.117,0.616-0.367,0.794
		c-0.845-0.527-1.585,0.09-2.272,0.801c0.424,0.18,0.842,0.372,1.254,0.576c-0.08-0.056-0.16-0.111-0.252-0.197
		c0.684-0.085,1.387-0.563,2.008-0.516c-0.487,0.419-0.798,0.998-1.32,0.918c2.443,1.091,4.637,2.576,6.521,4.362
		c0.619-0.427,1.3-1.06,1.707-0.341c0.021-0.008,0.037-0.018,0.059-0.025l-0.03,0.066c-0.009-0.017-0.019-0.026-0.028-0.041
		c-0.509,0.195-0.924,0.46-1.319,0.722c0.169,0.167,0.341,0.33,0.504,0.501c0.542-0.323,1.041-0.696,1.362-1.262
		c0.739-0.381,1.687-0.344,1.892-1.133c0.137,0.224,0.483-0.178,0.616-0.116c0.321-0.174,0.479-0.342,0.438-0.602
		c1.076-1.108,4.751-2.621,5.425-4.076c1.16-2.678,3.369-5.19,3.485-7.87c-0.01-0.326-0.355-0.968,0.235-0.855
		c0.122-0.265,0.343-0.564,0.037-0.947c-0.56-0.18-0.602,0.605-0.429,0.927c-0.792,1.884-0.765,3.905-2.509,5.59
		c-0.453,0.11-0.824-0.302-1.313-0.288l1.25-1.832c-0.163,0.006-0.295-0.056-0.366-0.25c0.734-0.544,0.659-1.944,1.385-2.814
		c-0.173-0.321-0.361-0.087-0.503-0.475c-0.081-0.52,0.658-0.9,0.149-1.538l0.576-0.376c-0.977-1.015,0.211-1.671,0.609-2.53
		c-0.238-0.352-0.55,0.146-0.692-0.24c0.107-0.754,0.843-1.298,0.721-2.077c0.626,0.21,0.83,0.465,1.089,1.468
		c-0.316,0.336-0.551,0.146-0.907,0.224c0.178,0.484,0.432,0.28,0.692,0.24c-0.027,1.273,0.368,2.5-0.22,3.596
		c0.147,0.038,0.277,0.127,0.367,0.25c0.734-0.543,0.322-1.217,0.797-1.72c0.097-3.332-0.332-6.745-0.76-10.159
		c-1.062-1.697,0.01-2.969-1.282-4.692c-0.166-1.202-0.954-2.451-0.661-3.602c-0.9-0.658-2.366-1.658-2.08-2.973
		c-2.888-3.252-5.975-5.53-9.289-6.304c0.204,0.13,0.387,0.105,0.629,0.363l-0.065-0.031c-0.551,0.146-0.719-0.011-1.203,0.166
		c-0.005-0.158,0.183-0.233,0.545-0.518c-0.413-0.093-0.83-0.166-1.252-0.212c-1.766-1.22-3.567-1.492-5.411-2.024
		c0.974-3.488,2.833-6.806,4.722-10.19c2.511-3.337,5.643-6.628,7.268-10.136l0.83-0.58c0.123-0.265,0.179-0.56,0.135-0.982
		c-0.128,0.102-0.26,0.041-0.26,0.041c-0.123,0.265-0.251,0.366-0.506,0.569c-0.04-0.26-0.075-0.357-0.366-0.25
		c-0.158,0.167-0.774,0.284-0.602,0.605c0.459,0.052-0.025,0.229-0.438,0.6l-0.689,0.967c-0.254,0.204-0.184,0.397-0.373,0.631
		c0.04,0.26-0.541,0.473-0.663,0.738c0.27,0.286,0.631,0.373,0.315,0.708l-0.464-0.214l-0.592,0.931l0.133,0.061
		c-0.607,0.442-0.889,0.875-1.657,1.322c-0.053,0.458-0.862,0.646-0.558,1.028c0.429,0.118,0.571-0.54,0.836-0.417
		c-0.352,0.239,0.086,0.683-0.235,0.855c-0.824-0.302-0.796,0.676-1.324,0.431c-0.739,0.381-0.399,0.86-0.813,1.231
		c0.103,0.127-0.025,0.229,0.107,0.291c-0.539,0.29-1.034,0.656-1.469,1.088c0.244,0.515-0.796,0.676-0.521,1.125l0.576-0.376
		c0.438,0.444-0.47,0.667-0.729,0.708l-0.352,0.239c0.086,0.682-0.485,1.221-1.123,1.73l0.138,0.225
		c0.192-0.072,0.301,0.219,0.468,0.377c-0.062,0.133-0.373,0.631-0.576,0.376l-0.066-0.031c-0.255,0.204,0.015,0.489-0.338,0.728
		c0.209,0.418-0.698,0.641-0.852,0.972c-0.153,0.331-0.505,0.57-0.398,0.86c0.612-0.279,1.098-1.501,1.646-0.604
		c-0.948-0.037-0.847,1.135-1.667,0.996c-0.078,0.688-0.155,1.375-0.889,1.919c-0.108,0.754-1.051,0.879-1.673,0.832
		c-0.366-0.249-0.81,0.188-1.089-0.424l-0.133-0.062c-0.779,0.121-1.446-0.349-2.291-0.259c-0.291,0.107-0.622-0.046-0.83-0.464
		c-0.193,0.071-0.306-0.383-0.529-0.245c-0.479,0.341-0.806,0.351-1.142,0.034c0.122,0.779-0.59-0.113-0.978,0.029l-0.102-0.128
		c-1.905,0.644-3.651,0.077-5.649,0.919c0.137,0.225,0.335,0.316,0.467,0.378c0.811-0.188,1.528-0.176,2.4-0.495
		c0.225-0.139,0.123-0.266,0.347-0.403c0.143,0.388,0.489-0.014,0.631,0.373l-0.352,0.239c-1.011,1.139-2.924,0.414-3.939,1.39
		c-0.401-0.347-0.922-0.267-1.492,0.273c-0.412-0.673-0.937-0.756-1.522-0.705c-0.98,2.116-2.869,1.162-4.225,1.659
		c0.035,0.097,0.203,0.254,0.142,0.387c-0.352,0.239-0.546,0.31-0.81,0.188c-0.107-0.29,0.373-0.631,0.199-0.952
		c-0.463-0.215-0.028-0.978-0.752-1.152c0.407,0.51-0.108,0.754,0.069,1.238c-0.729,0.707-2.115,1.27-2.55,2.033l0.766-0.609
		c0.07,0.193,0.295,0.057,0.336,0.316l0.264,0.122l0.576-0.376c0.86,0.398,1.589,0.735,2.188,1.174
		c-0.158,0.168-0.718-0.011-0.576,0.377c1.222,0.485,2.076-1.53,3.342-0.622c-1.038,0.162-1.377,1.934-2.262,0.721
		c-0.572,1.583-2.886,1.717-4.16,2.733c0.018,1.697-2.16,0.848-2.896,1.392c-0.025,0.229,0.179,0.484-0.047,0.621l-0.859-0.398
		c0.158-0.168-0.275-0.449-0.05-0.586l0.576-0.375c0.137,0.224,0.248,0.677,0.666,0.469c0.281-0.432-0.591-0.112-0.376-0.576
		c1.452-0.532,2.387-2.028,3.935-1.553c-0.31-0.545,0.367-0.794,0.41-1.578c-0.336-0.316-0.668-0.47-1.06-0.49
		c-0.418,0.208-0.184,0.397-0.505,0.569c0.233,0.189,0.469,0.378,0.314,0.709c-0.285,0.27-1.157,0.589-0.978,0.028
		c-0.168-0.158-0.274-0.449-0.402-0.347c-0.25,0.366,0.271,0.285-0.112,0.591c-0.638,0.508-1.813-0.599-2.863,0.28
		c0.086,0.684-0.582,1.258-1.305,1.084c0.641,0.698-0.425,1.09-1.063,1.599c-0.805,0.35-0.684,1.129-1.529,1.22
		c-0.224,0.137,0.433,0.281,0.279,0.611c-1.015,0.977-1.799,0.935-2.555,1.87c0,0,0.005,0.164-0.062,0.133
		c-0.325,0.01-0.631-0.373-0.982-0.134c-0.098,0.036-0.062,0.133,0.005,0.163c0.815-0.024-0.242,1.736-0.904,1.43
		c0.138,0.225,0.3,0.22,0.469,0.378l0.137,0.224c0.098-0.035,0.266,0.122,0.336,0.317c0.536-0.637,0.867-0.482,1.539-0.895
		c1.611-0.7,2.612-2.167,3.916-2.205l0.646,0.861c-0.748,0.056-0.469,0.667-1.178,0.982c-0.138-0.225-0.331-0.153-0.468-0.378
		c-0.348,0.402-0.745,0.218-0.766,0.61c0.279,0.61-0.26,0.039-0.514,0.243c0.4,0.347-0.607,0.443-0.553,1.191
		c-0.656-0.144-0.771,0.447-1.299,0.202c0.08,0.52,1.134,0.846,1.145,1.172c-0.428-0.117-0.907,0.225-1.243-0.093
		c0.016-0.556-0.324-1.035-0.839-0.791c0.343,0.225,0.53,0.622,0.487,1.029c-0.444,0.438-1.382,0.728-1.499,1.154
		c0.325-0.009,0.652-0.02,0.926,0.429c0.54-0.473,0.871-0.319,1.355-0.497c0.04,0.261,0.539,0.571,0.249,0.679
		c-0.51,0.406-1.428,0.303-1.668,0.995c0.459,0.053,0.214,0.581,0.708,0.729l-0.792,0.84c-0.214,0.463,0.753,1.152-0.082,1.568
		c0.167,0.158,0.355-0.076,0.55-0.147c0.371,0.414,0.35,0.807,0.395,1.229c-0.52,0.081-0.406-0.51-0.931-0.592
		c-0.321,0.173-0.185,0.397-0.474,0.503c0.3,0.22,0.258,1.004-0.354,1.284l0.393,0.021c0.515-0.244,1.237-0.069,1.152-0.753
		c0.459,0.053,0.214,0.582,0.707,0.729c-0.643,0.347-0.785-0.041-0.826,0.743c-0.193,0.07-0.361-0.088-0.586,0.051l0.133,0.061
		c-0.612,0.278-0.576,0.376-1.152,0.752c0.019,0.652,0.399,1.392-0.237,1.899c0.169,0.158,0.336,0.316,0.595,0.276
		c0.098-0.035,0.225-0.138,0.229,0.026c0.378-0.469-0.142-0.388-0.224-0.907c0.429,0.117,0.256-0.204,0.348-0.403
		c0.383-0.305,0.499,0.313,0.847-0.09c0.127-0.102,0.122-0.265,0.347-0.401c-0.372-0.413-0.642-0.699-0.264-1.167
		c0.024,0.814,0.804,0.693,0.405,1.554c0.876-0.156,1.249-0.787,1.764-1.031c0.305,0.383,0.479,0.703,0.487,1.029
		c-0.325,0.01-1.096,0.457-0.693,0.804c0.49-1.059,1.369-0.008,2.149-0.129c-0.202-0.255-0.499-0.312-0.737-0.663
		c0.188-0.234,0.708-0.315,0.571-0.539c-0.331-0.153-0.447-0.77-0.972-0.852c0.812-1.232,1.948-1.429,2.91-0.902
		c-0.78,0.12-0.848,1.134-1.892,1.133c0.172,0.32-0.099,1.079,0.695,1.447c-0.026,0.229,0.178,0.484-0.077,0.687
		c-0.138-0.224-0.479,0.342-0.622-0.045c-0.046,0.62-0.652,1.063-0.439,1.644c0.233,0.188,0.575-0.375,0.753,0.108
		c0.05,0.585-0.984,0.91-1,1.466c-0.753-0.108-0.727-1.382-1.659-0.931c1.14,1.01-0.582,1.258-1.062,1.599
		c0.116,0.616,0.809,0.857,1.348,1.428c-0.271,0.417-0.261,0.225-0.66,0.453c0.056,0.102,0.102,0.205,0.154,0.308
		C748.452,32.958,748.601,32.775,748.746,32.956L748.746,32.956z M753.143,34.913c-0.515,0.245-0.671-0.632-0.416-0.835
		C753.282,34.093,753.521,34.447,753.143,34.913z M753.592,41.231c-0.26,0.041-0.432-0.281-0.753-0.108
		c-0.076-0.356,0.663-0.737,0.77-0.447l0.066,0.031l0.03-0.065C753.909,40.895,753.914,41.059,753.592,41.231z M800.666,38.684
		c0.401,0.348-0.606,0.443-0.302,0.825l0.066,0.032c-0.291,0.105-0.429-0.119-0.6-0.44C800.049,38.801,800.268,38.5,800.666,38.684
		L800.666,38.684z M751.225,8.869c-0.3-0.221-0.188-0.811,0.047-0.622l0.255-0.204l-0.067-0.031
		c-0.045-0.423,0.692,0.241,0.539,0.572C751.577,8.63,751.683,8.919,751.225,8.869z M752.479,8.244
		c-0.01-0.326-0.102-0.128-0.341-0.479c0.225-0.138,0.22-0.301,0.215-0.464c0.26-0.04,0.534,0.409,0.586-0.05
		c0.193-0.071-0.052,0.458,0.151,0.713C752.927,7.969,752.668,8.009,752.479,8.244z M753.864,5.428
		c-0.02-0.651,0.999-0.422,0.754,0.108C754.362,5.74,754.119,5.226,753.864,5.428z M755.634,27.628
		c-0.361-0.086-0.819-0.138-1.217-0.322c-0.312,0.499-0.944,1.171-1.545,0.731c-0.298-1.263,1.77-0.868,1.965-1.983
		c-0.27-0.285-0.656-0.143-0.926-0.429c0.367-0.794,0.95-2.052,1.998-1.888c0.057-0.295-0.799-0.53-1.191-0.552l0.031-0.065
		c-0.417,0.208-0.728-0.338-1.034,0.324c0.056-0.296,0.103-0.916,0.505-0.57c0.479-0.34,1.097-0.456,1.138-1.24
		c0.581-0.214,1.172-0.101,1.605-0.863c0.051,0.585,0.539,0.57,0.62,1.091c-0.414,0.37-0.893,0.712-1.076,1.109
		c1.134,0.846-0.237,1.899-0.813,2.274l0.883,1.213C756.002,26.833,756.276,27.283,755.634,27.628z M753.319,19.964
		c0.081-0.524-0.458-1.096,0.062-1.177l0.616-0.117c0.148-0.461,0.447-0.859,0.848-1.134c0.488-0.014,0.966,0.688,0.752,1.152
		c-0.505,0.57-1.437-0.022-1.938,0.71l-0.065-0.03C753.665,19.564,753.574,19.761,753.319,19.964z M752.888,17.596
		c0.046,0.423-0.595-0.275-0.724-0.174c-0.274-0.449,0.73-0.708,1.061-0.555l-0.035-0.097c0.215-0.462,0.623-0.997,1.275-1.017
		c0.269,0.286,0.08,0.52,0.218,0.745c-0.576,0.375-1.03,0.487-1.52,0.501c-0.189,0.233-0.321,0.173-0.516,0.244
		C752.491,17.412,752.695,17.665,752.888,17.596z M753.106,15.043c0.45-1.318,1.259-0.461,0.962,0.526
		C753.615,15.681,753.379,15.493,753.106,15.043z M756.218,15.441c-0.006-0.162,0.815-1.067,0.968-0.355
		c0.571-0.538,0.733-0.543,0.979-1.072c0.296,0.056,0.702,0.566,0.58,0.831c-0.383,0.305-0.739,0.381-0.978,0.029
		c-0.189,0.234-0.734,0.543-0.562,0.865c-0.325,0.009-0.596-0.275-0.854-0.236l-0.241,0.692c-0.396-0.184-0.82-0.138-1.191-0.552
		C755.423,15.073,755.759,15.39,756.218,15.441z M756.323,13.48c-0.011-0.325,0.546-1.354,0.958-0.681
		C756.761,12.879,756.868,13.169,756.323,13.48z M762.674,9.83c-0.286,0.271-0.393-0.02-0.643,0.347
		c-0.245-0.515-0.661-0.307-0.952-0.2c-0.255,0.203,0.331,0.153,0.178,0.484c-0.286,0.27-0.896-0.496-0.907,0.223
		c-0.393-0.021-0.184-0.647-0.224-0.907c0.423-0.046,0.603-0.604,0.95-1.007c0.354-0.076,0.079,0.52-0.013,0.718
		c0.204,0.256,0.647-0.183,0.53,0.245c0.184-0.396,0.536-0.636,1.152-0.752C762.853,9.272,762.206,9.454,762.674,9.83z
		 M772.231,8.632c-0.26,0.042-0.137-0.224-0.239-0.351c-0.101-0.128-0.229-0.025-0.355,0.075c-0.371-0.412,0.438-0.601,0.505-0.569
		C772.476,8.104,772.058,8.312,772.231,8.632L772.231,8.632z M772.493,7.548c0.321-0.172,0.677-0.248,0.973-0.191
		C773.475,7.683,772.578,8.232,772.493,7.548z M770.824,9.588c0.367,0.25,0.702,0.566,1.125,0.521
		c-0.042,0.784,0.313,1.752,1.174,2.151c0.182,0.647,0.003,1.206,0.119,1.823c0.199,0.093,0.224-0.138,0.285-0.27
		c0.198,0.093,0.076,0.356,0.569,0.504c-0.677,0.25-0.082,0.526,0.153,0.715c-0.18,0.56-1.127,0.522-1.08-0.099l-0.576,0.376
		c0.62,1.091,1.63-0.048,2.271,0.65c-0.108,0.754-1.096,0.457-1.271,1.18c-0.717-0.01-2.107,0.39-2.374,1.312
		c0.569,0.504-0.043,0.784,0.003,1.206c-1.075,0.064-2.198,1.796-3.236,0.913c0.296,0.057,0.735-0.544,1.066-0.391
		c0.347-0.402-0.192-0.974,0.46-0.992c-0.429-0.119-0.708-0.729-1.196-0.716c0.571-0.539,1.514-0.664,1.291-1.571
		c-0.331-0.153-0.719-0.011-0.992-0.46c0.347-0.402,0.79-0.84,1.319-0.595c0.221-0.3,0.012-0.718-0.13-1.104
		c-0.688-0.078-1.528,0.176-2.068-0.395l0.215-0.465c1.528-0.176,2.421-0.888,3.72-1.09c-0.248-0.677-0.095-1.008-0.757-1.314
		l-0.79,0.84c-0.429-0.118-0.188-0.811-0.702-0.567c0.184-0.397,0.679-1.292,1.274-1.017c0.21-0.626-0.279-0.612-0.742-0.826
		c-0.193,0.071-0.093,0.199-0.021,0.393c-0.458-0.052-0.86-0.399-1.19-0.552c-0.25,0.365-0.98,1.073-1.382,0.726
		c-0.449,0.275-0.144,0.657-0.296,0.987c-1.291,0.528-1.236-2.018-0.233-1.231c0.417-0.209-0.015-0.49,0.438-0.602
		c-0.173-0.32-0.432-0.28-0.692-0.24c0.22-0.3-0.187-0.81-0.064-1.074c0.8-0.514,1.112-1.013,1.937-0.711
		c0.92-1.984,1.945,0.66,2.801,0.896C771.457,8.918,770.912,9.227,770.824,9.588z M777.799,3.901
		c-0.113,0.59-0.814,0.024-1.202,0.165c0.057-0.295,0.342-0.563,0.76-0.772c0.168,0.158,0.388-0.142,0.529,0.245
		C777.561,3.547,777.478,4.073,777.799,3.901L777.799,3.901z M778.257,4.994c0.146,0.551,0.049,0.587,0.513,0.801
		c-1.115-0.195-2.049,1.301-3.021,0.449c0.475-0.504,0.774-0.284,1.232-0.233L778.257,4.994z M780.167,2.262
		c-0.384,0.306-0.592-0.112-0.917-0.103C779.234,1.671,779.988,1.778,780.167,2.262z M780.977,8.665
		c-0.378,0.469-1.107,1.176-1.555,0.406c0.025-0.229,0.281-0.433,0.602-0.605c-0.564-0.342-1.146-0.13-1.583-0.573
		c-0.439,0.601-0.928,0.615-1.448,0.696l0.05,0.585c-0.58,0.213-1.186-0.389-1.65,0.441l-0.03,0.065
		c-0.198-0.092-0.469-0.377-0.729-0.337c0.689-0.967,2.89-1.555,4.058-1.817c0.158-0.168-0.341-0.479-0.381-0.738
		C779.625,6.031,779.682,9.031,780.977,8.665L780.977,8.665z M780.762,1.494c0.087-0.361,0.806-0.35,1.085,0.263
		C781.424,1.801,781.093,1.648,780.762,1.494z M781.194,6.115l-0.066-0.031c0.015-0.008,0.019-0.02,0.03-0.028
		c-0.194-0.327-0.372-0.144-0.534-0.445c0.284-0.271,0.554,0.015,0.84-0.255c-0.088,0.19-0.031,0.521-0.306,0.7
		C781.169,6.075,781.182,6.091,781.194,6.115L781.194,6.115z M783.374,13.555c0.544,0.734,0.145,1.595-0.599,1.813
		c-0.341-0.479,0.417-0.209,0.144-0.657c-1.614-0.507-2.6,1.447-4.337,1.207C779.521,14.583,782.384,14.302,783.374,13.555
		L783.374,13.555z M783.995,7.011c0.208,0.418-0.348,0.402-0.638,0.508C783.016,7.039,783.774,7.311,783.995,7.011z M781.929,18.751
		c0.82,0.141,1.526-1.382,2.268-0.557c0.255-0.203-0.244-0.515-0.152-0.712c1.269-0.137,2.1-0.716,3.323-1.274
		c-0.098,1.08-1.82,1.327-2.342,2.451c-0.106-0.29-0.269-0.285-0.371-0.413c-0.688,0.968-1.457,0.37-2.11,1.434l-0.499-0.311
		l-0.031,0.065c-0.674,0.411-0.729,0.707-1.314,0.757C781.165,19.363,781.69,19.445,781.929,18.751L781.929,18.751z M785.807,14.199
		c0.392,0.021,0.76,0.271,1.207-0.004c-0.505,0.57-0.781,1.166-1.087,1.828c-0.617,0.115-1.028-0.557-1.558-0.802
		c0.215-0.464,1.061-0.555,1.453-0.533C785.913,14.49,785.654,14.531,785.807,14.199z M789.851,20.736
		c-0.585,0.051-0.987-0.297-1.553,0.405c-0.494-0.148,0.052-0.459-0.478-0.703c0.396,0.184,1.003-0.259,1.218-0.722
		c0.27,0.285,0.651-0.021,0.927,0.43C789.674,20.252,789.649,20.481,789.851,20.736z M796.682,13.452
		c-0.076,0.688-1.467,0.043-0.63-0.373C796.219,13.238,796.422,13.491,796.682,13.452z M797.601,12.511l-0.638,0.508
		C796.592,12.606,797.388,11.929,797.601,12.511z M795.609,16.812c-1.382,0.727-1.577,1.842-2.881,1.88
		C792.434,17.591,794.885,16.638,795.609,16.812z M794.34,20.242l-0.031,0.066c0.021-0.392-0.045-0.423-0.33-0.153l-0.474-0.54
		C793.98,19.111,794.917,19.867,794.34,20.242z M785.939,28.488c-0.356,0.076-0.631-0.373-1.044-0.001
		c-0.245-0.515,0.806-0.351,0.592-0.932c0.347-0.402,1.11,0.032,1.162-0.428c0.285-0.269,0.401,0.349,0.656,0.145
		c-0.025,0.229-0.28,0.432-0.729,0.707l-0.238-0.352C785.92,27.834,786.388,28.213,785.939,28.488z M788.143,22.516l0.031-0.067
		c-0.215,0.464-0.302,0.826-0.856,0.809C787.236,22.74,787.725,22.723,788.143,22.516z M787.799,24.125
		c0.418-0.208,0.723,0.174,1.142-0.034c-0.021,0.393-0.404,0.696-0.623,0.997l-0.03,0.066
		C787.758,24.909,787.681,24.553,787.799,24.125z M787.415,26.517c0.447-0.273,0.754,0.109,1.059,0.491
		C788.227,27.538,787.241,27.24,787.415,26.517z M790.599,21.724c0.209-0.626,1.041-1.205,1.55-0.567
		C791.807,21.721,791.175,21.349,790.599,21.724z M793.884,14.808c0.255-0.203,0.556,0.017,0.855,0.235
		C794.388,15.281,794.118,14.996,793.884,14.808z M792.36,19.487c-0.692-0.241-1.555,0.405-2.268,0.557
		c0.129-1.145,1.632-1.092,2.168-1.729C792.212,18.936,792.412,19.028,792.36,19.487z M781.78,27.925
		c-0.3-1.264,1.33-1.312,2.237-1.534c0.076,0.357,0.086,0.683-0.23,1.019c-0.208-0.418-0.494-0.148-0.729-0.338l-0.065-0.03
		C782.941,27.5,782.197,27.716,781.78,27.925z M779.46,28.941c-0.265-0.122,0.047-0.621-0.341-0.479
		c0.271-0.759,1.63-0.049,1.667-0.997c0.142,0.388,0.488-0.014,0.601,0.44l-0.245,0.528c-0.388,0.143-0.709,0.315-0.947-0.037
		l0.03-0.066C780.01,28.794,779.683,28.805,779.46,28.941z M778.701,29.713c-0.644,0.347-0.535-0.407-0.969-0.688
		c0.199,0.093,0.491-0.014,0.662,0.307C777.885,29.739,778.593,29.424,778.701,29.713z M779.161,27.677l-1.054-0.326
		c1.068,0.816-1.122,0.687-1.29,1.572c-0.479,0.34-0.82-0.139-1.243-0.094c-0.086-0.683,1.111-1.013,1.452-0.533
		c0.348-0.401-0.045-0.423-0.249-0.677c0.714-0.152,1.852-1.395,2.722-0.669c0.184-0.396-0.407-0.511-0.479-0.704
		c0.098-0.035,0.587-0.05,0.479-0.34c0.655,0.143,0.886,0.168,1.874-0.413c-0.02-0.011-0.042-0.021-0.06-0.033l0.065,0.03
		l-0.006,0.003c0.26,0.15,0.733,0.224,0.874,0.444c-0.02-0.736,0.882-1.896,1.226-0.281
		C782.331,26.735,780.518,26.135,779.161,27.677z M770.307,28.399c0.556,0.017,0.983,0.134,1.564-0.08
		c0.223-0.137,0.315-0.335,0.082-0.523c1.238-0.07,1.367-1.216,2.421-0.888c0.353-1.284,1.508-0.829,2.599-1.448
		c0.549,0.897-1.678,1.714-2.359,1.8c-0.108,0.754-0.95,1.007-1.79,1.261l-0.591-0.113c-0.193,0.071-0.444,1.481-1.407,0.956
		l0.092-0.199C771.102,28.766,770.45,28.785,770.307,28.399z M766.222,29.238c-0.244-0.515-0.531-0.245-0.855-0.235
		c-0.02-0.652,0.75-1.1,1.189-1.7c-0.052,0.459,0.463,0.215,0.845-0.09l0.611,0.765C767.375,28.485,766.692,28.572,766.222,29.238z
		 M766.48,30.241c-0.325,0.011-0.683,0.086-0.922-0.266C765.88,29.803,766.175,29.861,766.48,30.241z M768.035,26.541
		c-0.292,0.107-0.393-0.02-0.367-0.25c-0.343,0.564-1.315,0.757-1.824,0.12l2.021-2.279c-0.468-0.378-1.044-0.001-1.568-0.084
		c0.343-0.564,2.472-1.346,2.53-2.685c0.669-0.576,1.432-0.142,2.123,0.099c-0.144,0.657-0.953,0.845-1.683,1.551
		c-0.321,0.174,0.147,0.551-0.174,0.724c0.729,0.337,1.528-0.176,2.374-0.266c0.167,0.157,0.239,0.351,0.015,0.488
		c0.84-0.255,2.469-2.553,3.913-1.161c-0.453,0.111-0.347,0.402-0.638,0.509c-0.295-0.056-0.142-0.387-0.661-0.307
		c-0.506,0.57-1.041,1.206-1.805,0.771c-0.387,0.142-0.052,0.459-0.307,0.662c-0.52,0.08-0.591-0.113-1.096,0.457
		C770.054,24.262,768.229,25.426,768.035,26.541L768.035,26.541z M765.726,26.839c-0.313,0.498-0.398-0.185-0.714,0.151
		C764.646,26.74,765.65,26.481,765.726,26.839z M771.879,18.759c0.388-0.142,0.708-0.315,0.917,0.104
		C772.741,19.157,772.124,19.275,771.879,18.759z M771.914,20.943c-0.291,0.107-0.647,0.184-0.944,0.127
		c0.123-0.265,0.515-0.244,0.699-0.642C771.904,20.617,771.841,20.75,771.914,20.943z M777.802,9.447
		c0.376-0.468,0.655,0.144,1.1-0.294c0.27,0.286-0.087,0.362,0.115,0.616C778.596,9.815,778.081,10.059,777.802,9.447z
		 M777.47,10.336c-0.133-0.061-0.326,0.011-0.484,0.179c-0.27-0.286,0.271-0.76,0.5-0.733
		C777.491,9.945,777.333,10.114,777.47,10.336z M776.389,14.578c0.29-0.106,0.612-0.279,0.754,0.108
		C776.887,14.889,776.592,14.833,776.389,14.578z M775.877,16.029c-1.014-0.067-0.221-1.95,0.491-1.059
		C776.576,15.389,776.357,15.69,775.877,16.029z M778.549,18.07c0.611-0.278,1.075-0.063,1.655-0.276
		c0.158-0.169-0.102-0.128-0.238-0.353c0.52-0.081,1.146-0.915,1.553-0.405c0.143,0.387-1.289,0.526-0.628,0.834
		c-0.836,0.416-2.318,1.016-3.078,1.788C777.167,18.797,778.803,18.911,778.549,18.07z M781.861,20.811
		c0.647-0.184,0.045,0.422,0.381,0.738l0.066,0.031c-0.326,0.01-0.591-0.114-0.907,0.223
		C781.157,21.287,782.338,21.514,781.861,20.811z M788.733,16.037c-0.192,0.072-0.233-0.188-0.203-0.254
		c-0.132-0.062-0.29,0.106-0.397-0.184c0.225-0.139,0.397,0.184,0.714-0.152C789.28,15.727,788.464,15.751,788.733,16.037z
		 M786.712,19.36c-0.516,0.244-0.506,0.57-0.954,0.845c-0.203-0.255-0.341-0.479-0.279-0.611
		C786.029,19.446,786.204,18.722,786.712,19.36z M786.333,20.872c0.233,0.189-0.012,0.718,0.468,0.378
		c0.169,0.158,0.01,0.326,0.177,0.484c-0.061,0.132-0.132-0.061-0.264-0.122c-0.524-0.083-1.101,0.293-1.682,0.506l-0.146-0.55
		C785.613,21.906,785.457,21.031,786.333,20.872z M784.993,20.816c-0.062,0.132-0.769-0.597-1.069-0.816
		C784.374,19.725,784.623,20.401,784.993,20.816z M784.472,21.94c-0.021,0.392-0.012,0.718,0.223,0.906
		c-0.343,0.565-2.313,0.135-2.441,1.279c-0.616,0.117-1.26,0.463-1.845,0.514C781.063,23.574,782.896,22.738,784.472,21.94z
		 M780.004,25.336c-0.393-0.021-0.605,0.441-1.029,0.488l-0.376-0.576c0.056-0.297,0.484-0.179,0.831-0.58
		C779.604,24.989,779.828,24.852,780.004,25.336z M778.057,23.468l-0.239-0.352c0.947,0.038,1.618-1.582,2.421-0.888
		C779.8,22.83,779.025,23.114,778.057,23.468z M778.563,25.152l-0.097,0.034c-0.004-0.006-0.01-0.008-0.012-0.015
		c-0.548,0.107-0.647,0.811-1.124,0.213l0.123-0.265c0.315-0.171,0.759-0.278,1.001,0.052
		C778.491,25.164,778.523,25.153,778.563,25.152L778.563,25.152z M778.799,20.999c-0.229-0.025-0.397-0.184-0.57-0.505
		c0.286-0.27,0.423-0.046,0.678-0.249c-0.122,0.265,0.147,0.551-0.173,0.724L778.799,20.999z M777.658,24.33
		c-0.192,0.07-0.4-0.348-0.585,0.05c-0.401-0.348,0.016-0.556-0.157-0.877C777.365,23.229,777.19,23.951,777.658,24.33z
		 M779.402,20.394c0.021-0.393,0.642-0.345,0.836-0.417c0.269,0.287,0.472,0.541,0.416,0.837
		C780.2,20.925,779.855,20.282,779.402,20.394z M777.637,21.426c-0.408,0.534-1.355,0.498-1.525,1.384
		c-0.238-0.353-0.697-0.404-0.646-0.862C776.271,21.598,776.976,21.119,777.637,21.426L777.637,21.426z M773.411,24.129
		c0.291-0.106,0.464,0.215,0.745-0.218c0.34,0.479,0.437,0.443,0.939,0.917c-0.061,0.134-0.122,0.266-0.021,0.393l-0.066-0.03
		C774.315,25.996,773.501,24.975,773.411,24.129L773.411,24.129z M773.709,25.393l-0.066-0.031c-0.377,0.469-0.678,0.25-0.999,0.421
		c-0.203-0.255-0.146-0.55,0.139-0.819C772.997,25.544,773.435,24.944,773.709,25.393z M772.12,25.701
		c0.336,0.316,0.086,0.684,0.029,0.979c-0.765,0.61-1.258-0.582-2.145,0.292l-0.605-0.603
		C770.168,25.922,770.964,25.247,772.12,25.701z M772.123,30.205c-0.284,0.27-0.646,0.182-0.916-0.104
		C771.558,29.863,771.823,29.985,772.123,30.205z M773.105,31.383c0.101,1.171-2.188,1.076-2.805,2.236l-0.274-0.448
		C771.306,32.316,772.238,31.865,773.105,31.383z M773.377,29.58c0.567-0.371,1.052-0.394,1.831-0.883
		c-0.012-0.017-0.016-0.036-0.031-0.053l0.066,0.031l-0.035,0.021c0.29,0.417-0.21,1.067,0.202,1.182
		c-0.087,0.361-0.943,0.126-0.791,0.839l-0.876,0.157c-0.173-0.321,0.148-0.494,0.377-0.469
		C773.917,30.152,773.264,30.17,773.377,29.58L773.377,29.58z M773.996,31.715c-0.203-0.255,0.184-0.397-0.05-0.586l0.876-0.156
		C774.996,31.293,774.291,31.77,773.996,31.715z M774.198,33.014c0.152,0.713-0.588,1.095-1.204,1.211
		C773.208,33.761,773.688,33.419,774.198,33.014z M772.133,33.826c0.411,0.672,1.323,0.613,1.215,1.366
		c-0.163,0.005-0.3-0.219-0.488,0.015c-0.214-0.581-0.279-0.611-0.835-0.627C771.69,34.263,772.174,34.085,772.133,33.826z
		 M774.684,35.087c0.397-0.098,0.134,0.3,0.13,0.487c0.017,0,0.03-0.004,0.047-0.004l-0.03,0.066
		c-0.013-0.019-0.019-0.041-0.017-0.063c-0.756-0.029-1.266,0.21-1.889,0.707C772.865,35.371,774.5,35.485,774.684,35.087z
		 M775.038,30.509c0.179-0.561,1.004-0.258,1.216,0.322C775.616,31.34,775.369,30.662,775.038,30.509z M776.541,29.517
		c0.353-0.238,0.493,0.148,0.814-0.024c0.203,0.256-0.244,0.53-0.5,0.733C776.586,29.94,776.515,29.747,776.541,29.517z
		 M785.087,26.164l0.03-0.066c0.015,0.489-0.611,0.279-0.837,0.416C784.237,26.091,784.858,26.137,785.087,26.164z M783.683,25.031
		c0.099-1.079,1.672-0.832,2.427-1.769c0.224,0.33,0.578,0.373,0.579,0.755c0.01,0.004,0.02,0.005,0.031,0.01l-0.032,0.066
		c0.004-0.03,0.001-0.051,0.001-0.076C785.708,23.606,784.757,25.289,783.683,25.031L783.683,25.031z M786.971,19.321
		c-0.137-0.225-0.01-0.325-0.146-0.551c1.315-0.756,1.917-1.36,3.018-1.654c0.336,0.315,0.243,0.515,0.447,0.769
		C789.214,17.948,788.098,18.797,786.971,19.321z M790.394,12.627c-0.215,0.463-1.086-0.262-0.739,0.381l0.066,0.03l-0.815,0.024
		c-0.228-1.069,1.407-0.956,1.937-0.71C790.627,12.816,790.084,12.081,790.394,12.627z M782.201,8.108
		c-0.138-0.225-0.011-0.325-0.178-0.484c0.383-0.305,0.616-0.116,0.906-0.223C782.969,7.66,782.525,8.099,782.201,8.108z
		 M783.421,5.299l-0.377-0.576c0.321-0.173,0.524,0.081,0.855,0.234C783.813,5.32,783.772,5.06,783.421,5.299z M782.037,8.113
		l0.03-0.065c-0.047,0.622-1.152,0.751-0.978,0.029C781.436,7.673,781.71,8.123,782.037,8.113z M776.099,10.346
		c0.256-0.203,0.397,0.185,0.616-0.116c0.041,0.259-0.147,0.493-0.565,0.702C775.785,10.68,776.496,10.531,776.099,10.346z
		 M775.732,11.139l-0.031,0.066c-0.006-0.018-0.017-0.021-0.024-0.036c-0.302,0.161-0.605,0.317-0.913,0.325
		c-0.04-0.259,0.148-0.493,0.5-0.732c0.101,0.272,0.301,0.182,0.413,0.407L775.732,11.139z M774.746,9.797
		c-0.448,0.275-1.355,0.498-1.345-0.221C773.88,9.238,774.701,9.375,774.746,9.797z M774.291,7.657
		c-0.469-0.377,0.362-0.956,0.576-0.375L774.291,7.657z M764.607,25.437c-0.682,0.086-1.963,0.938-2.185,0.032
		c0.677,0.02,1.366-0.313,1.97-0.662c0.012-0.033,0.034-0.063,0.063-0.084c0.023,0.002,0.051,0.001,0.076,0.002
		c0.331-0.196,0.634-0.391,0.889-0.521c-0.103-0.127-0.26,0.041-0.387,0.143c0.045-0.621,0.737-0.381,0.982,0.134
		c-0.55,0.202-1.043,0.281-1.483,0.244l-0.139,0.082C764.32,25.005,764.688,25.262,764.607,25.437z M762.992,22.679
		c0.418-0.208,0.371,0.413,0.478,0.704c-0.254,0.203-0.423,0.044-0.714,0.15C762.583,23.213,763.001,23.004,762.992,22.679z
		 M765.675,19.661c-0.04-0.26,0.77-0.447,0.107-0.755c0.418-0.208,0.637,0.536,0.968,0.69c-0.087,0.361-0.148,0.493-0.571,0.539
		c0.376,0.576,0.987,0.296,1.369,1.035c-0.766,0.61-1.132,0.36-1.796,1.099c-0.247-0.679,0.272-0.759,0.69-0.967
		C766.285,20.426,765.628,20.283,765.675,19.661L765.675,19.661z M767.436,17.423c-0.322,0.173-0.616,0.116-0.969,0.354
		C766.021,17.008,767.253,16.776,767.436,17.423z M767.381,16.675c0.32-0.173,0.651-0.02,0.946,0.037
		c0.041,0.259-0.112,0.59-0.53,0.798C767.461,17.195,767.716,16.99,767.381,16.675z M768.487,12.203
		c-0.336-0.316-0.544-0.735,0.037-0.947c0.168,0.158,0.284,0.774,0.539,0.571C769.241,12.312,768.748,12.164,768.487,12.203z
		 M765.638,12.974c0.296,0.057,0.315,0.709,0.835,0.628c0.08,0.52-0.377,0.468-0.704,0.478
		C765.301,13.702,765.063,13.349,765.638,12.974z M764.307,14.285c-0.137-0.225,0.479-0.341,0.638-0.509
		c0.199,0.093,0.401,0.348,0.662,0.308C765.494,14.676,764.72,13.916,764.307,14.285z M763.996,14.785
		c-0.6-0.439-1.641,0.767-1.998,0.842c-0.366-0.249-0.203-0.254-0.478-0.703c0.501-0.732,1.479-0.762,2.131-0.781
		C763.884,14.332,763.925,14.591,763.996,14.785z M758.229,19.426c-1.009,0.096-1.07,0.228-1.548-0.476
		c0.057-0.296,0.343-0.565,0.694-0.805c0.569,0.506,1.422-0.466,1.838,0.371c0.933-0.452,0.598-0.77,1.244-0.952
		c-0.057,0.296,0.366,0.25,0.544,0.734c-0.827,0.531-1.813,0.755-2.787,0.639L758.229,19.426z M758.911,16.047l0.448-0.276
		c0.234,0.189,0.429,0.118,0.631,0.374c-0.315,0.336-0.631,0.671-0.826,0.741c-0.265-0.122-0.586,0.05-0.855-0.234
		C758.83,16.571,758.381,15.801,758.911,16.047z M761.522,10.583c0.036,0.098,0.194-0.071,0.29-0.105l0.341,0.479
		c-0.209,0.626-0.836,0.417-1.192,0.492C760.747,10.869,761.537,11.073,761.522,10.583z M760.006,15.589
		c0.316-0.336,0.521-0.081,0.836-0.417c0.203,0.256,0.275,0.449,0.249,0.679C760.637,15.962,760.312,15.971,760.006,15.589z
		 M761.751,17.2c-0.142-0.387-0.418,0.209-0.53-0.245c0.229,0.026,0.515-0.243,0.753,0.108c0,0.015-0.002,0.027-0.006,0.041
		c-0.055,0.276-0.323,0.456-0.6,0.401l0,0C761.33,17.245,761.563,17.435,761.751,17.2z M766.027,5.197
		c-0.233-0.188-0.076-0.355-0.146-0.551c0.259-0.039,0.432,0.281,0.723,0.175C766.746,5.209,766.149,4.933,766.027,5.197z
		 M765.398,7.074c0.071,0.194,0.04,0.26-0.021,0.393c-0.379,0.468-0.56-0.179-0.841,0.254c-0.234-0.188-0.34-0.479-0.279-0.611
		C764.701,6.673,765.073,7.085,765.398,7.074z M761.654,13.941c-0.291,0.106-0.524-0.081-0.877,0.157
		c-0.079-0.52-0.244-0.515-0.354-0.969l0.8-0.513C761.533,13.161,761.701,13.321,761.654,13.941z M759.951,11.544
		c0.418-0.209-0.113,0.591,0.306,0.383l-0.092,0.199l-0.194,0.07c-0.133-0.062-0.202-0.254-0.396-0.184
		C759.367,11.594,760.22,11.83,759.951,11.544z M758.941,12.684c-0.29,0.107-0.524-0.081-0.794-0.367
		c0.347-0.402,0.515-0.244,0.77-0.447C759.024,12.158,758.901,12.424,758.941,12.684z M759.183,10.948
		c-0.049-0.586-0.626-0.21-0.386-0.902l0.49-0.016C759.459,10.352,759.698,10.704,759.183,10.948z M755.95,17.406
		c0.163-0.005,0.597-0.768,0.907-0.223l-0.031,0.066c0.316-0.335,0.688,0.078,0.771-0.447l-0.103-0.127l0.225-0.138
		c-0.102-0.128-0.26,0.041-0.388,0.143c-0.07-0.193,0.088-0.362,0.245-0.53c1.37,1.037-0.572,1.583-1.408,2
		C755.801,17.899,756.373,17.361,755.95,17.406L755.95,17.406z M756.644,19.898c0.129-0.102,0.067,0.03,0.067,0.03
		c0.106,0.291-0.225,0.139-0.286,0.27c-0.453,0.112-0.688-0.076-0.931-0.592C755.844,19.367,756.813,19.012,756.644,19.898z
		 M757.208,27.875l1.161-1.169c-0.523-0.89,0.056-1.813,0.056-2.849c-0.182-0.646-0.85-0.072-0.803-0.694
		c0.215-0.462,1.004-0.258,1.432-0.14c0.226-0.035-0.079-0.498-0.244-0.444c-0.02,0.022-0.043,0.037-0.062,0.063
		c0.011-0.029,0.034-0.051,0.062-0.063c0.614-0.689,1.771-0.549,2.496-0.603c1.336-1.148,2.289-0.948,3.325-2.317
		c-0.337-0.316-0.775,0.283-1.192,0.492c-0.535-0.407-1.518-0.542-1.489,0.436c-0.386-0.902-1.808,0.609-2.476,0.14
		c-0.515,0.243-0.113,0.591-0.628,0.834c-0.232-0.188-0.563-0.341-0.803-0.693c0.796-0.676,1.491-0.272,1.631-1.093
		c0.392,0.021,0.6,0.439,0.992,0.46c0.321-0.173-0.177-0.484-0.019-0.652c1.762,0.013,3.533-2.943,5.212-1.362
		c-0.386,0.142-1.081,0.945-0.969,0.354c-0.962,0.519,0.427,1.163,0.803,1.738c-0.673,0.412-1.074,0.064-1.63,0.049
		c-0.123,0.266,0.117,0.615,0.355,0.968c-0.418,0.209-0.806,0.351-1.207,0.003c-0.353,0.239-0.083,0.525-0.205,0.79
		c-0.699,0.641-1.055-0.327-1.696,0.018c-0.026,0.229-0.006,0.882,0.35,0.806c0.107,0.291-0.55,0.146-0.625-0.21
		c-0.699,0.642-1.229,0.396-1.81,0.608c0.009,0.326,0.641,0.699-0.175,0.724c0.274,0.448,0.632,0.372,0.87,0.725
		c0.25-0.367,0.303-0.825,0.888-0.875c-0.239,0.692-1.139,2.285-2.087,2.248c0.646,0.862,2.292,0.258,3.012-0.774
		c1.34,1.103-0.925,1.822-1.712,1.617c-0.286,0.27-0.276,0.596-0.368,0.794c-0.256,0.203-0.484,0.178-0.754-0.108
		C758.665,28.549,757.686,28.579,757.208,27.875z M762.272,23.71c-0.408,0.534-0.591-0.112-0.947-0.037
		C761.346,23.281,762.068,23.457,762.272,23.71z M754.799,34.637c-0.137-0.226-0.423,0.044-0.596-0.275
		c0.586-0.051,0.225-0.139,0.215-0.465c0.189-0.232,0.387-0.142,0.581-0.212C755.105,33.975,755.084,34.367,754.799,34.637z
		 M755.488,33.669c-0.232-0.188-0.009-0.325-0.141-0.387c0.413-0.371,0.923-0.777,1.319-0.594c0.128-0.103-0.106-0.29-0.142-0.388
		c0.708-0.315,2.955-0.479,2.824-1.584c-1.124-0.521-2.396,0.658-3.566,0.759c-0.681-0.959,1.887-1.297,1.205-2.255
		c0.423-0.046,0.483,0.865,1.191,0.553c0.469-0.668,0.861-0.647,1.692-1.227c0.637,0.535,1.637-0.93,2.242-0.328
		c-0.54,0.474-0.394,1.023-0.935,1.496c-0.605-0.602-0.857,0.809-1.682,0.507c-0.012,0.719,1.022,0.394,1.481,0.446
		c0.029,0.978-1.239,1.113-1.892,1.134c0.412,0.672-0.933,0.451-0.194,1.114l-0.03,0.066
		C757.761,33.275,756.762,32.653,755.488,33.669L755.488,33.669z M755.53,36.181c-0.37-0.413-0.226-1.069,0.262-1.084
		C756.066,35.545,755.979,35.906,755.53,36.181z M756.307,34.853c0.285-0.271,0.698-0.642,0.876-0.157
		c0.057-0.295,0.77-0.447,0.465-0.829c0.748-0.055,1.522-0.339,2.292-0.786c0.275,0.449-0.402,0.697,0.004,1.207
		c-0.728-0.337-1.795,1.098-2.396,0.658c-0.223,0.138-0.152,0.331,0.116,0.617l-0.065-0.031
		C757.08,35.613,756.683,35.429,756.307,34.853L756.307,34.853z M756.997,37.181l0.03-0.066c-0.474-0.54,0.963-0.518,0.812-1.231
		c0.688,0.078,1.141-0.033,1.646-0.604c0.132,0.062,0.269,0.285,0.463,0.216C759.687,36.577,758.086,36.562,756.997,37.181z
		 M757.407,38.898c-0.081-0.52,1.269-1.18,1.671-0.832C758.436,38.409,757.957,38.751,757.407,38.898z M761.259,33.53
		c-0.167-0.157-0.041-0.259-0.111-0.453c0.224-0.137,0.326-0.01,0.552-0.146C761.704,33.092,761.581,33.358,761.259,33.53z
		 M763.309,28.934c0.382-0.305,0.83-0.58,1.219-0.721c0.019,0.651,0.369,1.457-0.335,1.935h0.001l-0.479,0.341
		c-0.138-0.225-0.331-0.154-0.402-0.347l0.153-0.331C763.063,29.463,763.644,29.249,763.309,28.934L763.309,28.934z M762.586,32.054
		c1.391-0.399,2.676-1.09,3.688-1.022c0.039,0.243-0.202,0.497-0.226,0.796l0.021-0.007l-0.03,0.066
		c-0.001-0.021,0.008-0.038,0.01-0.06c-1.096,0.298-2.434,1.108-3.679,0.691C762.596,32.38,762.524,32.188,762.586,32.054z
		 M759.398,42.232c0.113-0.59,0.591,0.113,0.969-0.354C760.376,42.202,759.544,42.782,759.398,42.232z M761.058,42.116
		c-0.331-0.153-0.305-0.382-0.707-0.729C760.887,40.751,761.345,41.848,761.058,42.116z M768.713,31.84
		c-0.316,0.335,0.239,0.351,0.015,0.488c-1.365,0.172-2.282,1.112-3.171,1.987c-0.142-0.387-0.428-0.117-0.539-0.57l-0.03,0.065
		c-0.612,0.279-1.233,0.232-1.881,0.415c-0.091-0.846,1.778-0.543,2.244-1.372c0.232,0.188,0.427,0.118,0.631,0.372
		c0.076-0.688,1.146-0.914,1.666-0.995c0.77-0.447,1.591-1.353,2.259-0.884C769.524,31.652,769.111,32.025,768.713,31.84z
		 M766.797,39.793l-0.245-0.516c0.384-0.305,0.704-0.477,1.035-0.323C767.532,39.249,767.246,39.519,766.797,39.793z
		 M767.804,37.448l-0.098,0.034c-0.255,0.204-0.366-0.25-0.59-0.113c0.613-1.323,2.351-2.126,3.94-2.434
		c-0.053,0.458-0.861,0.646-0.587,1.095C769.656,36.053,768.162,36.326,767.804,37.448z M769.891,38.492
		c-0.291,0.106-0.447-0.77-0.859-0.398c-0.143-0.387,0.544-0.31,0.637-0.509c0.402,0.349,0.213,0.582,0.319,0.872L769.891,38.492z
		 M770.571,37.199c0.311-0.498,1.477-0.762,2.06-0.975C772.862,37.457,771.147,36.824,770.571,37.199z M771.331,39.723
		c0.025-0.229-0.147-0.55-0.35-0.805l2.482-1.021l0.376,0.576C772.407,38.614,772.686,39.226,771.331,39.723z M774.806,38.118
		c-0.255,0.203-0.52,0.081-0.713,0.152c-0.306-0.383,0.113-0.591,0.134-0.983c0.718,0.012,1.632-1.093,2.145-0.292
		C775.593,37.115,775.083,37.524,774.806,38.118z M775.084,39.774c-0.208-0.418,1.306-1.083,1.667-0.996
		C776.342,39.313,775.726,39.429,775.084,39.774z M776.684,36.495c0.087-0.361,0.892-0.711,1.1-0.294l0.066,0.031
		C777.702,36.727,776.962,37.108,776.684,36.495z M779.456,35.368c-0.278-0.611,0.861-0.645,0.718,0.012
		C779.888,35.651,779.773,35.032,779.456,35.368z M782.515,29.633c-0.139,0.82-1.835,0.838-1.429,1.348
		c-0.423,0.046-2.898,0.185-2.636,1.353c-0.942,0.125-2.373,0.266-2.604,1.284c-0.387,0.143-0.956-0.363-0.967-0.689
		c1.039-0.161,2.345-1.244,4.277-2.118c0.484-0.177,0.866-0.481,1.249-0.786c1.061-0.555,2.251-0.003,2.182-1.24
		c0.621,0.046,1.365-0.171,2.069-0.649c0.269,0.286-0.021,0.393,0.346,0.643c-0.511,0.407-0.877,0.157-1.32,0.594
		c-0.388,0.143,0.523,0.082,0.075,0.356l-0.152,0.331C783.243,29.971,782.881,29.884,782.515,29.633z M782.782,32.007l-0.376-0.576
		C782.783,30.963,783.23,31.734,782.782,32.007z M783.898,31.158l-0.274-0.448c0.073-0.851,1.259-0.462,1.565-1.124
		c0.336,0.316,0.336,0.316,0.479,0.703l-0.031,0.067C785.02,30.473,784.399,30.425,783.898,31.158z M784.391,32.35
		c0.122-0.264,0.622,0.048,0.479-0.34l0.065,0.031c0.098-0.036,0.504,0.474,0.386,0.902C784.9,32.988,784.665,32.8,784.391,32.35z
		 M788.083,29.239c-0.383,0.306-0.683,0.085-0.861-0.398C787.635,28.47,787.875,28.822,788.083,29.239z M789.812,27.067
		c0.296,0.056,0.586-0.05,0.825,0.302l0.066,0.03c-0.271,0.76-1.442,0.859-2.182,1.24c-0.234-0.188,0.087-0.361-0.05-0.586
		c0.32-0.172,0.713-0.151,1.105-0.13C789.832,27.718,789.659,27.398,789.812,27.067L789.812,27.067z M787.508,31.865l-0.066-0.03
		c-0.38-0.739-1.061,0.553-1.487,0.436c-0.184-0.647,0.076-0.688,0.521-1.124l0.239,0.352c0.382-0.306,0.143-0.656,0.561-0.865
		c0.667,0.469,1.703-0.899,2.507-1.249c0.637,0.534,0.842-0.255,1.296-0.366c0.004,0.164-0.22,0.301-0.053,0.458
		C789.751,30.494,788.474,30.304,787.508,31.865L787.508,31.865z M791.913,26.351c0.273,0.054,0.524,0.156,0.845,0.11
		c0.001-0.015,0.006-0.021,0.005-0.037l0.065,0.03c-0.024,0.005-0.047,0.003-0.07,0.007c-0.017,0.587-0.747,0.189-1.087,0.582
		C791.56,26.59,791.917,26.515,791.913,26.351L791.913,26.351z M788.945,35.185c-0.08-0.52,0.619-1.16,0.994-0.584l0.036,0.097
		C789.583,34.677,789.607,35.492,788.945,35.185L788.945,35.185z M790.295,34.525c0.025-0.229-0.244-0.516,0.108-0.754
		c0.132,0.062,0.33,0.153,0.468,0.378L790.295,34.525z M790.929,33.852c-0.051-0.585,0.646-0.183,0.876-0.156
		C791.789,34.251,791.127,33.945,790.929,33.852z M787.382,40.811c-0.142-0.387,0.359-1.12,0.638-0.509L787.382,40.811z
		 M791.824,38.688c-1.508-0.216-2.311,2.385-3.46,1.049c1.037-0.306,1.983-0.86,2.757-1.616c0.234,0.189,0.495,0.149,0.769,0.598
		L791.824,38.688L791.824,38.688z M791.687,45.054c0.215-0.463,0.601-0.606,1.091-0.62C792.787,44.76,791.942,44.851,791.687,45.054
		z M795.877,38.957c-0.081-0.52,0.315-0.336,0.729-0.706C796.784,38.736,796.275,39.142,795.877,38.957z M799.148,34.847
		c-0.316,0.337-0.595-0.275-0.978,0.03c-0.208-0.419,0.337-0.729,0.49-1.06c0.199,0.092,0.432,0.28,0.688,0.078
		C799.521,34.216,799.464,34.511,799.148,34.847z M802.009,29.02c-0.021,0.392-0.042,0.784-0.491,1.059l0.03-0.066
		c-0.137-0.224-0.305-0.381-0.528-0.245C800.775,29.252,801.744,28.897,802.009,29.02z M803.978,22.861
		c0.331,0.152-0.307,0.661,0.239,0.351l0.066,0.03c-0.643,0.347-0.578,1.421-1.337,1.15c-0.202-0.256,0.083-0.525-0.156-0.877
		C803.265,23.01,803.398,23.072,803.978,22.861L803.978,22.861z M797.71,32.573c0.382-0.306,0.498,0.312,0.784,0.042
		c0.127-0.103-0.076-0.356-0.143-0.388c0.541-0.473,0.943-0.126,1.708-0.736c-0.032,1.111-1.434,1.186-2.616,2.004
		C797.337,33.204,797.49,32.873,797.71,32.573z M796.985,33.444c0.107,0.29-0.046,0.621-0.398,0.859l0.03-0.065l-0.33-0.153
		C796.017,33.798,796.787,33.351,796.985,33.444z M795.356,35.744c0.393,0.02,0.255-0.204,0.576-0.377
		c0.239,0.353,0.807-0.351,0.993,0.46c-0.734,0.544-1.264,0.299-2.258,0.883c-0.402-0.347,1.104-0.544,1.277-0.224
		C796.073,36.384,795.459,35.87,795.356,35.744z M802.972,17.572c0.177,0.484,0.386,0.901-0.093,1.243
		C802.432,18.044,802.356,17.689,802.972,17.572z M794.329,35.188c-0.672,0.411-2.216,0.098-2.151,1.173
		c-0.575,0.376-1.074,0.064-1.48-0.444c1.114,0.194,1.896-0.971,3.036-1.005c0.128-0.102-0.101-0.128-0.265-0.122
		C793.708,34.096,794.212,34.57,794.329,35.188z M797.677,22.754c0.975-0.192,1.046-1.043,1.796-1.098
		C800.073,22.095,798.222,23.487,797.677,22.754z M801.771,13.398c0.809,0.857,0.67,1.677,1.056,2.579
		c-0.791,0.839-1.235-0.975-1.985-0.919l0.031-0.066C800.823,14.405,800.869,13.784,801.771,13.398z M794.168,29.808
		c0.423-0.045-0.378,0.469,0.085,0.684c-0.436-0.444-1.116,0.848-1.558,0.242C793.628,30.281,793.66,30.214,794.168,29.808z
		 M792.285,32.312c-0.232-0.188-0.428-0.118-0.6-0.439c-1.029,0.488-1.01,1.14-1.779,1.587l-0.031,0.066
		c-0.198-0.092-0.371-0.413-0.591-0.113c-0.452-0.933,1.111-1.012,1.684-1.551c0.509-0.407,0.815-1.069,1.666-0.996
		C792.715,31.384,792.567,31.878,792.285,32.312L792.285,32.312z M796.014,18.366c0.606-0.442,0.814-0.024,0.991,0.46
		C796.4,19.268,796.257,18.881,796.014,18.366z M794.256,21.811c0.123-0.264,0.562-0.864,0.826-0.742l0.031-0.065
		C795.525,21.676,794.546,21.705,794.256,21.811z M795.969,21.238C794.905,20.585,796.984,20.262,795.969,21.238z M792.444,28.848
		c-0.071-0.194-0.265-0.123-0.402-0.348c0.225-0.137,0.459,0.053,0.678-0.248C792.923,28.508,792.765,28.675,792.444,28.848z
		 M798.945,17.071c-0.179,0.56-1.112,1.012-1.79,1.261c-0.457-1.096,0.857-0.809,1.026-1.695
		C798.416,16.825,798.767,16.586,798.945,17.071z M800.206,11.225c0.402,0.348-0.438,0.601-0.57,0.539
		C799.395,11.413,799.972,11.035,800.206,11.225z M798.892,14.234c0.111,0.453-0.479,0.34,0.248,0.677
		c-0.387,0.144,0.015,0.489-0.372,0.632c-0.234-0.188-0.657-0.145-0.504-0.475c-0.352,0.238-0.57,0.539-0.43,0.927
		c-0.229-0.026-1.365,0.171-0.826,0.742c-0.418,0.208-0.085-0.683-0.401-0.348C797.463,15.581,797.995,14.783,798.892,14.234z
		 M795.141,23.025c-1.103,1.339-2.336,1.571-3.57,2.848c-0.468,0.171-0.907,0.276-1.248-0.3l-1.151,0.795
		c-0.336-0.316-0.081-0.52-0.152-0.713C790.787,25.83,793.242,22.786,795.141,23.025L795.141,23.025z M796.056,6.652
		c1.486,0.152,2.822,0.979,3.622,2.241l-0.029,0.065c-1.335,0.105-2.305-1.791-3.813-0.963c0.188-0.234-0.117-0.616-0.157-0.876
		C795.903,6.982,795.964,6.849,796.056,6.652z M793.383,12.245c0.494,0.147,1.069-0.229,1.568,0.083
		c0.071,0.193-0.086,0.361,0.016,0.489c-1.912,0.48-2.871,2.206-4.676,2.978c0.433,0.28,0.957,0.364,1.568,0.083
		c0.398,0.185,0.214,0.582,0.729,0.338c-0.027,0.23-0.282,0.434-0.439,0.601c-0.641-0.699-2.104-0.491-2.779-1.288
		c0.047-0.62,1.783-0.379,1.52-1.545c0.959-0.682,1.6,0.018,2.559-0.664c-0.86-0.398-0.315-0.708-0.926-1.474
		C792.844,11.674,793.894,11.837,793.383,12.245z M792.299,11.983c-0.229-0.025-0.397-0.185-0.503-0.474
		c0.347-0.402,0.611-0.28,0.851,0.071C792.421,11.719,792.523,11.846,792.299,11.983z M795.414,3.7
		c-0.564-0.342,0.123-0.265,0.661,0.307c-0.428-0.118-0.916-0.104-1.384-0.48C794.68,3.2,795.189,3.838,795.414,3.7z M792.899,5.831
		c0.23,0.025,0.398,0.184,0.57,0.505c-0.325,0.01-0.713,0.151-0.952-0.2L792.899,5.831z M791.823,6.94
		c-0.01-0.325-0.116-0.617,0.006-0.882c0.169,0.159,0.494,0.148,0.834,0.628c-0.514,0.243-2.146,1.337-2.696,1.483
		C790.106,7.35,791.034,6.736,791.823,6.94z M788.114,11.651c0.208,0.418,0.808,0.857,0.293,1.101
		c-0.243-0.515-0.719-0.011-0.997-0.623c-0.276,0.596-0.724,0.87-1.387,0.564l-0.03,0.066c-0.215,0.464-0.257,1.248-0.949,1.007
		c-0.438-0.444,0.668-0.574,0.099-1.08C786.084,12.561,787.135,11.68,788.114,11.651z M788.706,7.424
		c-1.825,1.164-3.593,0.988-5.382,2.249l-0.271-0.285c0.868-0.483,1.179-0.981,1.938-0.711c0.153-0.33,0.107-0.753,0.459-0.992
		c0.169,0.158,0.423-0.046,0.632,0.373c0.188-0.234,0.113-0.592,0.465-0.83c0.561,0.179,1.264-0.299,1.916-0.318
		C788.629,7.068,788.47,7.237,788.706,7.424z M788.83,6.116c-0.964,0.518-1.921,0.154-2.798,0.312
		c-0.233-0.189-0.04-0.26-0.111-0.454C787.068,5.058,788.434,4.887,788.83,6.116z M782.528,2.714
		c-0.184,0.397,0.459,0.053,0.539,0.571c-0.83,0.58-1.554,0.406-2.123-0.1c0.178-0.56,0.901-0.387,1.293-0.364
		c-0.208-0.419-0.407-0.511-0.676-0.796c1.086-0.206,2.147-0.521,3.169-0.942c0.444-0.438,1.069-0.229,1.085,0.261l-0.194,0.071
		l0.066,0.03c-0.738,0.381-0.495,0.896-0.546,1.354c0.625,0.209,1.354-0.497,1.951-0.221l0.354,0.968
		C785.591,4.776,784.199,2.925,782.528,2.714z M788.362,1.399c-0.285,0.27-0.463-0.215-0.907,0.223
		C787.181,1.172,788.251,0.946,788.362,1.399z M788.337,0.584c-0.387,0.142-0.656-0.144-0.983-0.135
		C787.345,0.123,788.094,0.069,788.337,0.584z M784.458-0.41c0.599-0.31,1.33-0.17,1.772,0.339c1.15,0.292-2.369,0.43-1.936-0.334
		C784.33-0.307,784.427-0.344,784.458-0.41z M784.116,0.155c0.046,0.423-0.606,0.441-0.8,0.514
		c-0.412-0.674-0.983-0.135-1.446-0.349c-0.422,0.045-1.599-0.019-1.231-0.812c0.755,0.107,1.6,0.018,2.322,0.191
		c0.102,0.127-0.092,0.198-0.153,0.331C783.208,0.378,783.719-0.03,784.116,0.155z M787.652-11.469
		c0.802-0.514,1.061-0.554,1.693-1.225l0.066,0.031c0.192,0.973-1.061,0.554-0.903,1.43
		C788.191-10.898,787.952-11.249,787.652-11.469z M783.839-2.545l0.274,0.448c-0.175,0.724-0.778,0.122-1.223,0.559
		C782.779-1.991,783.549-2.438,783.839-2.545L783.839-2.545z M778.114-1.982c1.686-0.345,3.029,0.921,4.721,0.739
		c0.137,0.225-0.413,0.372-0.668,0.575c-1.137-0.572-2.407-0.828-3.677-0.738l0.03-0.066c-0.356,0.075-0.651,0.019-0.968,0.354
		c-0.208-0.417-0.561-0.179-0.805-0.693L778.114-1.982L778.114-1.982z M775.731-2.043c-0.984-0.134-2.131,0.782-2.905,0.021
		C774.077-2.809,774.808-2.308,775.731-2.043z M772.73,1.309c0.387-0.142,0.076,0.356,0.341,0.479
		c-0.734,0.545-0.693-0.239-1.155-0.454c-0.111-0.453,1.273,0.027,0.428,0.118C772.476,1.513,773.101,1.724,772.73,1.309z
		 M771.665,1.752c-0.002-0.019,0.005-0.033,0-0.052l0.067,0.03C771.707,1.74,771.688,1.743,771.665,1.752
		c0.036,0.329-0.228,0.587-0.562,0.813l-0.341-0.479C771.093,1.863,771.319,1.866,771.665,1.752L771.665,1.752z M770.208,2.07
		c0.473,0.54,0.809,0.857,0.762,1.479c0.234,0.188,0.468,0.377,0.825,0.302c0.312-0.499-0.733-0.5-0.478-0.703
		c2.414-0.007,5.321-3.161,7.628-2.414c-0.418,0.208-0.576,0.376-0.566,0.701c-0.877,0.158-1.592,1.354-2.681,0.93
		c-0.443,0.437,0.539,0.571,0.294,1.1c-1.615,0.538-3.026,0.285-4.657,1.379c-0.331-0.152-0.647,0.183-0.855-0.235
		c-0.562,0.865-1.82,1.327-2.697,1.483c0.111,0.453,0.06,0.911-0.612,1.323c-0.015-0.488,0.28-0.432-0.223-0.906
		c0.112-0.591,1.01-1.141,1.057-1.762c0.55-0.146,0.869,0.725,1.41,0.252c0.254-0.203-0.275-0.448-0.315-0.709
		c-0.529-0.245-1.167,0.264-1.723,0.248c-0.64-0.699-0.253-0.842-0.99-1.505C767.645,2.571,768.918,2.599,770.208,2.07z
		 M769.481,0.426c0.02-0.01,0.034-0.021,0.058-0.032l-0.031,0.066C769.499,0.446,769.49,0.441,769.481,0.426
		c-0.337,0.193-0.207,0.346-0.448,0.537l-0.478-0.704C768.925-0.037,769.213,0.015,769.481,0.426z M767.719,0.676
		c0.27,0.286,0.652-0.02,0.86,0.398l-0.066-0.03c-0.378,0.469-0.643,0.346-0.999,0.421C767.342,1.143,767.398,0.849,767.719,0.676z
		 M767,1.71c-0.356,0.075-0.876,0.155-1.217-0.323C766.293,0.981,766.69,1.164,767,1.71z M764.95-0.286
		c-0.361-0.087,0.678-0.249,0.815-0.024C765.815,0.277,765.214-0.163,764.95-0.286z M754.417,9.784
		c0.001-1.043,1.173-1.144,1.643-1.811c1.548,0.476,3.644-1.446,5.289-1.007c0.189-1.277,1.432-1.184,2.02-2.278
		c-0.056,0.295,0.279,0.612,0.254,0.841c-0.444,0.438-0.806,0.351-1.285,0.69c-0.108,0.754,1.119,1.403,1.587,1.78
		c-1.046,1.043-1.89,0.089-2.385,0.984c-0.386-0.902,0.729-0.706,1.178-0.981c0.188-0.233-0.962-0.525-0.979,0.029
		c-0.361-0.086-0.045-0.422-0.248-0.677c-0.132-0.062-0.57,0.539-0.968,0.354c-0.007,0.881-1.051,0.88-1.637,0.93
		c-0.148,0.495,0.503,0.475,0.024,0.814c-0.551,0.147-0.718-0.011-0.896-0.494c-0.643,0.346-0.5,0.732-0.685,1.13
		c0.234,0.188,0.561,0.179,0.737,0.663c-0.927,0.614-1.167,1.308-2.466,1.509c-0.098,0.035-0.23-0.026-0.292,0.107
		c0.138,0.224,0.307,0.382,0.53,0.245c0.142,0.387-0.585,0.05-0.275,0.595l0.127-0.101c0.229,0.025,0.402,0.347,0.539,0.57
		c-0.189,0.234-0.051,0.459-0.373,0.632c-0.138-0.225-0.269-0.286-0.469-0.379c-0.023,0.23-0.184,0.397-0.474,0.504
		c-0.361-0.087-0.219,0.301-0.703,0.478c-0.071-0.192-0.126-0.942,0.337-0.728l0.225-0.137c-0.208-0.417-0.596-0.276-0.861-0.398
		c0.083-0.524,0.175-0.724-0.395-1.229l1.105-0.131c0.439-0.601,1.208-1.048,1.779-1.587c0.291-0.105,0.841-0.253,0.862-0.645
		c-0.306-0.384-0.692-0.241-0.876,0.156c-0.143-0.388,0.505-0.57-0.157-0.877c-0.265-0.123-1.117,0.85-1.65,0.441
		c-0.353,0.238,0.049,0.585-0.566,0.702c-0.164,0.005-0.47-0.378-0.641-0.699C753.725,9.544,754.113,9.403,754.417,9.784z
		 M752.424,10.789c0.292-0.105,0.463,0.215,0.724,0.175c0.143,0.387-0.325,0.01-0.447,0.274L752.424,10.789z M748.528,14.692
		c0.337-0.729,0.968-0.355,1.452-0.533l0.077-0.687c1.467-0.044,1.728-1.129,2.92-0.576c-0.444,0.437-0.628,0.834-1.214,0.884
		l-0.102-0.128l-0.036-0.096c-0.59-0.114-0.245,0.528-0.235,0.854c-0.546,0.311-0.882-0.008-1.336,0.104
		C750.076,15.168,748.817,15.629,748.528,14.692z M748.993,20.452c0.33,0.153-0.394,1.023-1.014,0.977l-0.068-0.031l-0.03,0.065
		c-0.102-0.127-0.107-0.289-0.239-0.351l0.479-0.341c-0.111-0.454,0.301,0.219,0.402,0.347c0.284-0.27,0.276-0.596-0.03-0.979
		c0.265,0.122,0.631,0.373,1.019,0.231l-0.03,0.066c-0.098,0.034-0.093,0.197-0.026,0.229
		C749.227,20.641,749.349,20.377,748.993,20.452L748.993,20.452z M750.907,17.883c-0.215,0.464-0.444,0.438-0.929,0.615
		c-0.347,0.402-0.611,0.279-0.876,0.157c-0.158,0.167,0.011,0.325,0.111,0.453c-0.387,0.142-0.185,0.397-0.571,0.539
		c-0.393-0.021-0.798-0.531-1.323-0.613c0.295,0.056,1.021-0.814,1.417-0.63c0.092-0.198,0.144-0.656,0.29-0.105
		c0.387-0.143-0.208-0.419,0.276-0.596c-0.229-0.026-0.469-0.378-0.708-0.73c0.292-0.106,0.124-0.265-0.015-0.488
		c0.688,0.077,1.091-0.62,1.735-0.966c-0.084,0.525,0.079,0.52,0.446,0.771c-0.229-0.026-0.668,0.574-0.876,0.156
		c-0.48,0.341-0.501,0.732-0.589,1.094c0.071,0.193,0.775-0.283,0.378-0.468c0.356-0.076,0.085,0.683,0.591,0.112
		c0.005,0.164,0.01,0.326,0.137,0.226c0.163-0.005,0.295,0.056,0.454-0.112C752.014,16.708,751.956,18.049,750.907,17.883
		L750.907,17.883z M753.963,20.826c-0.826,0.742-0.949,1.008-1.907,1.689c-0.326-0.194-0.621-0.438-0.869-0.725
		c-0.388,0.143-0.184,0.396-0.572,0.539c0.469,0.377,0.256-0.204,0.577-0.377c0.396,0.184-0.21,0.626,0.243,0.515
		c-0.116,0.429-0.815,0.024-1.17,0.102c-0.215-0.581,0.886-0.875,0.903-1.431l0.596-0.768c-0.406-0.51-0.835,0.416-1.313-0.287
		c0.387-0.142-0.045-0.423,0.373-0.631c0.428,0.117,0.177,0.484,0.539,0.57c0.062-0.132-0.076-0.356-0.111-0.453
		c0.454-0.111,0.901-0.386,1.33-0.268c0.045,0.423-0.531,0.799-0.716,1.195c0.576,0.669,1.31,0.125,2.063,0.232l0.097-0.035
		c-0.05-0.586,0.489-0.015,0.644-0.346c0.024-0.229,0.314-0.336,0.553,0.017c-0.354,0.075-0.535,0.636-0.214,0.463
		C754.956,21.286,754.224,20.784,753.963,20.826L753.963,20.826z M752.802,24.547c0.418-0.208,0.18-0.559,0.694-0.803
		c0.069,0.192,0.238,0.352,0.27,0.285c0.075,0.356-0.145,0.656-0.231,1.02C753.28,25.251,753.072,24.833,752.802,24.547z"/>
	<path fill="#F79927" d="M781.314,25.46c0.017,0.013,0.04,0.022,0.06,0.033l0.006-0.003L781.314,25.46z M782.247,25.937
		c0.001,0.072,0.012,0.144,0.034,0.212C782.302,26.076,782.291,25.998,782.247,25.937z M790.29,25.519
		c0.01,0.02,0.022,0.033,0.033,0.053l0.031-0.022L790.29,25.519z M745.879,21.1c0.098-0.035-0.8,0.514-1.069,0.229l-0.225,0.138
		c0.239,0.351,0.494,0.147,0.846-0.092c0.106,0.291,0.238,0.353,0.464,0.216C746.318,21.543,746.227,20.698,745.879,21.1z
		 M743.881,21.944c0.178,0.483,0.922,0.266,0.846-0.091c-0.132-0.062-0.291,0.105-0.392-0.021
		C744.208,21.933,744.107,21.805,743.881,21.944z M744.389,23.624c-0.062,0.133,0.133,0.062,0.202,0.256
		c0.043-0.036,0.085-0.069,0.128-0.103c0.194-0.07,0.326-0.01,0.464,0.215c0.611-0.279-0.122-0.779,0.327-1.054
		C745.083,22.821,745.076,23.702,744.389,23.624z M760.861-0.654c0.581-0.266,1.428,0.596,1.773,0.113
		c0.006-0.229,0.216-0.417,0.3-0.598c-0.508,0.048-1.021-0.051-1.477-0.283C761.406-0.963,760.886-0.883,760.861-0.654z
		 M755.144-9.652c-0.009,0.005-0.021,0.004-0.031,0.007v0.059L755.144-9.652z M763.652-1.127c0.355-0.077,0.524,0.081,0.877-0.157
		l0.031-0.066l0.381-0.305c-0.493-0.148-1.11-0.032-1.813,0.445C763.208-0.691,763.546-1.419,763.652-1.127z M762.689-0.61
		c-0.016,0.033-0.037,0.045-0.055,0.069c0,0.021-0.009,0.042-0.007,0.063L762.689-0.61z M774.222,30.532
		c0.184-0.397,0.892-0.712,0.812-1.23c-0.128,0.101-0.325,0.01-0.397-0.185c-0.387,0.142-0.25,0.367-0.57,0.539
		C774.595,29.902,774.243,30.141,774.222,30.532z M804.693,35.89c1.391,0.688,3.014,0.735,4.442,0.129
		c2.275,0.813,4.945-0.441,7.258,0.468c1.579-0.634,2.999-0.055,4.554-0.461c0.469-0.667,1.161-0.427,1.869-0.741
		c1.849,0.695,4.019,0.174,6.011,0.213c-0.07-0.194-0.009-0.326,0.052-0.459c-0.429-0.117-0.999,0.422-1.345-0.222
		c0.387-0.142,0.779-0.121,1.105-0.129c-0.533-0.409-1.304,0.037-1.96-0.105c-0.021,0.044-0.042,0.088-0.062,0.132
		c-0.383,0.305-0.709,0.315-1.029,0.488c-0.071-0.194,0.021-0.393-0.239-0.352c-0.052,0.458-0.876,0.155-1.183-0.227
		c-0.232-0.188-0.717-0.011-1.078-0.098c-0.129,0.101-0.255,0.203-0.388,0.142c-0.993,0.585-1.767-0.176-2.669,0.21
		c0.137,0.225,0.521-0.08,0.661,0.307c-0.576,0.376-0.891-0.333-1.553,0.405l-0.037-0.097c-0.55,0.147-1.064,0.391-1.405-0.089
		c0.423-0.045,0.938-0.289,1.3-0.201c0.295,0.056,0.642-0.346,0.906-0.224c-0.203-0.255-0.524-0.082-0.692-0.239
		c-4.723,0.303-9.393,0.148-14.15,0.355C804.781,35.528,804.383,35.344,804.693,35.89z M816.464,35.636
		c-0.905,0.164-1.832,0.17-2.739,0.017C814.357,34.981,815.67,35.268,816.464,35.636z M811.565,35.455
		c-0.47,0.668-1.651,0.441-2.283,0.068C810.087,35.174,810.811,35.348,811.565,35.455z"/>
	<path fill="#F79927" d="M748.986-17.006l0.132,0.061c2.952,3.051,5.334,6.604,7.034,10.493c0.642,0.699,0.758,1.316,1.235,2.02
		c-0.057,0.295,0.381,0.738,0.619,1.091c0.066,0.03,0.203,0.254,0.265,0.122c-0.102-0.127-0.01-0.326-0.213-0.581
		c0.423-0.045,0.971,0.852,1.017,1.275c-0.128,0.101-0.229-0.026-0.326,0.009c-0.096,0.036-0.158,0.169-0.025,0.23l0.139,0.224
		c0.149,0.015,0.289,0.079,0.396,0.184c0.448-0.273,0.794,0.368,1.299-0.201c0.016-0.555-1.14-1.01-1.093-1.632
		c-0.684-0.796-1.278-1.664-1.773-2.589c-0.271-0.286-0.474-0.541-0.447-0.77c-0.769-0.597-0.467-1.421-0.68-2.003
		c-1.451-3.807-5.042-7.158-7.646-10.212l-0.462-0.214c-0.688-0.078-0.175,0.723-0.328,1.053
		C748.111-17.892,749.094-17.759,748.986-17.006z M756.641-6.466c0.224-0.137,0.422-0.044,0.731,0.5
		c-0.386,0.142-0.723-0.175-0.997-0.624C756.336-6.847,756.571-6.66,756.641-6.466L756.641-6.466z M755.113-9.644
		c0.011-0.003,0.022-0.002,0.031-0.007l-0.031,0.066V-9.644c-0.239,0.087-0.758-0.387-0.61-0.706
		C755.023-10.645,755.124-10.042,755.113-9.644z M752.181-14.881c-0.062,0.132-0.596-0.276-0.388,0.141
		c-0.193,0.072-0.264-0.122-0.366-0.25C751.642-15.452,752.233-15.34,752.181-14.881z M742.289,14.452
		c-0.656-0.143-1.273-0.026-1.936-0.334c-1.101,0.295-1.492,0.273-2.323,0.853c1.151,0.292,2.291,0.258,3.417,0.779
		c0.127-0.102,0.229,0.025,0.289-0.106c-0.085-0.684-0.859-0.398-1.384-0.481c0.021-0.392,0.453-0.111,0.275-0.595
		C741.239,14.289,741.621,15.027,742.289,14.452L742.289,14.452z M739.665,15.087l-0.276-0.45
		C739.64,14.272,740.311,14.903,739.665,15.087z M744.134,16.192c0.133,0.062,0.265,0.123,0.326-0.01
		c0.347-0.401,0.678-0.248,0.968-0.355c0.603-0.604,0.695-1.848-0.249-0.677l-0.131-0.062c-0.347,0.401-0.612,0.278-0.943,0.125
		c-0.188,0.234-0.291,0.107-0.484,0.179C743.402,15.694,744.089,15.769,744.134,16.192z M803.78,11.837
		c6.371-3.906,12.831-7.667,19.373-11.279L822.984,0.4c-0.52,0.081-1.121,0.686-1.621,0.374c-0.32,0.173-0.646,0.183-0.977,0.029
		c-0.99,0.747-1.683,0.507-2.371,1.474l0.097-0.035c0.901-0.386,2.464-1.672,2.905-1.065c-1.127,0.523-2.31,1.341-3.282,1.533
		c0.062-0.132-0.04-0.26,0.185-0.396c-2.713,0.994-5.715,3.14-8.382,4.557c0.203,0.254-0.479,0.341-0.57,0.539
		c0.106,0.29,0.453-0.111,0.591,0.112c0.5-0.732,1.326-1.475,2.273-1.438c0.734-0.544,2.219-2.188,3.344-1.666
		c-2.003,0.68-4.485,2.744-6.773,3.693c-0.139-0.225-0.011-0.326-0.016-0.489c-0.22,0.3-0.846,0.091-0.734,0.544
		c0.198,0.092,0.366,0.25,0.651-0.02c-0.117,0.428-1.106,1.175-1.381,0.727c0.062-0.133,0.255-0.203,0.153-0.331
		c-0.52,0.081-1.219,0.722-1.794,1.098c0.101,0.127,0.354-0.076,0.488-0.014c0.08,0.519-0.409,0.533-0.826,0.742
		c-0.138-0.226,0.316-0.337,0.112-0.591c-0.638,0.508-0.908,1.267-1.692,1.225c-0.193,0.071-0.092,0.198-0.315,0.336l0.202,0.255
		C803.445,11.52,803.613,11.679,803.78,11.837z M817.377,2.785l-0.03,0.066c0.34,0.479-0.669,0.574-0.826,0.742
		C816.278,3.079,817.312,2.754,817.377,2.785z M806.826,8.907c0.106,0.291-0.607,0.442-0.729,0.707
		C805.658,9.171,806.601,9.045,806.826,8.907z"/>
</g>
<path opacity="0.21" fill="#50C2C8" d="M317.178,37.622c4.514-1.684,9.473-2.613,14.678-2.613c10.069,0,19.21,3.486,25.987,9.162
	c6.854-8.523,18.101-14.09,30.826-14.09c15.78,0,27.929,5.948,33.597,18.101c2.764,0,5.838-0.001,8.43-0.001
	c0.379,0,1.026-0.026,1.398,0c4.102-14.557,18.701-24.449,36.424-24.449c15.213,0,28.32,7.953,34.321,19.412
	c1.079-0.391,2.257-0.609,3.495-0.609c1.099,0,2.148,0.178,3.127,0.491c2.493-2.663,6.257-4.358,10.472-4.358
	c6.031,0,11.138,3.477,12.919,8.287c6.652-5.156,15.387-10.696,24.927-10.696c12.725,0,24.396,3.399,31.25,11.924
	c6.776-5.677,13.438-7.026,23.5-7.341c8-0.25,12.667,2.917,16.708,5.367c1.618-17.16,17.86-30.645,37.674-30.645
	c16.648,0,30.771,9.523,35.822,22.743c1.853-0.835,3.941-1.316,6.164-1.316c3.122,0,5.989,0.94,8.285,2.505
	c2.19-10.8,12.841-19.003,25.678-19.003c13.934,0,26.771,7.282,27.524,19.443c5.154-2.329,10.874-3.449,17.061-3.449
	c7.789,0,13.657,4.267,19.675,7.838c1.671-2.095,4.423-3.468,7.541-3.468c1.234,0,2.408,0.219,3.486,0.607
	c3.447-8.801,12.716-15.193,23.743-15.527v22.244H0l0-25.112c6.903-6.558,16.741-10.661,27.668-10.661
	c0.49,0,0.978,0.01,1.464,0.025c0.023,0.029,0.049,0.057,0.071,0.086c0.046-0.027,0.092-0.051,0.137-0.078
	c15.917,0.613,29.271,9.932,34.152,22.708c1.852-0.835,3.943-1.315,6.166-1.315c3.121,0,5.989,0.939,8.284,2.506
	c2.188-10.803,12.838-19.004,25.677-19.004c11.425,0,21.11,6.501,24.652,15.543c1.074-0.389,2.25-0.607,3.483-0.607
	c3.12,0,5.87,1.373,7.542,3.469c6.017-3.573,13.255-5.658,21.046-5.658c6.188,0,12.021,1.322,17.177,3.654
	c0.751-12.164,12.103-21.825,26.041-21.828c15.13-0.004,24.384,10.305,25.676,19.003c2.295-1.565,5.164-2.506,8.286-2.506
	c2.222,0,4.312,0.48,6.163,1.317c5.049-13.221,19.173-22.742,35.822-22.742c2.332,0,4.612,0.193,6.828,0.551
	c6.521,1.193,12.43,3.872,17.254,7.628c0.048-0.133,0.109-0.259,0.162-0.39C311.277,20.343,316.315,28.456,317.178,37.622z"/>
</svg>
