<?xml version="1.0" encoding="utf-8"?>
<!-- Generator: Adobe Illustrator 15.0.0, SVG Export Plug-In . SVG Version: 6.00 Build 0)  -->
<!DOCTYPE svg PUBLIC "-//W3C//DTD SVG 1.1//EN" "http://www.w3.org/Graphics/SVG/1.1/DTD/svg11.dtd">
<svg version="1.1" id="Calque_1" xmlns="http://www.w3.org/2000/svg" xmlns:xlink="http://www.w3.org/1999/xlink" x="0px" y="0px"
	 width="841.89px" height="58.591px" viewBox="0 -10.409 841.89 58.591" enable-background="new 0 -10.409 841.89 58.591"
	 xml:space="preserve">
<path fill="#52BCC4" d="M841.89,48.182V14.706c-2.269-1.94-4.047-2.035-7.024-1.813c-2.396,0.153-4.638,1.099-6.454,2.517l0.007,0.1
	l0.002,0c-2.9-5.524-9.732-7.653-15.257-4.753c-1.88,0.986-3.443,2.482-4.512,4.316c-2.022-1.205-4.368-1.756-6.715-1.574
	c-1.896,0.121-3.565,0.629-5.112,1.528c-0.583-5.974-5.778-10.451-11.967-10.055c-3.592,0.23-6.677,2.131-8.607,4.86
	c-5.997-10.329-17.336-16.362-29.253-15.563c-13.384,0.752-24.803,9.946-28.399,22.861c-1.593-0.71-3.329-1.044-5.072-0.978
	c-2.692,0.172-4.933,1.218-6.838,2.743c-2.624-10.03-12.03-16.76-22.368-16.003c-9.481,0.606-17.081,7.106-19.443,15.574
	c-0.975-0.335-2.006-0.473-3.033-0.407c-2.453,0.172-4.677,1.506-5.981,3.59c-5.201-2.974-11.311-4.487-17.798-4.071
	c-4.916,0.301-9.693,1.738-13.96,4.201c-1.307-11.039-11.259-19.321-22.833-18.58c-10.393,0.522-18.918,8.412-20.244,18.732
	c-2.108-1.39-4.617-2.039-7.133-1.849c-1.797,0.114-3.462,0.722-4.907,1.617c-5.211-12.352-17.709-20.013-31.08-19.053
	c-16.141,0.863-28.908,13.98-29.337,30.137c-3.962-1.346-8.151-1.895-12.328-1.617c-8.38,0.538-15.762,4.216-21.019,9.764
	c-6.188-7.42-15.8-12.016-26.379-11.338c-12.605,0.763-22.604,6.68-26.798,18.593c-1.818-0.93-8.224,0-8.224,0
	c-4.505-13.487-17.124-21.084-31.314-20.158c-12.166,0.738-22.805,8.451-27.292,19.784L841.89,48.182z"/>
</svg>
