<?xml version="1.0" encoding="utf-8"?>
<!-- Generator: Adobe Illustrator 15.0.0, SVG Export Plug-In . SVG Version: 6.00 Build 0)  -->
<!DOCTYPE svg PUBLIC "-//W3C//DTD SVG 1.1//EN" "http://www.w3.org/Graphics/SVG/1.1/DTD/svg11.dtd">
<svg version="1.1" id="Calque_1" xmlns="http://www.w3.org/2000/svg" xmlns:xlink="http://www.w3.org/1999/xlink" x="0px" y="0px"
	 width="841.89px" height="48.182px" viewBox="0 0 841.89 48.182" enable-background="new 0 0 841.89 48.182" xml:space="preserve">
<g>
	<path fill="#96D2CA" d="M14.598,16.923c1.754,3.875,5.709,6.581,10.314,6.581c3.932,0,7.387-1.969,9.408-4.953
		c1.846,1.287,4.096,2.052,6.533,2.052c1.902,0,3.689-0.466,5.26-1.276c0.145,5.983,5.131,10.795,11.275,10.795
		c3.617,0,6.83-1.674,8.896-4.268c5.084,10.264,15.818,17.34,28.25,17.34c13.814,0,25.541-8.749,29.729-20.896
		c1.537,0.769,3.273,1.209,5.117,1.209c2.592,0,4.971-0.863,6.877-2.303c1.816,9.926,10.654,17.463,21.311,17.463
		c9.482,0,17.521-5.976,20.465-14.283c0.893,0.357,1.863,0.56,2.891,0.56c2.59,0,4.873-1.263,6.26-3.188
		c4.994,3.283,11.002,5.199,17.469,5.199c5.135,0,9.977-1.215,14.256-3.357c0.623,11.179,10.045,20.061,21.613,20.061
		c10.654,0,19.494-7.537,21.311-17.464c1.904,1.438,4.285,2.304,6.877,2.304c1.844,0,3.578-0.441,5.115-1.21
		c4.189,12.147,15.912,20.896,29.73,20.896c16.443,0,29.924-12.391,31.266-28.158c3.746,1.548,7.861,2.401,12.184,2.401
		c8.355,0,15.941-3.205,21.566-8.42c5.689,7.832,15.023,12.947,25.586,12.947c13.098,0,24.316-7.861,29.02-19.028
		c1.711,1.022,3.715,1.622,5.865,1.622c0.314,0,0.625-0.021,0.936-0.046c3.402,13.376,15.742,23.288,30.451,23.288
		c12.627,0,23.506-7.31,28.486-17.839c0.895,0.357,1.873,0.56,2.898,0.56c0.912,0,1.783-0.164,2.596-0.45
		c2.07,2.445,5.193,4.005,8.691,4.005c5.006,0,9.244-3.193,10.723-7.613c5.521,4.736,12.748,7.613,20.664,7.613
		c10.563,0,19.896-5.113,25.586-12.945c5.625,5.215,13.211,8.42,21.566,8.42c4.32,0,8.438-0.855,12.182-2.402
		c1.342,15.77,14.822,28.158,31.27,28.158c13.816,0,25.539-8.75,29.73-20.897c1.537,0.77,3.271,1.21,5.115,1.21
		c2.592,0,4.971-0.862,6.875-2.303c1.818,9.925,10.658,17.463,21.313,17.463c11.564,0,20.988-8.883,21.611-20.059
		c4.279,2.142,9.121,3.356,14.256,3.356c6.465,0,12.475-1.918,17.467-5.198c1.389,1.926,3.672,3.186,6.26,3.186
		c1.023,0,2-0.199,2.895-0.557c2.939,8.309,10.979,14.283,20.461,14.283c10.652,0,19.494-7.539,21.313-17.464
		c1.904,1.438,4.285,2.304,6.875,2.304c1.844,0,3.58-0.441,5.117-1.209c4.193,12.145,15.916,20.895,29.732,20.895
		c2.688,0,5.291-0.35,7.779-0.975V0H0v15.849c2.037,1.984,4.844,3.213,7.945,3.213C10.436,19.062,12.73,18.262,14.598,16.923z"/>
</g>
</svg>
