<?xml version="1.0" encoding="utf-8"?>
<!-- Generator: Adobe Illustrator 15.0.0, SVG Export Plug-In . SVG Version: 6.00 Build 0)  -->
<!DOCTYPE svg PUBLIC "-//W3C//DTD SVG 1.1//EN" "http://www.w3.org/Graphics/SVG/1.1/DTD/svg11.dtd">
<svg version="1.1" id="Calque_1" xmlns="http://www.w3.org/2000/svg" xmlns:xlink="http://www.w3.org/1999/xlink" x="0px" y="0px"
	 width="841.89px" height="48.182px" viewBox="0 0 841.89 48.182" enable-background="new 0 0 841.89 48.182" xml:space="preserve">
<g>
	<path fill="#96D2CA" d="M7.945,29.122c-3.101,0-5.908,1.229-7.945,3.213v15.849h841.89V13.853
		c-2.488-0.625-5.092-0.975-7.779-0.975c-13.816,0-25.539,8.75-29.732,20.895c-1.537-0.768-3.273-1.209-5.117-1.209
		c-2.59,0-4.971,0.865-6.875,2.304c-1.818-9.925-10.66-17.464-21.313-17.464c-9.482,0-17.521,5.975-20.461,14.283
		c-0.895-0.357-1.871-0.557-2.895-0.557c-2.588,0-4.871,1.26-6.26,3.186c-4.992-3.28-11.002-5.198-17.467-5.198
		c-5.135,0-9.977,1.215-14.256,3.356c-0.623-11.176-10.047-20.059-21.611-20.059c-10.654,0-19.494,7.538-21.313,17.463
		c-1.904-1.44-4.283-2.303-6.875-2.303c-1.844,0-3.578,0.44-5.115,1.21c-4.191-12.147-15.914-20.897-29.73-20.897
		c-16.447,0-29.928,12.389-31.27,28.158c-3.744-1.547-7.861-2.402-12.182-2.402c-8.355,0-15.941,3.205-21.566,8.42
		c-5.689-7.832-15.023-12.945-25.586-12.945c-7.916,0-15.143,2.877-20.664,7.613c-1.479-4.42-5.717-7.613-10.723-7.613
		c-3.498,0-6.621,1.56-8.691,4.005c-0.813-0.286-1.684-0.45-2.596-0.45c-1.025,0-2.004,0.202-2.898,0.56
		c-4.98-10.529-15.859-17.839-28.486-17.839c-14.709,0-27.049,9.912-30.451,23.288c-0.311-0.024-0.621-0.046-0.936-0.046
		c-2.15,0-4.154,0.6-5.865,1.622c-4.704-11.167-15.922-19.028-29.02-19.028c-10.563,0-19.897,5.115-25.586,12.947
		c-5.625-5.215-13.211-8.42-21.566-8.42c-4.323,0-8.438,0.854-12.184,2.401C333.479,12.391,319.998,0,303.555,0
		c-13.818,0-25.541,8.749-29.73,20.896c-1.537-0.769-3.271-1.21-5.115-1.21c-2.592,0-4.973,0.865-6.877,2.304
		c-1.817-9.927-10.657-17.464-21.311-17.464c-11.568,0-20.99,8.882-21.613,20.061c-4.279-2.143-9.121-3.357-14.256-3.357
		c-6.467,0-12.475,1.916-17.469,5.199c-1.387-1.925-3.67-3.188-6.26-3.188c-1.028,0-1.998,0.202-2.891,0.56
		c-2.944-8.308-10.983-14.283-20.465-14.283c-10.657,0-19.495,7.537-21.311,17.463c-1.906-1.439-4.285-2.303-6.877-2.303
		c-1.844,0-3.58,0.44-5.117,1.209C120.075,13.74,108.348,4.99,94.534,4.99c-12.432,0-23.166,7.076-28.25,17.34
		c-2.066-2.594-5.279-4.268-8.896-4.268c-6.144,0-11.13,4.812-11.275,10.795c-1.571-0.811-3.358-1.276-5.26-1.276
		c-2.437,0-4.687,0.765-6.533,2.052c-2.021-2.984-5.476-4.953-9.408-4.953c-4.605,0-8.56,2.706-10.314,6.581
		C12.73,29.922,10.436,29.122,7.945,29.122z"/>
</g>
</svg>
