<?xml version="1.0" encoding="utf-8"?>
<!-- Generator: Adobe Illustrator 15.0.0, SVG Export Plug-In . SVG Version: 6.00 Build 0)  -->
<!DOCTYPE svg PUBLIC "-//W3C//DTD SVG 1.1//EN" "http://www.w3.org/Graphics/SVG/1.1/DTD/svg11.dtd">
<svg version="1.1" id="Calque_1" xmlns="http://www.w3.org/2000/svg" xmlns:xlink="http://www.w3.org/1999/xlink" x="0px" y="0px"
	 width="841.89px" height="595.281px" viewBox="0 0 841.89 595.281" enable-background="new 0 0 841.89 595.281"
	 xml:space="preserve">
<g>
	<path fill="#52BCC4" d="M827.292,59.911c-1.754-3.875-5.709-6.581-10.314-6.581c-3.932,0-7.387,1.969-9.408,4.953
		c-1.846-1.287-4.096-2.051-6.533-2.051c-1.902,0-3.689,0.465-5.26,1.277c-0.145-5.984-5.131-10.795-11.275-10.795
		c-3.617,0-6.83,1.674-8.896,4.267c-5.084-10.263-15.818-17.34-28.25-17.34c-13.814,0-25.541,8.749-29.729,20.897
		c-1.537-0.768-3.273-1.209-5.117-1.209c-2.592,0-4.971,0.864-6.877,2.303c-1.816-9.926-10.654-17.463-21.311-17.463
		c-9.482,0-17.521,5.975-20.465,14.283c-0.893-0.357-1.863-0.559-2.891-0.559c-2.59,0-4.873,1.262-6.26,3.188
		c-4.994-3.283-11.002-5.199-17.469-5.199c-5.135,0-9.977,1.215-14.256,3.357c-0.623-11.178-10.045-20.059-21.613-20.059
		c-10.654,0-19.494,7.537-21.311,17.463c-1.904-1.438-4.285-2.303-6.877-2.303c-1.844,0-3.578,0.441-5.115,1.21
		c-4.189-12.148-15.912-20.897-29.73-20.897c-16.443,0-29.924,12.39-31.266,28.158c-3.746-1.547-7.861-2.402-12.184-2.402
		c-8.355,0-15.941,3.205-21.566,8.42c-5.689-7.832-15.023-12.947-25.586-12.947c-13.098,0-24.316,7.861-29.021,19.028
		c-1.711-1.022-3.714-1.622-5.865-1.622c-0.314,0-0.625,0.021-0.935,0.046c-3.403-13.376-15.743-23.288-30.451-23.288
		c-12.627,0-23.506,7.309-28.487,17.839c-0.895-0.358-1.873-0.56-2.899-0.56c-0.912,0-1.783,0.164-2.596,0.451
		c-2.07-2.446-5.194-4.005-8.691-4.005c-5.006,0-9.244,3.194-10.723,7.614c-5.521-4.737-12.748-7.614-20.664-7.614
		c-10.562,0-19.896,5.114-25.586,12.947c-5.625-5.216-13.211-8.42-21.566-8.42c-4.32,0-8.437,0.855-12.182,2.401
		c-1.342-15.768-14.823-28.158-31.268-28.158c-13.817,0-25.54,8.75-29.731,20.898c-1.538-0.768-3.272-1.21-5.116-1.21
		c-2.591,0-4.971,0.864-6.876,2.302c-1.817-9.924-10.658-17.462-21.312-17.462c-11.564,0-20.987,8.882-21.611,20.058
		c-4.279-2.141-9.121-3.357-14.256-3.357c-6.465,0-12.474,1.918-17.467,5.2c-1.387-1.926-3.671-3.187-6.259-3.187
		c-1.024,0-2,0.2-2.893,0.557c-2.94-8.308-10.979-14.283-20.461-14.283c-10.654,0-19.494,7.539-21.312,17.463
		c-1.905-1.438-4.285-2.303-6.876-2.303c-1.844,0-3.579,0.442-5.117,1.21C33.321,50.281,21.598,41.531,7.781,41.531
		c-2.689,0-5.291,0.351-7.781,0.975v538.749h841.89V60.986c-2.037-1.985-4.844-3.213-7.945-3.213
		C831.455,57.773,829.16,58.572,827.292,59.911z"/>
</g>
<path fill="#6FC3C6" d="M809.025,100.27c-1.539-0.697-3.273-1.098-5.121-1.098c-2.594,0-4.973,0.785-6.879,2.09
	c-1.818-9.009-10.66-15.85-21.322-15.85c-9.484,0-17.525,5.423-20.469,12.964c-0.893-0.324-1.865-0.507-2.893-0.507
	c-2.592,0-4.875,1.145-6.262,2.893c-4.996-2.98-11.008-4.719-17.479-4.719c-5.137,0-9.979,1.104-14.264,3.047
	c-0.623-10.145-10.051-18.206-21.621-18.206c-10.658,0-19.502,6.842-21.316,15.85c-1.904-1.305-4.285-2.09-6.881-2.09
	c-1.844,0-3.58,0.401-5.119,1.098c-4.193-11.026-15.92-18.967-29.74-18.967c-16.453,0-29.939,11.244-31.283,25.558
	c-3.748-1.404-7.865-2.181-12.186-2.181c-8.359,0-15.949,2.909-21.576,7.643c-5.691-7.109-15.031-11.752-25.602-11.752
	c-7.918,0-15.146,2.611-20.67,6.91c-1.479-4.011-5.721-6.91-10.729-6.91c-3.498,0-6.625,1.415-8.697,3.634
	c-0.811-0.26-1.684-0.41-2.594-0.41c-1.027,0-2.008,0.183-2.902,0.509c-4.98-9.558-15.867-16.19-28.498-16.19
	c-14.719,0-27.063,8.996-30.465,21.137c-0.311-0.023-0.619-0.042-0.938-0.042c-2.15,0-4.154,0.545-5.869,1.473
	c-4.703-10.135-15.928-17.272-29.031-17.272c-10.566,0-19.906,4.643-25.598,11.752c-5.626-4.734-13.216-7.643-21.576-7.643
	c-4.322,0-8.439,0.777-12.187,2.18c-1.343-14.312-14.828-25.558-31.281-25.558c-13.823,0-25.55,7.942-29.743,18.968
	c-1.538-0.697-3.275-1.099-5.119-1.099c-2.592,0-4.972,0.786-6.879,2.09c-1.819-9.007-10.663-15.85-21.32-15.85
	c-11.572,0-20.997,8.063-21.621,18.206c-4.281-1.943-9.126-3.047-14.263-3.047c-6.47,0-12.479,1.741-17.476,4.72
	c-1.386-1.748-3.672-2.892-6.262-2.892c-1.025,0-2,0.182-2.894,0.505c-2.94-7.542-10.982-12.964-20.469-12.964
	c-10.66,0-19.503,6.843-21.32,15.85c-1.906-1.305-4.288-2.09-6.88-2.09c-1.846,0-3.581,0.401-5.119,1.099
	c-4.193-11.026-15.921-18.968-29.745-18.968c-12.434,0-23.178,6.422-28.264,15.738c-2.066-2.354-5.279-3.872-8.899-3.872
	c-6.147,0-11.136,4.366-11.28,9.797c-1.572-0.738-3.36-1.16-5.262-1.16c-2.439,0-4.69,0.694-6.536,1.861
	c-2.021-2.707-5.481-4.496-9.413-4.496c-4.608,0-8.565,2.457-10.32,5.974c-1.867-1.214-4.164-1.941-6.656-1.941
	c-4.976,0-9.192,2.865-10.695,6.838c-0.199-0.01-0.396-0.027-0.597-0.027c-0.323,0-0.64,0.019-0.955,0.042v492.386h841.89V81.44
	c-1.025-0.09-2.066-0.139-3.121-0.139C824.945,81.301,813.218,89.243,809.025,100.27z"/>
<g>
	<path fill="#98D1CA" d="M827.292,124.396c-1.756-3.5-5.709-5.944-10.314-5.944c-3.932,0-7.387,1.778-9.408,4.474
		c-1.846-1.163-4.096-1.853-6.533-1.853c-1.902,0-3.689,0.42-5.26,1.154c-0.145-5.405-5.131-9.75-11.275-9.75
		c-3.617,0-6.83,1.512-8.896,3.854c-5.084-9.269-15.818-15.662-28.25-15.662c-13.814,0-25.541,7.902-29.729,18.875
		c-1.537-0.693-3.273-1.092-5.117-1.092c-2.592,0-4.973,0.78-6.877,2.08c-1.816-8.965-10.654-15.772-21.311-15.772
		c-9.482,0-17.521,5.396-20.465,12.9c-0.893-0.323-1.863-0.504-2.891-0.504c-2.59,0-4.873,1.14-6.26,2.879
		c-4.994-2.965-11.002-4.696-17.469-4.696c-5.135,0-9.977,1.097-14.256,3.032c-0.623-10.096-10.045-18.117-21.613-18.117
		c-10.654,0-19.494,6.808-21.311,15.772c-1.904-1.299-4.285-2.08-6.877-2.08c-1.844,0-3.578,0.399-5.115,1.093
		c-4.189-10.973-15.912-18.875-29.73-18.875c-16.443,0-29.924,11.19-31.266,25.433c-3.746-1.397-7.861-2.169-12.184-2.169
		c-8.355,0-15.941,2.895-21.566,7.604c-5.689-7.074-15.023-11.694-25.586-11.694c-13.098,0-24.316,7.101-29.021,17.187
		c-1.711-0.923-3.714-1.465-5.865-1.465c-0.314,0-0.625,0.019-0.935,0.041c-3.403-12.081-15.743-21.034-30.452-21.034
		c-12.627,0-23.506,6.601-28.487,16.112c-0.895-0.324-1.873-0.505-2.9-0.505c-0.912,0-1.783,0.148-2.595,0.407
		c-2.07-2.209-5.194-3.617-8.692-3.617c-5.006,0-9.244,2.885-10.723,6.877c-5.521-4.279-12.747-6.877-20.664-6.877
		c-10.561,0-19.896,4.619-25.585,11.694c-5.625-4.711-13.211-7.605-21.567-7.605c-4.32,0-8.436,0.772-12.181,2.169
		c-1.342-14.242-14.823-25.433-31.268-25.433c-13.817,0-25.54,7.903-29.731,18.876c-1.538-0.693-3.272-1.093-5.116-1.093
		c-2.591,0-4.971,0.78-6.876,2.079c-1.817-8.963-10.658-15.771-21.312-15.771c-11.564,0-20.987,8.022-21.611,18.116
		c-4.279-1.934-9.121-3.033-14.256-3.033c-6.465,0-12.474,1.732-17.467,4.697c-1.387-1.739-3.671-2.878-6.259-2.878
		c-1.024,0-2,0.181-2.893,0.503c-2.94-7.503-10.979-12.901-20.461-12.901c-10.654,0-19.494,6.81-21.312,15.772
		c-1.905-1.298-4.285-2.08-6.876-2.08c-1.844,0-3.579,0.399-5.117,1.093c-4.192-10.972-15.915-18.875-29.731-18.875
		c-2.69,0-5.291,0.317-7.781,0.88V595.28h841.89V125.368c-2.037-1.793-4.844-2.902-7.945-2.902
		C831.455,122.466,829.16,123.188,827.292,124.396z"/>
</g>
<g>
	<defs>
		<path id="SVGID_1_" d="M2.632,108.32c1.945-0.34,3.952-0.524,6.011-0.524c13.816,0,25.539,7.902,29.731,18.875
			c1.538-0.695,3.273-1.094,5.117-1.094c2.591,0,4.971,0.782,6.876,2.08c1.818-8.961,10.658-15.771,21.312-15.771
			c9.482,0,17.521,5.398,20.461,12.9c0.893-0.321,1.869-0.502,2.893-0.502c2.588,0,4.872,1.139,6.259,2.877
			c4.993-2.965,11.002-4.696,17.467-4.696c5.135,0,9.977,1.098,14.256,3.032c0.624-10.094,10.047-18.115,21.611-18.115
			c10.654,0,19.495,6.808,21.312,15.771c1.905-1.301,4.285-2.08,6.876-2.08c1.844,0,3.578,0.4,5.116,1.094
			c4.191-10.974,15.914-18.877,29.731-18.877c16.445,0,29.926,11.191,31.268,25.434c3.745-1.396,7.861-2.169,12.181-2.169
			c8.356,0,15.942,2.894,21.567,7.604c5.689-7.074,15.024-11.693,25.585-11.693c7.917,0,15.143,2.598,20.664,6.877
			c1.479-3.992,5.717-6.877,10.723-6.877c3.498,0,6.623,1.408,8.692,3.617c0.812-0.26,1.683-0.407,2.595-0.407
			c1.027,0,2.005,0.181,2.9,0.505c4.98-9.51,15.859-16.111,28.486-16.111c14.709,0,27.049,8.952,30.453,21.033
			c0.31-0.021,0.622-0.041,0.935-0.041c2.151,0,4.153,0.542,5.864,1.465c4.705-10.086,15.923-17.187,29.021-17.187
			c10.563,0,19.896,4.62,25.586,11.694c5.625-4.708,13.211-7.604,21.566-7.604c4.322,0,8.438,0.773,12.184,2.169
			c0.678-7.185,4.444-13.593,10.126-18.179l0.515-1.825c-1.851-3.29-5.67-5.554-10.092-5.554c-3.498,0-6.625,1.416-8.697,3.635
			c-0.811-0.26-1.684-0.41-2.594-0.41c-1.027,0-2.006,0.185-2.902,0.511c-4.98-9.559-15.867-16.19-28.498-16.19
			c-14.719,0-27.063,8.995-30.465,21.137c-0.311-0.021-0.619-0.042-0.938-0.042c-2.15,0-4.154,0.545-5.869,1.474
			c-4.703-10.135-15.927-17.271-29.031-17.271c-10.567,0-19.907,4.644-25.598,11.752c-5.626-4.734-13.217-7.643-21.576-7.643
			c-4.323,0-8.44,0.776-12.188,2.18c-1.342-14.313-14.828-25.559-31.28-25.559c-13.823,0-25.55,7.942-29.743,18.969
			c-1.538-0.698-3.275-1.101-5.119-1.101c-2.592,0-4.972,0.786-6.879,2.091c-1.819-9.006-10.663-15.851-21.32-15.851
			c-11.572,0-20.997,8.063-21.621,18.206c-4.281-1.942-9.126-3.047-14.263-3.047c-6.47,0-12.479,1.741-17.476,4.72
			c-1.386-1.748-3.672-2.893-6.262-2.893c-1.025,0-2,0.183-2.894,0.506c-2.94-7.542-10.982-12.965-20.469-12.965
			c-10.66,0-19.503,6.844-21.32,15.851c-1.906-1.305-4.288-2.09-6.88-2.09c-1.846,0-3.581,0.402-5.119,1.099
			c-4.193-11.025-15.921-18.968-29.745-18.968c-12.434,0-23.178,6.423-28.264,15.738c-2.066-2.354-5.279-3.872-8.899-3.872
			c-6.147,0-11.136,4.365-11.28,9.797c-1.572-0.738-3.36-1.16-5.262-1.16c-2.439,0-4.69,0.694-6.536,1.861
			c-2.021-2.707-5.481-4.496-9.413-4.496c-4.608,0-8.565,2.457-10.32,5.975c-1.867-1.214-4.164-1.94-6.656-1.94
			c-4.976,0-9.192,2.865-10.695,6.838L2.632,108.32z"/>
	</defs>
	<clipPath id="SVGID_2_">
		<use xlink:href="#SVGID_1_"  overflow="visible"/>
	</clipPath>
	
		<path clip-path="url(#SVGID_2_)" fill="none" stroke="#113653" stroke-width="1.7261" stroke-linecap="round" stroke-linejoin="round" stroke-miterlimit="10" d="
		M-0.903,89.019c1.235-3.536,3.905-6.004,5.787-7.973c5.413-5.661,10.935-9.579,16.039-16.833
		c4.775-6.787,9.04-15.342,13.724-22.506c2.23-3.412,4.832-5.633,6.926-9.462c-4.638,18.828-13.551,31.24-20.654,44.542
		C13.767,90.184,6.947,107.43-1.519,116.222c1.168-6.429,7.523-10.745,10.078-13.454c6.414-6.803,12.871-12.947,18.385-23.347
		c3.622-6.831,8.18-14.998,11.176-23.056c-10.592,26.988-24.535,44.037-35.839,69.21c6.422-16.187,18.191-20.457,26.066-32.169
		c4.405-6.551,7.971-15.295,12.102-22.585c-3.062,13.956-11.165,28.08-16.45,38.305c-5.193,10.046-10.719,22.194-16.441,30.537
		c11.275-29.52,31.262-29.181,42.167-59.167c-2.501,4.909-4.588,11.11-6.886,16.549c-5.686,13.454-12.229,24.379-18.921,35.006
		c-6.734,10.694-13.69,21.393-19.593,34.524c2.717-8.994,4.513-17.591,8.21-25.364c7.815-16.433,18.066-24.283,26.222-39.432
		c3.744-6.953,6.72-14.946,8.923-24.759c0.7-3.115,1.09-5.884,2.146-8.4c-3.259,16.896-9.024,33.196-14.55,46.432
		c-3.103,7.433-7.366,13.864-10.081,21.886c-1.632-25.531,18.03-45.894,25.229-55.157c9.393-12.088,17.963-26.864,27.21-39.321
		c-0.603,7.602-3.023,13.844-5.061,19.749C67.743,76.212,62.5,89.955,57.009,102.603c-6.916,15.93-15.535,28.743-23.53,41.513
		c0.637-22.646,13.189-38.274,20.094-49.862C60.571,82.509,68.779,68.998,72.1,49.783c-6.8,21.786-14.517,40.354-22.731,59.577
		c-5.144,12.038-13.009,24.719-16.213,40.468c1.333-7.466,4.361-13.169,7.029-18.054c8.526-15.61,18.423-26.952,27.104-42.229
		c5.267-9.27,8.58-18.968,11.882-31.884c-5.984,41.24-23.862,63.786-33.023,99.614c1.37-10.931,4.751-19.659,8.073-27.717
		c7.114-17.256,15.357-32.617,23.562-47.025c3.968-6.968,8.546-13.371,11.253-23.348c0.891-3.284,1.267-7.555,2.406-10.327
		c-1.02,21.252-10.09,43.328-15.863,58.75c-4.081,10.904-8.196,21.755-12.452,32.273c-0.602-7.145,1.212-11.483,3.137-16.444
		c4.229-10.898,8.551-21.352,13.011-31.754c3.995-9.316,8.116-18.345,11.731-28.47c1.179-3.301,2.275-7.672,3.701-10.343
		c0.778,6.549-2.665,17.213-4.027,22.568c-3.612,14.195-9.379,25.379-14.438,36.795c-7.529,16.994-15.882,31.992-23.333,49.059
		c4.136-25.496,16.607-45.377,24.58-64.467c4.938-11.825,7.878-25.031,12.051-37.959c0.734,5.071-0.138,12.486-1.166,17.511
		c-2.491,12.183-6.183,23.863-9.139,35.517c-2.556,10.076-7.488,20.947-9.131,31.556c6.559-20.067,15.304-32.883,22.965-50.353
		c4.482-10.223,10.33-22.777,12.542-36.892c-2.006,4.476-3.26,12.657-4.613,18.258c-4.251,17.593-8.326,35.006-13.789,50.797
		c-4.092,11.831-8.343,26.533-13.351,36.222c-1.602-30.096,13.827-53.597,21.793-71.939c3.788-8.723,7.673-17.441,11.188-26.766
		c0.939-2.492,2.154-7.552,3.523-8.512c-0.723,22.201-9.194,39.365-14.543,56.552c-2.512,8.071-5.062,15.855-7.783,23.556
		c-1.489,4.215-3.218,11.483-5.022,14.16c0.152-9.315,2.812-19.419,5.258-26.456c5.319-15.293,12.402-28.718,18.874-41.317
		c3.974-7.738,8.27-16.321,11.506-25.728c-7.448,34.273-19.769,64.712-30.734,93.206c0.314-8.154,3.54-15.388,5.705-21.127
		c6.585-17.459,14.685-30.769,21.968-46.55c4.914-10.646,9.573-21.706,13.867-33.584c0.329,6.903-1.532,16.302-2.659,22.338
		c-4.065,21.764-10.922,41.8-17.123,60.518c-3.972,11.991-7.682,24.233-11.293,36.671c-3.436-19.248,14.426-45.929,19.259-55.553
		c5.429-10.811,11.809-22.635,15.883-36.413c1.493-5.05,2.33-10.948,3.992-15.719c-3.71,20.645-10.507,37.362-15.949,55.571
		c-2.925,9.787-6.717,25.29-11.26,31.551c-1.521-6.594,3.131-18.147,4.5-22.326c5.896-18.001,12.87-34.662,19.76-50.633
		c6.636-15.381,12.816-30.524,18.712-47.205c-0.006,8.371-2.757,18.829-4.29,26.019c-3.591,16.84-8.175,31.185-12.815,46.415
		c-2.693,8.839-4.847,17.975-6.418,28.009c1.991-16.948,5.813-29.686,9.793-44.518c2.841-10.586,5.551-21.531,7.957-32.679
		c0.875-4.058,1.594-9.71,3.12-12.821c0.63,20.673-5.449,46.88-9.023,65.083c-2.314,11.788-5.304,23.04-8.692,33.293
		c-0.135-32.073,17.459-51.714,23.112-78.444c-1.08,3.552-1.363,7.261-1.982,11.441c-1.882,12.722-4.667,24.813-7.135,36.979
		c-3.829,18.874-10.442,35.913-13.202,55.776c0.645-21.859,10.428-38.371,16.587-52.552c6.015-13.848,10.731-28.616,15.921-43.854
		c0.719,14.892-4.071,35.563-6.909,48.67c-3.303,15.255-5.668,32.311-9.117,47.126c0.797-25.636,9.498-46.973,16.163-65.918
		c3.644-10.358,5.932-22.655,9.565-32.839c-1.316,17.494-6.147,36.425-9.2,52.555c-2.024,10.694-3.654,24.69-6.597,34.182
		c-1.381-23.116,11.435-49.979,17.268-65.311c4.206-11.053,7.984-23.294,11.178-35.396c-0.209,6.797-1.926,14.372-2.824,20.785
		c-1.942,13.88-4.131,28.054-7.286,40.762c-2.722,10.96-5.916,21.611-8.772,32.342c-1.427-38.295,16.13-62.01,22.211-93.698
		c-0.632,19.896-6.487,42.688-10.482,59.974c-2.971,12.855-9.487,28.417-9.002,43.932c5.413-42.27,18.637-71.476,28.583-107.663
		c-1.828,28.848-8.744,55.087-13.37,81.84c-2.442,14.122-5.266,27.724-7.498,42.033c-1.133-26.61,10.014-55.395,16.814-73.914
		c5.324-14.499,11.193-27.75,14.82-45.026c-4.136,21.415-6.876,43.981-11.055,65.449c-2.961,15.213-7.471,31.002-8.706,47.713
		c-0.53-30.954,7.908-55.752,15.822-78.928c3.635-10.645,9.364-24.709,11.108-37.977c1.37,36.64-7.453,67.789-12.412,100.822
		c-0.182-6.349,1.9-13.692,3.264-19.033c3.793-14.856,8.711-27.763,12.791-42.101c2.308-8.111,5.376-18.707,5.965-28.479
		c-2.061,15.31-3.842,30.012-6.639,44.79c-2.679,14.152-5.838,27.495-6.428,43.091c-0.283-33.95,15.156-52.65,19.312-82.588
		c-0.408,6.877-2.669,12.905-4.131,18.845c-3.056,12.408-5.048,26.004-7.946,38.552c-2.169,9.391-3.386,19.336-5.177,29.171"/>
	
		<path clip-path="url(#SVGID_2_)" fill="none" stroke="#113653" stroke-width="1.7261" stroke-linecap="round" stroke-linejoin="round" stroke-miterlimit="10" d="
		M93.245,89.019c1.235-3.536,3.905-6.004,5.787-7.973c5.413-5.661,10.935-9.579,16.039-16.833
		c4.775-6.787,9.04-15.342,13.724-22.506c2.23-3.412,4.832-5.633,6.926-9.462c-4.638,18.828-13.551,31.24-20.654,44.542
		c-7.153,13.396-13.973,30.643-22.438,39.435c1.168-6.429,7.523-10.745,10.078-13.454c6.414-6.803,12.871-12.947,18.385-23.347
		c3.622-6.831,8.18-14.998,11.176-23.056c-10.592,26.988-24.535,44.037-35.839,69.21c6.422-16.187,18.191-20.457,26.066-32.169
		c4.405-6.551,7.971-15.295,12.102-22.585c-3.062,13.956-11.165,28.08-16.45,38.305c-5.193,10.046-10.719,22.194-16.441,30.537
		c11.275-29.52,31.262-29.181,42.167-59.167c-2.501,4.909-4.588,11.11-6.886,16.549c-5.686,13.454-12.229,24.379-18.921,35.006
		c-6.734,10.694-13.69,21.393-19.593,34.524c2.717-8.994,4.513-17.591,8.21-25.364c7.815-16.433,18.066-24.283,26.222-39.432
		c3.744-6.953,6.72-14.946,8.923-24.759c0.7-3.115,1.09-5.884,2.146-8.4c-3.259,16.896-9.024,33.196-14.55,46.432
		c-3.103,7.433-7.366,13.864-10.081,21.886c-1.632-25.531,18.03-45.894,25.229-55.157c9.393-12.088,17.963-26.864,27.21-39.321
		c-0.603,7.602-3.023,13.844-5.061,19.749c-4.831,14.004-10.073,27.746-15.564,40.395c-6.916,15.93-15.535,28.743-23.53,41.513
		c0.637-22.646,13.189-38.274,20.094-49.862c6.998-11.744,15.206-25.256,18.527-44.471c-6.8,21.786-14.517,40.354-22.731,59.577
		c-5.144,12.038-13.009,24.719-16.213,40.468c1.333-7.466,4.361-13.169,7.029-18.054c8.526-15.61,18.423-26.952,27.104-42.229
		c5.267-9.27,8.58-18.968,11.882-31.884c-5.984,41.24-23.862,63.786-33.023,99.614c1.37-10.931,4.751-19.659,8.073-27.717
		c7.114-17.256,15.357-32.617,23.562-47.025c3.968-6.968,8.546-13.371,11.253-23.348c0.891-3.284,1.267-7.555,2.406-10.327
		c-1.02,21.252-10.09,43.328-15.863,58.75c-4.081,10.904-8.196,21.755-12.452,32.273c-0.602-7.145,1.212-11.483,3.137-16.444
		c4.229-10.898,8.551-21.352,13.011-31.754c3.995-9.316,8.116-18.345,11.731-28.47c1.179-3.301,2.275-7.672,3.701-10.343
		c0.778,6.549-2.665,17.213-4.027,22.568c-3.612,14.195-9.379,25.379-14.438,36.795c-7.529,16.994-15.882,31.992-23.333,49.059
		c4.136-25.496,16.607-45.377,24.58-64.467c4.938-11.825,7.878-25.031,12.051-37.959c0.734,5.071-0.138,12.486-1.166,17.511
		c-2.491,12.183-6.183,23.863-9.139,35.517c-2.556,10.076-7.488,20.947-9.131,31.556c6.559-20.067,15.304-32.883,22.965-50.353
		c4.482-10.223,10.33-22.777,12.542-36.892c-2.006,4.476-3.26,12.657-4.613,18.258c-4.251,17.593-8.326,35.006-13.789,50.797
		c-4.092,11.831-8.343,26.533-13.351,36.222c-1.602-30.096,13.827-53.597,21.793-71.939c3.788-8.723,7.673-17.441,11.188-26.766
		c0.939-2.492,2.154-7.552,3.523-8.512c-0.723,22.201-9.194,39.365-14.543,56.552c-2.512,8.071-5.062,15.855-7.783,23.556
		c-1.489,4.215-3.218,11.483-5.022,14.16c0.152-9.315,2.812-19.419,5.258-26.456c5.319-15.293,12.402-28.718,18.874-41.317
		c3.974-7.738,8.27-16.321,11.506-25.728c-7.448,34.273-19.769,64.712-30.734,93.206c0.314-8.154,3.54-15.388,5.705-21.127
		c6.585-17.459,14.685-30.769,21.968-46.55c4.914-10.646,9.573-21.706,13.867-33.584c0.329,6.903-1.532,16.302-2.659,22.338
		c-4.065,21.764-10.922,41.8-17.123,60.518c-3.972,11.991-7.682,24.233-11.293,36.671c-3.436-19.248,14.426-45.929,19.259-55.553
		c5.429-10.811,11.809-22.635,15.883-36.413c1.493-5.05,2.33-10.948,3.992-15.719c-3.71,20.645-10.507,37.362-15.949,55.571
		c-2.925,9.787-6.717,25.29-11.26,31.551c-1.521-6.594,3.131-18.147,4.5-22.326c5.896-18.001,12.87-34.662,19.76-50.633
		c6.636-15.381,12.816-30.524,18.712-47.205c-0.006,8.371-2.757,18.829-4.29,26.019c-3.591,16.84-8.175,31.185-12.815,46.415
		c-2.693,8.839-4.847,17.975-6.418,28.009c1.991-16.948,5.813-29.686,9.793-44.518c2.841-10.586,5.551-21.531,7.957-32.679
		c0.875-4.058,1.594-9.71,3.12-12.821c0.63,20.673-5.449,46.88-9.023,65.083c-2.314,11.788-5.304,23.04-8.692,33.293
		c-0.135-32.073,17.459-51.714,23.112-78.444c-1.08,3.552-1.363,7.261-1.982,11.441c-1.882,12.722-4.667,24.813-7.135,36.979
		c-3.829,18.874-10.442,35.913-13.202,55.776c0.645-21.859,10.428-38.371,16.587-52.552c6.015-13.848,10.731-28.616,15.921-43.854
		c0.719,14.892-4.071,35.563-6.909,48.67c-3.303,15.255-5.668,32.311-9.117,47.126c0.797-25.636,9.498-46.973,16.163-65.918
		c3.644-10.358,5.932-22.655,9.565-32.839c-1.316,17.494-6.147,36.425-9.2,52.555c-2.024,10.694-3.654,24.69-6.597,34.182
		c-1.381-23.116,11.435-49.979,17.268-65.311c4.206-11.053,7.984-23.294,11.178-35.396c-0.209,6.797-1.926,14.372-2.824,20.785
		c-1.942,13.88-4.131,28.054-7.286,40.762c-2.722,10.96-5.916,21.611-8.772,32.342c-1.427-38.295,16.13-62.01,22.211-93.698
		c-0.632,19.896-6.487,42.688-10.482,59.974c-2.971,12.855-9.487,28.417-9.002,43.932c5.413-42.27,18.637-71.476,28.583-107.663
		c-1.828,28.848-8.744,55.087-13.37,81.84c-2.442,14.122-5.266,27.724-7.498,42.033c-1.133-26.61,10.014-55.395,16.814-73.914
		c5.324-14.499,11.193-27.75,14.82-45.026c-4.136,21.415-6.876,43.981-11.055,65.449c-2.961,15.213-7.471,31.002-8.706,47.713
		c-0.53-30.954,7.908-55.752,15.822-78.928c3.635-10.645,9.364-24.709,11.108-37.977c1.37,36.64-7.453,67.789-12.412,100.822
		c-0.182-6.349,1.9-13.692,3.264-19.033c3.793-14.856,8.711-27.763,12.791-42.101c2.308-8.111,5.376-18.707,5.965-28.479
		c-2.061,15.31-3.842,30.012-6.639,44.79c-2.679,14.152-5.838,27.495-6.428,43.091c-0.283-33.95,15.156-52.65,19.312-82.588
		c-0.408,6.877-2.669,12.905-4.131,18.845c-3.056,12.408-5.048,26.004-7.946,38.552c-2.169,9.391-3.386,19.336-5.177,29.171"/>
	
		<path clip-path="url(#SVGID_2_)" fill="none" stroke="#113653" stroke-width="1.7261" stroke-linecap="round" stroke-linejoin="round" stroke-miterlimit="10" d="
		M219.418,94.366c1.235-3.536,3.905-6.004,5.787-7.973c5.413-5.661,10.935-9.579,16.039-16.833
		c4.775-6.787,9.04-15.342,13.724-22.506c2.23-3.412,4.832-5.633,6.926-9.462c-4.638,18.828-13.551,31.24-20.654,44.542
		c-7.153,13.396-13.973,30.643-22.438,39.435c1.168-6.429,7.523-10.745,10.078-13.454c6.414-6.803,12.871-12.947,18.385-23.347
		c3.622-6.831,8.18-14.998,11.176-23.056c-10.592,26.988-24.535,44.037-35.839,69.21c6.422-16.187,18.191-20.457,26.066-32.169
		c4.405-6.551,7.971-15.295,12.102-22.585c-3.062,13.956-11.165,28.08-16.45,38.305c-5.193,10.046-10.719,22.194-16.441,30.537
		c11.275-29.52,31.262-29.181,42.167-59.167c-2.501,4.909-4.588,11.11-6.886,16.549c-5.686,13.454-12.229,24.379-18.921,35.006
		c-6.734,10.694-13.69,21.393-19.593,34.524c2.717-8.994,4.513-17.591,8.21-25.364c7.815-16.433,18.066-24.283,26.222-39.432
		c3.744-6.953,6.72-14.946,8.923-24.759c0.7-3.115,1.09-5.884,2.146-8.4c-3.259,16.896-9.024,33.196-14.55,46.432
		c-3.103,7.433-7.366,13.864-10.081,21.886c-1.632-25.531,18.03-45.894,25.229-55.157c9.393-12.088,17.963-26.864,27.21-39.321
		c-0.603,7.602-3.023,13.844-5.061,19.749c-4.831,14.004-10.073,27.746-15.564,40.395c-6.916,15.93-15.535,28.743-23.53,41.513
		c0.637-22.646,13.189-38.274,20.094-49.862c6.998-11.744,15.206-25.256,18.527-44.471c-6.8,21.786-14.517,40.354-22.731,59.577
		c-5.144,12.038-13.009,24.719-16.213,40.468c1.333-7.466,4.361-13.169,7.029-18.054c8.526-15.61,18.423-26.952,27.104-42.229
		c5.267-9.27,8.58-18.968,11.882-31.884c-5.984,41.24-23.862,63.786-33.023,99.614c1.37-10.931,4.751-19.659,8.073-27.717
		c7.114-17.256,15.357-32.617,23.562-47.025c3.968-6.968,8.546-13.371,11.253-23.348c0.891-3.284,1.267-7.555,2.406-10.327
		c-1.02,21.252-10.09,43.328-15.863,58.75c-4.081,10.904-8.196,21.755-12.452,32.273c-0.602-7.145,1.212-11.483,3.137-16.444
		c4.229-10.898,8.551-21.352,13.011-31.754c3.995-9.316,8.116-18.345,11.731-28.47c1.179-3.301,2.275-7.672,3.701-10.343
		c0.778,6.549-2.665,17.213-4.027,22.568c-3.612,14.195-9.379,25.379-14.438,36.795c-7.529,16.994-15.882,31.992-23.333,49.059
		c4.136-25.496,16.607-45.377,24.58-64.467c4.938-11.825,7.878-25.031,12.051-37.959c0.734,5.071-0.138,12.486-1.166,17.511
		c-2.491,12.183-6.183,23.863-9.139,35.517c-2.556,10.076-7.488,20.947-9.131,31.556c6.559-20.067,15.304-32.883,22.965-50.353
		c4.482-10.223,10.33-22.777,12.542-36.892c-2.006,4.476-3.26,12.657-4.613,18.258c-4.251,17.593-8.326,35.006-13.789,50.797
		c-4.092,11.831-8.343,26.533-13.351,36.222c-1.602-30.096,13.827-53.597,21.793-71.939c3.788-8.723,7.673-17.441,11.188-26.766
		c0.939-2.492,2.154-7.552,3.523-8.512c-0.723,22.201-9.194,39.365-14.543,56.552c-2.512,8.071-5.062,15.855-7.783,23.556
		c-1.489,4.215-3.218,11.483-5.022,14.16c0.152-9.315,2.812-19.419,5.258-26.456c5.319-15.293,12.402-28.718,18.874-41.317
		c3.974-7.738,8.27-16.321,11.506-25.728c-7.448,34.273-19.769,64.712-30.734,93.206c0.314-8.154,3.54-15.388,5.705-21.127
		c6.585-17.459,14.685-30.769,21.968-46.55c4.914-10.646,9.573-21.706,13.867-33.584c0.329,6.903-1.532,16.302-2.659,22.338
		c-4.065,21.764-10.922,41.8-17.123,60.518c-3.972,11.991-7.682,24.233-11.293,36.671c-3.436-19.248,14.426-45.929,19.259-55.553
		c5.429-10.811,11.809-22.635,15.883-36.413c1.493-5.05,2.33-10.948,3.992-15.719c-3.71,20.645-10.507,37.362-15.949,55.571
		c-2.925,9.787-6.717,25.29-11.26,31.551c-1.521-6.594,3.131-18.147,4.5-22.326c5.896-18.001,12.87-34.662,19.76-50.633
		c6.636-15.381,12.816-30.524,18.712-47.205c-0.006,8.371-2.757,18.829-4.29,26.019c-3.591,16.84-8.175,31.185-12.815,46.415
		c-2.693,8.839-4.847,17.975-6.418,28.009c1.991-16.948,5.813-29.686,9.793-44.518c2.841-10.586,5.551-21.531,7.957-32.679
		c0.875-4.058,1.594-9.71,3.12-12.821c0.63,20.673-5.449,46.88-9.023,65.083c-2.314,11.788-5.304,23.04-8.692,33.293
		c-0.135-32.073,17.459-51.714,23.112-78.444c-1.08,3.552-1.363,7.261-1.982,11.441c-1.882,12.722-4.667,24.813-7.135,36.979
		c-3.829,18.874-10.442,35.913-13.202,55.776c0.645-21.859,10.428-38.371,16.587-52.552c6.015-13.848,10.731-28.616,15.921-43.854
		c0.719,14.892-4.071,35.563-6.909,48.67c-3.303,15.255-5.668,32.311-9.117,47.126c0.797-25.636,9.498-46.973,16.163-65.918
		c3.644-10.358,5.932-22.655,9.565-32.839c-1.316,17.494-6.147,36.425-9.2,52.555c-2.024,10.694-3.654,24.69-6.597,34.182
		c-1.381-23.116,11.435-49.979,17.268-65.311c4.206-11.053,7.984-23.294,11.178-35.396c-0.209,6.797-1.926,14.372-2.824,20.785
		c-1.942,13.88-4.131,28.054-7.286,40.762c-2.722,10.96-5.916,21.611-8.772,32.342c-1.427-38.295,16.13-62.01,22.211-93.698
		c-0.632,19.896-6.487,42.688-10.482,59.974c-2.971,12.855-9.487,28.417-9.002,43.932c5.413-42.27,18.637-71.476,28.583-107.663
		c-1.828,28.848-8.744,55.087-13.37,81.84c-2.442,14.122-5.266,27.724-7.498,42.033c-1.133-26.61,10.014-55.395,16.814-73.914
		c5.324-14.499,11.193-27.75,14.82-45.026c-4.137,21.415-6.877,43.981-11.055,65.449c-2.961,15.213-7.471,31.002-8.706,47.713
		c-0.53-30.954,7.908-55.752,15.822-78.928c3.635-10.645,9.364-24.709,11.108-37.977c1.369,36.64-7.453,67.789-12.412,100.822
		c-0.182-6.349,1.9-13.692,3.264-19.033c3.793-14.856,8.711-27.763,12.791-42.101c2.308-8.111,5.377-18.707,5.965-28.479
		c-2.061,15.31-3.842,30.012-6.639,44.79c-2.679,14.152-5.838,27.495-6.428,43.091c-0.283-33.95,15.155-52.65,19.312-82.588
		c-0.407,6.877-2.669,12.905-4.132,18.845c-3.055,12.408-5.047,26.004-7.945,38.552c-2.169,9.391-3.386,19.336-5.177,29.171"/>
	
		<path clip-path="url(#SVGID_2_)" fill="none" stroke="#113653" stroke-width="1.7261" stroke-linecap="round" stroke-linejoin="round" stroke-miterlimit="10" d="
		M282.888,103.001c1.235-3.536,3.905-6.004,5.787-7.973c5.413-5.661,10.935-9.579,16.039-16.833
		c4.775-6.787,9.04-15.342,13.724-22.506c2.23-3.412,4.832-5.633,6.926-9.462c-4.638,18.828-13.551,31.24-20.654,44.542
		c-7.153,13.396-13.973,30.643-22.438,39.435c1.168-6.429,7.523-10.745,10.078-13.454c6.414-6.803,12.871-12.947,18.385-23.347
		c3.622-6.831,8.18-14.998,11.176-23.056c-10.592,26.988-24.535,44.037-35.839,69.21c6.422-16.187,18.191-20.457,26.066-32.169
		c4.405-6.551,7.971-15.295,12.102-22.585c-3.062,13.956-11.165,28.08-16.45,38.305c-5.193,10.046-10.719,22.194-16.441,30.537
		c11.275-29.52,31.262-29.181,42.167-59.167c-2.501,4.909-4.588,11.11-6.886,16.549c-5.686,13.454-12.229,24.379-18.921,35.006
		c-6.734,10.694-13.69,21.393-19.593,34.524c2.717-8.994,4.513-17.591,8.21-25.364c7.815-16.433,18.066-24.283,26.222-39.432
		c3.744-6.953,6.72-14.946,8.923-24.759c0.7-3.115,1.09-5.884,2.146-8.4c-3.259,16.896-9.024,33.196-14.55,46.432
		c-3.103,7.433-7.366,13.864-10.081,21.886c-1.632-25.531,18.03-45.894,25.229-55.157c9.393-12.088,17.963-26.864,27.21-39.321
		c-0.603,7.602-3.023,13.844-5.061,19.749c-4.831,14.004-10.073,27.746-15.564,40.395c-6.916,15.93-15.535,28.743-23.53,41.513
		c0.637-22.646,13.189-38.274,20.094-49.862c6.998-11.744,15.206-25.256,18.527-44.471c-6.8,21.786-14.517,40.354-22.731,59.577
		c-5.144,12.038-13.009,24.719-16.213,40.468c1.333-7.466,4.361-13.169,7.029-18.054c8.526-15.61,18.423-26.952,27.104-42.229
		c5.267-9.27,8.58-18.968,11.882-31.884c-5.984,41.24-23.862,63.786-33.023,99.614c1.37-10.931,4.751-19.659,8.073-27.717
		c7.114-17.256,15.357-32.617,23.562-47.025c3.968-6.968,8.546-13.371,11.253-23.348c0.891-3.284,1.267-7.555,2.406-10.327
		c-1.02,21.252-10.09,43.328-15.863,58.75c-4.081,10.904-8.196,21.755-12.452,32.273c-0.602-7.145,1.212-11.483,3.137-16.444
		c4.229-10.898,8.551-21.352,13.011-31.754c3.995-9.316,8.116-18.345,11.731-28.47c1.179-3.301,2.275-7.672,3.701-10.343
		c0.778,6.549-2.665,17.213-4.027,22.568c-3.612,14.195-9.379,25.379-14.438,36.795c-7.529,16.994-15.882,31.992-23.333,49.059
		c4.136-25.496,16.607-45.377,24.58-64.467c4.938-11.825,7.878-25.031,12.051-37.959c0.734,5.071-0.138,12.486-1.166,17.511
		c-2.491,12.183-6.183,23.863-9.139,35.517c-2.556,10.076-7.488,20.947-9.131,31.556c6.559-20.067,15.304-32.883,22.965-50.353
		c4.482-10.223,10.33-22.777,12.542-36.892c-2.006,4.476-3.26,12.657-4.613,18.258c-4.251,17.593-8.326,35.006-13.789,50.797
		c-4.092,11.831-8.343,26.533-13.351,36.222c-1.602-30.096,13.827-53.597,21.793-71.939c3.788-8.723,7.673-17.441,11.188-26.766
		c0.939-2.492,2.154-7.552,3.523-8.512c-0.723,22.201-9.194,39.365-14.543,56.552c-2.512,8.071-5.062,15.855-7.783,23.556
		c-1.489,4.215-3.218,11.483-5.022,14.16c0.152-9.315,2.812-19.419,5.258-26.456c5.319-15.293,12.402-28.718,18.874-41.317
		c3.974-7.738,8.27-16.321,11.506-25.728c-7.448,34.273-19.769,64.712-30.734,93.206c0.314-8.154,3.54-15.388,5.705-21.127
		c6.585-17.459,14.685-30.769,21.968-46.55c4.914-10.646,9.573-21.706,13.867-33.584c0.329,6.903-1.532,16.302-2.659,22.338
		c-4.065,21.764-10.922,41.8-17.123,60.518c-3.972,11.991-7.682,24.233-11.293,36.671c-3.436-19.248,14.426-45.929,19.259-55.553
		c5.429-10.811,11.809-22.635,15.883-36.413c1.493-5.05,2.33-10.948,3.992-15.719c-3.71,20.645-10.507,37.362-15.949,55.571
		c-2.925,9.787-6.717,25.29-11.26,31.551c-1.521-6.594,3.131-18.147,4.5-22.326c5.896-18.001,12.87-34.662,19.76-50.633
		c6.637-15.381,12.816-30.524,18.712-47.205c-0.007,8.371-2.757,18.829-4.29,26.019c-3.59,16.84-8.175,31.185-12.814,46.415
		c-2.693,8.839-4.847,17.975-6.418,28.009c1.991-16.948,5.813-29.686,9.793-44.518c2.841-10.586,5.551-21.531,7.957-32.679
		c0.875-4.058,1.594-9.71,3.119-12.821c0.631,20.673-5.448,46.88-9.023,65.083c-2.314,11.788-5.303,23.04-8.692,33.293
		c-0.135-32.073,17.459-51.714,23.112-78.444c-1.08,3.552-1.363,7.261-1.981,11.441c-1.882,12.722-4.667,24.813-7.135,36.979
		c-3.829,18.874-10.442,35.913-13.202,55.776c0.645-21.859,10.428-38.371,16.588-52.552c6.015-13.848,10.73-28.616,15.92-43.854
		c0.72,14.892-4.07,35.563-6.908,48.67c-3.303,15.255-5.668,32.311-9.117,47.126c0.797-25.636,9.498-46.973,16.163-65.918
		c3.644-10.358,5.933-22.655,9.565-32.839c-1.316,17.494-6.147,36.425-9.2,52.555c-2.024,10.694-3.654,24.69-6.597,34.182
		c-1.382-23.116,11.434-49.979,17.268-65.311c4.205-11.053,7.984-23.294,11.178-35.396c-0.209,6.797-1.926,14.372-2.824,20.785
		c-1.941,13.88-4.131,28.054-7.285,40.762c-2.722,10.96-5.916,21.611-8.771,32.342c-1.428-38.295,16.129-62.01,22.211-93.698
		c-0.633,19.896-6.488,42.688-10.482,59.974c-2.971,12.855-9.488,28.417-9.003,43.932c5.413-42.27,18.638-71.476,28.583-107.663
		c-1.828,28.848-8.744,55.087-13.37,81.84c-2.442,14.122-5.266,27.724-7.498,42.033c-1.134-26.61,10.015-55.395,16.814-73.914
		c5.323-14.499,11.193-27.75,14.819-45.026c-4.135,21.415-6.875,43.981-11.055,65.449c-2.961,15.213-7.471,31.002-8.705,47.713
		c-0.529-30.954,7.908-55.752,15.822-78.928c3.635-10.645,9.364-24.709,11.107-37.977c1.371,36.64-7.453,67.789-12.411,100.822
		c-0.182-6.349,1.899-13.692,3.264-19.033c3.793-14.856,8.712-27.763,12.791-42.101c2.308-8.111,5.376-18.707,5.966-28.479
		c-2.061,15.31-3.842,30.012-6.64,44.79c-2.679,14.152-5.839,27.495-6.429,43.091c-0.282-33.95,15.156-52.65,19.313-82.588
		c-0.408,6.877-2.669,12.905-4.131,18.845c-3.057,12.408-5.049,26.004-7.946,38.552c-2.169,9.391-3.386,19.336-5.177,29.171"/>
</g>
<g>
	<defs>
		<path id="SVGID_3_" d="M840.822,81.729c-0.813-0.057-1.635-0.087-2.463-0.087c-13.816,0-25.545,7.943-29.736,18.969
			c-1.539-0.697-3.273-1.098-5.121-1.098c-2.596,0-4.975,0.784-6.879,2.09c-1.818-9.009-10.66-15.851-21.322-15.851
			c-9.486,0-17.527,5.424-20.469,12.965c-0.895-0.324-1.867-0.508-2.895-0.508c-2.566,0-4.826,1.125-6.217,2.845l1.229-0.04
			c12.432,0,23.166,6.392,28.25,15.662c2.066-2.341,5.279-3.854,8.896-3.854c6.145,0,11.131,4.346,11.275,9.75
			c1.57-0.732,3.357-1.152,5.26-1.152c2.438,0,4.688,0.689,6.533,1.853c2.021-2.697,5.477-4.474,9.408-4.474
			c4.605,0,8.559,2.442,10.314,5.942c1.867-1.209,4.162-1.93,6.652-1.93c2.744,0,5.258,0.868,7.211,2.312L840.822,81.729z"/>
	</defs>
	<clipPath id="SVGID_4_">
		<use xlink:href="#SVGID_3_"  overflow="visible"/>
	</clipPath>
	
		<path clip-path="url(#SVGID_4_)" fill="none" stroke="#113653" stroke-width="1.7261" stroke-linecap="round" stroke-linejoin="round" stroke-miterlimit="10" d="
		M697.873,81.754c1.235-3.536,3.906-6.004,5.787-7.973c5.413-5.661,10.936-9.579,16.039-16.833
		c4.775-6.787,9.041-15.342,13.725-22.506c2.23-3.412,4.832-5.633,6.926-9.462c-4.638,18.828-13.551,31.24-20.654,44.542
		c-7.152,13.396-13.973,30.643-22.438,39.435c1.168-6.429,7.522-10.745,10.078-13.454c6.413-6.803,12.87-12.947,18.385-23.347
		c3.622-6.831,8.18-14.998,11.176-23.056c-10.592,26.988-24.535,44.037-35.839,69.21c6.422-16.187,18.191-20.457,26.065-32.169
		c4.405-6.551,7.972-15.295,12.102-22.585c-3.061,13.956-11.164,28.08-16.449,38.305c-5.193,10.046-10.72,22.194-16.441,30.537
		c11.274-29.52,31.262-29.181,42.167-59.167c-2.501,4.909-4.588,11.11-6.886,16.549c-5.686,13.454-12.229,24.379-18.922,35.006
		c-6.734,10.694-13.69,21.393-19.593,34.524c2.718-8.994,4.513-17.591,8.21-25.364c7.815-16.433,18.066-24.283,26.223-39.432
		c3.744-6.953,6.721-14.946,8.924-24.759c0.699-3.115,1.09-5.884,2.146-8.4c-3.26,16.896-9.024,33.196-14.551,46.432
		c-3.104,7.433-7.366,13.864-10.081,21.886c-1.632-25.531,18.03-45.894,25.229-55.157c9.394-12.088,17.963-26.864,27.21-39.321
		c-0.603,7.602-3.023,13.844-5.061,19.749c-4.83,14.004-10.072,27.746-15.564,40.395c-6.916,15.93-15.535,28.743-23.529,41.513
		c0.637-22.646,13.189-38.274,20.094-49.862c6.998-11.744,15.205-25.256,18.527-44.471c-6.801,21.786-14.518,40.354-22.731,59.577
		c-5.144,12.038-13.009,24.719-16.213,40.468c1.333-7.466,4.36-13.169,7.028-18.054c8.526-15.61,18.424-26.952,27.105-42.229
		c5.267-9.27,8.579-18.968,11.882-31.884c-5.984,41.24-23.862,63.786-33.023,99.614c1.37-10.931,4.751-19.659,8.073-27.717
		c7.113-17.256,15.356-32.617,23.561-47.025c3.969-6.968,8.547-13.371,11.254-23.348c0.891-3.284,1.267-7.555,2.405-10.327
		c-1.021,21.252-10.091,43.328-15.863,58.75c-4.081,10.904-8.196,21.755-12.452,32.273c-0.602-7.145,1.212-11.483,3.137-16.444
		c4.229-10.898,8.551-21.352,13.011-31.754c3.995-9.316,8.116-18.345,11.731-28.47c1.179-3.301,2.275-7.672,3.701-10.343
		c0.778,6.549-2.664,17.213-4.027,22.568c-3.611,14.195-9.379,25.379-14.438,36.795c-7.529,16.994-15.882,31.992-23.334,49.059
		c4.137-25.496,16.607-45.377,24.58-64.467c4.938-11.825,7.879-25.031,12.051-37.959c0.734,5.071-0.137,12.486-1.165,17.511
		c-2.491,12.183-6.183,23.863-9.139,35.517c-2.556,10.076-7.487,20.947-9.132,31.556c6.559-20.067,15.305-32.883,22.965-50.353
		c4.482-10.223,10.33-22.777,12.543-36.892c-2.006,4.476-3.26,12.657-4.613,18.258c-4.251,17.593-8.326,35.006-13.789,50.797
		c-4.092,11.831-8.342,26.533-13.35,36.222c-1.603-30.096,13.826-53.597,21.793-71.939c3.788-8.723,7.673-17.441,11.188-26.766
		c0.939-2.492,2.154-7.552,3.523-8.512c-0.723,22.201-9.194,39.365-14.543,56.552c-2.513,8.071-5.063,15.855-7.783,23.556
		c-1.489,4.215-3.218,11.483-5.022,14.16c0.152-9.315,2.812-19.419,5.259-26.456c5.318-15.293,12.401-28.718,18.873-41.317
		c3.975-7.738,8.27-16.321,11.506-25.728c-7.447,34.273-19.769,64.712-30.733,93.206c0.313-8.154,3.54-15.388,5.704-21.127
		c6.586-17.459,14.686-30.769,21.969-46.55c4.914-10.646,9.572-21.706,13.867-33.584c0.328,6.903-1.532,16.302-2.66,22.338
		c-4.064,21.764-10.922,41.8-17.122,60.518c-3.972,11.991-7.683,24.233-11.294,36.671c-3.436-19.248,14.427-45.929,19.26-55.553
		c5.429-10.811,11.809-22.635,15.883-36.413c1.493-5.05,2.33-10.948,3.992-15.719c-3.711,20.645-10.508,37.362-15.949,55.571
		c-2.925,9.787-6.717,25.29-11.26,31.551c-1.521-6.594,3.131-18.147,4.5-22.326c5.896-18.001,12.869-34.662,19.76-50.633
		c6.637-15.381,12.816-30.524,18.713-47.205c-0.007,8.371-2.758,18.829-4.29,26.019c-3.591,16.84-8.175,31.185-12.815,46.415
		c-2.692,8.839-4.846,17.975-6.418,28.009c1.991-16.948,5.813-29.686,9.793-44.518c2.842-10.586,5.552-21.531,7.957-32.679
		c0.876-4.058,1.595-9.71,3.12-12.821c0.63,20.673-5.448,46.88-9.023,65.083c-2.314,11.788-5.304,23.04-8.692,33.293
		c-0.135-32.073,17.459-51.714,23.112-78.444c-1.08,3.552-1.363,7.261-1.981,11.441c-1.883,12.722-4.667,24.813-7.135,36.979
		c-3.83,18.874-10.442,35.913-13.203,55.776c0.646-21.859,10.429-38.371,16.588-52.552c6.016-13.848,10.731-28.616,15.921-43.854
		c0.72,14.892-4.071,35.563-6.909,48.67c-3.303,15.255-5.668,32.311-9.116,47.126c0.797-25.636,9.497-46.973,16.163-65.918
		c3.643-10.358,5.932-22.655,9.564-32.839c-1.315,17.494-6.146,36.425-9.199,52.555c-2.024,10.694-3.654,24.69-6.598,34.182
		c-1.381-23.116,11.435-49.979,17.268-65.311c4.206-11.053,7.984-23.294,11.179-35.396c-0.209,6.797-1.927,14.372-2.824,20.785
		c-1.942,13.88-4.131,28.054-7.286,40.762c-2.721,10.96-5.915,21.611-8.771,32.342c-1.428-38.295,16.13-62.01,22.211-93.698
		c-0.633,19.896-6.487,42.688-10.482,59.974c-2.971,12.855-9.487,28.417-9.002,43.932c5.412-42.27,18.637-71.476,28.582-107.663
		c-1.828,28.848-8.744,55.087-13.369,81.84c-2.442,14.122-5.266,27.724-7.498,42.033c-1.134-26.61,10.014-55.395,16.814-73.914
		c5.323-14.499,11.193-27.75,14.819-45.026c-4.136,21.415-6.876,43.981-11.055,65.449c-2.962,15.213-7.472,31.002-8.706,47.713
		c-0.529-30.954,7.908-55.752,15.822-78.928c3.635-10.645,9.365-24.709,11.108-37.977c1.37,36.64-7.453,67.789-12.411,100.822
		c-0.182-6.349,1.899-13.692,3.264-19.033c3.793-14.856,8.711-27.763,12.791-42.101c2.307-8.111,5.376-18.707,5.965-28.479
		c-2.061,15.31-3.842,30.012-6.639,44.79c-2.68,14.152-5.839,27.495-6.429,43.091c-0.282-33.95,15.155-52.65,19.312-82.588
		c-0.407,6.877-2.668,12.905-4.131,18.845c-3.056,12.408-5.048,26.004-7.945,38.552c-2.17,9.391-3.387,19.336-5.178,29.171"/>
	
		<path clip-path="url(#SVGID_4_)" fill="none" stroke="#113653" stroke-width="1.7261" stroke-linecap="round" stroke-linejoin="round" stroke-miterlimit="10" d="
		M707.252,92.698c1.235-3.536,3.905-6.004,5.787-7.973c5.413-5.661,10.935-9.579,16.039-16.833
		c4.774-6.787,9.04-15.342,13.724-22.506c2.23-3.412,4.832-5.633,6.926-9.462c-4.637,18.828-13.551,31.24-20.653,44.542
		c-7.153,13.396-13.973,30.643-22.438,39.435c1.168-6.429,7.523-10.745,10.078-13.454c6.414-6.803,12.871-12.947,18.385-23.347
		c3.623-6.831,8.181-14.998,11.177-23.056c-10.593,26.988-24.535,44.037-35.839,69.21c6.422-16.187,18.191-20.457,26.065-32.169
		c4.405-6.551,7.972-15.295,12.102-22.585c-3.062,13.956-11.165,28.08-16.45,38.305c-5.193,10.046-10.719,22.194-16.441,30.537
		c11.275-29.52,31.262-29.181,42.168-59.167c-2.502,4.909-4.588,11.11-6.887,16.549c-5.686,13.454-12.229,24.379-18.922,35.006
		c-6.734,10.694-13.689,21.393-19.592,34.524c2.717-8.994,4.513-17.591,8.21-25.364c7.815-16.433,18.065-24.283,26.222-39.432
		c3.744-6.953,6.721-14.946,8.924-24.759c0.699-3.115,1.09-5.884,2.146-8.4c-3.26,16.896-9.023,33.196-14.551,46.432
		c-3.103,7.433-7.365,13.864-10.08,21.886c-1.633-25.531,18.029-45.894,25.229-55.157c9.393-12.088,17.963-26.864,27.21-39.321
		c-0.603,7.602-3.023,13.844-5.062,19.749c-4.83,14.004-10.072,27.746-15.564,40.395c-6.916,15.93-15.534,28.743-23.529,41.513
		c0.637-22.646,13.189-38.274,20.094-49.862c6.998-11.744,15.206-25.256,18.527-44.471c-6.8,21.786-14.517,40.354-22.73,59.577
		c-5.145,12.038-13.01,24.719-16.213,40.468c1.332-7.466,4.36-13.169,7.028-18.054c8.526-15.61,18.423-26.952,27.104-42.229
		c5.268-9.27,8.58-18.968,11.883-31.884c-5.984,41.24-23.862,63.786-33.023,99.614c1.369-10.931,4.75-19.659,8.072-27.717
		c7.113-17.256,15.357-32.617,23.562-47.025c3.968-6.968,8.546-13.371,11.253-23.348c0.891-3.284,1.268-7.555,2.406-10.327
		c-1.021,21.252-10.091,43.328-15.863,58.75c-4.082,10.904-8.197,21.755-12.453,32.273c-0.602-7.145,1.213-11.483,3.137-16.444
		c4.23-10.898,8.551-21.352,13.012-31.754c3.994-9.316,8.115-18.345,11.73-28.47c1.18-3.301,2.275-7.672,3.701-10.343
		c0.779,6.549-2.664,17.213-4.027,22.568c-3.611,14.195-9.379,25.379-14.438,36.795c-7.528,16.994-15.881,31.992-23.333,49.059
		c4.136-25.496,16.606-45.377,24.579-64.467c4.939-11.825,7.879-25.031,12.052-37.959c0.734,5.071-0.138,12.486-1.165,17.511
		c-2.492,12.183-6.184,23.863-9.139,35.517c-2.557,10.076-7.488,20.947-9.132,31.556c6.559-20.067,15.304-32.883,22.965-50.353
		c4.482-10.223,10.329-22.777,12.542-36.892c-2.006,4.476-3.26,12.657-4.613,18.258c-4.25,17.593-8.326,35.006-13.788,50.797
		c-4.093,11.831-8.343,26.533-13.351,36.222c-1.602-30.096,13.827-53.597,21.793-71.939c3.789-8.723,7.674-17.441,11.188-26.766
		c0.939-2.492,2.154-7.552,3.523-8.512c-0.723,22.201-9.193,39.365-14.543,56.552c-2.512,8.071-5.063,15.855-7.783,23.556
		c-1.488,4.215-3.217,11.483-5.021,14.16c0.152-9.315,2.811-19.419,5.258-26.456c5.318-15.293,12.402-28.718,18.873-41.317
		c3.975-7.738,8.271-16.321,11.507-25.728c-7.448,34.273-19.769,64.712-30.733,93.206c0.313-8.154,3.539-15.388,5.704-21.127
		c6.585-17.459,14.685-30.769,21.968-46.55c4.914-10.646,9.573-21.706,13.867-33.584c0.328,6.903-1.531,16.302-2.659,22.338
		c-4.065,21.764-10.923,41.8-17.122,60.518c-3.973,11.991-7.683,24.233-11.294,36.671c-3.436-19.248,14.427-45.929,19.259-55.553
		c5.43-10.811,11.809-22.635,15.883-36.413c1.494-5.05,2.33-10.948,3.992-15.719c-3.71,20.645-10.507,37.362-15.948,55.571
		c-2.925,9.787-6.718,25.29-11.261,31.551c-1.521-6.594,3.131-18.147,4.5-22.326c5.896-18.001,12.87-34.662,19.761-50.633
		c6.636-15.381,12.815-30.524,18.712-47.205c-0.006,8.371-2.757,18.829-4.289,26.019c-3.592,16.84-8.176,31.185-12.815,46.415
		c-2.692,8.839-4.847,17.975-6.419,28.009c1.992-16.948,5.813-29.686,9.794-44.518c2.841-10.586,5.552-21.531,7.957-32.679
		c0.876-4.058,1.595-9.71,3.12-12.821c0.629,20.673-5.449,46.88-9.023,65.083c-2.314,11.788-5.305,23.04-8.693,33.293
		c-0.135-32.073,17.46-51.714,23.113-78.444c-1.08,3.552-1.363,7.261-1.982,11.441c-1.883,12.722-4.666,24.813-7.135,36.979
		c-3.829,18.874-10.441,35.913-13.202,55.776c0.646-21.859,10.429-38.371,16.587-52.552c6.016-13.848,10.732-28.616,15.922-43.854
		c0.719,14.892-4.072,35.563-6.909,48.67c-3.304,15.255-5.669,32.311-9.116,47.126c0.797-25.636,9.497-46.973,16.162-65.918
		c3.644-10.358,5.932-22.655,9.565-32.839c-1.315,17.494-6.147,36.425-9.2,52.555c-2.023,10.694-3.654,24.69-6.598,34.182
		c-1.381-23.116,11.436-49.979,17.269-65.311c4.206-11.053,7.984-23.294,11.179-35.396c-0.209,6.797-1.927,14.372-2.824,20.785
		c-1.942,13.88-4.131,28.054-7.286,40.762c-2.722,10.96-5.915,21.611-8.772,32.342c-1.427-38.295,16.131-62.01,22.211-93.698
		c-0.632,19.896-6.486,42.688-10.482,59.974c-2.971,12.855-9.486,28.417-9.002,43.932c5.412-42.27,18.637-71.476,28.582-107.663
		c-1.827,28.848-8.744,55.087-13.369,81.84c-2.441,14.122-5.266,27.724-7.498,42.033c-1.133-26.61,10.014-55.395,16.814-73.914
		c5.324-14.499,11.193-27.75,14.82-45.026c-4.137,21.415-6.877,43.981-11.055,65.449c-2.962,15.213-7.472,31.002-8.706,47.713
		c-0.53-30.954,7.907-55.752,15.822-78.928c3.635-10.645,9.364-24.709,11.108-37.977c1.369,36.64-7.453,67.789-12.412,100.822
		c-0.182-6.349,1.9-13.692,3.264-19.033c3.793-14.856,8.711-27.763,12.791-42.101c2.308-8.111,5.377-18.707,5.965-28.479
		c-2.061,15.31-3.842,30.012-6.639,44.79c-2.679,14.152-5.838,27.495-6.428,43.091c-0.283-33.95,15.155-52.65,19.312-82.588
		c-0.407,6.877-2.669,12.905-4.132,18.845c-3.055,12.408-5.047,26.004-7.945,38.552c-2.169,9.391-3.386,19.336-5.177,29.171"/>
</g>
</svg>
