<?xml version="1.0" encoding="utf-8"?>
<!-- Generator: Adobe Illustrator 15.0.0, SVG Export Plug-In . SVG Version: 6.00 Build 0)  -->
<!DOCTYPE svg PUBLIC "-//W3C//DTD SVG 1.1//EN" "http://www.w3.org/Graphics/SVG/1.1/DTD/svg11.dtd">
<svg version="1.1" id="Capa_1" xmlns="http://www.w3.org/2000/svg" xmlns:xlink="http://www.w3.org/1999/xlink" x="0px" y="0px"
	 width="80px" height="75px" viewBox="0 193.091 800 413.807" enable-background="new 0 193.091 800 413.807"
	 xml:space="preserve">
<g>
	<g>
		<path fill="#103754" d="M729.761,328.384c-54.228-42.776-108.455-85.552-162.696-128.328c-0.026-0.026-0.079-0.026-0.105-0.04
			c-0.355-0.33-0.843-0.659-1.541-0.936c-87.925-35.871-37.637,100.957-59.486,104.212c-80.201,11.979-160.377,23.932-240.592,35.91
			c-76.617,11.438-153.234,22.864-229.838,34.315C12.334,376.972,0,387.422,0,410.51c0,21.006,38.875,20.254,52.778,22.311
			c88.938,13.243,177.89,26.475,266.829,39.731c30.823,4.586,188.789,6.352,188.789,48.192c0,17.355-11.215,80.359,16.617,85.17
			c22.548,3.913,36.424-4.218,53.556-17.751c68.565-54.07,137.157-108.166,205.723-162.235c4.797-3.782,8.078-7.551,10.608-11.307
			c0.211-0.224,0.329-0.475,0.514-0.712c0.593-0.909,1.291-1.845,1.753-2.741c0.896-1.699,1.621-3.531,2.029-5.416
			C807.222,375.152,753.06,346.768,729.761,328.384z M30.705,393.444c-0.844,2.016-1.687,4.071-2.504,6.088
			c-0.712,1.727-1.331,3.452-1.832,5.113c-0.25-0.356-0.672-0.606-0.896-0.976c-4.375-7.143-0.132-12.334,8.025-16.195
			C32.55,389.293,31.601,391.27,30.705,393.444z M695.445,329.583c1.37,1.081,2.728,2.161,4.111,3.242
			c-23.904,49.786-48.891,99.06-75.392,147.555c-3.505,6.364-4.322,6.022-1.753-0.805c10.082-26.633,20.953-52.936,31.944-79.12
			c2.819-6.708,8.157-17.185,11.913-23.404C675.955,361.197,685.693,345.384,695.445,329.583z M583.129,240.974
			c5.179,4.099,10.357,8.17,15.537,12.269c-2.583,3.782-5.192,7.551-7.775,11.333c-4.111,6.009-11.504,11.768-16.301,13.586
			c-3.928,1.502-7.13,3.176-8.184,4.296c-1.872,1.99-3.624,4.059-5.377,6.127c-2.912,3.439-2.609,0.962,0.698-5.521
			C568.857,269.043,575.986,255.008,583.129,240.974z M541.223,210.835c-0.303,0.435-0.725,0.844-0.988,1.305
			c-0.976,1.568-1.938,3.137-2.926,4.691C538.297,213.827,539.575,211.745,541.223,210.835z M536.729,262.177
			c7.986-12.967,16.012-25.908,23.998-38.862c0.816,0.646,1.66,1.318,2.477,1.95c-9.093,17.909-18.251,35.844-27.396,53.753
			c-0.514,0.988-0.976,1.937-1.45,2.925c-0.013-4.573-0.145-10.292-0.263-16.525C534.924,264.747,535.807,263.693,536.729,262.177z
			 M90.085,383.573c-5.548,10.371-11.043,20.769-16.459,31.206c-1.265,2.451-1.344,4.73-0.87,6.839
			c-6.457-0.737-13.099-1.713-19.53-3.123c1.845-1.766,3.519-3.809,4.625-6.26c3.795-8.434,7.657-16.814,11.57-25.183
			c1.647-3.492,1.397-6.299-0.171-8.078c12.849-1.635,24.143-2.28,27.345-2.688C93.894,378.461,91.482,380.938,90.085,383.573z
			 M135.102,430.039c-13.402-1.977-26.791-3.992-40.193-5.982c1.951-1.555,3.703-3.308,4.784-5.416
			c6.813-13.258,13.731-26.462,20.755-39.601c1.397-2.622,1.476-4.73,0.883-6.431c18.779-2.794,37.544-5.601,56.31-8.407
			c-2.649,2.056-5.047,4.322-6.549,6.733c-11.281,18.041-22.693,35.963-34.29,53.767
			C135.602,426.573,135.167,428.353,135.102,430.039z M190.752,432.411c-1.146,2.003-1.423,3.928-1.331,5.732
			c-10.701-1.594-21.415-3.188-32.128-4.783c1.963-1.37,3.729-2.979,4.955-4.837c13.455-20.544,26.633-41.273,39.653-62.134
			c1.502-2.438,1.74-4.375,1.357-5.983c11.333-1.687,22.692-3.387,34.039-5.086c-2.675,2.121-5.074,4.533-6.51,7.063
			C217.464,385.722,204.115,409.073,190.752,432.411z M301.54,448.884c-1.146,2.017-1.41,3.94-1.318,5.746
			c-22.706-3.374-45.385-6.761-68.091-10.134c1.963-1.477,3.729-3.177,4.876-5.219c15.985-28.372,31.957-56.771,48.074-85.025
			c1.436-2.529,1.594-4.612,1.081-6.259c26.804-4.007,53.608-7.986,80.425-12.006c-2.688,2.188-5.073,4.665-6.47,7.288
			C341.021,378.685,321.413,413.856,301.54,448.884z M357.125,463.077c-10.819-1.608-21.638-3.216-32.444-4.811
			c1.977-1.41,3.782-3.018,5.008-4.902c25.697-39.89,51.974-79.411,79.081-118.352c1.371-1.95,1.779-3.571,1.806-5.008
			c9.08-0.725,19.952-1.318,31.522-2.228c-0.91,1.015-1.925,2.017-2.557,3.07c-26.818,42.354-54.254,84.327-80.795,126.773
			C357.521,459.532,357.138,461.351,357.125,463.077z M385.26,467.254c-0.29-0.039-0.646-0.079-0.896-0.118
			c-1.357-0.225-2.715-0.396-4.072-0.606c0.185-0.237,0.488-0.369,0.633-0.619c1.318-2.214,2.623-4.415,3.979-6.615
			c27.424-44.688,56.112-88.623,84.182-132.888c0.382-0.606,0.422-1.081,0.698-1.647c0.487-0.079,0.976-0.132,1.45-0.211
			c-0.501,0.633-1.146,1.239-1.529,1.885c-27.674,45.082-55.281,90.19-82.89,135.313C385.616,463.683,385.26,465.515,385.26,467.254
			z M435.548,471.115c-9.58-0.856-18.581-1.476-26.475-2.003c1.187-1.107,2.319-2.267,3.097-3.571
			c29.269-47.889,58.497-95.778,87.845-143.602c1.028-1.646,1.489-3.109,1.621-4.414c10.727-3.717,19.688-8.816,25.815-15.695
			c-0.053,0.079-0.079,0.185-0.132,0.276c-2.569,3.914-8.935,10.819-12.269,17.29c-25.815,50.09-52,99.969-78.817,149.466
			C435.824,469.626,435.771,470.364,435.548,471.115z M498.961,458.741c-3.559,6.035-7.156,12.031-10.754,18.041
			c-0.303,0.54-0.329,1.041-0.566,1.568c-3.506-0.752-7.076-1.41-10.727-2.069c0.237-0.277,0.566-0.527,0.79-0.817
			c12.928-19.635,25.869-39.283,38.85-58.893c4.032-6.062,4.941-5.574,1.977,1.081C512.297,431.516,505.8,445.207,498.961,458.741z
			 M564.903,561.068c-3.044,8.605-6.102,17.237-9.146,25.829c-3.689,2.425-6.879,3.506-9.515,3.321
			c5.521-10.028,11.057-20.044,16.604-30.072C566.38,553.781,567.302,554.189,564.903,561.068z M536.439,549.96
			c-1.345,2.332-2.544,5.126-3.598,7.959c-1.002-19.411,1.015-41.88,1.015-50.656c0-9.58-8.843-16.657-22.231-21.941
			c1.594-1.37,2.978-2.899,3.927-4.665c4.968-9.146,9.817-18.396,14.509-27.7c34.079-57.772,67.485-115.98,101.366-173.897
			c11.57,9.119,23.153,18.265,34.724,27.397c-6.114,16.524-12.492,32.984-19.2,49.338c-11.386,22.021-23.114,43.883-34.909,65.692
			C586.489,464.118,561.358,506.96,536.439,549.96z M621.016,535.833c35.726-60.672,68.658-123.07,99.415-186.549
			c1.714,1.344,3.413,2.701,5.14,4.046c-28.729,54.952-56.494,110.445-83.799,166.162
			C634.826,524.935,627.908,530.391,621.016,535.833z M755.537,429.763c-22.666,17.869-45.332,35.766-68.012,53.621
			c19.068-38.506,38.388-76.854,58.128-114.991c10.161,7.445,21.349,16.446,26.462,26.119
			C766.606,406.293,761.072,418.021,755.537,429.763z"/>
	</g>
</g>
</svg>
