<?xml version="1.0" encoding="utf-8"?>
<!-- Generator: Adobe Illustrator 15.0.0, SVG Export Plug-In . SVG Version: 6.00 Build 0)  -->
<!DOCTYPE svg PUBLIC "-//W3C//DTD SVG 1.1//EN" "http://www.w3.org/Graphics/SVG/1.1/DTD/svg11.dtd">
<svg version="1.1" id="Calque_1" xmlns="http://www.w3.org/2000/svg" xmlns:xlink="http://www.w3.org/1999/xlink" x="0px" y="0px"
	 width="457.695px" height="8.498px" viewBox="0 0 457.695 8.498" enable-background="new 0 0 457.695 8.498" xml:space="preserve">
<g>
	<rect y="0.005" fill="#143854" width="457.697" height="8.493"/>
	<rect x="-0.001" y="4.249" fill="#143854" width="457.698" height="4.249"/>
	<path fill="#F8F9F6" d="M152.128,8.499c-13.79,0-26.287-1.313-39.343-3.063l-6-0.688c-4.65-0.616-10.359-0.366-15.814,0.346
		c-3.279,0.429-6.668,0.87-9.889,1.031c-8.731,0.438-18.245,0.649-29.084,0.649c-7,0-16.663-0.271-26.008-0.53
		C16.644,5.983,6.979,5.714,0,5.715v-4c7.035,0,16.728,0.271,26.101,0.532c9.318,0.26,18.953,0.529,25.897,0.529
		c10.771,0,20.219-0.211,28.884-0.646c3.062-0.153,6.371-0.585,9.572-1.002c5.712-0.745,11.619-1.516,16.787-0.832l4.45,0.594
		c20.939,2.809,44.219,5.484,64.826,0.954c10.141-2.534,20.893-1.903,31.292-1.291c4.656,0.273,9.471,0.557,14.193,0.557
		c13.137,0,27.203,0.522,40.807,1.027c26.133,0.97,53.155,1.973,77.463-0.414c10.354-1.017,19.959-0.63,30.125-0.22
		c5.367,0.216,10.916,0.44,16.604,0.44c3.91,0,7.533,0.042,11.008,0.083c10.451,0.122,19.478,0.226,30.797-0.884
		c5.787-0.569,12.615,0,18.643,0.5c3.764,0.313,7.318,0.074,10.252,0.074v4c-3.1,0-6.734,0.232-10.584-0.088
		c-5.854-0.486-12.492-1.037-17.918-0.506c-11.535,1.133-20.669,1.027-31.232,0.902c-3.459-0.039-7.067-0.082-10.963-0.082
		c-5.771,0-11.356-0.227-16.767-0.442c-10.022-0.403-19.491-0.786-29.571,0.204c-24.576,2.415-51.735,1.406-78.004,0.431
		C248.466,5.606,235.063,5.108,222,5.108c-4.839,0-9.001,0.229-13.715-0.047c-10.564-0.622-21.253-1.726-30.8,0.662
		C169.401,7.744,160.831,8.499,152.128,8.499z"/>
</g>
</svg>
