<?xml version="1.0" encoding="utf-8"?>
<!-- Generator: Adobe Illustrator 15.0.0, SVG Export Plug-In . SVG Version: 6.00 Build 0)  -->
<!DOCTYPE svg PUBLIC "-//W3C//DTD SVG 1.1//EN" "http://www.w3.org/Graphics/SVG/1.1/DTD/svg11.dtd">
<svg version="1.1" id="Calque_1" xmlns="http://www.w3.org/2000/svg" xmlns:xlink="http://www.w3.org/1999/xlink" x="0px" y="0px"
	 width="174.423px" height="176.121px" viewBox="360.511 364.188 174.423 176.121"
	 enable-background="new 360.511 364.188 174.423 176.121" xml:space="preserve">
<circle fill="#F9FAF7" cx="448.054" cy="453.021" r="84.295"/>
<path fill="#FCCE8D" d="M398.659,445.863c0.438-0.355,0.889-0.727,1.22-1.068l0.234-0.24c0.853-0.881,1.818-1.883,2.248-2.598
	c0.401-0.67,0.461-1.223,0.176-1.648c-0.576-0.857-2.227-0.678-4.014-0.406c-0.175,0.027-0.328,0.051-0.458,0.066
	c-0.457,0.063-1.174,0.211-2,0.383c-1.38,0.291-4.25,0.889-4.719,0.654c-0.191-0.16-0.538-1.105-0.706-1.561
	c-0.11-0.297-0.213-0.57-0.297-0.762c-0.11-0.248-0.235-0.549-0.377-0.879c-1.014-2.42-2.386-5.68-4.139-5.537
	c-0.039-0.014-0.069-0.033-0.107-0.039c-0.106-0.016-0.209,0.012-0.302,0.051c-0.987-0.053-1.813,0.184-2.454,0.734
	c-1.593,1.381-1.7,4.328-1.792,6.93c-0.042,1.248-0.088,2.428-0.29,3.225c-0.892,0.342-1.868,0.393-2.897,0.432
	c-1.174,0.047-2.381,0.102-3.504,0.617l-1.021,0.549c-1.037,0.512-1.597,1.135-1.7,1.898c-0.209,1.582,1.669,3.109,3.488,4.588
	c1.065,0.865,2.163,1.754,2.388,2.35c0.168,0.447-0.057,1.422-0.255,2.281c-0.069,0.291-0.138,0.584-0.195,0.871
	c-0.149,0.748-0.305,1.4-0.454,2.018c-0.423,1.76-1.993,6.359,0.439,7.055c2.041,0.564,6.28-2.154,8.555-3.5
	c0.735-0.434,1.468-0.865,2.169-1.262c0.354-0.199,0.674-0.424,0.987-0.645c0.507-0.352,0.983-0.688,1.365-0.721
	c0.906-0.088,3.853,1.52,5.598,2.479c1.365,0.752,2.158,1.182,2.584,1.283c0.743,0.172,1.437-0.391,1.875-1.508
	c0.4-1.031,0.484-2.316-0.18-2.938c0.062-0.873-0.038-1.932-0.316-3.174c-0.148-0.674-0.606-1.963-1.136-3.455
	c-0.603-1.697-1.609-4.531-1.544-5.008C397.25,447.023,398.031,446.381,398.659,445.863z"/>
<g>
	<g>
		<path fill="#133754" d="M397.41,447.471c0.438-0.357,0.888-0.727,1.219-1.07l0.234-0.24c0.853-0.881,1.818-1.883,2.248-2.598
			c0.401-0.668,0.462-1.221,0.176-1.646c-0.577-0.859-2.227-0.68-4.014-0.406c-0.175,0.027-0.328,0.051-0.457,0.066
			c-0.458,0.061-1.174,0.211-2,0.383c-1.38,0.289-4.25,0.889-4.719,0.652c-0.191-0.158-0.538-1.105-0.706-1.559
			c-0.11-0.297-0.213-0.572-0.297-0.764c-0.11-0.248-0.235-0.547-0.377-0.877c-1.014-2.42-2.386-5.682-4.139-5.539
			c-0.039-0.012-0.069-0.031-0.107-0.037c-0.106-0.016-0.209,0.01-0.301,0.051c-0.987-0.053-1.814,0.182-2.454,0.732
			c-1.592,1.381-1.699,4.33-1.791,6.93c-0.042,1.25-0.088,2.428-0.29,3.227c-0.892,0.342-1.868,0.393-2.897,0.43
			c-1.174,0.047-2.381,0.102-3.504,0.617l-1.021,0.549c-1.037,0.514-1.597,1.135-1.7,1.9c-0.209,1.58,1.669,3.109,3.487,4.586
			c1.065,0.865,2.163,1.756,2.388,2.35c0.167,0.447-0.058,1.422-0.255,2.281c-0.069,0.291-0.138,0.586-0.195,0.871
			c-0.149,0.75-0.305,1.402-0.454,2.02c-0.423,1.76-1.993,6.359,0.439,7.055l0,0c2.042,0.564,6.28-2.156,8.555-3.5
			c0.736-0.436,1.468-0.865,2.169-1.264c0.354-0.199,0.674-0.422,0.987-0.643c0.507-0.352,0.982-0.688,1.365-0.721
			c0.906-0.088,3.853,1.52,5.598,2.477c1.365,0.754,2.158,1.184,2.584,1.283c0.743,0.174,1.437-0.391,1.875-1.508
			c0.4-1.031,0.484-2.314-0.18-2.936c0.062-0.875-0.038-1.932-0.316-3.176c-0.148-0.672-0.605-1.963-1.135-3.455
			c-0.603-1.695-1.609-4.529-1.544-5.006C396.001,448.629,396.782,447.986,397.41,447.471z M382.39,435.398
			c0.352-0.307,0.793-0.469,1.331-0.5c-0.179,0.906-0.446,1.799-0.732,2.732c-0.529,1.721-1.075,3.504-0.963,5.426l-0.203,1.533
			c-0.338,0.197-0.754,0.264-1.143,0.174c0.182-0.877,0.232-1.992,0.273-3.178C381.037,439.193,381.132,436.484,382.39,435.398z
			 M376.49,460.621c0.153-0.629,0.313-1.293,0.465-2.059c0.057-0.275,0.122-0.561,0.187-0.842c0.251-1.1,0.492-2.139,0.213-2.877
			c-0.319-0.859-1.425-1.752-2.702-2.789c-1.447-1.178-3.246-2.641-3.112-3.646c0.049-0.377,0.668-0.896,1.313-1.227l0.093,0.164
			c0.984,1.375,2.502,2.396,3.863,3.301c1.205,0.803,2.34,1.561,2.671,2.313c0.199,0.455,0.065,1.195-0.053,1.848
			c-0.031,0.162-0.062,0.326-0.084,0.48c-0.129,0.824-0.305,1.586-0.491,2.391c-0.4,1.727-0.812,3.514-0.709,5.881
			c0,0-1.499,1.605-2.371,2.199C375.785,463.572,376.097,462.248,376.49,460.621z M398.185,462.48
			c-0.164,0.908-0.607,1.457-0.744,1.48c-0.293-0.068-1.356-0.656-2.297-1.17c-2.809-1.547-5.051-2.725-6.248-2.615
			c-0.681,0.061-1.28,0.479-1.913,0.922c-0.29,0.203-0.587,0.412-0.893,0.584c-0.709,0.4-1.448,0.836-2.191,1.273
			c-2.115,1.25-4.288,2.531-5.945,3.041l0.012-0.018c0.237-0.846,1.574-1.764,1.574-1.764c0.007-0.004,0.012,0,0.02-0.004
			c1.315-0.566,2.428-1.467,3.51-2.336c0.487-0.395,0.949-0.77,1.429-1.113c0.579-0.416,1.135-0.891,1.677-1.352
			c1.357-1.154,2.638-2.25,3.865-2.027c0.305,0.051,0.698,0.322,1.109,0.609c0.316,0.221,0.644,0.447,1.006,0.635
			c0.335,0.168,0.694,0.355,1.068,0.553c1.463,0.768,3.113,1.629,4.813,2.199c0.02,0.016,0.035,0.037,0.054,0.049
			C398.181,461.48,398.303,461.84,398.185,462.48z M396.507,454.318c0.495,1.402,0.964,2.729,1.101,3.342
			c0.218,0.967,0.324,1.83,0.321,2.541c-1.467-0.539-2.917-1.287-4.211-1.969c-0.378-0.197-0.74-0.389-1.079-0.561
			c-0.293-0.148-0.594-0.357-0.88-0.557c-0.515-0.355-0.996-0.693-1.533-0.787c-1.722-0.305-3.259,1.004-4.745,2.27
			c-0.522,0.445-1.064,0.906-1.604,1.297c-0.508,0.359-1.003,0.762-1.479,1.148c-0.938,0.756-1.91,1.521-2.974,2.041l0.004-0.035
			c-0.084,0-0.163,0-0.245,0c-0.03-2.002,0.335-3.594,0.69-5.133c0.182-0.791,0.374-1.605,0.507-2.465
			c0.022-0.148,0.048-0.301,0.079-0.457c0.146-0.801,0.309-1.709-0.019-2.457c-0.454-1.037-1.658-1.836-3.049-2.764
			c-1.272-0.844-2.69-1.797-3.569-3.002c0,0,0.188-0.646,2.948-0.654c1.076-0.002,2.184-0.088,3.228-0.494
			c0.328,0.146,0.683,0.23,1.041,0.232c2.069,0.016,2.119-2.674,2.119-2.674c0.003-0.035,0.015-0.066,0.011-0.104
			c-0.121-1.746,0.382-3.381,0.912-5.111c0.305-0.996,0.613-2.023,0.8-3.076c1.04,0.367,2.344,3.484,2.938,4.898
			c0.142,0.34,0.271,0.643,0.384,0.896c0.077,0.178,0.167,0.43,0.271,0.703c0.416,1.127,0.697,1.826,1.127,2.063
			c0.721,0.4,2.611,0.047,5.409-0.537c0.812-0.17,1.51-0.316,1.933-0.371c0.134-0.018,0.294-0.043,0.477-0.07
			c1.845-0.283,2.87-0.289,3.056-0.014c0.024,0.035,0.031,0.209-0.201,0.6c-0.374,0.623-1.341,1.623-2.115,2.426l-0.232,0.24
			c-0.29,0.303-0.721,0.65-1.132,0.992c-0.842,0.686-1.636,1.334-1.841,1.963C394.77,449.242,395.18,450.58,396.507,454.318z"/>
	</g>
</g>
<g>
	<g>
		<path fill="#133754" d="M500.534,442.508c-0.259,0.398-0.588,0.727-0.986,0.986c0.381,0.371,0.539-0.879,1.315-0.658
			c-0.901,0.742-1.659,1.631-2.466,2.467c-0.146-0.127-0.371-0.176-0.658-0.164c-0.545-1.346-0.621-2.986,1.315-3.289
			C498.569,442.695,499.974,441.715,500.534,442.508z"/>
		<path fill="#133754" d="M420.296,459.607c-0.925,0.049-1.582-0.172-2.138-0.492c1.164-5.119-0.323-12.586,0.822-17.266
			c0.643,0.234,0.128,1.625,0.658,1.975c0.356-0.797,0.03-2.273,0.493-2.961c1.449,1.4,0.579,5.121,0.822,7.729
			c4.958-4.021,8.431,4.271,7.234,9.865c-0.381-0.824-0.056-2.355-0.164-3.453c-0.334,1.969,0.061,4.664-1.48,5.426
			c-0.192-4.004,0.687-10.127-2.96-10.688c-1.538,0.764-2.247,2.904-2.466,5.262c-0.147,1.588,0.274,3.352-0.329,4.439
			C421.072,458.934,419.845,459.236,420.296,459.607z M422.762,449.578c-0.487,0.609-0.909,1.283-1.151,2.137
			c0.535-0.725,0.845-1.676,1.644-2.137c0.194-0.025,0.467,0.027,0.494-0.164C423.246,449.295,423.149,449.582,422.762,449.578z"/>
		<path fill="#133754" d="M489.189,453.359c-1.097,3.006,0.639,6.32,4.274,5.098c-1.262,1.156-3.848,0.236-4.439-0.822
			c-0.391-4.633-0.271-11.414,2.303-14.633c0.689-0.061,0.117,0.535,0.164,0.822c0.891,0.012,0.533-1.223,1.48-1.152
			c-0.209,4.316-2.576,8.678-1.974,13.813c0.397,0.314,1.321,0.104,1.974,0.164c-0.041,0.178-0.328,0.111-0.33,0.328
			c0.549,0.395,1.13-0.262,1.645,0.164c-0.798,2.189-4.563,1.674-5.097-0.492C488.933,455.607,489.372,454.744,489.189,453.359z"/>
		<path fill="#133754" d="M480.476,446.617c-0.359,0-1.994,0.793-1.974-0.656c0.733-0.254,1.275-0.697,1.974-0.986
			c-0.37-0.145-1.352,0.508-1.81,0.822c0.001-1.063,3.065-1.107,2.96-2.303c0.691-0.186,1.183-0.57,1.973-0.658
			c0.056,0.822,0.6,1.154,0.986,1.645c-1.143,1.434-3.094,2.059-4.932,2.795C479.618,446.748,480.239,446.877,480.476,446.617z"/>
		<path fill="#133754" d="M412.568,457.963c0.931,0.514,2.044-0.98,2.96-0.492c-0.362,1.775-2.123,2.152-4.275,2.137
			c1.174,0.459,2.751-0.096,3.453-0.656c-0.354,1.563-5.38,1.609-5.919-0.33c0.716,0.381,1.236,0.957,2.302,0.986
			c-2.025-0.66-3.434-1.938-4.275-3.781c0.286,1.26,1.189,2.039,1.48,2.467c0.407,0.6,0.226,0.324-0.329-0.164
			c-2.272-2.002-2.85-7.104-1.809-10.688c1.157-4.203,8.363-5.037,9.701-0.822c-0.731,0.072-0.87-0.445-1.315-0.658
			c0.06,0.713,0.986,1.23,0.493,1.973c-1.779-0.324-1.973-2.002-3.946-1.809c-4.792,0.469-4.466,14.166,2.631,11.346
			C413.438,457.736,413.121,457.969,412.568,457.963z"/>
		<path fill="#133754" d="M471.267,457.963c0.932,0.514,2.045-0.98,2.961-0.492c-0.363,1.775-2.123,2.152-4.275,2.137
			c1.174,0.459,2.751-0.096,3.453-0.656c-0.354,1.563-5.381,1.609-5.92-0.33c0.716,0.381,1.236,0.957,2.303,0.986
			c-2.025-0.66-3.435-1.938-4.275-3.781c0.285,1.26,1.189,2.039,1.479,2.467c0.407,0.6,0.226,0.324-0.329-0.164
			c-2.272-2.002-2.85-7.104-1.809-10.688c1.156-4.203,8.363-5.037,9.701-0.822c-0.73,0.072-0.87-0.445-1.315-0.658
			c0.06,0.713,0.987,1.23,0.493,1.973c-1.778-0.324-1.973-2.002-3.945-1.809c-4.793,0.469-4.467,14.166,2.63,11.346
			C472.137,457.736,471.819,457.969,471.267,457.963z"/>
		<path fill="#133754" d="M509.085,448.592c2.03,1.764,2.137,3.039,2.137,6.74c0,0.934-0.053,0.123-0.164-0.328
			c-0.464-1.881-0.182-6.246-2.467-6.248c-1.186-0.002-1.727,1.205-1.479,1.809c-0.438-0.555-0.158-0.09-0.494,0.328
			c-0.739,0.922-1.089,6.059-1.315,8.387c-0.983-0.113-1.651-0.541-2.466-0.822c0.501-3.486-0.418-7.506,0.328-10.852
			c0.85-0.084,0.206,1.328,0.658,1.645c0.311-0.732,0.295-1.789,0.657-2.467c0.619,0.148,0.681,0.854,0.658,1.643
			c4.408-5.271,9.421,2.135,8.057,8.059c-0.379-0.443-0.059-1.586-0.165-2.303c-0.277,1.367-0.248,3.041-0.822,4.111
			c-1.119-0.439-0.551-2.076-0.657-3.783C511.386,451.846,510.901,449.457,509.085,448.592z M507.112,449.25
			c0.17-0.547,1.664-0.629,1.644-0.824C507.764,448.092,506.894,449.449,507.112,449.25z M512.866,452.703
			c-0.022-0.215-0.159-0.574-0.328-0.988C512.505,453.379,513.082,454.742,512.866,452.703z"/>
		<path fill="#133754" d="M431.806,458.129c0.907,1.705,2.894,2.896,5.426,2.465c-3.105,1.123-6.317-1.189-5.919-4.109
			c-0.328,0.891-0.647-1.021-0.658-1.645c-0.06-3.514,3.155-6.977,6.413-7.234c0.253-0.088,0.01-0.172-0.165-0.164
			c5.925-0.787,3.675,7.625-1.48,7.068c-0.863-0.092-1.175-0.553-2.302-0.656c-0.767,3.014,0.885,5.033,3.782,4.932
			c-0.175,0.373-1.034,0.063-1.48,0.166c1.21,0.643,2.41-0.148,3.289,0C437.681,461.938,432.516,459.953,431.806,458.129z
			 M433.943,451.715c2.02,0.637,3.868,0.172,4.111-1.809C436.254,450.08,434.816,450.615,433.943,451.715z M434.436,453.195
			c-0.365-0.127-0.641-0.346-1.15-0.328C433.233,453.314,434.241,453.537,434.436,453.195z M431.148,455.826
			c-0.072-0.539,0.166-2.24-0.165-1.973C431.055,454.391,430.817,456.092,431.148,455.826z"/>
		<path fill="#133754" d="M477.845,458.129c0.906,1.705,2.894,2.896,5.426,2.465c-3.105,1.123-6.318-1.189-5.92-4.109
			c-0.328,0.891-0.646-1.021-0.658-1.645c-0.059-3.514,3.155-6.977,6.413-7.234c0.253-0.088,0.011-0.172-0.164-0.164
			c5.925-0.787,3.675,7.625-1.479,7.068c-0.863-0.092-1.176-0.553-2.303-0.656c-0.766,3.014,0.885,5.033,3.782,4.932
			c-0.175,0.373-1.034,0.063-1.479,0.166c1.209,0.643,2.41-0.148,3.288,0C483.72,461.938,478.554,459.953,477.845,458.129z
			 M479.981,451.715c2.02,0.637,3.867,0.172,4.111-1.809C482.292,450.08,480.854,450.615,479.981,451.715z M480.476,453.195
			c-0.366-0.127-0.642-0.346-1.152-0.328C479.272,453.314,480.279,453.537,480.476,453.195z M477.187,455.826
			c-0.072-0.539,0.166-2.24-0.164-1.973C477.094,454.391,476.856,456.092,477.187,455.826z"/>
		<path fill="#133754" d="M516.483,457.141c0.204,2.092,2.777,3.953,5.591,3.453c-3.058,1.172-6.292-1.469-5.755-3.945
			c-0.437,0.949-0.721-1.51-0.658-2.467c0.216-3.285,3.086-6.113,6.413-6.576c0.253-0.088,0.011-0.172-0.165-0.164
			c1.489-0.527,3.328,0.236,3.617,1.643c0.754,3.654-3.672,7.014-7.398,4.77c-0.8,2.389,0.468,5.264,3.617,4.768
			c0.064,0.666-1.024,0.182-1.479,0.33c1.159,0.426,2.328,0.283,3.288-0.166c0.18,0.729-0.277,0.818-0.328,1.316
			C520.083,461.158,517.104,459.654,516.483,457.141z M518.95,451.715c2.01,0.744,3.803,0.037,4.11-1.809
			C521.234,450.055,519.796,450.588,518.95,451.715z M518.128,453.195c0.43-0.137,0.902,0.498,1.15,0
			C518.983,453.029,518.27,452.566,518.128,453.195z"/>
		<path fill="#133754" d="M496.753,453.689c-0.409,1.398-0.355,3.262-0.658,4.768c0.145-3.73,0.617-7.148,0.986-10.688
			c0.568-0.129,0.724,0.154,0.822,0.492c0.486-0.17,0.483-0.832,1.316-0.656c0.434,3.695-1.064,6.809-0.987,10.688
			c-0.595,0.156-0.229-0.648-0.329-0.986c-0.285,0.701-0.312,1.66-1.314,1.645C496.141,457.33,496.829,455.48,496.753,453.689z"/>
		<path fill="#133754" d="M443.151,455.332c0.864-0.039,2.017-0.992,2.959-1.479c-0.073,0.146-0.145,0.293-0.329,0.328
			c0.541-1.078,3.853-1.711,5.426-2.795c-1.72-1.039-5.341-0.209-6.906-0.164c0.04-0.674,0.686-0.74,1.315-0.822
			c-0.358-0.631-1.645,0.211-2.631,0c1.702-2.879,8.712-2.266,11.345-0.658c0.005,0.99,0.052,2.025-0.164,2.795
			c-2.307,1.914-6.403,2.037-8.385,4.275c2.281,0.459,4.961,0.52,7.399,0.822c-0.992,0.494-2.188-0.223-3.453,0
			c2.035,0.404,3.615,0.377,5.098,1.15c-0.892,1.453-3.693,0.117-5.426,0.33c1.025,0.344,2.373,0.367,3.617,0.492
			c-3.715,0.447-6.801-0.949-10.523-0.656C442.236,457.375,442.758,455.711,443.151,455.332z M444.631,456.977
			c0.132-0.369,1.381-0.469,0.986-0.822C445.371,456.41,444.233,456.623,444.631,456.977z M442.658,458.785c0.932,0,1.863,0,2.795,0
			c-0.552-0.379-1.806-0.057-2.631-0.164c-0.066-0.49,0.159-2.121-0.164-1.809C442.658,457.471,442.658,458.129,442.658,458.785z
			 M445.124,457.307c0.261-0.014-0.996-0.125-1.151,0c0.774-0.621,4.232,0.922,5.427,0.164
			C447.997,457.396,446.108,457.254,445.124,457.307z"/>
	</g>
</g>
<path fill="#97D0C9" d="M445.853,540.309C445.853,540.309,445.853,540.309,445.853,540.309c-1.516,0-2.947-0.041-4.254-0.123
	c-13.13-0.811-21.498-3.518-33.248-8.557c-4.674-2.004-8.192-4.627-11.594-7.164c-0.94-0.701-1.897-1.414-2.9-2.133
	c-0.617-0.441-1.261-0.895-1.924-1.359c-4.913-3.459-11.028-7.76-14.575-13.176c-6.367-9.725-9.717-15.828-12.736-26.295
	c-1.045-3.621-1.552-7.252-2.042-10.762c-0.236-1.697-0.481-3.451-0.782-5.152c-1.013-5.732-1.592-10.646-1.125-15.994
	c0.542-6.211,1.171-11.086,1.98-15.342c0.444-2.334,1.172-4.57,1.875-6.73c0.726-2.23,1.412-4.338,1.759-6.428l0.093-0.56
	l0.246-0.513c0,0,3.345-6.978,4.268-8.927c0.983-2.075,2.309-3.907,3.591-5.677c0.291-0.402,0.58-0.803,0.861-1.199
	c0.986-1.396,1.873-2.953,2.812-4.602c1.711-3.005,3.48-6.113,6.16-8.823c7.172-7.253,16.014-11.774,24.564-16.146
	c1.376-0.704,2.747-1.404,4.103-2.113c10.446-5.461,21.996-8.348,33.4-8.348c10.141,0,20.059,2.91,29.651,5.724
	c1.31,0.384,2.61,0.766,3.899,1.136c7.786,2.235,13.473,7.059,18.972,11.724c2.987,2.533,5.809,4.926,8.946,6.931l1.228,0.779
	c4.829,3.056,9.822,6.216,12.852,12.64c1.363,2.893,2.354,5.863,3.313,8.736c0.893,2.675,1.734,5.2,2.836,7.594
	c0.398,0.866,0.812,1.716,1.222,2.559c1.958,4.03,3.983,8.196,4.207,13.383c0.049,1.121,0.063,2.242,0.075,3.357
	c0.021,1.711,0.039,3.324,0.191,4.885c0.097,0.992,0.283,2.008,0.48,3.084c0.352,1.916,0.75,4.086,0.664,6.467
	c-0.089,2.479-0.103,4.719-0.116,6.885c-0.048,7.793-0.09,14.523-3.97,23.713c-3.48,8.248-7.555,17.203-11.371,21.098
	c-1.286,1.313-2.549,2.631-3.808,3.943c-9.432,9.84-19.184,20.016-37.502,26.625c-3.952,1.428-7.8,2.023-11.521,2.6
	c-1.764,0.273-3.429,0.531-5.108,0.873C457.318,539.777,451.313,540.309,445.853,540.309z M374.078,422.987
	c-0.461,2.462-1.212,4.771-1.941,7.009c-0.655,2.014-1.273,3.914-1.623,5.752c-0.758,3.984-1.353,8.604-1.87,14.541
	c-0.39,4.477,0.131,8.797,1.034,13.908c0.326,1.844,0.581,3.67,0.827,5.438c0.472,3.381,0.917,6.574,1.805,9.65
	c2.751,9.537,5.715,14.924,11.742,24.129c2.709,4.135,7.903,7.791,12.486,11.016c0.68,0.479,1.342,0.943,1.975,1.396
	c1.047,0.75,2.046,1.494,3.028,2.227c3.306,2.465,6.16,4.594,9.964,6.225c11.14,4.777,18.558,7.182,30.587,7.924
	c1.144,0.07,2.409,0.107,3.76,0.107c0,0,0.001,0,0.001,0c4.964,0,10.358-0.471,14.079-1.227c1.863-0.379,3.701-0.664,5.478-0.939
	c3.5-0.541,6.806-1.053,10.03-2.219c16.556-5.973,25.244-15.037,34.442-24.635c1.279-1.336,2.563-2.674,3.87-4.008
	c3.266-3.332,8.119-14.83,9.714-18.609c3.261-7.723,3.294-13.145,3.341-20.65c0.014-2.225,0.027-4.525,0.121-7.123
	c0.054-1.508-0.234-3.076-0.538-4.736c-0.219-1.189-0.445-2.422-0.575-3.752c-0.185-1.9-0.206-3.764-0.228-5.566
	c-0.012-1.031-0.023-2.068-0.068-3.105c-0.152-3.529-1.662-6.635-3.41-10.23c-0.435-0.895-0.872-1.795-1.294-2.713
	c-1.284-2.791-2.236-5.645-3.157-8.406c-0.925-2.773-1.799-5.394-2.96-7.855c-2.036-4.319-5.504-6.514-9.894-9.292l-1.256-0.797
	c-3.594-2.295-6.756-4.978-9.814-7.572c-5.077-4.307-9.873-8.375-16.004-10.135c-1.305-0.375-2.62-0.76-3.944-1.149
	c-9.05-2.655-18.407-5.4-27.399-5.4c-10.119,0-20.386,2.572-29.694,7.438c-1.378,0.72-2.77,1.432-4.167,2.146
	c-7.988,4.084-16.248,8.308-22.517,14.647c-1.938,1.96-3.375,4.484-4.897,7.157c-0.992,1.742-2.018,3.543-3.229,5.258
	c-0.298,0.422-0.605,0.848-0.915,1.274c-1.068,1.477-2.174,3.003-2.84,4.411C377.349,416.161,374.858,421.358,374.078,422.987z"/>
</svg>
