<svg xmlns="http://www.w3.org/2000/svg" width="174.423" height="176.121" viewBox="360.511 364.188 174.423 176.121" xml:space="preserve"><circle fill="#F9FAF7" cx="448.054" cy="453.021" r="84.295"/><path fill="#FCCE8D" d="M398.659 445.863c.438-.355.889-.727 1.22-1.068l.234-.24c.853-.881 1.818-1.883 2.248-2.598.401-.67.461-1.223.176-1.648-.576-.857-2.227-.678-4.014-.406-.175.027-.328.051-.458.066-.457.063-1.174.211-2 .383-1.38.291-4.25.889-4.719.654-.191-.16-.538-1.105-.706-1.561a15.88 15.88 0 0 0-.297-.762c-.11-.248-.235-.549-.377-.879-1.014-2.42-2.386-5.68-4.139-5.537-.039-.014-.069-.033-.107-.039a.565.565 0 0 0-.302.051c-.987-.053-1.813.184-2.454.734-1.593 1.381-1.7 4.328-1.792 6.93-.042 1.248-.088 2.428-.29 3.225-.892.342-1.868.393-2.897.432-1.174.047-2.381.102-3.504.617l-1.021.549c-1.037.512-1.597 1.135-1.7 1.898-.209 1.582 1.669 3.109 3.488 4.588 1.065.865 2.163 1.754 2.388 2.35.168.447-.057 1.422-.255 2.281-.069.291-.138.584-.195.871-.149.748-.305 1.4-.454 2.018-.423 1.76-1.993 6.359.439 7.055 2.041.564 6.28-2.154 8.555-3.5.735-.434 1.468-.865 2.169-1.262.354-.199.674-.424.987-.645.507-.352.983-.688 1.365-.721.906-.088 3.853 1.52 5.598 2.479 1.365.752 2.158 1.182 2.584 1.283.743.172 1.437-.391 1.875-1.508.4-1.031.484-2.316-.18-2.938.062-.873-.038-1.932-.316-3.174-.148-.674-.606-1.963-1.136-3.455-.603-1.697-1.609-4.531-1.544-5.008.122-.355.903-.997 1.531-1.515z"/><path fill="#133754" d="M397.41 447.471c.438-.357.888-.727 1.219-1.07l.234-.24c.853-.881 1.818-1.883 2.248-2.598.401-.668.462-1.221.176-1.646-.577-.859-2.227-.68-4.014-.406-.175.027-.328.051-.457.066-.458.061-1.174.211-2 .383-1.38.289-4.25.889-4.719.652-.191-.158-.538-1.105-.706-1.559-.11-.297-.213-.572-.297-.764-.11-.248-.235-.547-.377-.877-1.014-2.42-2.386-5.682-4.139-5.539-.039-.012-.069-.031-.107-.037a.542.542 0 0 0-.301.051c-.987-.053-1.814.182-2.454.732-1.592 1.381-1.699 4.33-1.791 6.93-.042 1.25-.088 2.428-.29 3.227-.892.342-1.868.393-2.897.43-1.174.047-2.381.102-3.504.617l-1.021.549c-1.037.514-1.597 1.135-1.7 1.9-.209 1.58 1.669 3.109 3.487 4.586 1.065.865 2.163 1.756 2.388 2.35.167.447-.058 1.422-.255 2.281-.069.291-.138.586-.195.871-.149.75-.305 1.402-.454 2.02-.423 1.76-1.993 6.359.439 7.055 2.042.564 6.28-2.156 8.555-3.5.736-.436 1.468-.865 2.169-1.264.354-.199.674-.422.987-.643.507-.352.982-.688 1.365-.721.906-.088 3.853 1.52 5.598 2.477 1.365.754 2.158 1.184 2.584 1.283.743.174 1.437-.391 1.875-1.508.4-1.031.484-2.314-.18-2.936.062-.875-.038-1.932-.316-3.176-.148-.672-.605-1.963-1.135-3.455-.603-1.695-1.609-4.529-1.544-5.006.12-.357.901-1 1.529-1.515zm-15.02-12.073c.352-.307.793-.469 1.331-.5-.179.906-.446 1.799-.732 2.732-.529 1.721-1.075 3.504-.963 5.426l-.203 1.533a1.584 1.584 0 0 1-1.143.174c.182-.877.232-1.992.273-3.178.084-2.392.179-5.101 1.437-6.187zm-5.9 25.223c.153-.629.313-1.293.465-2.059.057-.275.122-.561.187-.842.251-1.1.492-2.139.213-2.877-.319-.859-1.425-1.752-2.702-2.789-1.447-1.178-3.246-2.641-3.112-3.646.049-.377.668-.896 1.313-1.227l.093.164c.984 1.375 2.502 2.396 3.863 3.301 1.205.803 2.34 1.561 2.671 2.313.199.455.065 1.195-.053 1.848-.031.162-.062.326-.084.48-.129.824-.305 1.586-.491 2.391-.4 1.727-.812 3.514-.709 5.881 0 0-1.499 1.605-2.371 2.199.012-2.186.324-3.51.717-5.137zm21.695 1.859c-.164.908-.607 1.457-.744 1.48-.293-.068-1.356-.656-2.297-1.17-2.809-1.547-5.051-2.725-6.248-2.615-.681.061-1.28.479-1.913.922-.29.203-.587.412-.893.584-.709.4-1.448.836-2.191 1.273-2.115 1.25-4.288 2.531-5.945 3.041l.012-.018c.237-.846 1.574-1.764 1.574-1.764.007-.004.012 0 .02-.004 1.315-.566 2.428-1.467 3.51-2.336.487-.395.949-.77 1.429-1.113.579-.416 1.135-.891 1.677-1.352 1.357-1.154 2.638-2.25 3.865-2.027.305.051.698.322 1.109.609.316.221.644.447 1.006.635.335.168.694.355 1.068.553 1.463.768 3.113 1.629 4.813 2.199.02.016.035.037.054.049.09.054.212.414.094 1.054zm-1.678-8.162c.495 1.402.964 2.729 1.101 3.342.218.967.324 1.83.321 2.541-1.467-.539-2.917-1.287-4.211-1.969-.378-.197-.74-.389-1.079-.561a7.59 7.59 0 0 1-.88-.557c-.515-.355-.996-.693-1.533-.787-1.722-.305-3.259 1.004-4.745 2.27-.522.445-1.064.906-1.604 1.297-.508.359-1.003.762-1.479 1.148-.938.756-1.91 1.521-2.974 2.041l.004-.035h-.245c-.03-2.002.335-3.594.69-5.133.182-.791.374-1.605.507-2.465.022-.148.048-.301.079-.457.146-.801.309-1.709-.019-2.457-.454-1.037-1.658-1.836-3.049-2.764-1.272-.844-2.69-1.797-3.569-3.002 0 0 .188-.646 2.948-.654 1.076-.002 2.184-.088 3.228-.494.328.146.683.23 1.041.232 2.069.016 2.119-2.674 2.119-2.674.003-.035.015-.066.011-.104-.121-1.746.382-3.381.912-5.111.305-.996.613-2.023.8-3.076 1.04.367 2.344 3.484 2.938 4.898.142.34.271.643.384.896.077.178.167.43.271.703.416 1.127.697 1.826 1.127 2.063.721.4 2.611.047 5.409-.537.812-.17 1.51-.316 1.933-.371.134-.018.294-.043.477-.07 1.845-.283 2.87-.289 3.056-.014.024.035.031.209-.201.6-.374.623-1.341 1.623-2.115 2.426l-.232.24c-.29.303-.721.65-1.132.992-.842.686-1.636 1.334-1.841 1.963-.185.564.225 1.902 1.552 5.64z"/><g fill="#133754"><path d="M500.534 442.508a3.334 3.334 0 0 1-.986.986c.381.371.539-.879 1.315-.658-.901.742-1.659 1.631-2.466 2.467-.146-.127-.371-.176-.658-.164-.545-1.346-.621-2.986 1.315-3.289-.485.845.92-.135 1.48.658zM420.296 459.607c-.925.049-1.582-.172-2.138-.492 1.164-5.119-.323-12.586.822-17.266.643.234.128 1.625.658 1.975.356-.797.03-2.273.493-2.961 1.449 1.4.579 5.121.822 7.729 4.958-4.021 8.431 4.271 7.234 9.865-.381-.824-.056-2.355-.164-3.453-.334 1.969.061 4.664-1.48 5.426-.192-4.004.687-10.127-2.96-10.688-1.538.764-2.247 2.904-2.466 5.262-.147 1.588.274 3.352-.329 4.439.284-.509-.943-.207-.492.164zm2.466-10.029c-.487.609-.909 1.283-1.151 2.137.535-.725.845-1.676 1.644-2.137.194-.025.467.027.494-.164-.503-.119-.6.168-.987.164zM489.189 453.359c-1.097 3.006.639 6.32 4.274 5.098-1.262 1.156-3.848.236-4.439-.822-.391-4.633-.271-11.414 2.303-14.633.689-.061.117.535.164.822.891.012.533-1.223 1.48-1.152-.209 4.316-2.576 8.678-1.974 13.813.397.314 1.321.104 1.974.164-.041.178-.328.111-.33.328.549.395 1.13-.262 1.645.164-.798 2.189-4.563 1.674-5.097-.492-.256-1.042.183-1.905 0-3.29zM480.476 446.617c-.359 0-1.994.793-1.974-.656.733-.254 1.275-.697 1.974-.986-.37-.145-1.352.508-1.81.822.001-1.063 3.065-1.107 2.96-2.303.691-.186 1.183-.57 1.973-.658.056.822.6 1.154.986 1.645-1.143 1.434-3.094 2.059-4.932 2.795-.035-.528.586-.399.823-.659zM412.568 457.963c.931.514 2.044-.98 2.96-.492-.362 1.775-2.123 2.152-4.275 2.137 1.174.459 2.751-.096 3.453-.656-.354 1.563-5.38 1.609-5.919-.33.716.381 1.236.957 2.302.986-2.025-.66-3.434-1.938-4.275-3.781.286 1.26 1.189 2.039 1.48 2.467.407.6.226.324-.329-.164-2.272-2.002-2.85-7.104-1.809-10.688 1.157-4.203 8.363-5.037 9.701-.822-.731.072-.87-.445-1.315-.658.06.713.986 1.23.493 1.973-1.779-.324-1.973-2.002-3.946-1.809-4.792.469-4.466 14.166 2.631 11.346-.282.264-.599.497-1.152.491zM471.267 457.963c.932.514 2.045-.98 2.961-.492-.363 1.775-2.123 2.152-4.275 2.137 1.174.459 2.751-.096 3.453-.656-.354 1.563-5.381 1.609-5.92-.33.716.381 1.236.957 2.303.986-2.025-.66-3.435-1.938-4.275-3.781.285 1.26 1.189 2.039 1.479 2.467.407.6.226.324-.329-.164-2.272-2.002-2.85-7.104-1.809-10.688 1.156-4.203 8.363-5.037 9.701-.822-.73.072-.87-.445-1.315-.658.06.713.987 1.23.493 1.973-1.778-.324-1.973-2.002-3.945-1.809-4.793.469-4.467 14.166 2.63 11.346-.282.264-.6.497-1.152.491zM509.085 448.592c2.03 1.764 2.137 3.039 2.137 6.74 0 .934-.053.123-.164-.328-.464-1.881-.182-6.246-2.467-6.248-1.186-.002-1.727 1.205-1.479 1.809-.438-.555-.158-.09-.494.328-.739.922-1.089 6.059-1.315 8.387-.983-.113-1.651-.541-2.466-.822.501-3.486-.418-7.506.328-10.852.85-.084.206 1.328.658 1.645.311-.732.295-1.789.657-2.467.619.148.681.854.658 1.643 4.408-5.271 9.421 2.135 8.057 8.059-.379-.443-.059-1.586-.165-2.303-.277 1.367-.248 3.041-.822 4.111-1.119-.439-.551-2.076-.657-3.783-.165-2.665-.65-5.054-2.466-5.919zm-1.973.658c.17-.547 1.664-.629 1.644-.824-.992-.334-1.862 1.023-1.644.824zm5.754 3.453c-.022-.215-.159-.574-.328-.988-.033 1.664.544 3.027.328.988zM431.806 458.129c.907 1.705 2.894 2.896 5.426 2.465-3.105 1.123-6.317-1.189-5.919-4.109-.328.891-.647-1.021-.658-1.645-.06-3.514 3.155-6.977 6.413-7.234.253-.088.01-.172-.165-.164 5.925-.787 3.675 7.625-1.48 7.068-.863-.092-1.175-.553-2.302-.656-.767 3.014.885 5.033 3.782 4.932-.175.373-1.034.063-1.48.166 1.21.643 2.41-.148 3.289 0-1.031 2.986-6.196 1.001-6.906-.823zm2.137-6.414c2.02.637 3.868.172 4.111-1.809-1.8.174-3.238.709-4.111 1.809zm.493 1.48c-.365-.127-.641-.346-1.15-.328-.053.447.955.67 1.15.328zm-3.288 2.631c-.072-.539.166-2.24-.165-1.973.072.538-.166 2.239.165 1.973zM477.845 458.129c.906 1.705 2.894 2.896 5.426 2.465-3.105 1.123-6.318-1.189-5.92-4.109-.328.891-.646-1.021-.658-1.645-.059-3.514 3.155-6.977 6.413-7.234.253-.088.011-.172-.164-.164 5.925-.787 3.675 7.625-1.479 7.068-.863-.092-1.176-.553-2.303-.656-.766 3.014.885 5.033 3.782 4.932-.175.373-1.034.063-1.479.166 1.209.643 2.41-.148 3.288 0-1.031 2.986-6.197 1.001-6.906-.823zm2.136-6.414c2.02.637 3.867.172 4.111-1.809-1.8.174-3.238.709-4.111 1.809zm.495 1.48c-.366-.127-.642-.346-1.152-.328-.052.447.955.67 1.152.328zm-3.289 2.631c-.072-.539.166-2.24-.164-1.973.071.538-.167 2.239.164 1.973zM516.483 457.141c.204 2.092 2.777 3.953 5.591 3.453-3.058 1.172-6.292-1.469-5.755-3.945-.437.949-.721-1.51-.658-2.467.216-3.285 3.086-6.113 6.413-6.576.253-.088.011-.172-.165-.164 1.489-.527 3.328.236 3.617 1.643.754 3.654-3.672 7.014-7.398 4.77-.8 2.389.468 5.264 3.617 4.768.064.666-1.024.182-1.479.33 1.159.426 2.328.283 3.288-.166.18.729-.277.818-.328 1.316-3.143 1.055-6.122-.449-6.743-2.962zm2.467-5.426c2.01.744 3.803.037 4.11-1.809-1.826.149-3.264.682-4.11 1.809zm-.822 1.48c.43-.137.902.498 1.15 0-.295-.166-1.008-.629-1.15 0zM496.753 453.689c-.409 1.398-.355 3.262-.658 4.768.145-3.73.617-7.148.986-10.688.568-.129.724.154.822.492.486-.17.483-.832 1.316-.656.434 3.695-1.064 6.809-.987 10.688-.595.156-.229-.648-.329-.986-.285.701-.312 1.66-1.314 1.645-.448-1.622.24-3.472.164-5.263zM443.151 455.332c.864-.039 2.017-.992 2.959-1.479-.073.146-.145.293-.329.328.541-1.078 3.853-1.711 5.426-2.795-1.72-1.039-5.341-.209-6.906-.164.04-.674.686-.74 1.315-.822-.358-.631-1.645.211-2.631 0 1.702-2.879 8.712-2.266 11.345-.658.005.99.052 2.025-.164 2.795-2.307 1.914-6.403 2.037-8.385 4.275 2.281.459 4.961.52 7.399.822-.992.494-2.188-.223-3.453 0 2.035.404 3.615.377 5.098 1.15-.892 1.453-3.693.117-5.426.33 1.025.344 2.373.367 3.617.492-3.715.447-6.801-.949-10.523-.656-.257-1.575.265-3.239.658-3.618zm1.48 1.645c.132-.369 1.381-.469.986-.822-.246.255-1.384.468-.986.822zm-1.973 1.808h2.795c-.552-.379-1.806-.057-2.631-.164-.066-.49.159-2.121-.164-1.809v1.973zm2.466-1.478c.261-.014-.996-.125-1.151 0 .774-.621 4.232.922 5.427.164-1.403-.075-3.292-.217-4.276-.164z"/></g><path fill="#97D0C9" d="M445.853 540.309c-1.516 0-2.947-.041-4.254-.123-13.13-.811-21.498-3.518-33.248-8.557-4.674-2.004-8.192-4.627-11.594-7.164-.94-.701-1.897-1.414-2.9-2.133-.617-.441-1.261-.895-1.924-1.359-4.913-3.459-11.028-7.76-14.575-13.176-6.367-9.725-9.717-15.828-12.736-26.295-1.045-3.621-1.552-7.252-2.042-10.762-.236-1.697-.481-3.451-.782-5.152-1.013-5.732-1.592-10.646-1.125-15.994.542-6.211 1.171-11.086 1.98-15.342.444-2.334 1.172-4.57 1.875-6.73.726-2.23 1.412-4.338 1.759-6.428l.093-.56.246-.513s3.345-6.978 4.268-8.927c.983-2.075 2.309-3.907 3.591-5.677.291-.402.58-.803.861-1.199.986-1.396 1.873-2.953 2.812-4.602 1.711-3.005 3.48-6.113 6.16-8.823 7.172-7.253 16.014-11.774 24.564-16.146 1.376-.704 2.747-1.404 4.103-2.113 10.446-5.461 21.996-8.348 33.4-8.348 10.141 0 20.059 2.91 29.651 5.724 1.31.384 2.61.766 3.899 1.136 7.786 2.235 13.473 7.059 18.972 11.724 2.987 2.533 5.809 4.926 8.946 6.931l1.228.779c4.829 3.056 9.822 6.216 12.852 12.64 1.363 2.893 2.354 5.863 3.313 8.736.893 2.675 1.734 5.2 2.836 7.594.398.866.812 1.716 1.222 2.559 1.958 4.03 3.983 8.196 4.207 13.383.049 1.121.063 2.242.075 3.357.021 1.711.039 3.324.191 4.885.097.992.283 2.008.48 3.084.352 1.916.75 4.086.664 6.467-.089 2.479-.103 4.719-.116 6.885-.048 7.793-.09 14.523-3.97 23.713-3.48 8.248-7.555 17.203-11.371 21.098-1.286 1.313-2.549 2.631-3.808 3.943-9.432 9.84-19.184 20.016-37.502 26.625-3.952 1.428-7.8 2.023-11.521 2.6-1.764.273-3.429.531-5.108.873-4.207.855-10.212 1.387-15.672 1.387zm-71.775-117.322c-.461 2.462-1.212 4.771-1.941 7.009-.655 2.014-1.273 3.914-1.623 5.752-.758 3.984-1.353 8.604-1.87 14.541-.39 4.477.131 8.797 1.034 13.908.326 1.844.581 3.67.827 5.438.472 3.381.917 6.574 1.805 9.65 2.751 9.537 5.715 14.924 11.742 24.129 2.709 4.135 7.903 7.791 12.486 11.016.68.479 1.342.943 1.975 1.396 1.047.75 2.046 1.494 3.028 2.227 3.306 2.465 6.16 4.594 9.964 6.225 11.14 4.777 18.558 7.182 30.587 7.924 1.144.07 2.409.107 3.76.107h.001c4.964 0 10.358-.471 14.079-1.227 1.863-.379 3.701-.664 5.478-.939 3.5-.541 6.806-1.053 10.03-2.219 16.556-5.973 25.244-15.037 34.442-24.635a480.542 480.542 0 0 1 3.87-4.008c3.266-3.332 8.119-14.83 9.714-18.609 3.261-7.723 3.294-13.145 3.341-20.65.014-2.225.027-4.525.121-7.123.054-1.508-.234-3.076-.538-4.736-.219-1.189-.445-2.422-.575-3.752-.185-1.9-.206-3.764-.228-5.566-.012-1.031-.023-2.068-.068-3.105-.152-3.529-1.662-6.635-3.41-10.23-.435-.895-.872-1.795-1.294-2.713-1.284-2.791-2.236-5.645-3.157-8.406-.925-2.773-1.799-5.394-2.96-7.855-2.036-4.319-5.504-6.514-9.894-9.292l-1.256-.797c-3.594-2.295-6.756-4.978-9.814-7.572-5.077-4.307-9.873-8.375-16.004-10.135a692.15 692.15 0 0 1-3.944-1.149c-9.05-2.655-18.407-5.4-27.399-5.4-10.119 0-20.386 2.572-29.694 7.438-1.378.72-2.77 1.432-4.167 2.146-7.988 4.084-16.248 8.308-22.517 14.647-1.938 1.96-3.375 4.484-4.897 7.157-.992 1.742-2.018 3.543-3.229 5.258-.298.422-.605.848-.915 1.274-1.068 1.477-2.174 3.003-2.84 4.411-.779 1.639-3.27 6.836-4.05 8.465z"/></svg>