<?xml version="1.0" encoding="utf-8"?>
<!-- Generator: Adobe Illustrator 15.0.0, SVG Export Plug-In . SVG Version: 6.00 Build 0)  -->
<!DOCTYPE svg PUBLIC "-//W3C//DTD SVG 1.1//EN" "http://www.w3.org/Graphics/SVG/1.1/DTD/svg11.dtd">
<svg version="1.1" id="Capa_1" xmlns="http://www.w3.org/2000/svg" xmlns:xlink="http://www.w3.org/1999/xlink" x="0px" y="0px"
	 width="312.68px" height="225.717px" viewBox="340.494 300.5 312.68 225.717"
	 enable-background="new 340.494 300.5 312.68 225.717" xml:space="preserve">
<g>
	<g>
		<g>
			<g>
				<path fill="#103653" d="M412.016,185.969L412.016,185.969L412.016,185.969z"/>
			</g>
			<path fill="#F8F9F6" d="M639.617,319.737c-20.964-19.965-66.883-8.984-92.838-7.986c-60.896,0.998-121.789,4.991-182.682,9.982
				c-5.989,0.999-8.984,5.989-8.984,10.98c-0.999,0.998-1.997,1.996-1.997,3.992c-2.995,28.95-5.99,57.899-6.988,86.849
				c-0.999,23.958-9.982,56.9-2.995,79.858c4.991,16.971,11.979,17.969,27.951,19.965c52.907,6.987,113.802-0.998,167.707-1.999
				c27.953,0,70.875,8.986,93.834-12.978c17.973-17.97,17.973-50.907,18.969-73.869C651.597,408.58,659.584,338.704,639.617,319.737
				z M575.729,327.724c14.977,0,24.956-1.997,33.94,1.996c-20.965,17.97-47.915,46.918-73.87,63.89
				c0-9.982-1.995-18.968-10.979-23.959c-17.97-9.982-25.954,5.988-29.946,25.955c0-0.998-1-0.998-1-1.996
				c-6.987-10.981-16.97-15.974-29.947-10.981c-4.99,1.997-6.987,8.984-5.987,13.977c0,0.997,0.997,2.993,0.997,3.992
				c-30.946-14.974-64.887-43.923-89.844-59.896C437.97,333.713,506.85,329.718,575.729,327.724z M358.109,451.505
				c1.997-33.939,3.993-67.881,3.993-100.823c29.948,21.962,60.894,42.926,90.841,63.889c0.998,0.998,1.996,0.998,2.995,1.997
				c-33.94,23.958-65.885,50.911-96.832,77.863C352.12,480.455,357.111,465.482,358.109,451.505z M510.842,505.411
				c-33.938,0.998-68.879,0.998-102.818,2c-16.972,0-30.946,4.99-42.925-5.99c33.941-24.956,69.876-48.914,101.823-76.867
				c0.997,0.998,2.994,1.996,3.992,2.995c5.99,8.983,12.979,16.971,20.963,23.958c0,0,0,0,0,0.998
				c3.993,9.982,18.967,9.982,21.963,0c6.987-8.983,11.979-18.967,15.972-29.947c20.964,25.955,45.918,53.905,73.868,73.871
				C576.729,510.401,541.788,504.413,510.842,505.411z M619.652,485.445c-12.979-9.982-25.955-19.965-38.932-29.947
				c-15.974-12.979-30.947-27.951-45.921-41.927c1.996-1.996,2.994-2.994,4.99-3.992c27.951-22.961,55.903-44.923,83.853-67.882l0,0
				c11.98,13.976,9.984,30.945,10.98,48.914C634.626,420.561,640.615,462.485,619.652,485.445z"/>
		</g>
	</g>
</g>
</svg>
