<?xml version="1.0" encoding="utf-8"?>
<!-- Generator: Adobe Illustrator 15.0.0, SVG Export Plug-In . SVG Version: 6.00 Build 0)  -->
<!DOCTYPE svg PUBLIC "-//W3C//DTD SVG 1.1//EN" "http://www.w3.org/Graphics/SVG/1.1/DTD/svg11.dtd">
<svg version="1.1" id="Layer_1" xmlns="http://www.w3.org/2000/svg" xmlns:xlink="http://www.w3.org/1999/xlink" x="0px" y="0px"
	 width="800px" height="800px" viewBox="0 0 800 800" enable-background="new 0 0 800 800" xml:space="preserve">
<g>
	<g>
		<g>
			<path fill="#103653" d="M478.73,656.743c-39.495,0-71.627,32.132-71.627,71.63c0,39.494,32.132,71.627,71.627,71.627
				s71.628-32.133,71.628-71.627C550.358,688.875,518.226,656.743,478.73,656.743z M478.73,757.161
				c-15.876,0-28.793-12.915-28.793-28.791s12.915-28.791,28.793-28.791c15.874,0,28.791,12.915,28.791,28.791
				S494.607,757.161,478.73,757.161z"/>
			<path fill="#103653" d="M738.019,19.309C698.645-11.548,641.537-4.679,610.6,34.596l-91.828,112.883l-4.73,5.816
				c-0.114,0.139-0.228,0.277-0.339,0.418L132.03,622.891c36.22,2.427,67.485,23.16,84.622,53.016h170.324
				c18.252-31.801,52.531-53.281,91.754-53.281c13.327,0,26.073,2.502,37.828,7.021c23.385-25.42,37.712-59.29,37.712-96.473
				V175.931l91.741-112.778c0.086-0.107,0.171-0.214,0.255-0.323c15.433-19.688,44.005-23.148,63.689-7.72
				c9.885,7.749,24.183,6.016,31.935-3.872C749.637,41.354,747.906,27.056,738.019,19.309z"/>
			<path fill="#103653" d="M124.895,656.743c-39.495,0-71.627,32.132-71.627,71.63C53.268,767.867,85.4,800,124.895,800
				c39.497,0,71.629-32.133,71.629-71.627C196.524,688.875,164.395,656.743,124.895,656.743z M124.897,757.161
				c-15.876,0-28.793-12.915-28.793-28.791s12.915-28.791,28.793-28.791c15.874,0,28.791,12.915,28.791,28.791
				S140.773,757.161,124.897,757.161z"/>
		</g>
	</g>
</g>
</svg>
