<?xml version="1.0" encoding="utf-8"?>
<!-- Generator: Adobe Illustrator 15.0.0, SVG Export Plug-In . SVG Version: 6.00 Build 0)  -->
<!DOCTYPE svg PUBLIC "-//W3C//DTD SVG 1.1//EN" "http://www.w3.org/Graphics/SVG/1.1/DTD/svg11.dtd">
<svg version="1.1" id="Capa_1" xmlns="http://www.w3.org/2000/svg" xmlns:xlink="http://www.w3.org/1999/xlink" x="0px" y="0px"
	 width="800px" height="800px" viewBox="0 0 800 800" enable-background="new 0 0 800 800" xml:space="preserve">
<g>
	<g>
		<path fill="#CBD265" d="M491.451,144.683c1.27,0.209,2.539,0.33,3.791,0.557c4.225,0.8,8.396,1.809,12.5,2.973
			c0.156,0.035,0.297,0,0.453,0.035h0.018v-0.035c1.668,0.47,3.391,1.113,5.076,1.67c1.113,0.365,2.225,0.713,3.32,1.096
			c1.426,0.504,2.887,1.095,4.33,1.668c1.061,0.418,2.086,0.853,3.111,1.287c1.357,0.574,2.66,1.043,4.051,1.669
			c0.244,0.122,0.4,0.331,0.627,0.452c0.295,0.121,0.607,0.087,0.904,0.227c0.018,0.017,0.035,0.034,0.051,0.034
			c0.627,0.278,1.166,0.695,1.791,0.991c3.164,1.512,6.172,3.234,9.197,4.973c1.844,1.061,3.721,2.033,5.512,3.182
			c0.453,0.295,0.992,0.504,1.443,0.799c0.295,0.191,0.504,0.453,0.783,0.661c0.156,0.087,0.33,0.087,0.486,0.191
			c0.053,0.034,0.086,0.052,0.139,0.087c0.4,0.261,0.73,0.608,1.113,0.887c2.172,1.479,4.26,3.025,6.346,4.625
			c1.826,1.391,3.529,2.938,5.285,4.416c0.053,0.053,0.104,0.087,0.156,0.139c1.479,1.252,3.025,2.417,4.451,3.721
			c2.781,2.539,5.355,5.251,7.928,7.998c1.184,1.27,2.365,2.539,3.496,3.842c0.607,0.696,1.338,1.287,1.93,2
			c0.033,0.018,0.051,0,0.068,0.087c0.141,0.174,0.174,0.399,0.314,0.591c0.033,0.018,0.051,0.053,0.068,0.07
			c0.191,0.209,0.453,0.295,0.627,0.504c0.225,0.278,0.398,0.626,0.625,0.904c2.365,2.938,4.469,6.051,6.607,9.18
			c1.096,1.582,2.207,3.146,3.234,4.781c0.381,0.608,0.852,1.131,1.217,1.738c0.121,0.209,0.156,0.453,0.277,0.661
			c0.07,0.122,0.139,0.261,0.209,0.382c0.086,0.174,0.209,0.313,0.313,0.487c0.053,0.104,0.156,0.157,0.227,0.261
			c0.068,0.122,0.121,0.262,0.191,0.383c1.303,2.242,2.469,4.555,3.65,6.867c1.635,3.164,3.096,6.398,4.486,9.685
			c0.4,0.956,0.869,1.86,1.252,2.816c0.398,0.974,0.955,1.878,1.32,2.869c1.252-1.704,2.469-3.407,3.686-5.077
			c2.244-3.077,4.469-6.172,6.572-9.093c1.756-2.452,3.408-4.781,5.061-7.111c1.912-2.694,3.842-5.407,5.615-7.929
			c1.6-2.26,3.061-4.346,4.539-6.467c1.582-2.277,3.232-4.625,4.693-6.729c1.408-2.035,2.66-3.86,3.947-5.721
			c1.303-1.912,2.678-3.912,3.859-5.633c1.096-1.617,2.018-2.973,2.99-4.416c1.096-1.617,2.277-3.355,3.217-4.764
			c0.922-1.374,1.652-2.435,2.416-3.6c0.678-1.043,1.496-2.26,2.07-3.111c0.451-0.679,0.695-1.044,1.061-1.6
			c1.65-2.486,2.711-4.121,2.764-4.191c10.57-16.43,20.447-33.434,29.4-50.594c-1.686-5.094-3.842-9.945-6.207-14.639
			c-0.783-1.531-1.686-2.974-2.521-4.469c-1.756-3.13-3.633-6.172-5.686-9.094c-1.094-1.564-2.242-3.094-3.424-4.607
			c-2.156-2.764-4.469-5.389-6.867-7.928c-1.219-1.287-2.383-2.59-3.652-3.808c-19.994-19.143-46.926-30.722-75.979-30.722
			c-59.67,0-108.387,47.691-110.072,106.961c0.834,0.018,1.633,0.209,2.469,0.244C480.168,143.223,485.854,143.778,491.451,144.683z
			"/>
		<path fill="#CBD265" d="M379.292,282.558c0.904,0.26,1.826,0.451,2.73,0.713c6.45,1.895,12.691,4.259,18.742,7.006
			c1.025,0.47,2.018,0.991,3.043,1.479c6.016,2.902,11.857,6.102,17.387,9.771c0.053,0.035,0.086,0.053,0.139,0.087
			c5.668,3.773,10.971,8.016,16.031,12.536c0.781,0.695,1.529,1.373,2.295,2.086c10.119,9.424,18.863,20.238,25.975,32.183
			c0.277,0.469,0.574,0.921,0.852,1.391c3.582,6.189,6.711,12.64,9.371,19.351c0.053,0.104,0.088,0.209,0.123,0.313
			c2.693,6.867,4.902,13.961,6.537,21.281c3.738-4.295,7.459-8.659,11.197-13.022c3.529-4.139,7.076-8.224,10.605-12.432
			c4.764-5.668,9.51-11.458,14.256-17.229c3.477-4.226,6.973-8.398,10.449-12.692c5.025-6.207,10.031-12.553,15.039-18.864
			c3.146-3.964,6.313-7.876,9.459-11.893c5.807-7.424,11.563-14.986,17.334-22.533c2-2.643,4.121-5.337,6.102-7.963
			c0.227-0.295,0.453-0.607,0.68-0.903c-0.244-1.86-0.818-3.581-1.148-5.39c-0.66-3.617-1.408-7.181-2.416-10.658
			c-0.678-2.313-1.391-4.59-2.209-6.85c-1.373-3.756-2.973-7.39-4.729-10.954c-0.887-1.808-1.688-3.651-2.66-5.407
			c-2.748-4.902-5.824-9.58-9.268-13.979c-0.26-0.33-0.486-0.73-0.746-1.061c-3.982-4.955-8.363-9.563-13.109-13.752
			c-0.4-0.365-0.871-0.645-1.27-0.992c-4.26-3.65-8.781-6.988-13.563-9.979c-1.252-0.765-2.625-1.442-3.93-2.173
			c-3.91-2.226-7.945-4.242-12.135-5.981c-2.068-0.869-4.121-1.564-6.137-2.277c-11.25-3.912-23.193-6.294-35.678-6.294
			c-3.738,0-7.441,0.209-11.092,0.574c-52.525,5.285-94.269,47.586-98.633,100.354c0.678,0.088,1.304,0.313,1.981,0.4
			C367.174,279.653,373.293,280.923,379.292,282.558z"/>
		<path fill="#CBD265" d="M247.208,425.925c1.287,0.609,2.557,1.2,3.825,1.844c4.451,2.277,8.763,4.746,12.936,7.458
			c1.704,1.096,3.355,2.261,5.007,3.426c3.408,2.416,6.729,4.955,9.91,7.649c2.087,1.756,4.052,3.6,6.033,5.477
			c2.069,1.982,4.068,4.034,6.033,6.12c1.896,2.018,3.809,4.017,5.581,6.138c3.183,3.825,6.207,7.789,8.989,11.927
			c1.199,1.791,2.242,3.687,3.373,5.547c1.965,3.199,3.807,6.45,5.512,9.806c0.903,1.791,1.773,3.564,2.607,5.39
			c2.139,4.66,4.051,9.424,5.686,14.326c0.156,0.505,0.383,0.974,0.539,1.479c1.912,5.929,3.373,12.014,4.503,18.238
			c0.034,0.208,0.122,0.399,0.156,0.608c0.191,0.018,0.399,0.087,0.591,0.104c1.252,0.156,2.486,0.243,3.721,0.365
			c3.843,0.348,7.668,0.591,11.527,0.382c34.791-30.53,70.902-66.225,107.466-106.23c0.051-1.27,0.086-2.539,0.086-3.825
			c0-2.034-0.209-4.017-0.313-6.016c0-0.053-0.035-0.087-0.035-0.14c-0.609-10.884-2.781-21.333-6.293-31.121
			c-0.018-0.035-0.035-0.087-0.053-0.122c-1.131-3.146-2.416-6.224-3.826-9.231c-0.104-0.209-0.207-0.436-0.313-0.661
			c-1.355-2.816-2.816-5.581-4.381-8.259c-0.227-0.399-0.469-0.782-0.713-1.165c-1.496-2.503-3.096-4.938-4.781-7.302
			c-0.365-0.521-0.766-1.026-1.148-1.548c-1.633-2.19-3.32-4.329-5.111-6.397c-0.539-0.609-1.094-1.2-1.633-1.791
			c-1.74-1.913-3.514-3.79-5.373-5.581c-0.66-0.644-1.373-1.252-2.07-1.878c-1.824-1.669-3.686-3.304-5.615-4.851
			c-0.799-0.644-1.65-1.217-2.469-1.843c-1.912-1.443-3.842-2.869-5.842-4.19c-0.921-0.608-1.877-1.147-2.816-1.722
			c-2-1.234-3.999-2.451-6.068-3.547c-1.008-0.538-2.068-1.008-3.111-1.512c-2.069-1.009-4.156-2.034-6.295-2.921
			c-1.112-0.452-2.26-0.817-3.373-1.235c-2.155-0.816-4.294-1.634-6.52-2.312c-1.112-0.331-2.277-0.574-3.408-0.87
			c-2.295-0.608-4.572-1.251-6.919-1.721c-0.904-0.174-1.843-0.261-2.765-0.417c-6.068-1.061-12.258-1.704-18.604-1.722
			c-0.018,0-0.018,0-0.018,0c-0.104,0-0.191-0.018-0.295-0.018c-59.775,0-108.596,47.882-110.091,107.326
			c0.14,0.053,0.278,0.122,0.417,0.122C236.863,421.335,242.096,423.491,247.208,425.925z"/>
		<path fill="#CBD265" d="M614.809,281.601c-0.191,0.261-0.365,0.504-0.574,0.783c-0.018,0.034-0.035,0.051-0.053,0.068
			c-1.529,2.018-3.059,4.068-4.572,6.068c-0.035,0.035-0.035,0.069-0.068,0.104c-0.383,0.504-0.766,0.991-1.148,1.495
			c-1.234,1.652-2.521,3.355-3.756,4.99c-83.314,110.056-184.07,231.935-307.46,318.866c-0.4,0.278-0.8,0.573-1.199,0.852
			c-5.061,3.547-10.137,7.06-15.283,10.484c-5.424,3.668-10.814,7.181-16.17,10.57c-1.061,0.679-2.068,1.392-3.129,2.052
			c-0.816,0.521-1.652,1.044-2.486,1.565c-0.174,0.104-0.383,0.139-0.557,0.243c-1.721,1.078-3.477,2.208-5.198,3.251
			c-0.122,0.069-0.174,0.209-0.296,0.278c-0.573,0.348-1.164,0.644-1.738,0.991c-2.295,1.373-4.555,2.607-6.85,3.929
			c-2.452,1.392-4.903,2.869-7.373,4.226c-0.051,0.052-0.121,0.087-0.174,0.121c-0.226,0.122-0.486,0.157-0.713,0.278
			c-2.398,1.339-4.815,2.765-7.197,4.034c-0.018,0.017-0.035,0.034-0.069,0.052c-0.069,0.052-0.157,0.087-0.226,0.122
			c-2.504,1.321-4.955,2.503-7.441,3.772c-2.644,1.356-5.304,2.747-7.963,4.051c-0.157,0.07-0.313,0.035-0.453,0.104
			c-4.833,2.33-9.632,4.573-14.396,6.659c-3.095,1.356-6.173,2.765-9.267,4.033c-0.156,0.053-0.313,0.035-0.47,0.087
			c-5.442,2.226-10.814,4.226-16.151,6.104c-2.557,0.921-5.13,1.947-7.686,2.764c-0.104,0.035-0.227,0.018-0.33,0.053
			c-8.119,2.643-16.152,4.989-24.028,6.833h-0.017c-0.592,0.139-1.218,0.243-1.826,0.313c-16.396,3.825-31.852,5.929-46.787,6.363
			c-3.877,0.487-18.395,2.156-33.903,2.156c-0.817,0-1.651-0.053-2.469-0.069c80.69,85.28,196.292,88.235,302.731,7.163
			C546.879,563.66,709.617,325.275,711.232,322.876c61.965-98.633,44.631-203.281,32.408-253.771
			C713.076,148.63,662.447,218.505,614.809,281.601z"/>
		<path fill="#CBD265" d="M93.147,616.915c5.615,8.589,12.275,16.256,19.785,22.863c2.121,1.86,4.451,3.442,6.711,5.129
			c1.723,1.286,3.339,2.729,5.146,3.929c1.514,0.991,3.165,1.756,4.729,2.678c2.729,1.6,5.372,3.286,8.259,4.659
			c3.146-0.816,6.328-1.703,9.563-2.677h0.035c2.313-0.679,4.607-1.287,6.937-2.052c4.451-1.461,8.901-3.13,13.37-4.816
			c2.643-0.991,5.251-1.912,7.928-3.008c0.088-0.034,0.14-0.087,0.209-0.121c4.747-1.931,9.511-4.034,14.274-6.207v-0.018h0.018
			c0.034-0.018,0.069,0,0.087-0.018c3.773-1.738,7.615-3.651,11.457-5.563c3.564-1.756,7.129-3.512,10.693-5.407
			c0.069-0.035,0.156-0.035,0.227-0.069c3.459-1.843,6.988-3.93,10.483-5.912c3.651-2.051,7.302-4.085,10.953-6.276
			c3.233-1.947,6.521-4.051,9.788-6.103c16.883-10.588,33.782-22.445,50.422-35.103c0.764-5.286,1.164-10.658,1.164-15.996
			c0-3.06-0.209-6.067-0.452-9.058c0-0.018,0-0.035,0-0.035c-0.47-5.737-1.425-11.336-2.729-16.795
			c-0.139-0.557-0.278-1.096-0.417-1.635c-1.356-5.32-3.043-10.536-5.146-15.526c-0.018-0.052-0.052-0.104-0.069-0.156
			c-1.912-4.503-4.242-8.78-6.711-12.953c-0.73-1.234-1.443-2.469-2.227-3.668c-2.469-3.79-5.129-7.441-8.031-10.901
			c-1.009-1.217-2.121-2.364-3.199-3.529c-2.452-2.695-5.043-5.251-7.755-7.685c-1.009-0.887-1.947-1.844-2.99-2.713
			c-3.651-3.025-7.546-5.789-11.597-8.346c-0.974-0.608-1.947-1.199-2.921-1.773c-9.458-5.546-19.786-9.84-30.913-12.413
			c-0.035,0-0.07-0.035-0.104-0.035c-7.997-1.86-16.291-2.938-24.845-2.938c-60.73,0-110.126,49.412-110.143,110.178
			c0,21.368,6.102,41.658,17.004,58.888C92.469,616.133,92.852,616.48,93.147,616.915z"/>
		<path fill="#CBD265" d="M713.779,49.58c-2.799,7.807-5.98,15.456-9.215,23.106c-0.746-1.217-1.494-2.434-2.277-3.651
			c-1.738-2.677-3.598-5.269-5.512-7.823c-0.59-0.783-1.094-1.635-1.703-2.417C701.453,55.526,707.66,52.483,713.779,49.58z"/>
		<path fill="#CBD265" d="M79.133,660.286c0.383,0.4,0.817,0.748,1.199,1.147c2.33,2.469,4.713,4.903,7.199,7.181
			c-3.27,0.418-8.867,1.009-15.336,1.426C74.405,666.928,76.543,663.902,79.133,660.286z"/>
	</g>
</g>
<path fill="#103653" d="M771.591,41.936c-0.557-2.104-1.061-3.964-1.461-5.529c4.139-14.153-1.061-22.985-4.694-27.123
	c-10.692-12.136-28.305-9.302-33.503-8.206c-0.939,0.226-1.86,0.504-2.765,0.869c-2.295,0.939-4.643,1.982-6.955,2.956
	c-18.533,6.312-36.268,15.874-52.263,24.654l-1.2,0.661c-24.654-18.899-55.341-29.922-87.992-29.922
	c-79.891,0-144.898,64.991-144.898,144.898c0,0.122,0.018,0.226,0.018,0.348c-61.844,13.788-108.77,67.181-112.89,132.102
	c-68.763,8.05-122.817,64.365-127.494,134.101c-3.791-0.295-7.581-0.573-11.44-0.573c-79.891,0-144.898,64.99-144.898,144.898
	c0,24.549,6.433,47.847,17.525,68.502c-1.321,1.843-2.712,3.738-3.964,5.477c-1.495,2.087-2.903,4.051-4.329,6.051
	c-2,2.781-3.895,5.459-5.668,7.963c-1.2,1.687-2.399,3.391-3.529,5.007c-2.695,3.843-5.181,7.424-7.337,10.554
	c-0.539,0.782-1.008,1.478-1.512,2.226c-2.26,3.32-4.225,6.259-5.912,8.798c-0.191,0.277-0.435,0.643-0.608,0.921
	c-0.018,0.018-0.018,0.035-0.018,0.053c-2.59,3.964-4.572,7.059-5.963,9.336l-1.391,1.27c-5.216,4.764-7.006,12.24-4.555,18.864
	c1.826,4.92,5.807,10.467,13.77,19.159c48.647,53.063,109.899,79.786,174.699,79.77c58.522,0,119.931-21.803,177.532-65.634
	C571.3,587.121,737.113,344.129,739.096,341.19C817.873,215.834,783.031,84.95,771.591,41.936z M704.34,73.963
	c-0.747-1.217-1.495-2.434-2.277-3.651c-1.738-2.677-3.599-5.268-5.512-7.824c-0.591-0.782-1.095-1.634-1.704-2.417
	c6.381-3.269,12.588-6.312,18.708-9.215C710.756,58.663,707.574,66.313,704.34,73.963z M580.758,35.068
	c29.053,0,55.984,11.579,75.979,30.722c1.27,1.217,2.434,2.521,3.651,3.808c2.398,2.539,4.711,5.164,6.867,7.928
	c1.183,1.513,2.33,3.042,3.425,4.607c2.052,2.921,3.93,5.963,5.686,9.093c0.835,1.495,1.738,2.938,2.521,4.468
	c2.364,4.694,4.521,9.545,6.207,14.639c-8.954,17.16-18.83,34.164-29.4,50.594c-0.053,0.07-1.113,1.704-2.765,4.19
	c-0.365,0.556-0.608,0.921-1.061,1.6c-0.574,0.852-1.392,2.069-2.069,3.112c-0.765,1.165-1.495,2.226-2.417,3.599
	c-0.938,1.408-2.121,3.147-3.216,4.764c-0.974,1.443-1.896,2.799-2.991,4.416c-1.182,1.721-2.556,3.721-3.859,5.633
	c-1.286,1.86-2.538,3.686-3.946,5.72c-1.461,2.104-3.112,4.451-4.694,6.729c-1.479,2.122-2.938,4.208-4.538,6.468
	c-1.773,2.521-3.703,5.233-5.616,7.928c-1.651,2.33-3.304,4.66-5.06,7.111c-2.104,2.921-4.329,6.016-6.572,9.093
	c-1.217,1.669-2.434,3.373-3.686,5.077c-0.365-0.991-0.922-1.896-1.321-2.869c-0.383-0.956-0.852-1.86-1.252-2.816
	c-1.391-3.286-2.852-6.52-4.485-9.684c-1.183-2.313-2.348-4.625-3.651-6.868c-0.069-0.122-0.122-0.261-0.191-0.383
	c-0.069-0.104-0.174-0.156-0.226-0.261c-0.104-0.174-0.227-0.313-0.313-0.487c-0.069-0.122-0.139-0.261-0.208-0.382
	c-0.122-0.208-0.157-0.452-0.278-0.661c-0.365-0.608-0.835-1.13-1.217-1.739c-1.026-1.634-2.139-3.199-3.234-4.781
	c-2.139-3.129-4.242-6.242-6.606-9.18c-0.227-0.278-0.4-0.626-0.626-0.904c-0.174-0.208-0.435-0.295-0.626-0.504
	c-0.018-0.017-0.035-0.052-0.069-0.069c-0.14-0.191-0.174-0.417-0.313-0.591c-0.018-0.087-0.035-0.069-0.069-0.087
	c-0.591-0.713-1.321-1.304-1.93-2c-1.131-1.304-2.313-2.573-3.495-3.842c-2.573-2.747-5.146-5.459-7.928-7.998
	c-1.426-1.304-2.974-2.469-4.451-3.721c-0.053-0.052-0.104-0.087-0.156-0.139c-1.757-1.478-3.46-3.025-5.286-4.416
	c-2.086-1.6-4.173-3.147-6.346-4.625c-0.382-0.278-0.713-0.626-1.112-0.887c-0.053-0.035-0.087-0.052-0.14-0.087
	c-0.156-0.104-0.33-0.104-0.486-0.191c-0.278-0.208-0.487-0.469-0.782-0.661c-0.452-0.295-0.991-0.504-1.443-0.8
	c-1.791-1.147-3.669-2.121-5.512-3.182c-3.025-1.738-6.033-3.46-9.197-4.972c-0.626-0.296-1.165-0.713-1.791-0.991
	c-0.017,0-0.034-0.018-0.052-0.035l0,0c-0.296-0.139-0.608-0.104-0.904-0.226c-0.226-0.122-0.382-0.331-0.626-0.452
	c-1.391-0.626-2.694-1.095-4.051-1.669c-1.025-0.435-2.052-0.87-3.112-1.287c-1.443-0.574-2.903-1.165-4.329-1.669
	c-1.096-0.383-2.208-0.73-3.32-1.096c-1.687-0.556-3.408-1.2-5.077-1.669v0.035h-0.018c-0.156-0.035-0.296,0-0.452-0.035
	c-4.104-1.165-8.275-2.173-12.501-2.973c-1.252-0.226-2.521-0.348-3.79-0.556c-5.599-0.904-11.283-1.46-17.073-1.687
	c-0.835-0.035-1.635-0.226-2.469-0.244C472.371,82.759,521.088,35.068,580.758,35.068z M456.323,177.324
	c3.651-0.365,7.354-0.574,11.093-0.574c12.483,0,24.428,2.382,35.677,6.294c2.017,0.713,4.068,1.408,6.138,2.277
	c4.189,1.739,8.224,3.756,12.135,5.981c1.305,0.73,2.678,1.409,3.93,2.173c4.781,2.991,9.302,6.329,13.562,9.98
	c0.399,0.348,0.869,0.626,1.27,0.991c4.746,4.19,9.128,8.797,13.109,13.752c0.261,0.33,0.486,0.73,0.747,1.061
	c3.442,4.399,6.52,9.076,9.268,13.979c0.973,1.756,1.773,3.599,2.659,5.407c1.757,3.564,3.356,7.198,4.729,10.954
	c0.817,2.26,1.53,4.538,2.208,6.85c1.009,3.478,1.756,7.042,2.417,10.658c0.33,1.809,0.904,3.53,1.147,5.39
	c-0.227,0.295-0.452,0.608-0.679,0.904c-1.981,2.625-4.103,5.32-6.103,7.963c-5.771,7.546-11.526,15.109-17.334,22.533
	c-3.146,4.017-6.312,7.929-9.458,11.893c-5.008,6.312-10.015,12.657-15.039,18.864c-3.478,4.294-6.973,8.467-10.449,12.692
	c-4.747,5.771-9.493,11.562-14.257,17.229c-3.529,4.208-7.076,8.293-10.605,12.432c-3.738,4.363-7.459,8.728-11.197,13.022
	c-1.635-7.32-3.843-14.414-6.537-21.281c-0.035-0.104-0.069-0.209-0.122-0.313c-2.66-6.711-5.789-13.161-9.371-19.351
	c-0.278-0.47-0.574-0.922-0.852-1.391c-7.111-11.944-15.856-22.759-25.976-32.183c-0.765-0.713-1.513-1.391-2.295-2.086
	c-5.06-4.521-10.362-8.763-16.03-12.536c-0.053-0.034-0.087-0.052-0.139-0.087c-5.529-3.668-11.371-6.868-17.387-9.771
	c-1.025-0.487-2.018-1.008-3.043-1.478c-6.05-2.747-12.292-5.111-18.742-7.006c-0.904-0.261-1.826-0.452-2.73-0.713
	c-5.998-1.634-12.118-2.904-18.395-3.755c-0.678-0.087-1.304-0.313-1.982-0.4C362.054,224.91,403.799,182.609,456.323,177.324z
	 M229.813,418.664c1.495-59.444,50.316-107.326,110.09-107.326c0.104,0,0.191,0.018,0.296,0.018c0,0,0,0,0.017,0
	c6.346,0.018,12.536,0.661,18.604,1.722c0.921,0.156,1.86,0.243,2.765,0.417c2.347,0.47,4.625,1.112,6.919,1.721
	c1.13,0.296,2.295,0.539,3.408,0.87c2.226,0.678,4.364,1.495,6.52,2.312c1.113,0.418,2.26,0.783,3.373,1.235
	c2.139,0.887,4.225,1.912,6.294,2.921c1.043,0.504,2.104,0.974,3.112,1.512c2.069,1.096,4.069,2.313,6.068,3.547
	c0.939,0.574,1.896,1.113,2.817,1.722c2,1.321,3.93,2.747,5.842,4.19c0.817,0.626,1.669,1.199,2.469,1.843
	c1.93,1.547,3.791,3.182,5.615,4.851c0.696,0.626,1.409,1.234,2.07,1.878c1.859,1.791,3.633,3.668,5.372,5.581
	c0.539,0.591,1.095,1.182,1.634,1.791c1.791,2.068,3.478,4.207,5.111,6.397c0.383,0.521,0.783,1.026,1.148,1.548
	c1.686,2.364,3.285,4.799,4.781,7.302c0.243,0.383,0.486,0.766,0.712,1.165c1.565,2.678,3.025,5.442,4.382,8.259
	c0.104,0.226,0.209,0.452,0.313,0.661c1.409,3.008,2.695,6.085,3.825,9.231c0.018,0.035,0.035,0.087,0.053,0.122
	c3.512,9.788,5.685,20.237,6.294,31.121c0,0.053,0.034,0.087,0.034,0.14c0.104,1.999,0.313,3.981,0.313,6.016
	c0,1.286-0.035,2.556-0.087,3.825c-36.563,40.006-72.675,75.7-107.466,106.23c-3.859,0.209-7.685-0.034-11.527-0.382
	c-1.234-0.122-2.469-0.209-3.721-0.365c-0.191-0.018-0.4-0.087-0.591-0.104c-0.035-0.209-0.122-0.4-0.156-0.608
	c-1.13-6.225-2.591-12.31-4.503-18.238c-0.156-0.505-0.382-0.974-0.539-1.479c-1.635-4.902-3.547-9.666-5.686-14.326
	c-0.834-1.825-1.704-3.599-2.608-5.39c-1.704-3.355-3.547-6.606-5.512-9.806c-1.13-1.86-2.173-3.756-3.373-5.547
	c-2.782-4.138-5.807-8.102-8.989-11.927c-1.773-2.121-3.686-4.12-5.581-6.138c-1.965-2.086-3.964-4.138-6.033-6.12
	c-1.982-1.877-3.947-3.721-6.033-5.477c-3.182-2.694-6.502-5.233-9.91-7.649c-1.652-1.165-3.303-2.33-5.007-3.426
	c-4.173-2.712-8.484-5.181-12.936-7.458c-1.269-0.644-2.539-1.234-3.825-1.844c-5.111-2.434-10.345-4.59-15.752-6.415
	C230.091,418.786,229.953,418.717,229.813,418.664z M184.052,445.943c8.554,0,16.848,1.078,24.845,2.938
	c0.035,0,0.069,0.035,0.104,0.035c11.127,2.573,21.455,6.867,30.913,12.413c0.974,0.574,1.947,1.165,2.921,1.773
	c4.051,2.557,7.945,5.32,11.597,8.346c1.043,0.869,1.982,1.826,2.99,2.713c2.712,2.434,5.303,4.989,7.754,7.685
	c1.078,1.165,2.191,2.313,3.199,3.529c2.903,3.46,5.563,7.111,8.032,10.901c0.783,1.199,1.496,2.434,2.226,3.668
	c2.469,4.173,4.799,8.45,6.711,12.953c0.018,0.053,0.052,0.104,0.07,0.156c2.104,4.99,3.79,10.206,5.146,15.526
	c0.139,0.539,0.278,1.078,0.417,1.635c1.304,5.459,2.26,11.058,2.729,16.795c0,0,0,0.018,0,0.035
	c0.244,2.99,0.452,5.998,0.452,9.058c0,5.338-0.4,10.71-1.165,15.996c-16.639,12.657-33.539,24.515-50.421,35.103
	c-3.269,2.052-6.555,4.155-9.789,6.103c-3.651,2.191-7.302,4.226-10.953,6.276c-3.495,1.982-7.024,4.069-10.484,5.912
	c-0.07,0.034-0.157,0.034-0.226,0.069c-3.564,1.896-7.128,3.651-10.693,5.407c-3.842,1.912-7.685,3.825-11.458,5.563
	c-0.018,0.018-0.052,0-0.087,0.018h-0.018v0.018c-4.764,2.173-9.527,4.276-14.274,6.207c-0.07,0.034-0.122,0.087-0.209,0.121
	c-2.677,1.096-5.285,2.017-7.928,3.008c-4.468,1.687-8.919,3.355-13.37,4.816c-2.33,0.765-4.625,1.373-6.937,2.052h-0.035
	c-3.234,0.974-6.416,1.86-9.563,2.677c-2.886-1.373-5.529-3.06-8.259-4.659c-1.564-0.922-3.216-1.687-4.729-2.678
	c-1.808-1.199-3.425-2.643-5.146-3.929c-2.26-1.687-4.59-3.269-6.711-5.129c-7.511-6.607-14.17-14.274-19.786-22.863
	c-0.295-0.435-0.678-0.782-1.008-1.183c-10.901-17.229-17.004-37.52-17.004-58.888C73.927,495.355,123.322,445.943,184.052,445.943z
	 M77.908,659.563c0.383,0.4,0.817,0.748,1.2,1.147c2.33,2.469,4.712,4.903,7.198,7.181c-3.269,0.418-8.867,1.009-15.335,1.426
	C73.179,666.204,75.318,663.179,77.908,659.563z M710.008,322.152c-1.616,2.399-164.354,240.784-353.169,384.535
	c-106.439,81.072-222.042,78.117-302.732-7.163c0.817,0.017,1.652,0.069,2.469,0.069c15.509,0,30.026-1.669,33.904-2.156
	c14.935-0.435,30.391-2.538,46.787-6.363c0.608-0.069,1.234-0.174,1.826-0.313h0.017c7.876-1.844,15.909-4.19,24.028-6.833
	c0.104-0.035,0.226-0.018,0.33-0.053c2.556-0.816,5.129-1.843,7.685-2.764c5.337-1.878,10.71-3.878,16.152-6.104
	c0.156-0.052,0.313-0.034,0.469-0.087c3.095-1.269,6.172-2.677,9.267-4.033c4.764-2.086,9.563-4.329,14.396-6.659
	c0.139-0.069,0.295-0.034,0.452-0.104c2.66-1.304,5.32-2.694,7.963-4.051c2.486-1.27,4.938-2.451,7.441-3.772
	c0.069-0.035,0.156-0.07,0.226-0.122c0.035-0.018,0.052-0.035,0.069-0.052c2.382-1.27,4.799-2.695,7.198-4.034
	c0.226-0.121,0.487-0.156,0.713-0.278c0.052-0.034,0.122-0.069,0.174-0.121c2.469-1.356,4.92-2.834,7.372-4.226
	c2.295-1.321,4.555-2.556,6.85-3.929c0.574-0.348,1.165-0.644,1.739-0.991c0.122-0.069,0.174-0.209,0.295-0.278
	c1.721-1.043,3.478-2.173,5.199-3.251c0.174-0.104,0.382-0.14,0.556-0.243c0.834-0.521,1.669-1.044,2.486-1.565
	c1.061-0.66,2.069-1.373,3.129-2.052c5.355-3.39,10.745-6.902,16.169-10.57c5.146-3.425,10.223-6.938,15.283-10.484
	c0.4-0.278,0.8-0.573,1.2-0.852c123.391-86.932,224.146-208.811,307.461-318.867c1.234-1.634,2.521-3.338,3.756-4.99
	c0.382-0.504,0.765-0.991,1.147-1.495c0.034-0.035,0.034-0.07,0.069-0.104c1.513-2,3.043-4.051,4.572-6.068
	c0.018-0.018,0.035-0.035,0.053-0.069c0.208-0.278,0.382-0.522,0.573-0.783c47.639-63.095,98.269-132.971,128.833-212.496
	C754.639,118.871,771.973,223.52,710.008,322.152z"/>
</svg>
