<?xml version="1.0" encoding="utf-8"?>
<!-- Generator: Adobe Illustrator 15.0.0, SVG Export Plug-In . SVG Version: 6.00 Build 0)  -->
<!DOCTYPE svg PUBLIC "-//W3C//DTD SVG 1.1//EN" "http://www.w3.org/Graphics/SVG/1.1/DTD/svg11.dtd">
<svg version="1.1" id="_x32_" xmlns="http://www.w3.org/2000/svg" xmlns:xlink="http://www.w3.org/1999/xlink" x="0px" y="0px"
	 width="800px" height="711.072px" viewBox="0 45.284 800 711.072" enable-background="new 0 45.284 800 711.072"
	 xml:space="preserve">
<path fill="#F79927" d="M737.074,362.47c-0.693,0.023-1.352,0.102-2.045,0.102c-18.531-0.022-35.947-3.934-51.002-11.088
	c-15.008-7.178-27.9-17.612-36.336-31.575c-5.594-9.263-9.002-20.227-8.986-31.709c-0.035-16.002,6.553-30.675,16.334-41.797
	c3.465-3.966,7.441-7.438,11.623-10.683c-31.467-35.879-67.967-61.832-103.689-81.28c-41.918-22.808-82.305-36.556-111.742-47.396
	c-7.395-2.728-13.365-3.605-18.318-3.617c-8.463,0.033-14.459,2.546-19.158,5.465c-4.609,2.884-7.531,6.298-8.047,6.953
	l-1.074,1.543L240.42,276.198c1.853,6.602,2.947,13.531,2.94,20.722c0.028,23.598-10.761,44.872-27.156,59.544
	c-16.408,14.763-38.595,23.539-62.705,23.552c-6.35,0-12.525-0.688-18.503-1.859l-64.238,62.124h683.122
	C750.365,411.994,744.623,386.145,737.074,362.47z"/>
<path fill="#F79927" d="M44.038,662.418c0.011,9.5,3.791,17.906,10.006,24.148c6.242,6.221,14.648,9.994,24.153,10.006h25.945
	c3.713-17.793,13.269-33.578,26.356-45.299c17-15.293,39.994-24.387,65.003-24.396c25,0.012,47.994,9.104,64.988,24.396
	c13.089,11.721,22.656,27.506,26.362,45.299h434.949c9.504-0.01,17.912-3.785,24.154-10.006c6.213-6.242,9.994-14.648,10.006-24.148
	h0.002V473.309H44.038V662.418z"/>
<g>
	<path fill="#103653" d="M566.659,656.739c11.044,9.938,26.03,15.899,42.375,15.899c16.341,0,31.322-5.961,42.366-15.899
		c11.037-9.883,18.215-24.093,18.204-39.847c0.011-15.765-7.167-29.963-18.204-39.856c-11.044-9.927-26.03-15.877-42.366-15.877
		c-16.345,0-31.326,5.95-42.375,15.877c-11.037,9.896-18.209,24.092-18.2,39.856C548.45,632.646,555.622,646.856,566.659,656.739z
		 M582.87,595.044c6.497-5.859,15.742-9.669,26.166-9.669c10.425,0,19.664,3.81,26.154,9.669c6.508,5.892,10.183,13.5,10.188,21.849
		c-0.006,8.352-3.68,15.946-10.188,21.85c-6.49,5.859-15.735,9.68-26.154,9.68c-10.424,0-19.669-3.82-26.166-9.68
		c-6.508-5.904-10.177-13.5-10.186-21.85C572.693,608.544,576.362,600.936,582.87,595.044z"/>
	<path fill="#103653" d="M399.435,629.367c14.672,0,28.144-5.341,38.087-14.289c9.938-8.903,16.435-21.747,16.424-35.99
		c0.013-14.257-6.484-27.113-16.43-36.016c-9.943-8.947-23.416-14.278-38.081-14.278c-14.672,0-28.144,5.329-38.089,14.278
		c-9.938,8.902-16.434,21.759-16.423,36.016c-0.013,14.243,6.484,27.089,16.423,35.99
		C371.289,624.026,384.761,629.367,399.435,629.367z M377.55,561.08c5.403-4.867,13.128-8.069,21.885-8.069
		c8.756,0,16.479,3.2,21.884,8.069c5.397,4.912,8.395,11.156,8.406,18.008c-0.012,6.828-3.009,13.082-8.412,17.995
		c-5.396,4.868-13.128,8.068-21.878,8.068s-16.481-3.201-21.878-8.068c-5.409-4.913-8.4-11.166-8.413-17.995
		C369.155,572.236,372.146,565.992,377.55,561.08z"/>
	<path fill="#103653" d="M540.381,188.708c-12.188-4.936-26.391-7.663-41.594-7.663c-20.266,0.022-38.756,4.813-53.081,13.364
		c-7.149,4.292-13.303,9.578-17.865,16.035c-4.552,6.425-7.438,14.2-7.421,22.459c-0.016,8.259,2.869,16.034,7.416,22.459
		c6.873,9.669,17.19,16.791,29.35,21.76c12.197,4.936,26.403,7.675,41.604,7.675c20.268-0.034,38.766-4.823,53.088-13.376
		c7.145-4.305,13.303-9.6,17.867-16.058c4.547-6.423,7.431-14.198,7.414-22.459c0.017-8.26-2.867-16.035-7.421-22.459
		C562.862,200.788,552.545,193.678,540.381,188.708z M549.938,241.411c-3.189,4.607-9.669,9.645-18.654,13.262
		c-8.953,3.639-20.244,5.916-32.494,5.916c-16.328,0.023-30.955-4.09-40.617-9.939c-4.839-2.897-8.383-6.175-10.531-9.241
		c-2.151-3.109-2.979-5.781-2.997-8.508c0.016-2.727,0.839-5.398,2.997-8.497c3.185-4.609,9.662-9.634,18.656-13.241
		c8.953-3.65,20.244-5.905,32.492-5.905c16.33-0.033,30.967,4.08,40.625,9.905c4.834,2.906,8.383,6.175,10.525,9.241
		c2.157,3.098,2.98,5.769,2.99,8.497C552.919,235.63,552.091,238.302,549.938,241.411z"/>
	<path fill="#103653" d="M399.659,328.067c-9.223-4.327-19.928-6.705-31.337-6.718c-15.212,0.035-29.186,4.192-40.048,11.697
		c-5.42,3.753-10.08,8.406-13.478,13.984c-3.397,5.533-5.47,12.08-5.459,18.953c-0.011,6.862,2.056,13.422,5.453,18.966
		c5.128,8.35,12.981,14.625,22.183,18.964c9.229,4.315,19.935,6.706,31.35,6.706c15.212-0.023,29.18-4.192,40.043-11.686
		c5.421-3.775,10.082-8.417,13.483-13.984c3.396-5.544,5.459-12.104,5.453-18.966c0.006-6.873-2.063-13.422-5.46-18.953
		C416.719,338.67,408.865,332.383,399.659,328.067z M401.162,372.341c-1.989,3.325-6.017,6.964-11.781,9.657
		c-5.731,2.682-13.055,4.406-21.061,4.406c-10.677,0.012-20.138-3.098-26.239-7.381c-3.065-2.119-5.269-4.474-6.609-6.683
		c-1.347-2.244-1.904-4.237-1.916-6.356c0.011-2.119,0.569-4.112,1.916-6.356c1.989-3.313,6.018-6.953,11.781-9.646
		c5.736-2.693,13.061-4.417,21.067-4.406c10.672-0.021,20.138,3.101,26.233,7.371c3.065,2.118,5.269,4.462,6.609,6.683
		c1.348,2.243,1.898,4.237,1.91,6.356C403.061,368.104,402.51,370.099,401.162,372.341z"/>
	<path fill="#103653" d="M799.92,454.906c-3.933-46.033-13.353-86.994-26.695-123.448l-6.305-17.229l-18.07,3.087
		c-4.54,0.778-9.137,1.206-13.82,1.206c-16.323,0.046-30.735-4.821-39.852-11.324c-4.586-3.211-7.809-6.739-9.73-9.963
		c-1.934-3.256-2.682-6.073-2.699-9.038c0.035-4.058,1.432-8.112,5.512-12.879c4.027-4.677,10.818-9.466,19.641-12.756
		l27.473-10.322l-17.586-23.484c-39.406-52.66-88.019-88.109-133.762-112.991c-45.719-24.881-88.961-39.462-117.533-50.033
		c-11.849-4.385-23.186-6.356-33.58-6.344c-20.425-0.033-36.437,7.539-46.675,14.965c-7.712,5.578-12.547,11.021-14.918,14.006
		L187.386,266.225l7.799,14.65c2.72,5.128,4.129,10.413,4.141,16.047c-0.028,10.131-4.424,19.394-12.588,26.818
		c-8.142,7.348-19.878,12.249-33.237,12.238c-6.209,0-12.058-1.082-17.489-3.021l-12.875-4.597L0,447.447v214.972
		c0.011,43.203,35,78.181,78.198,78.192h70.949l-2.497-24.272c-0.142-1.375-0.209-2.501-0.209-3.446
		c0.028-10.942,4.789-20.938,13.533-28.895c8.728-7.865,21.275-13.094,35.529-13.082c14.244-0.012,26.791,5.217,35.519,13.082
		c8.744,7.955,13.506,17.95,13.533,28.895c0,0.855-0.067,2.05-0.219,3.639l-2.271,24.081H721.8
		c43.198-0.011,78.188-34.989,78.2-78.192V455.854L799.92,454.906z M134.999,378.156c5.978,1.172,12.153,1.859,18.503,1.859
		c24.109-0.013,46.297-8.789,62.705-23.552c16.396-14.672,27.185-35.946,27.156-59.543c0.006-7.191-1.087-14.121-2.94-20.722
		l164.213-158.809l1.074-1.544c0.515-0.655,3.438-4.069,8.047-6.953c4.699-2.918,10.694-5.431,19.158-5.464
		c4.953,0.011,10.924,0.889,18.317,3.617c29.438,10.839,69.825,24.587,111.743,47.395c35.723,19.449,72.223,45.402,103.689,81.28
		c-4.182,3.246-8.158,6.717-11.623,10.683c-9.781,11.122-16.369,25.795-16.335,41.797c-0.016,11.482,3.393,22.446,8.987,31.709
		c8.435,13.963,21.327,24.397,36.336,31.575c15.055,7.154,32.471,11.065,51.002,11.088c0.692,0,1.352-0.078,2.044-0.102
		c7.55,23.675,13.292,49.524,16.808,77.809H70.761L134.999,378.156z M755.963,662.419c-0.013,9.5-3.794,17.906-10.007,24.148
		c-6.242,6.22-14.649,9.995-24.154,10.006H286.853c-3.706-17.794-13.273-33.579-26.362-45.3
		c-16.994-15.292-39.988-24.385-64.988-24.396c-25.009,0.011-48.003,9.104-65.003,24.396c-13.087,11.721-22.644,27.506-26.356,45.3
		H78.198c-9.504-0.013-17.911-3.786-24.153-10.006c-6.216-6.242-9.996-14.648-10.006-24.148V473.31h711.925L755.963,662.419
		L755.963,662.419z"/>
</g>
</svg>
