<?xml version="1.0" encoding="utf-8"?>
<!-- Generator: Adobe Illustrator 15.0.0, SVG Export Plug-In . SVG Version: 6.00 Build 0)  -->
<!DOCTYPE svg PUBLIC "-//W3C//DTD SVG 1.1//EN" "http://www.w3.org/Graphics/SVG/1.1/DTD/svg11.dtd">
<svg version="1.1" id="Layer_1" xmlns="http://www.w3.org/2000/svg" xmlns:xlink="http://www.w3.org/1999/xlink" x="0px" y="0px"
	 width="800px" height="574.803px" viewBox="0 112.599 800 574.803" enable-background="new 0 112.599 800 574.803"
	 xml:space="preserve">
<circle fill="#F79927" cx="284.478" cy="397.864" r="209.306"/>
<path fill="#F8F9F6" d="M682.959,607.81c55.84,0,101.105-45.268,101.105-101.104c0-55.838-45.268-101.105-101.105-101.105
	c-5.207,0-10.324,0.396-15.321,1.155c-0.038-48.022-38.979-86.94-87.01-86.94c-20.212,0-38.798,6.91-53.57,18.473
	c-22.086-28.392-56.571-46.659-95.329-46.659c-64.644,0-117.419,50.814-120.563,114.679c-3.87-0.45-7.801-0.708-11.792-0.708
	c-55.839,0-101.105,45.267-101.105,101.104s45.268,101.104,101.105,101.104h383.585V607.81z"/>
<g>
	<path fill="#103653" d="M285.202,161.44c8.801,0,15.936-7.134,15.936-15.936v-16.971c0-8.801-7.135-15.936-15.936-15.936
		c-8.802,0-15.936,7.134-15.936,15.936v16.971C269.266,154.306,276.4,161.44,285.202,161.44z"/>
	<path fill="#103653" d="M173.93,170.808c2.542,6.138,8.475,9.842,14.729,9.842c2.031,0,4.099-0.391,6.092-1.217
		c8.133-3.367,11.994-12.69,8.625-20.82l-6.494-15.678c-3.367-8.131-12.692-11.997-20.82-8.625
		c-8.133,3.367-11.994,12.69-8.625,20.82L173.93,170.808z"/>
	<path fill="#103653" d="M95.251,230.386c3.113,3.113,7.191,4.667,11.269,4.667s8.158-1.556,11.269-4.667
		c6.224-6.223,6.224-16.314,0-22.537l-20.486-20.486c-6.224-6.223-16.314-6.223-22.538,0c-6.224,6.224-6.224,16.314,0,22.538
		L95.251,230.386z"/>
	<path fill="#103653" d="M30.334,309.479l15.678,6.493c1.994,0.827,4.059,1.218,6.092,1.218c6.253,0,12.186-3.705,14.73-9.843
		c3.367-8.131-0.494-17.453-8.625-20.82l-15.678-6.494c-8.13-3.366-17.453,0.494-20.82,8.625
		C18.341,296.788,22.205,306.109,30.334,309.479z"/>
	<path fill="#103653" d="M48.844,397.8c0-8.802-7.134-15.936-15.936-15.936H15.936C7.134,381.862,0,388.997,0,397.8
		c0,8.802,7.134,15.937,15.936,15.937h16.97C41.708,413.736,48.844,406.602,48.844,397.8z"/>
	<path fill="#103653" d="M46.014,479.623l-15.678,6.494c-8.133,3.367-11.994,12.69-8.625,20.82
		c2.542,6.138,8.475,9.842,14.729,9.842c2.031,0,4.099-0.391,6.092-1.217l15.678-6.494c8.133-3.367,11.992-12.69,8.625-20.82
		C63.469,480.119,54.144,476.253,46.014,479.623z"/>
	<path fill="#103653" d="M95.534,564.93l-12,12c-6.223,6.224-6.225,16.314,0,22.537c3.113,3.113,7.191,4.668,11.269,4.668
		s8.156-1.557,11.269-4.668l12-12c6.224-6.223,6.225-16.313,0-22.537C111.85,558.706,101.759,558.708,95.534,564.93z"/>
	<path fill="#103653" d="M194.567,616.607c-8.128-3.368-17.453,0.494-20.82,8.625l-11.991,28.949
		c-3.367,8.133,0.494,17.453,8.625,20.82c1.994,0.826,4.059,1.217,6.092,1.217c6.253,0,12.188-3.705,14.729-9.842l11.991-28.949
		C206.56,629.297,202.698,619.977,194.567,616.607z"/>
	<path fill="#103653" d="M277.13,638.56c-8.802,0-15.936,7.134-15.936,15.936v16.971c0,8.802,7.134,15.936,15.936,15.936
		c8.801,0,15.936-7.134,15.936-15.936v-16.971C293.065,645.693,285.931,638.56,277.13,638.56z"/>
	<path fill="#103653" d="M464.557,234.381c4.079,0,8.157-1.556,11.269-4.667l15.239-15.242c6.223-6.223,6.223-16.314,0-22.537
		c-6.226-6.224-16.316-6.224-22.539,0l-15.241,15.242c-6.224,6.223-6.224,16.314,0,22.537
		C456.4,232.825,460.477,234.381,464.557,234.381z"/>
	<path fill="#103653" d="M375.653,179.433c1.994,0.827,4.059,1.217,6.092,1.217c6.253,0,12.186-3.705,14.73-9.842l6.494-15.678
		c3.367-8.131-0.494-17.453-8.625-20.82c-8.13-3.369-17.453,0.494-20.82,8.625l-6.494,15.678
		C363.659,166.741,367.521,176.064,375.653,179.433z"/>
	<path fill="#103653" d="M682.945,623.745c0.005,0,0.01,0,0.014,0c64.538,0,117.041-52.505,117.041-117.04
		c0-64.536-52.503-117.041-117.041-117.041c-0.27,0-0.543,0-0.813,0.003c-8.197-48.622-50.614-85.789-101.516-85.789
		c-18.069,0-35.359,4.585-50.753,13.366c-14.465-14.979-31.903-26.271-51.077-33.277
		c-40.388-68.769-114.456-111.339-194.318-111.339c-124.197,0-225.238,101.042-225.238,225.237
		c0,124.374,101.042,225.559,225.238,225.559L682.945,623.745z M91.114,397.867c0-106.624,86.744-193.366,193.365-193.366
		c58.572,0,113.527,26.67,149.922,71.256c-0.892-0.017-1.778-0.067-2.673-0.067c-67.569,0-123.985,48.925-134.785,113.997
		c-63.42,1.297-114.613,53.291-114.613,117.018c0,24.972,7.93,48.115,21.374,67.118C137.308,543.117,91.114,475.8,91.114,397.867z
		 M682.972,591.872l-383.598-0.319c-46.962,0-85.169-38.063-85.169-84.85c0-46.963,38.208-85.169,85.169-85.169
		c3.223,0,6.478,0.195,9.95,0.602c4.385,0.511,8.78-0.818,12.146-3.67s5.398-6.971,5.614-11.375
		c2.747-55.812,48.712-99.526,104.646-99.526c32.564,0,62.724,14.766,82.752,40.508c2.599,3.344,6.422,5.512,10.626,6.031
		c4.213,0.516,8.439-0.658,11.775-3.268c12.607-9.869,27.734-15.086,43.747-15.086c39.157,0,71.042,31.857,71.073,71.019
		c0.003,4.643,2.031,9.052,5.553,12.077c3.521,3.023,8.185,4.365,12.778,3.665c4.253-0.646,8.602-0.974,12.925-0.974
		c46.963,0,85.169,38.208,85.169,85.169C768.128,553.662,729.925,591.867,682.972,591.872z"/>
	<path fill="#103653" d="M629.713,543.427H447.81c-8.8,0-15.937,7.134-15.937,15.936s7.137,15.937,15.937,15.937h181.904
		c8.8,0,15.937-7.135,15.937-15.937S638.513,543.427,629.713,543.427z"/>
	<path fill="#103653" d="M689.859,543.427h-7.336c-8.8,0-15.936,7.134-15.936,15.936s7.136,15.937,15.936,15.937h7.336
		c8.8,0,15.936-7.135,15.936-15.937S698.659,543.427,689.859,543.427z"/>
</g>
</svg>
