<?xml version="1.0" encoding="utf-8"?>
<!-- Generator: Adobe Illustrator 15.0.0, SVG Export Plug-In . SVG Version: 6.00 Build 0)  -->
<!DOCTYPE svg PUBLIC "-//W3C//DTD SVG 1.1//EN" "http://www.w3.org/Graphics/SVG/1.1/DTD/svg11.dtd">
<svg version="1.1" id="Layer_1" xmlns="http://www.w3.org/2000/svg" xmlns:xlink="http://www.w3.org/1999/xlink" x="0px" y="0px"
	 width="800px" height="800px" viewBox="0 0 800 800" enable-background="new 0 0 800 800" xml:space="preserve">
<path fill="#CBD265" d="M214.932,111.334c9.653-8.961,14.389-18.558,12.994-26.326c-3.206-17.852-38.197-32.179-80.239-24.629
	c-20.775,3.733-51.191,23.56-83.441,54.027c40.832,17.34,76.249,25.344,97.027,21.61
	C182.604,132.184,202.163,123.189,214.932,111.334z"/>
<path fill="#CBD265" d="M691.68,414.271c-23.529-8.285-55.365-4.992-83.081,8.598c-21.68,10.629-45.211,14.482-67.053,14.383
	c-0.322,0.012-0.644,0.039-0.963,0.039c-0.701,0-1.399-0.029-2.094-0.084c-27.435-0.59-51.896-7.299-66.173-14.467
	c-19.533-9.809-41.413-14.211-61.059-12.801c-1.357,0.098-2.704,0.219-4.031,0.371c-0.629,0.07-1.253,0.152-1.876,0.236
	c-1.25,0.17-2.483,0.369-3.703,0.588c-0.617,0.109-1.236,0.217-1.847,0.34c-1.264,0.256-2.503,0.551-3.731,0.859
	c-0.513,0.131-1.035,0.242-1.542,0.383c-1.715,0.467-3.398,0.98-5.031,1.555c-2.667,0.939-5.267,2.01-7.793,3.203
	c-5.994,2.828-11.561,6.373-16.648,10.523c-0.527,0.43-1.05,0.867-1.569,1.313c-3.955,3.395-7.606,7.162-10.889,11.297
	c-4.358,5.49-8.086,11.596-11.089,18.229c-9.785,21.621-10.714,46.195-2.613,69.201c0.542,1.541,1.092,3.084,1.644,4.627
	c0.315,0.879,0.639,1.775,0.965,2.68c0.194,0.535,0.388,1.068,0.582,1.605c15.948,43.871,45.711,115.609,84.125,162.523
	c0.706,0.865,1.326,1.766,1.906,2.688c24.883,29.637,51.146,45.453,76.648,37.258c1.271-0.41,6.094-4.477,11.365-17.357
	c4.065-9.932,13.729-16.418,24.46-16.418c10.73,0,20.395,6.486,24.462,16.416c5.273,12.883,10.094,16.951,11.367,17.359
	c60.552,19.469,125.391-96.43,165.869-211.381c8.102-23.008,7.175-47.584-2.619-69.201
	C730.063,437.613,713.018,421.787,691.68,414.271z"/>
<path fill="#F79927" d="M289.033,545.596c-12.648-35.916-11.114-74.469,4.317-108.559c14.633-32.332,40.078-57.02,72.1-70.156
	c2.135-0.875,4.299-1.7,6.491-2.472c0.053-0.019,0.108-0.038,0.161-0.057c-11.597-28.86-17.63-59.773-17.63-91.009
	c0-39.077-24.762-73.051-61.786-85.021c-6.944-1.164-13.792-1.741-20.481-1.741c-0.03,0-0.058,0.002-0.086,0.002
	c-1.381,0.225-2.789,0.359-4.222,0.359c-0.834,0-1.678-0.055-2.523-0.135c-21.816,1.309-41.731,8.879-57.783,22.301
	c-19.936,16.67-31.84,40.683-31.84,64.232c0,57.041-20.155,112.623-56.751,156.511c-28.394,34.049-44.031,77.266-44.031,121.682
	c0,104.848,85.298,190.148,190.141,190.146c36.964,0,72.989-10.791,103.675-30.748c-2.431-3.508-4.867-7.135-7.31-10.918
	C328.618,649.111,303.946,587.943,289.033,545.596z"/>
<g>
	<g>
		<g>
			<path fill="#103653" d="M787.198,437.044c-15.609-34.484-43.521-60.278-78.592-72.627
				c-36.994-13.026-83.312-8.914-123.914,10.997c-7.796,3.822-16.022,6.214-24.224,7.575c-2.403-18.726,1.326-36.125,11.174-51.921
				c3.151-5.058,6.605-9.425,9.904-13.066c8.021-8.858,9.263-21.927,2.869-32.025c-9.363-14.786-30.213-16.536-41.965-3.57
				c-4.701,5.188-9.563,11.281-14.131,18.284c-11.795,18.086-23.198,44.83-21.245,79.031c-5.093-1.42-9.122-2.938-11.674-4.22
				c-22.079-11.085-46.04-17.316-69.38-18.494c-12.662-26.039-19.32-54.67-19.32-83.658c0-31.087-9.854-60.622-28.501-85.41
				c-18.011-23.947-43.647-41.928-72.189-50.633c-0.994-0.303-2.006-0.548-3.031-0.731c-0.409-0.074-0.815-0.134-1.223-0.205
				c8.762-21.648,26.161-52.569,59.955-80.63c10.913-9.061,13.558-25.131,5.151-36.556c-9.065-12.325-26.479-14.369-38.126-4.769
				c-21.837,17.997-38.327,37.172-50.758,55.432c-12.631-46.802-72.676-73.635-140.27-61.486
				C89.878,16.952,37.688,64.608,10.831,92.253c-8.586,8.839-12.409,21.355-10.231,33.48c2.178,12.128,10.122,22.531,21.244,27.828
				c30.136,14.353,83.314,36.167,128.097,36.166c0.856,0,1.7-0.033,2.55-0.05c-19.247,24.248-30.234,54.003-30.234,83.673
				c0,44.692-15.8,88.251-44.489,122.658c-36.301,43.533-56.293,98.771-56.293,155.537c0,133.994,109.012,243.008,243.006,243.008
				c49.242,0,97.177-14.996,137.445-42.62c46.491,46.172,88.599,47.393,118.385,37.82c7.125-2.29,13.685-6.017,19.648-11.154
				c5.969,5.138,12.524,8.864,19.651,11.154c8.956,2.88,19.021,4.783,29.992,4.783c36.016-0.002,81.725-20.536,129.474-94.513
				c32.856-50.903,57.528-112.07,72.44-154.42C804.161,509.688,802.628,471.133,787.198,437.044z M63.611,114.416
				c32.25-30.467,62.666-50.293,83.441-54.026c42.042-7.55,77.033,6.776,80.239,24.628c1.396,7.769-3.34,17.366-12.994,26.327
				c-12.769,11.854-32.328,20.85-53.659,24.683C139.859,139.759,104.442,131.756,63.611,114.416z M264.474,741.69
				c-104.842,0.002-190.141-85.298-190.141-190.146c0-44.417,15.637-87.633,44.031-121.683
				c36.597-43.888,56.751-99.47,56.751-156.511c0-23.55,11.905-47.563,31.84-64.233c16.052-13.422,35.967-20.992,57.783-22.3
				c0.845,0.08,1.689,0.134,2.523,0.134c1.433,0,2.84-0.134,4.222-0.359c0.028,0,0.056-0.001,0.086-0.001
				c6.689,0,13.538,0.577,20.481,1.741c37.023,11.97,61.786,45.943,61.786,85.02c0,31.236,6.033,62.149,17.63,91.009
				c-0.053,0.019-0.108,0.038-0.161,0.057c-2.192,0.771-4.356,1.597-6.491,2.472c-32.021,13.136-57.467,37.823-72.1,70.156
				c-15.432,34.089-16.966,72.643-4.317,108.558c14.913,42.349,39.584,103.516,72.44,154.421c2.442,3.782,4.878,7.41,7.31,10.918
				C337.462,730.9,301.438,741.69,264.474,741.69z M741.653,528.047c-40.479,114.951-105.317,230.849-165.869,211.381
				c-1.273-0.409-6.094-4.477-11.367-17.359c-4.067-9.931-13.731-16.417-24.462-16.417c-10.731,0-20.395,6.487-24.46,16.419
				c-5.271,12.881-10.095,16.947-11.365,17.357c-25.502,8.194-51.766-7.621-76.648-37.259c-0.58-0.921-1.2-1.822-1.906-2.687
				c-38.414-46.914-68.177-118.652-84.125-162.524c-0.194-0.536-0.388-1.07-0.582-1.604c-0.327-0.905-0.65-1.802-0.965-2.68
				c-0.552-1.543-1.102-3.086-1.644-4.627c-8.102-23.006-7.172-47.581,2.613-69.201c3.003-6.633,6.731-12.738,11.089-18.229
				c3.283-4.135,6.935-7.903,10.889-11.298c0.519-0.444,1.042-0.882,1.569-1.312c5.087-4.151,10.654-7.695,16.648-10.524
				c2.526-1.192,5.126-2.263,7.793-3.202c1.633-0.575,3.316-1.088,5.031-1.556c0.508-0.14,1.03-0.252,1.542-0.382
				c1.228-0.31,2.467-0.604,3.731-0.859c0.611-0.123,1.23-0.231,1.847-0.341c1.22-0.219,2.453-0.417,3.703-0.587
				c0.623-0.085,1.247-0.166,1.876-0.237c1.327-0.152,2.674-0.272,4.031-0.371c19.646-1.409,41.525,2.992,61.059,12.802
				c14.276,7.167,38.738,13.877,66.173,14.466c0.694,0.055,1.393,0.084,2.094,0.084c0.319,0,0.641-0.026,0.963-0.039
				c21.842,0.101,45.373-3.753,67.053-14.383c27.716-13.589,59.552-16.883,83.081-8.598c21.338,7.516,38.383,23.342,47.989,44.565
				C748.828,480.463,749.755,505.039,741.653,528.047z"/>
		</g>
	</g>
</g>
</svg>
