<?xml version="1.0" encoding="utf-8"?>
<!-- Generator: Adobe Illustrator 15.0.0, SVG Export Plug-In . SVG Version: 6.00 Build 0)  -->
<!DOCTYPE svg PUBLIC "-//W3C//DTD SVG 1.1//EN" "http://www.w3.org/Graphics/SVG/1.1/DTD/svg11.dtd">
<svg version="1.1" id="Layer_1" xmlns="http://www.w3.org/2000/svg" xmlns:xlink="http://www.w3.org/1999/xlink" x="0px" y="0px"
	 width="800px" height="564px" viewBox="0 88.5 800 564" enable-background="new 0 88.5 800 564" xml:space="preserve">
<g>
	<path fill="#CBD265" d="M316.518,171.085c6.62-6.144,9.866-12.725,8.909-18.05c-2.198-12.24-26.19-22.064-55.017-16.888
		c-14.246,2.56-35.101,16.154-57.213,37.046c27.997,11.89,52.282,17.376,66.529,14.817
		C294.351,185.382,307.763,179.214,316.518,171.085z"/>
	<path fill="#CBD265" d="M643.412,378.802c-16.135-5.681-37.963-3.424-56.967,5.896c-14.865,7.286-31,9.931-45.979,9.861
		c-0.221,0.007-0.439,0.026-0.658,0.026c-0.48,0-0.959-0.019-1.436-0.056c-18.813-0.406-35.584-5.005-45.375-9.92
		c-13.393-6.725-28.395-9.744-41.863-8.778c-0.932,0.067-1.855,0.152-2.766,0.256c-0.43,0.048-0.859,0.104-1.287,0.161
		c-0.855,0.117-1.703,0.254-2.537,0.405c-0.424,0.074-0.85,0.148-1.268,0.233c-0.867,0.175-1.717,0.376-2.559,0.588
		c-0.352,0.09-0.709,0.165-1.059,0.262c-1.176,0.321-2.33,0.673-3.447,1.066c-1.83,0.645-3.613,1.379-5.346,2.197
		c-4.109,1.938-7.926,4.37-11.414,7.214c-0.361,0.295-0.721,0.597-1.076,0.9c-2.711,2.328-5.217,4.912-7.468,7.747
		c-2.987,3.763-5.544,7.951-7.603,12.498c-6.708,14.827-7.347,31.676-1.791,47.451c0.372,1.056,0.748,2.114,1.127,3.171
		c0.217,0.604,0.438,1.218,0.661,1.838c0.134,0.368,0.267,0.733,0.399,1.102c10.936,30.08,31.342,79.27,57.682,111.438
		c0.486,0.592,0.91,1.21,1.309,1.842c17.061,20.321,35.07,31.168,52.557,25.546c0.869-0.279,4.178-3.068,7.791-11.901
		c2.787-6.809,9.414-11.257,16.771-11.257c7.359,0,13.984,4.448,16.773,11.257c3.615,8.833,6.92,11.622,7.795,11.901
		c41.52,13.351,85.977-66.118,113.73-144.937c5.557-15.776,4.92-32.627-1.795-47.451
		C669.729,394.806,658.043,383.955,643.412,378.802z"/>
	<path fill="#F79927" d="M367.327,468.849c-8.672-24.628-7.62-51.063,2.96-74.437c10.033-22.17,27.482-39.098,49.438-48.104
		c1.463-0.6,2.947-1.166,4.449-1.694c0.037-0.012,0.076-0.025,0.111-0.039c-7.951-19.789-12.087-40.985-12.087-62.403
		c0-26.793-16.98-50.088-42.366-58.295c-4.761-0.798-9.456-1.194-14.044-1.194c-0.021,0-0.039,0.001-0.059,0.001
		c-0.947,0.154-1.912,0.246-2.895,0.246c-0.572,0-1.15-0.037-1.73-0.091c-14.958,0.897-28.614,6.088-39.62,15.291
		c-13.669,11.43-21.832,27.895-21.832,44.042c0,39.111-13.82,77.223-38.913,107.316c-19.469,23.346-30.191,52.979-30.191,83.435
		c0,71.89,58.487,130.379,130.375,130.377c25.345,0,50.046-7.398,71.087-21.081c-1.668-2.406-3.338-4.893-5.014-7.487
		C394.469,539.824,377.553,497.884,367.327,468.849z"/>
	<g>
		<g>
			<g>
				<path fill="#103653" d="M708.906,394.416c-10.701-23.645-29.842-41.33-53.889-49.799c-25.365-8.93-57.125-6.112-84.965,7.541
					c-5.346,2.621-10.986,4.261-16.609,5.194c-1.646-12.839,0.91-24.77,7.662-35.601c2.16-3.468,4.529-6.462,6.791-8.959
					c5.502-6.073,6.35-15.034,1.967-21.959c-6.42-10.139-20.717-11.338-28.773-2.447c-3.225,3.557-6.557,7.734-9.689,12.537
					c-8.088,12.401-15.906,30.739-14.566,54.19c-3.492-0.974-6.256-2.016-8.006-2.893c-15.139-7.602-31.568-11.874-47.572-12.682
					c-8.68-17.854-13.246-37.486-13.246-57.362c0-21.316-6.758-41.568-19.543-58.563c-12.35-16.42-29.929-28.749-49.499-34.717
					c-0.68-0.208-1.375-0.376-2.078-0.501c-0.281-0.051-0.56-0.092-0.838-0.14c6.006-14.844,17.937-36.045,41.106-55.286
					c7.484-6.213,9.299-17.231,3.533-25.065c-6.214-8.452-18.156-9.853-26.141-3.271c-14.973,12.341-26.28,25.487-34.803,38.008
					c-8.661-32.09-49.832-50.489-96.18-42.159c-32.795,5.888-68.581,38.565-86.996,57.521c-5.888,6.062-8.509,14.643-7.015,22.957
					c1.494,8.315,6.939,15.449,14.566,19.081c20.663,9.842,57.126,24.798,87.833,24.798c0.587,0,1.166-0.022,1.749-0.034
					c-13.197,16.626-20.731,37.028-20.731,57.373c0,30.644-10.833,60.511-30.505,84.103c-24.891,29.851-38.6,67.726-38.6,106.647
					c0,91.876,74.747,166.625,166.623,166.625c33.765,0,66.632-10.283,94.241-29.224c31.879,31.658,60.752,32.496,81.174,25.933
					c4.887-1.57,9.385-4.126,13.473-7.647c4.094,3.521,8.588,6.077,13.475,7.647c6.143,1.974,13.043,3.28,20.566,3.28
					c24.693-0.002,56.037-14.082,88.773-64.807c22.531-34.902,39.449-76.843,49.674-105.882
					C720.537,444.225,719.484,417.791,708.906,394.416z M212.762,173.199c22.113-20.891,42.968-34.485,57.213-37.045
					c28.827-5.177,52.819,4.647,55.017,16.887c0.958,5.327-2.29,11.908-8.908,18.051c-8.755,8.129-22.167,14.296-36.793,16.925
					C265.042,190.576,240.758,185.089,212.762,173.199z M350.486,603.306c-71.887,0-130.373-58.487-130.373-130.38
					c0-30.455,10.721-60.086,30.19-83.434c25.094-30.093,38.913-68.203,38.913-107.315c0-16.147,8.163-32.612,21.832-44.043
					c11.007-9.203,24.662-14.394,39.621-15.29c0.579,0.054,1.157,0.092,1.73,0.092c0.982,0,1.947-0.092,2.895-0.246
					c0.02,0,0.039-0.002,0.059-0.002c4.586,0,9.282,0.396,14.045,1.193c25.385,8.208,42.364,31.502,42.364,58.296
					c0,21.417,4.137,42.614,12.088,62.403c-0.037,0.012-0.072,0.025-0.109,0.038c-1.504,0.528-2.986,1.094-4.451,1.694
					c-21.957,9.007-39.404,25.936-49.438,48.104c-10.581,23.374-11.632,49.809-2.959,74.436
					c10.225,29.037,27.142,70.978,49.67,105.881c1.676,2.594,3.346,5.082,5.012,7.487
					C400.534,595.906,375.833,603.306,350.486,603.306z M677.678,456.813c-27.758,78.821-72.213,158.287-113.732,144.939
					c-0.873-0.279-4.18-3.07-7.795-11.902c-2.787-6.81-9.416-11.257-16.771-11.257c-7.359,0-13.984,4.447-16.773,11.257
					c-3.613,8.832-6.922,11.621-7.793,11.902c-17.486,5.617-35.494-5.225-52.555-25.547c-0.396-0.631-0.824-1.25-1.307-1.843
					c-26.34-32.167-46.747-81.356-57.684-111.438c-0.133-0.367-0.266-0.734-0.398-1.1c-0.223-0.622-0.444-1.237-0.662-1.838
					c-0.377-1.058-0.756-2.116-1.127-3.174c-5.555-15.772-4.918-32.624,1.791-47.448c2.059-4.548,4.615-8.733,7.604-12.5
					c2.25-2.835,4.755-5.417,7.466-7.746c0.355-0.304,0.713-0.605,1.076-0.898c3.488-2.848,7.307-5.278,11.416-7.217
					c1.73-0.819,3.514-1.552,5.342-2.196c1.121-0.396,2.275-0.746,3.451-1.068c0.348-0.094,0.705-0.171,1.057-0.261
					c0.844-0.211,1.691-0.415,2.559-0.59c0.42-0.083,0.844-0.157,1.268-0.232c0.836-0.15,1.682-0.287,2.537-0.401
					c0.428-0.059,0.855-0.115,1.287-0.165c0.91-0.104,1.834-0.187,2.764-0.254c13.473-0.965,28.473,2.053,41.867,8.778
					c9.789,4.915,26.563,9.517,45.373,9.918c0.475,0.039,0.955,0.059,1.436,0.059c0.219,0,0.439-0.018,0.66-0.027
					c14.975,0.068,31.111-2.572,45.977-9.862c19.004-9.316,40.834-11.574,56.965-5.895c14.633,5.154,26.32,16.006,32.906,30.558
					C682.598,424.188,683.23,441.04,677.678,456.813z"/>
			</g>
		</g>
	</g>
</g>
<g>
	<path fill="#96D2CA" d="M71.161,388.957v-33.213l115.279-51.693v34.229 M127.14,630.174L22.093,583.892V428.597l49.068-39.64
		l115.279-50.675l59.299,70.979"/>
	<path fill="#96D2CA" d="M127.14,463.203v166.971l118.599-53.943V409.259L127.14,463.203z"/>
	<path fill="#103653" d="M255.007,408.883c0-0.534-0.107-1.071-0.215-1.605c-0.053-0.161-0.053-0.376-0.107-0.536
		c-0.161-0.696-0.428-1.339-0.803-1.982c0-0.054-0.053-0.054-0.053-0.105c-0.268-0.483-0.589-0.964-0.964-1.446l-57.104-68.3
		v-30.856c0-3.159-1.608-6.105-4.232-7.82c-2.679-1.716-6-1.982-8.892-0.696L67.357,347.282c-3.375,1.499-5.518,4.821-5.518,8.516
		v28.768l-45.586,36.855c-2.197,1.766-3.482,4.444-3.482,7.23v155.241c0,3.696,2.196,7.018,5.571,8.516l105.047,46.338
		c0.268,0.107,0.535,0.16,0.803,0.269c0.215,0.054,0.429,0.161,0.643,0.213c0.75,0.216,1.554,0.323,2.304,0.323h0.054
		c0.803,0,1.553-0.16,2.303-0.323c0.214-0.052,0.429-0.159,0.696-0.213c0.268-0.107,0.536-0.16,0.804-0.269l118.601-53.944
		c3.321-1.499,5.464-4.821,5.464-8.463v-167.08C255.061,409.151,255.007,409.044,255.007,408.883L255.007,408.883z M130.086,451.578
		l-44.409-58.872l98.137-43.07l46.98,56.194L130.086,451.578z M177.119,318.406v13.768l-96.637,42.48v-12.91L177.119,318.406z
		 M31.413,433.043L69.5,402.242l48.319,64.013v149.616l-86.407-38.087V433.043L31.413,433.043z M236.419,570.231l-99.958,45.479
		v-146.51l99.958-45.479V570.231L236.419,570.231z"/>
</g>
<g>
	<path fill="#96D2CA" d="M744.678,555.471l-10.486,6.99c-10.027,6.685-22.988,6.686-33.018-0.003l-10.482-6.987
		c-2.379-1.586-5.297-1.976-8.004-1.072l-12.178,4.058l6.561,52.475c0.572,4.59,4.492,8.05,9.119,8.05h62.988
		c4.625,0,8.545-3.46,9.121-8.05l6.559-52.475l-12.178-4.058C749.969,553.494,747.053,553.887,744.678,555.471z"/>
	<path fill="#103653" d="M749.178,639.551h-62.988c-14.979,0-27.674-11.206-29.533-26.067l-7.58-60.653
		c-0.02-0.132-0.035-0.267-0.049-0.4l-8.705-69.63c-3.518-1.637-5.953-5.199-5.953-9.333c0-5.681,4.604-10.284,10.283-10.284h4.732
		c0.098-0.002,0.197-0.002,0.297,0h136.004c0.1-0.002,0.195-0.002,0.295,0h4.734c5.68,0,10.285,4.604,10.285,10.284
		c0,4.134-2.439,7.696-5.957,9.333l-8.703,69.63c-0.014,0.134-0.029,0.269-0.049,0.402l-7.582,60.651
		C776.852,628.345,764.156,639.551,749.178,639.551z M670.51,558.456l6.561,52.475c0.572,4.59,4.492,8.05,9.119,8.05h62.988
		c4.625,0,8.545-3.46,9.121-8.05l6.559-52.475l-12.178-4.058c-2.711-0.904-5.627-0.512-8.002,1.072l-10.486,6.99
		c-10.027,6.685-22.988,6.686-33.018-0.003l-10.482-6.987c-2.379-1.586-5.297-1.976-8.004-1.072L670.51,558.456z M685.645,533.338
		c5.781,0,11.484,1.701,16.457,5.018l10.484,6.987c3.098,2.067,7.1,2.064,10.195,0.004l10.484-6.992
		c7.693-5.13,17.141-6.397,25.918-3.473l8.275,2.761l6.736-53.89H661.172l6.736,53.89l8.275-2.761
		C679.287,533.848,682.479,533.338,685.645,533.338z"/>
</g>
</svg>
