<?xml version="1.0" encoding="utf-8"?>
<!-- Generator: Adobe Illustrator 15.0.0, SVG Export Plug-In . SVG Version: 6.00 Build 0)  -->
<!DOCTYPE svg PUBLIC "-//W3C//DTD SVG 1.1//EN" "http://www.w3.org/Graphics/SVG/1.1/DTD/svg11.dtd">
<svg version="1.1" id="emoji" xmlns="http://www.w3.org/2000/svg" xmlns:xlink="http://www.w3.org/1999/xlink" x="0px" y="0px"
	 width="677.966px" height="455.977px" viewBox="51.601 185.099 677.966 455.977"
	 enable-background="new 51.601 185.099 677.966 455.977" xml:space="preserve">
<g id="color">
	<rect x="411.947" y="400.591" fill="#FFFFFF" width="298.707" height="201.266"/>
	<polygon fill="#F79927" points="558.17,257.778 423.333,400 705.556,400 	"/>
	<path fill="#F79927" d="M525.556,295.889L454.444,372.5V267.958c0-10.348,8.388-15.736,18.735-15.736h33.641
		c10.348,0,18.735,5.388,18.735,15.736V295.889z"/>
	<rect x="477.777" y="466.667" fill="#9786BD" width="66.667" height="133.333"/>
	<rect x="600" y="466.667" fill="#96D2CA" width="66.667" height="55.556"/>
	<path fill="#CBD265" d="M455.621,335.881c0-36.803-38.274-66.694-85.485-66.694c-3.943,0.032-7.883,0.278-11.802,0.736
		c-19.995-38.393-63.406-65.06-113.888-65.06c-69.42,0-125.691,50.318-125.691,112.382c0.013,4.102,0.274,8.2,0.782,12.27
		c-31.03,10.002-52.87,33.821-52.87,61.637c0,36.803,38.273,66.694,85.484,66.694c17.946,0.154,35.618-4.469,51.264-13.411
		c20.197,16.406,52.516,27.095,89.06,27.095c61.228,0,110.862-29.861,110.862-66.695c-0.011-2.434-0.238-4.863-0.681-7.256
		C433.73,387.56,455.621,363.726,455.621,335.881z"/>
</g>
<g id="hair">
</g>
<g id="skin">
</g>
<g id="skin-shadow">
</g>
<g id="line">
	<path fill="#103653" stroke="#103653" stroke-width="10" stroke-miterlimit="10" d="M711.111,610H422.223c-5.522,0-10-4.478-10-10
		V461.646c0-5.522,4.478-10,10-10s10,4.478,10,10V590h268.889V394.498L558.412,269.082l-40.435,38.188
		c-4.017,3.793-10.344,3.611-14.137-0.404c-3.792-4.015-3.611-10.344,0.404-14.136l47.059-44.444
		c3.754-3.546,9.589-3.651,13.468-0.241l152.941,134.418c2.16,1.898,3.398,4.635,3.398,7.511V600
		C721.111,605.522,716.634,610,711.111,610z"/>
	<path fill="#103653" stroke="#103653" stroke-width="10" stroke-miterlimit="10" d="M544.444,610h-66.667c-5.522,0-10-4.478-10-10
		V466.667c0-5.522,4.478-10,10-10h66.667c5.522,0,10,4.478,10,10V600C554.444,605.522,549.967,610,544.444,610z M487.777,590h46.667
		V476.667h-46.667V590z"/>
	<path fill="#103653" stroke="#103653" stroke-width="10" stroke-miterlimit="10" d="M666.667,532.223H600c-5.522,0-10-4.478-10-10
		v-55.556c0-5.522,4.478-10,10-10h66.667c5.522,0,10,4.478,10,10v55.556C676.667,527.745,672.189,532.223,666.667,532.223z
		 M610,512.223h46.667v-35.556H610V512.223z"/>
	<path fill="#103653" stroke="#103653" stroke-width="10" stroke-miterlimit="10" d="M516.667,298.889c-5.522,0-10-4.477-10-10
		v-23.333h-23.334c-5.522,0-10-4.477-10-10s4.478-10,10-10h33.334c5.522,0,10,4.477,10,10v33.333
		C526.667,294.412,522.189,298.889,516.667,298.889z"/>
	<path fill="#103653" stroke="#103653" stroke-width="10" stroke-miterlimit="10" d="M347.167,437.106"/>
	<path fill="#103653" stroke="#103653" stroke-width="10" stroke-miterlimit="10" d="M250,631c-5.523,0-10-4.478-10-10v-75.455
		l-52.501-50.684c-3.974-3.836-4.085-10.166-0.249-14.14s10.167-4.086,14.14-0.249l55.556,53.632
		c1.952,1.885,3.055,4.481,3.055,7.194V621C260,626.522,255.523,631,250,631z"/>
	<path fill="#103653" stroke="#103653" stroke-width="10" stroke-miterlimit="10" d="M256.007,550.184
		c-2.492,0-4.987-0.926-6.926-2.788c-3.983-3.826-4.11-10.156-0.284-14.14l31.603-32.898c3.826-3.982,10.156-4.109,14.14-0.284
		c3.983,3.826,4.11,10.156,0.284,14.14l-31.603,32.898C261.257,549.155,258.634,550.184,256.007,550.184z"/>
	<path fill="#103653" stroke="#103653" stroke-width="10" stroke-miterlimit="10" d="M292.475,481.529
		c-34.831,0-67.181-9.146-90-25.27c-15.365,7.6-32.327,11.59-49.454,11.59l-0.956-0.004c-52.564,0-95.398-34.405-95.398-76.694
		c0-29.27,20.25-55.448,52.24-68.41c-0.095-1.824-0.146-3.648-0.152-5.464c0-67.514,60.871-122.415,135.691-122.415
		c26.158,0,51.544,6.741,73.414,19.494c19.375,11.298,35.178,26.78,46.049,45.04c2.05-0.123,4.103-0.192,6.145-0.209
		c52.732,0,95.567,34.404,95.567,76.694c0,29.275-20.267,55.466-52.288,68.452c0.002,0.152,0.003,0.305,0.004,0.457
		c0,21.505-13.252,41.297-37.316,55.773C353.548,474.083,323.877,481.529,292.475,481.529z M204.401,432.353l5.318,4.32
		c19.16,15.564,50.097,24.856,82.755,24.856c54.673,0,100.862-25.963,100.862-56.695c-0.008-1.792-0.181-3.637-0.514-5.438
		l-1.597-8.64l8.362-2.696c27.964-9.016,46.033-29.498,46.033-52.18c0-31.261-33.862-56.694-75.485-56.694
		c-3.487,0.029-7.095,0.254-10.642,0.668l-6.846,0.8l-3.184-6.113c-18.881-36.254-60.103-59.679-105.019-59.679
		c-63.792,0-115.691,45.929-115.691,102.382c0.012,3.652,0.249,7.375,0.705,11.032l1.025,8.216l-7.88,2.54
		c-27.906,8.995-45.938,29.453-45.938,52.119c0,31.262,33.862,56.694,75.484,56.694l0.87,0.004c15.876,0,31.586-4.184,45.432-12.097
		L204.401,432.353z"/>
	<path fill="#103653" stroke="#103653" stroke-width="10" stroke-miterlimit="10" d="M705.556,410H472.223c-5.522,0-10-4.478-10-10
		c0-5.523,4.478-10,10-10h233.333c5.522,0,10,4.477,10,10C715.556,405.522,711.078,410,705.556,410z"/>
</g>
</svg>
