<?xml version="1.0" encoding="utf-8"?>
<!-- Generator: Adobe Illustrator 15.0.0, SVG Export Plug-In . SVG Version: 6.00 Build 0)  -->
<!DOCTYPE svg PUBLIC "-//W3C//DTD SVG 1.1//EN" "http://www.w3.org/Graphics/SVG/1.1/DTD/svg11.dtd">
<svg version="1.1" id="Layer_1" xmlns="http://www.w3.org/2000/svg" xmlns:xlink="http://www.w3.org/1999/xlink" x="0px" y="0px"
	 width="30px" height="30px" viewBox="0 0 30 30" enable-background="new 0 0 30 30" xml:space="preserve">
<g>
	<path fill="#96D2CA" d="M8.907,19.999v4.071v3.428c0,0.084,0.006,0.168,0.017,0.249c0.123,0.914,0.912,1.625,1.858,1.625
		c0.63,0,1.19-0.314,1.53-0.794c0.217-0.307,0.345-0.68,0.345-1.08v-1.826v-5.673c0-1.031-0.844-1.874-1.875-1.874
		C9.75,18.125,8.907,18.968,8.907,19.999z"/>
	<g>
		<path fill="#F9EACD" d="M7.813,15.156c0,1.639,1.329,2.969,2.968,2.969c1.64,0,2.969-1.33,2.969-2.969
			c0-1.64-1.329-3.853-2.969-3.853C9.142,11.303,7.813,13.516,7.813,15.156z"/>
		<path fill="#F9EACD" d="M16.25,15.156c0,1.639,1.328,2.969,2.969,2.969c1.639,0,2.969-1.33,2.969-2.969h-2.969H16.25L16.25,15.156
			z"/>
	</g>
	<path fill="#96D2CA" d="M19.219,18.125c-1.031,0-1.875,0.843-1.875,1.874v5.673v1.826c0,0.4,0.128,0.773,0.345,1.08
		c0.341,0.479,0.899,0.794,1.53,0.794c1.031,0,1.874-0.844,1.874-1.874v-0.066V24.07v-4.071
		C21.093,18.968,20.25,18.125,19.219,18.125z"/>
	<g>
		<path fill="#F9EACD" d="M17.344,25.672c-1.521,0.334-3.119,0.346-4.688,0l0,1.826c0,0.4-0.127,0.773-0.345,1.08
			c1.774,0.35,3.603,0.35,5.377,0c-0.217-0.307-0.345-0.679-0.345-1.08V25.672L17.344,25.672z"/>
		<path fill="#F8F9F6" d="M8.907,27.498V24.07c-0.098-0.066-0.195-0.134-0.291-0.203c-0.471-0.338-0.92-0.719-1.342-1.141
			C3.332,18.785,3.046,12.517,6.417,8.239c0.008-0.011,0.017-0.022,0.025-0.033c0.256-0.323,0.534-0.634,0.832-0.933
			c4.25-4.249,11.203-4.249,15.453,0c4.268,4.268,4.268,11.186,0,15.453c-0.453,0.453-0.94,0.86-1.455,1.221
			c-0.059,0.042-0.119,0.082-0.179,0.123v3.361c1.334-0.654,2.585-1.535,3.694-2.645c4.221-4.221,5.145-10.489,2.774-15.607
			l1.467-2.027c0.415-0.572,0.5-1.318,0-1.818l-4.362-4.362c-0.5-0.5-1.246-0.415-1.818,0L20.82,2.438
			C15.701,0.068,9.434,0.993,5.213,5.213C0.993,9.434,0.068,15.702,2.438,20.82l-1.467,2.027c-0.414,0.572-0.5,1.318,0,1.818
			l4.363,4.362c0.5,0.5,1.246,0.415,1.818,0l1.771-1.281C8.913,27.666,8.907,27.582,8.907,27.498z"/>
	</g>
	<path fill="#F79927" d="M19.219,18.125L19.219,18.125L19.219,18.125z M19.219,18.125c-1.641,0-2.969-1.33-2.969-2.969h2.969h2.969
		C22.188,16.795,20.857,18.125,19.219,18.125L19.219,18.125z M10.781,18.125c-1.639,0-2.968-1.33-2.968-2.969
		c0-1.64,1.329-3.853,2.968-3.853c1.64,0,2.969,2.213,2.969,3.853C13.75,16.795,12.421,18.125,10.781,18.125L10.781,18.125z
		 M12.656,19.999v5.663l0,0.01c1.569,0.346,3.166,0.334,4.688,0v-0.01v-5.663c0-1.031,0.844-1.874,1.875-1.874
		s1.874,0.843,1.874,1.874v4.071l0.179-0.123c0.515-0.36,1.002-0.768,1.455-1.221c4.249-4.25,4.249-11.203,0-15.453
		c-4.25-4.25-11.204-4.25-15.453,0C6.976,7.572,6.698,7.883,6.442,8.206L6.417,8.239c-3.37,4.278-3.084,10.546,0.857,14.488
		c0.422,0.422,0.872,0.803,1.342,1.141c0.097,0.07,0.193,0.137,0.292,0.203v-4.071c0-1.031,0.843-1.874,1.875-1.874
		S12.656,18.968,12.656,19.999z"/>
</g>
<g>
	<path fill="#103653" d="M29.471,4.893L25.107,0.53c-0.682-0.682-1.737-0.708-2.627-0.064l-1.734,1.255
		c-2.572-1.113-5.388-1.453-8.17-0.982C9.606,1.24,6.908,2.635,4.771,4.771C2.635,6.908,1.24,9.606,0.738,12.576
		c-0.471,2.782-0.131,5.598,0.982,8.17l-1.256,1.735c-0.643,0.889-0.617,1.944,0.064,2.626l4.363,4.363
		C5.245,29.822,5.697,30,6.175,30c0.446,0,0.915-0.154,1.344-0.465l1.096-0.793c0.432,0.749,1.241,1.255,2.167,1.255
		c0.692,0,1.32-0.283,1.773-0.739c0.813,0.139,1.629,0.209,2.446,0.209c0.816,0,1.632-0.07,2.445-0.209
		c0.453,0.456,1.08,0.739,1.773,0.739c1.266,0,2.315-0.948,2.477-2.171c1.299-0.679,2.486-1.551,3.533-2.598
		c2.137-2.137,3.531-4.835,4.033-7.805c0.471-2.782,0.131-5.599-0.982-8.17l1.256-1.735C30.178,6.63,30.152,5.575,29.471,4.893z
		 M10.781,17.5c-1.292,0-2.344-1.052-2.344-2.344c0-1.379,1.159-3.228,2.344-3.228s2.344,1.848,2.344,3.228
		C13.125,16.448,12.074,17.5,10.781,17.5z M10.781,28.747L10.781,28.747c-0.689,0-1.25-0.561-1.25-1.249v-3.402
		c0-0.017,0-0.033,0-0.049v-4.048c0-0.688,0.561-1.249,1.25-1.249s1.25,0.561,1.25,1.249v7.499c0,0.257-0.079,0.496-0.213,0.695
		c-0.009,0.012-0.018,0.023-0.026,0.036C11.564,28.543,11.197,28.747,10.781,28.747z M13.208,28.094
		c0.047-0.191,0.072-0.391,0.072-0.596v-1.076c0.571,0.088,1.145,0.132,1.718,0.132s1.147-0.044,1.72-0.132v1.076
		c0,0.205,0.025,0.404,0.072,0.596C15.6,28.256,14.4,28.256,13.208,28.094z M21.478,15.781c-0.274,0.989-1.183,1.719-2.259,1.719
		s-1.986-0.729-2.26-1.719H21.478L21.478,15.781z M19.219,28.747L19.219,28.747c-0.416,0-0.784-0.204-1.012-0.518
		c-0.008-0.013-0.017-0.023-0.025-0.035c-0.135-0.199-0.213-0.438-0.213-0.696v-1.832c0-0.001,0-0.002,0-0.003v-5.664
		c0-0.688,0.561-1.249,1.25-1.249c0.688,0,1.249,0.561,1.249,1.249v4.069c0,0,0,0.001,0,0.002v3.428
		C20.468,28.187,19.907,28.747,19.219,28.747z M28.521,6.786l-1.467,2.027c-0.133,0.184-0.155,0.424-0.061,0.629
		c2.32,5.009,1.256,10.997-2.649,14.902c-0.792,0.792-1.673,1.476-2.627,2.039v-1.987c0.516-0.369,1.003-0.781,1.45-1.229
		c2.182-2.182,3.384-5.082,3.384-8.168c0-3.085-1.202-5.986-3.384-8.168c-1.803-1.803-4.092-2.937-6.618-3.279
		c-2.527-0.342-5.034,0.143-7.252,1.401c-0.3,0.17-0.405,0.552-0.235,0.852s0.552,0.405,0.852,0.235
		c4.017-2.28,9.104-1.591,12.369,1.675c1.946,1.945,3.018,4.533,3.018,7.284c0,2.752-1.071,5.339-3.018,7.285
		c-0.182,0.182-0.371,0.356-0.566,0.524v-2.811c0-0.673-0.268-1.284-0.702-1.733c1.072-0.623,1.797-1.783,1.797-3.11v-3.853
		c0-0.345-0.28-0.625-0.625-0.625c-0.346,0-0.625,0.28-0.625,0.625v3.228h-1.719v-3.228c0-0.345-0.28-0.625-0.625-0.625
		c-0.346,0-0.625,0.28-0.625,0.625v3.228h-1.719v-3.228c0-0.345-0.28-0.625-0.625-0.625c-0.346,0-0.625,0.28-0.625,0.625v3.853
		c0,1.327,0.723,2.487,1.795,3.11c-0.434,0.449-0.701,1.061-0.701,1.733v5.157c-1.143,0.195-2.295,0.195-3.438,0.001v-5.158
		c0-0.673-0.268-1.284-0.702-1.733c1.072-0.623,1.796-1.783,1.796-3.11c0-0.947-0.368-2.032-0.984-2.902
		c-0.72-1.016-1.646-1.575-2.609-1.575s-1.889,0.56-2.609,1.575c-0.617,0.87-0.984,1.955-0.984,2.902
		c0,1.327,0.723,2.487,1.795,3.11c-0.434,0.449-0.702,1.061-0.702,1.733v2.811c-0.196-0.169-0.385-0.343-0.566-0.525
		c-3.211-3.21-3.934-8.236-1.757-12.221C6.123,9.76,6.012,9.38,5.709,9.215C5.406,9.05,5.026,9.161,4.861,9.464
		c-1.205,2.208-1.653,4.69-1.295,7.181c0.358,2.489,1.487,4.745,3.266,6.523c0.447,0.447,0.934,0.859,1.45,1.229v3.043l-1.496,1.082
		c-0.288,0.209-0.725,0.351-1.01,0.064l-4.363-4.361c-0.285-0.286-0.144-0.723,0.064-1.011l1.467-2.027
		c0.133-0.184,0.156-0.424,0.061-0.629C0.686,15.549,1.75,9.56,5.655,5.655c3.904-3.905,9.894-4.97,14.901-2.65
		c0.206,0.095,0.446,0.072,0.629-0.061l2.027-1.467c0.288-0.208,0.726-0.35,1.011-0.064l4.362,4.363
		C28.872,6.062,28.73,6.499,28.521,6.786z"/>
	<path fill="#103653" d="M6.831,7.716C6.56,7.502,6.167,7.547,5.953,7.817L5.926,7.852C5.712,8.123,5.759,8.516,6.03,8.729
		c0.114,0.09,0.251,0.134,0.386,0.134c0.185,0,0.368-0.082,0.491-0.238l0.024-0.031C7.146,8.324,7.101,7.931,6.831,7.716z"/>
</g>
</svg>
