<?xml version="1.0" encoding="utf-8"?>
<!-- Generator: Adobe Illustrator 15.0.0, SVG Export Plug-In . SVG Version: 6.00 Build 0)  -->
<!DOCTYPE svg PUBLIC "-//W3C//DTD SVG 1.1//EN" "http://www.w3.org/Graphics/SVG/1.1/DTD/svg11.dtd">
<svg version="1.1" id="Capa_1" xmlns="http://www.w3.org/2000/svg" xmlns:xlink="http://www.w3.org/1999/xlink" x="0px" y="0px"
	 width="36px" height="36px" viewBox="0 0 36 36" enable-background="new 0 0 36 36" xml:space="preserve">
<polygon fill="#9786BD" points="15.097,19.332 7.958,19.332 6.966,18.255 2.688,18.255 4.724,20.289 16.134,20.289 "/>
<rect x="5.188" y="21.875" fill="#9786BD" width="11.882" height="11.881"/>
<polygon fill="#9786BD" points="1.104,30.407 3.796,33.417 3.796,21.989 1.104,18.907 "/>
<polygon fill="#F79927" points="7.722,16.968 7.984,17.262 7.984,16.968 7.984,16.674 7.984,5.834 5.292,2.752 5.292,14.252 
	7.458,16.674 "/>
<polygon fill="#F79927" points="20.322,4.278 18.119,2.244 6.876,2.244 8.911,4.278 "/>
<polygon fill="#F79927" points="19.383,18.045 21.273,18.045 21.273,17.955 21.273,17.656 21.273,17.267 21.273,16.967 
	21.273,16.672 21.273,10.451 21.258,10.451 21.258,5.864 9.376,5.864 9.376,10.451 9.362,10.451 9.362,16.676 9.362,16.967 
	9.362,17.275 9.362,17.656 9.362,17.955 9.362,18.045 14.146,18.045 14.587,18.045 15.157,18.045 15.601,18.045 16.042,18.045 
	17.308,18.045 17.607,18.045 17.907,18.045 18.961,18.045 "/>
<rect x="22.516" y="21.875" fill="#96D2CA" width="11.881" height="11.881"/>
<polygon fill="#96D2CA" points="18.564,19.033 18.455,18.907 18.455,19.033 18.455,19.332 18.455,20.282 18.455,30.407 
	18.656,30.631 21.148,33.417 21.148,21.989 18.826,19.332 "/>
<polygon fill="#96D2CA" points="31.258,18.254 22.844,18.254 22.844,19.332 21.094,19.332 22.051,20.289 33.459,20.289 "/>
<g>
	<path fill="#103653" d="M0.051,31.203c0.027,0.074,0.066,0.143,0.117,0.209l3.621,3.93h14.885v-2.649l2.441,2.649H36V20.588
		l-0.054-0.299h-0.14c-0.02-0.022-0.039-0.043-0.062-0.063l-3.623-3.348l-0.044-0.036c-0.064-0.051-0.14-0.092-0.244-0.131
		c-0.07-0.023-0.146-0.038-0.164-0.031l-8.809-0.006V4.578l-0.053-0.299h-0.14c-0.02-0.022-0.04-0.043-0.062-0.063l-3.623-3.348
		l-0.045-0.037c-0.066-0.051-0.141-0.093-0.242-0.13c-0.072-0.023-0.146-0.037-0.164-0.031L4.188,0.658L4.191,14.94
		c0.002,0.075,0.015,0.149,0.048,0.252c0.027,0.074,0.065,0.142,0.117,0.209l1.171,1.271L0,16.668l0.002,14.283
		C0.005,31.025,0.017,31.1,0.051,31.203z M8.93,4.278L6.895,2.244h11.243l2.202,2.034H8.93z M22.533,33.756V21.875h11.881v11.881
		H22.533z M9.38,16.676v-6.225h0.015V5.864h11.88v4.587h0.016v6.22v0.296v0.299v0.389v0.299v0.09h-1.89h-0.423h-1.053h-0.3h-0.299
		h-1.266H15.62h-0.443h-0.57h-0.441H9.38v-0.09v-0.299v-0.381v-0.308V16.676z M22.068,20.289l-0.957-0.957h1.75v-1.078h8.414
		l2.201,2.035H22.068L22.068,20.289z M17.088,21.875v11.881H5.206V21.875H17.088z M7.977,19.332h7.139l1.036,0.957H4.742
		l-2.035-2.034h4.277L7.977,19.332z M18.474,20.282v-0.95v-0.299v-0.126l0.108,0.126l0.262,0.299l2.322,2.657v11.428l-2.492-2.786
		l-0.2-0.224V20.282L18.474,20.282z M5.31,2.752l2.693,3.082v10.84v0.293v0.294L7.74,16.968l-0.263-0.293L5.31,14.252V2.752z
		 M3.814,21.989v11.428l-2.692-3.01v-11.5L3.814,21.989z"/>
	<path fill="#103653" d="M11.028,16.271c0.128,0.063,0.265,0.094,0.399,0.094c0.33,0,0.647-0.183,0.804-0.499l0.715-1.437h5.039
		l0.715,1.437c0.157,0.315,0.475,0.499,0.804,0.499c0.135,0,0.271-0.031,0.4-0.094c0.443-0.221,0.624-0.76,0.402-1.203l-2.295-4.617
		L16.27,6.95c-0.004-0.007-0.009-0.013-0.013-0.021c-0.016-0.029-0.034-0.056-0.052-0.083c-0.015-0.022-0.028-0.045-0.046-0.065
		c-0.019-0.023-0.041-0.043-0.063-0.064c-0.02-0.021-0.04-0.041-0.063-0.06c-0.021-0.017-0.044-0.031-0.067-0.047
		c-0.026-0.018-0.052-0.035-0.08-0.051c-0.007-0.003-0.013-0.009-0.021-0.013c-0.018-0.009-0.037-0.013-0.056-0.021
		c-0.029-0.012-0.057-0.024-0.086-0.033c-0.028-0.008-0.057-0.014-0.086-0.02c-0.028-0.005-0.056-0.011-0.084-0.014
		c-0.029-0.003-0.059-0.003-0.087-0.003c-0.03,0-0.059,0-0.088,0.003c-0.029,0.003-0.057,0.008-0.085,0.014s-0.057,0.011-0.085,0.02
		c-0.03,0.009-0.06,0.022-0.089,0.034c-0.018,0.007-0.036,0.011-0.053,0.02c-0.007,0.004-0.013,0.009-0.019,0.012
		c-0.031,0.016-0.059,0.035-0.086,0.055c-0.021,0.014-0.042,0.027-0.063,0.043c-0.024,0.02-0.045,0.042-0.067,0.064
		c-0.02,0.02-0.04,0.039-0.058,0.061c-0.018,0.021-0.032,0.046-0.048,0.068c-0.018,0.026-0.036,0.052-0.051,0.081
		c-0.003,0.007-0.009,0.013-0.013,0.021l-1.742,3.501l-2.296,4.617C10.403,15.512,10.584,16.05,11.028,16.271z M15.466,9.365
		l0.54,1.087l1.086,2.184h-3.253l1.086-2.184L15.466,9.365z"/>
	<path fill="#103653" d="M9.63,32.787h2.062c1.8,0,3.265-1.465,3.265-3.265c0-1.212-0.665-2.269-1.647-2.833
		c0.297-0.434,0.473-0.958,0.473-1.523c0-1.492-1.214-2.705-2.706-2.705H9.63c-0.639,0-1.176,0.421-1.364,0.998
		C8.218,23.57,8.19,23.691,8.19,23.82v0.08v2.531v1.266v3.65v0.048c0,0.071,0.01,0.138,0.025,0.204
		C8.335,32.273,8.922,32.787,9.63,32.787z M11.692,30.992H9.985v-2.939h1.707c0.811,0,1.47,0.658,1.47,1.47
		C13.162,30.333,12.503,30.992,11.692,30.992z M11.987,25.166c0,0.502-0.409,0.911-0.911,0.911H9.985v-1.821h1.092
		C11.579,24.256,11.987,24.664,11.987,25.166z"/>
	<path fill="#103653" d="M31.447,29.911c-0.585,0.55-1.35,0.854-2.153,0.854c-1.731,0-3.141-1.409-3.141-3.142
		c0-1.731,1.409-3.14,3.141-3.14c0.769,0,1.509,0.28,2.083,0.789c0.371,0.33,0.938,0.297,1.268-0.074
		c0.33-0.371,0.295-0.938-0.074-1.268c-0.904-0.801-2.068-1.242-3.275-1.242c-2.722,0-4.936,2.214-4.936,4.935
		c0,2.722,2.213,4.937,4.936,4.937c1.262,0,2.465-0.477,3.384-1.343c0.36-0.34,0.378-0.908,0.038-1.269
		C32.375,29.589,31.809,29.57,31.447,29.911z"/>
</g>
</svg>
