<?xml version="1.0" encoding="utf-8"?>
<!-- Generator: Adobe Illustrator 15.0.0, SVG Export Plug-In . SVG Version: 6.00 Build 0)  -->
<!DOCTYPE svg PUBLIC "-//W3C//DTD SVG 1.1//EN" "http://www.w3.org/Graphics/SVG/1.1/DTD/svg11.dtd">
<svg version="1.1" id="Layer_1" xmlns="http://www.w3.org/2000/svg" xmlns:xlink="http://www.w3.org/1999/xlink" x="0px" y="0px"
	 width="38px" height="37.833px" viewBox="-1.167 -1 38 37.833" enable-background="new -1.167 -1 38 37.833" xml:space="preserve">
<g>
	<g>
		<path fill="#F79927" d="M31.5,33.889c0,0.621-0.504,1.125-1.125,1.125h-9v-8.438c0-0.311-0.252-0.563-0.563-0.563h-5.625
			c-0.311,0-0.563,0.252-0.563,0.563v8.438h-9c-0.621,0-1.125-0.504-1.125-1.125V17.808L18.004,4.303L31.5,17.798V33.889z"/>
		<polygon fill="#9786BD" points="7.875,3.076 10.125,3.076 10.125,6.789 7.875,9.035 		"/>
		<path fill="#9786BD" d="M34.313,18.754c-0.155,0-0.339-0.021-0.439-0.122l-15.47-15.47c-0.11-0.109-0.254-0.165-0.398-0.165
			s-0.288,0.056-0.397,0.165L2.132,18.638c-0.102,0.102-0.29,0.116-0.445,0.116c-0.311,0-0.563-0.252-0.563-0.563
			c0-0.155,0.009-0.35,0.111-0.451L17.457,1.547c0,0,0.21-0.23,0.548-0.23c0.338,0,0.553,0.224,0.553,0.224l16.203,16.203
			c0.103,0.102,0.114,0.293,0.114,0.448C34.875,18.502,34.623,18.754,34.313,18.754z"/>
	</g>
	<rect x="15.75" y="27.139" fill="#96D2CA" width="4.5" height="7.875"/>
	<g>
		<g>
			<rect x="9" y="19.264" fill="#96D2CA" width="3.375" height="3.375"/>
			<rect x="23.625" y="19.264" fill="#96D2CA" width="3.375" height="3.375"/>
		</g>
	</g>
	<path fill="#103653" d="M1.688,20.188c0.439,0,0.852-0.103,1.188-0.29V33.75c0,1.517,1.232,2.75,2.75,2.75h24.75
		c1.516,0,2.75-1.233,2.75-2.75V19.892c0.338,0.191,0.75,0.296,1.188,0.296c1.205,0,2.188-0.981,2.188-2.188
		c0-0.64-0.215-1.222-0.59-1.598L19.738,0.231C19.711,0.201,19.051-0.5,18.004-0.5c-1.053,0-1.684,0.695-1.689,0.703L11.75,4.76
		V2.813c0-0.586-0.477-1.063-1.063-1.063H7.313c-0.586,0-1.063,0.477-1.063,1.063v7.436l-6.164,6.151
		C-0.287,16.772-0.5,17.355-0.5,18C-0.5,19.206,0.48,20.188,1.688,20.188z M19.75,34.375h-3.5V27.5h3.5V34.375z M31,33.75
		c0,0.345-0.281,0.625-0.625,0.625h-8.5v-7.938c0-0.586-0.477-1.063-1.063-1.063h-5.625c-0.586,0-1.063,0.477-1.063,1.063v7.938
		h-8.5C5.279,34.375,5,34.095,5,33.75V17.876L18.004,4.871L31,17.866V33.75z M8.375,3.875h1.25v3.006l-1.25,1.247V3.875z
		 M17.816,1.702c0.002-0.001,0.082-0.077,0.188-0.077c0.115,0,0.199,0.077,0.199,0.077l16.16,16.14
		c0.002,0.008,0.012,0.045-0.051,0.221c-0.064,0-0.105-0.006-0.109,0.002L18.756,2.617c-0.201-0.201-0.467-0.312-0.752-0.312
		c-0.283,0-0.549,0.11-0.75,0.312L1.84,18.051C1.832,18.053,1.795,18.063,1.625,18c0-0.082,0.008-0.125-0.012-0.122L17.816,1.702z"
		/>
	<path fill="#103653" d="M23.063,24.125h4.5c0.586,0,1.063-0.477,1.063-1.063v-4.5c0-0.586-0.477-1.063-1.063-1.063h-4.5
		C22.477,17.5,22,17.977,22,18.563v4.5C22,23.648,22.477,24.125,23.063,24.125z M24.125,19.625H26.5V22h-2.375V19.625z"/>
	<path fill="#103653" d="M12.938,17.5h-4.5c-0.586,0-1.063,0.477-1.063,1.063v4.5c0,0.586,0.477,1.063,1.063,1.063h4.5
		c0.586,0,1.063-0.477,1.063-1.063v-4.5C14,17.977,13.523,17.5,12.938,17.5z M11.875,22H9.5v-2.375h2.375V22z"/>
</g>
</svg>
