<?xml version="1.0" encoding="utf-8"?>
<!-- Generator: Adobe Illustrator 15.0.0, SVG Export Plug-In . SVG Version: 6.00 Build 0)  -->
<!DOCTYPE svg PUBLIC "-//W3C//DTD SVG 1.1//EN" "http://www.w3.org/Graphics/SVG/1.1/DTD/svg11.dtd">
<svg version="1.1" id="Capa_1" xmlns="http://www.w3.org/2000/svg" xmlns:xlink="http://www.w3.org/1999/xlink" x="0px" y="0px"
	 width="37.75px" height="24.82px" viewBox="-0.75 6.43 37.75 24.82" enable-background="new -0.75 6.43 37.75 24.82"
	 xml:space="preserve">
<path fill="#96D2CA" d="M32.558,8.389c-0.292-0.214-0.648-0.291-1.003-0.219l-0.818,0.167c-0.588,0.12-1.014,0.643-1.014,1.243
	c0,5.722-4.655,10.377-10.377,10.377h-8.621c-2.736,0-4.962-2.226-4.962-4.961c0-0.383-0.17-0.74-0.466-0.982
	C5,13.771,4.615,13.676,4.24,13.753c-0.52,0.106-0.922,0.531-1,1.057L1.059,29.535h3.253l0.058-0.275
	c0.816-3.869,4.279-6.678,8.234-6.678h11.535c4.086,0,7.583,2.963,8.287,6.953h2.768L33.069,9.279
	C33.031,8.92,32.85,8.604,32.558,8.389z"/>
<g>
	<path fill="#103653" d="M35.688,30.909H0.563c-0.272,0-0.53-0.118-0.709-0.324c-0.179-0.207-0.259-0.48-0.217-0.752l2.255-15.226
		c0.162-1.095,1-1.979,2.084-2.201c0.769-0.158,1.59,0.045,2.2,0.543c0.617,0.503,0.971,1.249,0.971,2.046
		c0,1.978,1.609,3.587,3.587,3.587h8.622c4.964,0,9.003-4.039,9.003-9.003c0-1.249,0.889-2.338,2.112-2.589l0.818-0.166
		c0.718-0.148,1.498,0.023,2.09,0.457c0.601,0.439,0.989,1.116,1.066,1.855l2.175,20.738c0.025,0.266-0.061,0.528-0.234,0.723
		C36.207,30.797,35.953,30.909,35.688,30.909z M32.846,29.035h1.804L32.583,9.332c-0.023-0.221-0.131-0.408-0.311-0.54
		c-0.177-0.129-0.395-0.176-0.606-0.132l-0.819,0.166C30.491,8.9,30.233,9.217,30.233,9.58c0,5.998-4.879,10.877-10.877,10.877
		h-8.622c-3.011,0-5.461-2.45-5.461-5.461c0-0.232-0.103-0.449-0.283-0.596c-0.177-0.145-0.414-0.203-0.639-0.158
		c-0.315,0.064-0.559,0.322-0.606,0.641L1.649,29.035h2.269c0.911-4.036,4.549-6.953,8.697-6.953h11.535
		C28.343,22.082,31.935,24.981,32.846,29.035z M5.852,29.035h25.059c-0.864-2.977-3.616-5.078-6.762-5.078H12.614
		C9.481,23.957,6.717,26.063,5.852,29.035z"/>
</g>
</svg>
