<?xml version="1.0" encoding="utf-8"?>
<!-- Generator: Adobe Illustrator 15.0.0, SVG Export Plug-In . SVG Version: 6.00 Build 0)  -->
<!DOCTYPE svg PUBLIC "-//W3C//DTD SVG 1.1//EN" "http://www.w3.org/Graphics/SVG/1.1/DTD/svg11.dtd">
<svg version="1.1" id="Capa_1" xmlns="http://www.w3.org/2000/svg" xmlns:xlink="http://www.w3.org/1999/xlink" x="0px" y="0px"
	 width="512px" height="430px" viewBox="0 39.5 512 430" enable-background="new 0 39.5 512 430" xml:space="preserve">
<g>
	<path fill="#FFFFFF" d="M160.537,336.621l-54.468,0.103l-18.726-18.621c-10.635-10.637-27.879-10.636-38.514,0
		c-10.636,10.635-10.636,27.879,0,38.515l12.683,12.676l99.025,21.797V336.621z"/>
	<path fill="#FD7555" d="M267.297,208.079c-70.7,0-128.545,57.845-128.545,128.545v32.681l203.853,21.787V208.068L267.297,208.079z"
		/>
	<path fill="#FDFA7B" d="M342.604,208.068l-32.681,183.024l156.987-21.798c2.768-10.447,4.237-21.396,4.237-32.682
		C471.148,265.913,413.304,208.068,342.604,208.068z"/>
	<path fill="#FEFDCA" d="M214.06,336.612c0,11.286,1.471,22.234,4.238,32.682c0,0.011,124.307,21.798,124.307,21.798V208.068
		C271.904,208.068,214.06,265.913,214.06,336.612z"/>
	<path fill="#FE9F88" d="M342.604,240.749v150.343l90.123-21.798c3.714-10.208,5.74-21.21,5.74-32.682
		C438.468,283.757,395.46,240.749,342.604,240.749z"/>
	<path fill="#FEC8BB" d="M405.787,336.612c0,11.472-1.34,22.474-3.779,32.682l-59.403,21.791l-90.123-21.78
		c-3.715-10.219-5.741-21.221-5.741-32.692c0-52.855,43.008-95.863,95.864-95.863C377.441,240.749,405.787,283.757,405.787,336.612z
		"/>
	<path fill="#FFFFFF" d="M342.604,303.932c-18.021,0-32.681,14.661-32.681,32.681c0,18.021,14.66,32.682,32.681,32.682
		s32.681-14.661,32.681-32.682S360.625,303.932,342.604,303.932z"/>
	<path fill="#FDCE6E" d="M443.915,385.634l-56.284,70.809h32.681c17.975,0,37.331-13.951,43.016-31.003l13.269-39.806H443.915z"/>
	<path fill="#FDFA7B" d="M35.404,385.634l13.269,39.806c5.684,17.052,25.041,31.003,43.016,31.003h295.943
		c17.975,0,37.331-13.951,43.016-31.003l13.268-39.806H35.404z"/>
	<path fill="#FEFDCA" d="M487.489,369.294H24.511c-9.024,0-16.34,7.315-16.34,16.34s7.316,16.341,16.34,16.341h462.979
		c9.024,0,16.341-7.316,16.341-16.341S496.514,369.294,487.489,369.294z"/>
	<path fill="#103653" d="M487.489,361.123h-10.404c1.474-8.064,2.234-16.27,2.234-24.511c0-75.382-61.33-136.711-136.715-136.711
		h-75.312c-72.649,0-132.236,56.965-136.465,128.575l-21.399,0.066L93.12,312.325c-6.688-6.688-15.578-10.37-25.035-10.37
		c-9.458,0-18.348,3.683-25.035,10.37c-6.687,6.687-10.37,15.577-10.37,25.034c0,8.869,3.239,17.24,9.16,23.763h-17.33
		C10.996,361.123,0,372.118,0,385.634s10.996,24.511,24.511,24.511h10.451l5.959,17.878c6.839,20.518,29.139,36.59,50.768,36.59
		h328.623c21.628,0,43.928-16.072,50.768-36.59l5.959-17.878h10.451c13.515,0,24.511-10.995,24.511-24.511
		S501.004,361.123,487.489,361.123z M462.979,336.612c0,8.259-0.862,16.476-2.541,24.511h-16.74
		c1.938-7.989,2.941-16.19,2.941-24.511c0-57.364-46.67-104.034-104.034-104.034c-21.589,0-42.313,6.584-59.932,19.04
		c-3.685,2.604-4.56,7.704-1.954,11.388c2.604,3.685,7.701,4.562,11.389,1.954c14.844-10.495,32.305-16.042,50.496-16.042
		c48.354,0,87.693,39.339,87.693,87.693c0,8.361-1.19,16.578-3.506,24.511H258.416c-2.314-7.933-3.505-16.149-3.505-24.511
		c0-18.192,5.546-35.653,16.042-50.497c2.605-3.684,1.729-8.782-1.955-11.389c-3.688-2.605-8.782-1.729-11.389,1.955
		c-12.455,17.617-19.039,38.341-19.039,59.931c0,8.32,1.002,16.521,2.941,24.511h-16.74c-1.679-8.035-2.542-16.252-2.542-24.511
		c0-66.372,54-120.371,120.375-120.371C408.979,216.242,462.979,270.24,462.979,336.612z M267.293,216.242h10.547
		c-42.804,23.121-71.951,68.405-71.951,120.371c0,8.241,0.762,16.446,2.234,24.511h-61.205v-24.502
		C146.919,270.243,200.92,216.242,267.293,216.242z M54.604,350.84c-3.601-3.601-5.583-8.388-5.583-13.48
		c0-5.092,1.982-9.88,5.584-13.48c3.6-3.6,8.387-5.584,13.479-5.584s9.879,1.982,13.498,5.601l18.725,18.621
		c1.536,1.53,3.617,2.416,5.787,2.378l24.485-0.077v16.306H64.895L54.604,350.84z M487.489,393.805h-16.17
		c-0.026,0-365.106,0-365.106,0c-4.513,0-8.17,3.657-8.17,8.17c0,4.512,3.657,8.17,8.17,8.17h353.601l-4.237,12.711
		c-4.593,13.777-20.741,25.417-35.265,25.417H91.688c-14.523,0-30.672-11.64-35.265-25.417l-4.236-12.711h21.345
		c4.513,0,8.17-3.658,8.17-8.17c0-4.513-3.657-8.17-8.17-8.17H40.709c-0.029,0-16.199,0-16.199,0c-4.506,0-8.17-3.665-8.17-8.171
		c0-4.505,3.665-8.17,8.17-8.17h462.979c4.506,0,8.17,3.665,8.17,8.17C495.659,390.14,491.995,393.805,487.489,393.805z"/>
	<path fill="#103653" d="M309.924,344.783c4.513,0,8.17-3.658,8.17-8.171c0-13.516,10.996-24.51,24.511-24.51
		s24.511,10.994,24.511,24.51c0,4.513,3.656,8.171,8.17,8.171s8.17-3.658,8.17-8.171c0-22.525-18.325-40.851-40.851-40.851
		c-22.526,0-40.851,18.325-40.851,40.851C301.754,341.125,305.41,344.783,309.924,344.783z"/>
	<path fill="#FEC8BB" d="M228.767,145.431c0-12.895,3.324-18.99,7.172-26.045c4.296-7.878,9.168-16.808,9.168-33.869
		c0-17.028-4.852-25.954-9.144-33.82c-1.378-2.564-4.085-4.309-7.2-4.309c-4.512,0-8.17,3.658-8.17,8.17
		c0,1.424,0.366,2.761,1.006,3.927c3.847,7.052,7.167,13.145,7.167,26.032c0,12.895-3.324,18.99-7.172,26.045
		c-4.296,7.878-9.168,16.808-9.168,33.869c0,17.062,4.871,25.99,9.167,33.869c1.482,2.719,4.287,4.259,7.18,4.259
		c1.322,0,2.663-0.321,3.904-0.999c3.962-2.16,5.422-7.124,3.261-11.084C232.091,164.418,228.767,158.326,228.767,145.431z"/>
	<path fill="#FEC8BB" d="M283.235,145.431c0-12.895,3.323-18.99,7.173-26.045c4.296-7.878,9.168-16.808,9.168-33.869
		c0-17.028-4.853-25.954-9.145-33.82c-1.379-2.564-4.086-4.309-7.199-4.309c-4.513,0-8.171,3.658-8.171,8.17
		c0,1.424,0.366,2.761,1.007,3.927c3.846,7.052,7.167,13.145,7.167,26.032c0,12.895-3.323,18.99-7.173,26.045
		c-4.296,7.878-9.168,16.808-9.168,33.869c0,17.062,4.871,25.99,9.167,33.869c1.483,2.719,4.286,4.259,7.181,4.259
		c1.32,0,2.662-0.321,3.904-0.999c3.961-2.16,5.422-7.124,3.26-11.084C286.559,164.418,283.235,158.326,283.235,145.431z"/>
</g>
</svg>
