<?xml version="1.0" encoding="utf-8"?>
<!-- Generator: Adobe Illustrator 15.0.0, SVG Export Plug-In . SVG Version: 6.00 Build 0)  -->
<!DOCTYPE svg PUBLIC "-//W3C//DTD SVG 1.1//EN" "http://www.w3.org/Graphics/SVG/1.1/DTD/svg11.dtd">
<svg version="1.1" id="icon" xmlns="http://www.w3.org/2000/svg" xmlns:xlink="http://www.w3.org/1999/xlink" x="0px" y="0px"
	 width="729.073px" height="578.584px" viewBox="36.283 96.29 729.073 578.584"
	 enable-background="new 36.283 96.29 729.073 578.584" xml:space="preserve">
<title>mostly-cloudy--night</title>
<g>
	<g>
		<path fill="#F79927" d="M533.23,352.529c-42.963-72.84-36.77-161.065,8.631-226.179c-28.969,3.021-57.768,12.159-84.494,27.924
			c-99.568,58.728-132.674,187.053-73.947,286.618c58.729,99.568,187.052,132.674,286.619,73.946
			c26.727-15.765,48.657-36.548,65.316-60.438C656.404,462.632,576.194,425.371,533.23,352.529z"/>
		<path fill="#103653" d="M563.899,558.896c-38.345,0-76.309-9.886-109.785-28.589c-34.513-19.281-63.425-47.564-83.614-81.794
			c-30.439-51.605-38.959-111.976-23.991-169.99c14.967-58.016,51.632-106.729,103.237-137.168
			c27.988-16.508,58.457-26.576,90.56-29.923c5.833-0.612,11.493,2.242,14.476,7.299c2.982,5.055,2.741,11.385-0.615,16.199
			c-43.396,62.239-46.543,144.661-8.016,209.979c34.787,58.979,98.992,95.616,167.559,95.616c6.689,0,13.449-0.351,20.091-1.043
			c5.832-0.612,11.493,2.242,14.476,7.299c2.981,5.055,2.74,11.386-0.616,16.199c-18.462,26.478-42.013,48.272-69.999,64.779
			C643.124,548.129,603.787,558.896,563.899,558.896z M512.24,147.123c-16.451,4.519-32.261,11.229-47.252,20.071
			c-44.705,26.368-76.465,68.566-89.431,118.822s-5.585,102.552,20.782,147.256c34.79,58.982,98.995,95.623,167.56,95.623
			c34.53,0,68.598-9.328,98.519-26.977c14.998-8.846,28.522-19.44,40.439-31.657c-34.629-1.682-68.621-11.386-98.934-28.319
			c-34.51-19.278-63.424-47.562-83.613-81.793c-22.26-37.739-32.939-80.726-30.885-124.313
			C490.889,204.82,498.688,174.678,512.24,147.123z"/>
	</g>
	<g>
		<path fill="#F8F9F6" d="M532.794,649.94l-383.598-0.318c-46.962,0-85.169-38.064-85.169-84.85c0-46.963,38.208-85.17,85.169-85.17
			c3.224,0,6.479,0.195,9.95,0.602c4.385,0.512,8.78-0.818,12.146-3.67s5.398-6.971,5.614-11.375
			c2.748-55.811,48.712-99.525,104.646-99.525c32.564,0,62.725,14.766,82.752,40.508c2.6,3.344,6.422,5.512,10.627,6.031
			c4.213,0.516,8.439-0.658,11.775-3.268c12.607-9.869,27.734-15.086,43.746-15.086c39.158,0,71.043,31.857,71.074,71.018
			c0.002,4.643,2.031,9.053,5.553,12.078c3.52,3.023,8.184,4.365,12.777,3.664c4.254-0.646,8.602-0.973,12.926-0.973
			c46.963,0,85.168,38.207,85.168,85.168C617.95,611.731,579.747,649.937,532.794,649.94z"/>
		<path fill="#103653" d="M532.795,664.94c-0.004,0-0.009,0-0.014,0l-383.598-0.318c-55.221,0-100.156-44.792-100.156-99.85
			c0-55.234,44.936-100.17,100.169-100.17c3.825,0,7.649,0.23,11.693,0.703c0.224,0.025,0.508-0.049,0.705-0.216
			c0.197-0.166,0.317-0.409,0.33-0.665c3.141-63.81,55.688-113.791,119.628-113.791c37.223,0,71.7,16.875,94.591,46.297
			c0.155,0.199,0.377,0.324,0.627,0.355c0.119,0.014,0.423,0.018,0.694-0.196c15.268-11.951,33.592-18.271,52.988-18.271
			c47.424,0,86.036,38.582,86.074,86.006c0,0.275,0.12,0.533,0.327,0.712c0.204,0.175,0.471,0.255,0.74,0.214
			c5-0.76,10.106-1.145,15.188-1.145c55.233,0,100.168,44.936,100.168,100.168C632.95,620.002,588.021,664.936,532.795,664.94z
			 M149.196,494.603c-38.691,0-70.169,31.479-70.169,70.17c0,38.516,31.478,69.85,70.169,69.85l383.611,0.318
			c38.676-0.007,70.144-31.481,70.144-70.166c0-38.69-31.478-70.168-70.168-70.168c-3.578,0-7.169,0.27-10.673,0.803
			c-1.529,0.233-3.099,0.353-4.654,0.353c-7.389,0-14.544-2.652-20.15-7.469c-6.846-5.882-10.774-14.429-10.778-23.449
			c-0.024-30.89-25.18-56.024-56.074-56.024c-12.628,0-24.558,4.114-34.5,11.897c-6.411,5.015-14.763,7.341-22.843,6.345
			c-8.239-1.018-15.565-5.177-20.647-11.713c-17.163-22.061-43.009-34.715-70.91-34.715c-47.925,0-87.311,37.452-89.664,85.263
			c-0.417,8.517-4.39,16.566-10.899,22.082c-5.581,4.729-12.682,7.333-19.995,7.333c-1.193,0-2.4-0.07-3.586-0.209
			C154.528,494.766,151.843,494.603,149.196,494.603z"/>
	</g>
	<path fill="#103653" d="M195.757,614.807H377.66c8.8,0,15.937-7.134,15.937-15.936s-7.137-15.937-15.937-15.937H195.756
		c-8.8,0-15.937,7.135-15.937,15.937S186.957,614.807,195.757,614.807z"/>
	<path fill="#103653" d="M135.61,614.807h7.336c8.8,0,15.936-7.134,15.936-15.936s-7.136-15.937-15.936-15.937h-7.336
		c-8.8,0-15.936,7.135-15.936,15.937S126.811,614.807,135.61,614.807z"/>
</g>
</svg>
