<?xml version="1.0" encoding="utf-8"?>
<!-- Generator: Adobe Illustrator 15.0.0, SVG Export Plug-In . SVG Version: 6.00 Build 0)  -->
<!DOCTYPE svg PUBLIC "-//W3C//DTD SVG 1.1//EN" "http://www.w3.org/Graphics/SVG/1.1/DTD/svg11.dtd">
<svg version="1.1" id="_x32_" xmlns="http://www.w3.org/2000/svg" xmlns:xlink="http://www.w3.org/1999/xlink" x="0px" y="0px"
	 width="800px" height="800px" viewBox="0 0 800 800" enable-background="new 0 0 800 800" xml:space="preserve">
<path fill="#F79927" d="M609.432,73.194c-26.719-12.519-56.773-19.6-90.162-19.625c-6.135,0-12.369,0.237-18.691,0.747h-0.037
	c-42.625,3.224-83.855,23.459-121.089,49.419c-37.299,25.896-69.766,56.773-96.597,79.36l-2.203,1.841l-2.527,1.344
	c-45.3,23.844-86.19,49.019-119.668,77.519c-33.501,28.56-59.511,60.145-76.486,97.641c-11.299,25.015-18.691,52.828-21.268,84.849
	c-0.711,8.847-1.045,17.51-1.045,25.972c0.012,43.979,9.234,82.522,25.188,116.06c15.979,33.539,38.805,62.138,66.58,85.546
	c55.455,46.854,131.095,72.615,207.494,72.565c79.113-0.013,150.482-32.07,202.253-83.966l0.758-0.771l0.771-0.66
	c35.678-30.514,70.313-75.391,98.947-124.97c28.711-49.542,51.559-103.852,65.012-152.797c8.973-32.581,13.701-62.835,13.678-86.986
	c0.014-48.548-12.742-95.153-35.504-134.104C682.033,123.186,649.43,91.962,609.432,73.194z"/>
<g>
	<path fill="#103653" d="M719.208,90.697c-23.969-27.44-53.275-50.176-87.026-66.006C598.456,8.849,560.314-0.025,519.271,0
		c-7.518,0-15.171,0.273-22.925,0.896h0.039C439.661,5.4,390.28,30.986,348.862,59.734c-40.357,28.1-73.847,59.834-98.475,80.63
		c-61.813,32.803-118.55,69.206-162.367,116.894c-22.191,24.205-40.969,51.372-54.856,82.099
		c-13.901,30.7-22.849,64.875-25.849,102.656c-0.82,10.242-1.231,20.321-1.231,30.242c-0.013,51.509,10.95,98.325,30.389,139.107
		c29.172,61.253,77.122,108.604,133.845,140.354c56.772,31.784,122.406,48.261,188.6,48.284
		c93.759,0.013,178.881-38.169,240.183-99.721c55.33-48.16,102.794-118.735,137.604-192.061
		c17.509-37.021,31.709-74.729,41.602-110.76c9.894-36.039,15.581-70.324,15.605-101.187
		C793.889,219.116,767.107,145.616,719.208,90.697z M726.664,383.263c-13.453,48.945-36.302,103.255-65.013,152.797
		c-28.634,49.579-63.269,94.456-98.946,124.97l-0.772,0.66l-0.758,0.771c-51.771,51.896-123.141,83.953-202.253,83.966
		c-76.398,0.05-152.039-25.711-207.494-72.565c-27.775-23.408-50.6-52.007-66.58-85.546c-15.953-33.537-25.175-72.081-25.188-116.06
		c0-8.462,0.334-17.125,1.045-25.972c2.577-32.021,9.969-59.834,21.268-84.849c16.975-37.496,42.984-69.081,76.486-97.64
		c33.478-28.5,74.369-53.675,119.668-77.519l2.527-1.344l2.203-1.84c26.831-22.587,59.298-53.464,96.597-79.361
		c37.235-25.959,78.464-46.195,121.089-49.419h0.037c6.322-0.509,12.557-0.747,18.692-0.747
		c33.389,0.025,63.443,7.106,90.162,19.625c39.997,18.768,72.602,49.991,95.402,88.981c22.761,38.952,35.517,85.556,35.504,134.104
		C740.364,320.428,735.636,350.682,726.664,383.263z"/>
	<path fill="#103653" d="M309.376,605.539c-18.642,0-33.762,15.107-33.762,33.75c0,18.667,15.12,33.775,33.762,33.775
		s33.763-15.109,33.763-33.775C343.139,620.646,328.021,605.539,309.376,605.539z"/>
	<path fill="#103653" d="M505.805,471.596c-18.643,0-33.763,15.12-33.763,33.762c0,18.668,15.12,33.775,33.763,33.775
		s33.764-15.107,33.764-33.775C539.568,486.716,524.447,471.596,505.805,471.596z"/>
	<path fill="#103653" d="M409.545,214.609c-18.629,0-33.75,15.12-33.75,33.763c0,18.668,15.12,33.775,33.75,33.775
		c18.656,0,33.775-15.108,33.775-33.775C443.32,229.729,428.2,214.609,409.545,214.609z"/>
	<path fill="#103653" d="M605.974,250.315c-18.643,0-33.75,15.133-33.75,33.763c0,18.666,15.107,33.775,33.75,33.775
		c18.656,0,33.774-15.109,33.774-33.775C639.748,265.447,624.63,250.315,605.974,250.315z"/>
	<path fill="#103653" d="M246.867,391.237c-18.642,0-33.763,15.122-33.763,33.765c0,18.652,15.121,33.762,33.763,33.762
		c18.656,0,33.775-15.109,33.775-33.762C280.642,406.359,265.522,391.237,246.867,391.237z"/>
</g>
</svg>
