<?xml version="1.0" encoding="utf-8"?>
<!-- Generator: Adobe Illustrator 15.0.0, SVG Export Plug-In . SVG Version: 6.00 Build 0)  -->
<!DOCTYPE svg PUBLIC "-//W3C//DTD SVG 1.1//EN" "http://www.w3.org/Graphics/SVG/1.1/DTD/svg11.dtd">
<svg version="1.1" id="Capa_1" xmlns="http://www.w3.org/2000/svg" xmlns:xlink="http://www.w3.org/1999/xlink" x="0px" y="0px"
	 width="800px" height="800px" viewBox="0 0 800 800" enable-background="new 0 0 800 800" xml:space="preserve">
<g>
	<g id="icons_26_">
		<g>
			<path fill="#103653" d="M611.755,197.029c-31.768,27.586-37.696,75.897-33.479,116.476c2.269,21.787,36.612,22.008,34.315,0
				c-1.568-15.147-1.204-43.603,4.438-63.348c0.746-2.612,2.53-3.071,2.53,0.314c0,52.674,0.013,298.922,0.013,298.922
				c0,2.75,0.545,5.368,1.51,7.772L497,557.165c0.579-1.411,0.77-3.043,0.77-3.043s6.68-63.807-19.247-95.196
				c-14.641-17.729-35.703-26.716-62.614-26.716c-27.264,0-49,8.996-64.607,26.744c-31.196,35.473-24.202,92.957-23.888,95.387
				c0.125,0.979,0.35,1.916,0.632,2.827h-44.543c-1.059-90.793-2.766-211.504-2.766-261.36c0-3.481,1.935-4.5,4.006-0.543
				c19.244,36.764,15.019,91.848,11.202,112.151c-3.23,16.773,7.751,32.989,24.525,36.22c1.976,0.381,3.941,0.562,5.882,0.562
				c14.53,0,27.489-10.289,30.338-25.088c0.871-4.526,20.71-111.545-32.921-176.485c-26.057-31.55-63.509-47.547-111.32-47.547
				c-48.415,0-87.039,16.003-114.793,47.564C42.327,305.554,54.71,407.337,55.266,411.639c2.18,16.913,17.628,28.839,34.55,26.697
				c16.918-2.139,28.911-17.604,26.813-34.526c-0.082-0.66-6.583-55.954,13.327-98.328c0.899-1.916,3.253-2.702,3.253,0.361
				c0,3.063-1.667,151.506-2.834,251.325H14.744c-8.142,0-14.743,6.601-14.743,14.741s6.601,14.743,14.743,14.743H130.04
				c-0.56,50.609-0.968,96.117-0.968,125.095c0,49.296,66.517,43.259,66.517,0c0-34.834,0.483-82.737,0.991-125.095h21.496
				c0.112,42.576,0.221,90.679,0.221,125.095c0,43.862,66.513,46.278,66.513,0c0-28.979-0.408-74.488-0.969-125.095h87.356
				c-0.648,52.135-1.376,110.8-1.376,140.017c0,28.126,37.951,24.684,37.951,0c0-41.883,1.225-116.895,1.225-125.59
				c0-8.699,11.455-6.804,11.455-0.258c0,6.544,0.277,83.966,0.277,125.848c0,25.026,37.947,26.404,37.947,0
				c0-29.217-0.729-87.882-1.375-140.017h327.954c8.142,0,14.743-6.603,14.743-14.743s-6.602-14.741-14.743-14.741h-71.013
				c0.965-2.404,1.51-5.024,1.51-7.772c0,0,0.017-290.819,0.017-300.873c0-10.053,1.483-9.851,4.003-14.164
				c13.373-22.9,55.974-95.742,60.949-103.042c5.913-8.674,8.855-23.292,0.705-31.444c-8.148-8.15-27.534-5.514-32.988,7.174
				c0,0-40.423,70.867-44.067,76.622c-3.648,5.755-2.484,6.823-9.172,4.106C690.008,185.665,643.522,169.442,611.755,197.029z
				 M196.946,557.166c0.428-33.402,0.791-59.283,0.791-65.545c0-15.243,20.073-11.923,20.073-0.453c0,4.8,0.087,31.359,0.186,66
				h-21.049V557.166z M371.561,557.166l-10.453,0.087c0,0-0.216-4.659-0.523-7.147c-0.048-0.391-2.545-42.029,9.125-59.307
				c1.065-1.765,2.475-1.975,2.475,1.832S371.914,528.108,371.561,557.166z M456.939,557.166
				c-0.353-29.059-0.62-53.201-0.623-64.537c0-2.881,1.627-3.299,3.034-1.452c9.23,21,6.95,49.993,4.872,61.034
				c-0.321,1.677-0.851,4.955-0.851,4.955H456.939z M659.799,557.166c0.961-2.404,1.506-5.022,1.506-7.772c0,0,0-140.395,0-147.321
				c0-6.932,12.719-8.779,12.719,0c0,8.775,0,147.321,0,147.321c0,2.752,0.543,5.368,1.504,7.772H659.799z"/>
			<circle fill="#103653" cx="665.505" cy="123.203" r="49.291"/>
			<path fill="#103653" d="M206.94,181.966c35.371-0.125,64.012-28.837,64.012-64.223c0-35.417-28.642-64.114-64.012-64.239
				c-35.371,0.125-64.01,28.822-64.01,64.239C142.93,153.129,171.57,181.843,206.94,181.966z"/>
			<path fill="#103653" d="M415.922,424.402c20.178-0.068,36.524-16.451,36.524-36.642c0-20.208-16.343-36.581-36.524-36.651
				c-20.182,0.07-36.521,16.443-36.521,36.651C379.402,407.951,395.74,424.332,415.922,424.402z"/>
		</g>
	</g>
</g>
</svg>
