<?xml version="1.0" encoding="utf-8"?>
<!-- Generator: Adobe Illustrator 15.0.0, SVG Export Plug-In . SVG Version: 6.00 Build 0)  -->
<!DOCTYPE svg PUBLIC "-//W3C//DTD SVG 1.1//EN" "http://www.w3.org/Graphics/SVG/1.1/DTD/svg11.dtd">
<svg version="1.1" id="Layer_1" xmlns="http://www.w3.org/2000/svg" xmlns:xlink="http://www.w3.org/1999/xlink" x="0px" y="0px"
	 width="476px" height="470px" viewBox="179.445 64.14 476 470" enable-background="new 179.445 64.14 476 470"
	 xml:space="preserve">
<path fill="#F79927" d="M365.236,353.291c-63.978-63.978-63.978-167.705,0-231.684c5.681-5.674,11.769-10.927,18.215-15.715
	C277.446,126.46,208.186,229.07,228.754,335.076c20.569,106.004,123.178,175.266,229.183,154.697
	c78.289-15.191,139.506-76.408,154.697-154.697c-4.797,6.439-10.049,12.525-15.715,18.215
	C532.941,417.269,429.214,417.269,365.236,353.291z"/>
<title>Wondicon - UI (Free)</title>
<path fill="#103653" d="M420.945,522.894c-124.404,0.049-225.293-100.762-225.341-225.167
	C195.556,173.323,296.367,72.434,420.771,72.386c13.029-0.005,26.033,1.12,38.867,3.363c8.096,1.419,13.508,9.132,12.09,17.228
	c-1.094,6.239-6.018,11.102-12.27,12.12c-72.996,11.973-122.465,80.855-110.491,153.852
	c11.973,72.997,80.854,122.465,153.851,110.493c27.674-4.539,53.223-17.65,73.049-37.482l0,0
	c19.926-19.76,33.096-45.316,37.621-73.012c1.164-7.177,7.344-12.463,14.615-12.5l0,0c7.225,0.008,13.4,5.204,14.643,12.322
	c21.484,122.518-60.418,239.256-182.938,260.741C446.976,521.759,433.972,522.892,420.945,522.894z M383.799,105.751
	C277.794,126.32,208.534,228.929,229.102,334.935c20.569,106.004,123.178,175.266,229.183,154.697
	c78.289-15.191,139.506-76.408,154.697-154.697c-4.797,6.439-10.049,12.525-15.715,18.215c-63.979,63.979-167.705,63.979-231.683,0
	c-63.978-63.978-63.978-167.706,0-231.683C371.265,115.792,377.353,110.54,383.799,105.751z"/>
<path fill="#103653" d="M495.355,312.523h-74.41c-8.219,0.014-14.894-6.637-14.909-14.856c-0.007-3.963,1.566-7.765,4.372-10.563
	l49.021-48.991h-38.484c-8.219,0-14.882-6.663-14.882-14.882c0-8.219,6.663-14.882,14.882-14.882h74.41
	c8.219-0.015,14.895,6.636,14.908,14.855c0.008,3.962-1.566,7.765-4.371,10.563l-49.021,48.992h38.484
	c8.219,0,14.883,6.663,14.883,14.882C510.238,305.859,503.574,312.523,495.355,312.523z"/>
<path fill="#103653" d="M631.316,176.56h-74.408c-8.221-0.001-14.881-6.666-14.879-14.885c0-3.938,1.561-7.715,4.342-10.503
	l49.021-49.021h-38.484c-8.221,0-14.883-6.663-14.883-14.882s6.662-14.882,14.883-14.882h74.408
	c8.221-0.015,14.895,6.636,14.91,14.855c0.006,3.963-1.566,7.765-4.373,10.563l-49.021,48.991h38.484
	c8.221,0,14.883,6.663,14.883,14.882S639.537,176.56,631.316,176.56z"/>
</svg>
