<?xml version="1.0" encoding="utf-8"?>
<!-- Generator: Adobe Illustrator 15.0.0, SVG Export Plug-In . SVG Version: 6.00 Build 0)  -->
<!DOCTYPE svg PUBLIC "-//W3C//DTD SVG 1.1//EN" "http://www.w3.org/Graphics/SVG/1.1/DTD/svg11.dtd">
<svg version="1.1" id="Calque_1" xmlns="http://www.w3.org/2000/svg" xmlns:xlink="http://www.w3.org/1999/xlink" x="0px" y="0px"
	 width="365px" height="517px" viewBox="220.5 135.5 365 517" enable-background="new 220.5 135.5 365 517" xml:space="preserve">
<path fill="#96D2CA" d="M311.484,280v-48.438l168.125-75.391v49.922 M393.125,631.797l-153.203-67.5V337.813L311.484,280
	l168.125-73.906l86.484,103.516"/>
<path fill="#96D2CA" d="M393.125,388.281v243.516l172.969-78.672V309.609L393.125,388.281z"/>
<path fill="#103653" d="M579.609,309.063c0-0.781-0.156-1.563-0.313-2.344c-0.078-0.234-0.078-0.547-0.156-0.781
	c-0.234-1.016-0.625-1.953-1.172-2.891c0-0.078-0.078-0.078-0.078-0.156c-0.391-0.703-0.859-1.406-1.406-2.109l-83.281-99.609v-45
	c0-4.609-2.344-8.906-6.172-11.406c-3.906-2.5-8.75-2.891-12.969-1.016l-168.125,75.469c-4.922,2.188-8.047,7.031-8.047,12.422
	v41.953l-66.484,53.75c-3.203,2.578-5.078,6.484-5.078,10.547v226.406c0,5.391,3.203,10.234,8.125,12.422l153.203,67.578
	c0.391,0.156,0.781,0.234,1.172,0.391c0.313,0.078,0.625,0.234,0.938,0.313c1.094,0.313,2.266,0.469,3.359,0.469h0.078
	c1.172,0,2.266-0.234,3.359-0.469c0.313-0.078,0.625-0.234,1.016-0.313c0.391-0.156,0.781-0.234,1.172-0.391l172.969-78.672
	c4.844-2.188,7.969-7.031,7.969-12.344V309.609C579.688,309.453,579.609,309.297,579.609,309.063L579.609,309.063z M397.422,371.328
	l-64.766-85.859l143.125-62.813l68.516,81.953L397.422,371.328z M466.016,177.109v20.078l-140.938,61.953v-18.828L466.016,177.109z
	 M253.516,344.297l55.547-44.922l70.469,93.359v218.203l-126.016-55.547V344.297L253.516,344.297z M552.5,544.375l-145.781,66.328
	V397.031L552.5,330.703V544.375L552.5,544.375z"/>
</svg>
