<?xml version="1.0" encoding="utf-8"?>
<!-- Generator: Adobe Illustrator 15.0.0, SVG Export Plug-In . SVG Version: 6.00 Build 0)  -->
<!DOCTYPE svg PUBLIC "-//W3C//DTD SVG 1.1//EN" "http://www.w3.org/Graphics/SVG/1.1/DTD/svg11.dtd">
<svg version="1.1" id="Calque_1" xmlns="http://www.w3.org/2000/svg" xmlns:xlink="http://www.w3.org/1999/xlink" x="0px" y="0px"
	 width="457.694px" height="8.498px" viewBox="0 0 457.694 8.498" enable-background="new 0 0 457.694 8.498" xml:space="preserve">
<path fill="#FCCE8D" d="M258.117,8.705c-3.8,0-7.41-0.179-11.095-0.363c-3.734-0.186-7.595-0.378-11.772-0.378
	c-14.053,0-29.059-0.751-43.571-1.477c-24.999-1.25-50.849-2.544-74.256-0.246C100.328,7.92,85.338,8.703,70.25,8.703
	c-6.728,0-12.511-0.604-18.103-1.189C44.604,6.726,37.48,5.981,28.889,6.823c-5.787,0.568-12.616,0-18.639-0.5
	C6.486,6.01,2.93,5.715,0,5.715v-4c3.096,0,6.731,0.302,10.581,0.622c5.855,0.486,12.491,1.038,17.917,0.506
	c8.993-0.883,16.313-0.117,24.064,0.693c5.491,0.574,11.168,1.167,17.688,1.167c14.955,0,29.82-0.776,46.782-2.442
	c23.699-2.329,49.701-1.028,74.847,0.231c14.462,0.724,29.418,1.472,43.371,1.472c4.276,0,8.188,0.195,11.971,0.383
	c9.835,0.49,19.123,0.952,33.042-2.12c22.312-4.922,47.783-1.555,70.254,1.415l0.461,0.061c4.647,0.615,10.29-0.122,15.745-0.833
	c3.279-0.428,6.668-0.87,9.889-1.031c3.739-0.188,7.515-0.515,11.167-0.831C393.491,0.512,399.396,0,405.375,0
	c7.031,0,16.794,0.573,26.234,1.126c9.408,0.552,19.137,1.123,26.084,1.123v4c-7.064,0-16.853-0.574-26.318-1.129
	c-9.383-0.55-19.086-1.12-26-1.12c-5.806,0-11.623,0.504-17.25,0.992c-3.688,0.32-7.501,0.65-11.312,0.841
	c-3.062,0.153-6.371,0.585-9.572,1.002c-5.712,0.744-11.618,1.514-16.787,0.832l-0.461-0.061
	c-22.145-2.927-47.245-6.244-68.868-1.474C271.946,8.158,264.743,8.705,258.117,8.705z"/>
<path fill="#98D1CA" d="M193.815,7.959c-5.845,0-11.667-0.431-17.299-1.838c-20.153-5.036-43.886-1.855-64.826,0.954l-4.45,0.594
	c-5.169,0.684-11.076-0.087-16.787-0.832c-3.201-0.417-6.51-0.849-9.572-1.002c-8.665-0.435-18.112-0.646-28.884-0.646
	c-6.956,0-16.594,0.134-25.916,0.263c-9.36,0.13-19.04,0.264-26.062,0.264c-0.007,0-0.013,0-0.02,0v-4c0.006,0,0.013,0,0.02,0
	c6.994,0,16.659-0.134,26.006-0.264c9.335-0.129,18.988-0.263,25.971-0.263c10.839,0,20.353,0.213,29.084,0.65
	C84.302,2,87.692,2.442,90.971,2.87c5.455,0.711,11.096,1.448,15.745,0.833l4.442-0.593c21.296-2.855,45.433-6.091,66.327-0.87
	c9.546,2.385,19.525,1.799,30.088,1.178c4.714-0.277,9.588-0.563,14.427-0.563c13.063,0,26.467-0.498,40.658-1.024
	c26.267-0.975,53.428-1.984,78.004,0.431c10.079,0.99,19.548,0.608,29.573,0.204C375.641,2.247,381.23,2.021,387,2.021
	c3.894,0,7.503-0.042,10.962-0.082c10.571-0.123,19.697-0.229,31.233,0.903C434.876,3.399,441.797,3,447.9,2.648
	c3.558-0.205,6.918-0.399,9.793-0.399v4c-2.76,0-6.063,0.19-9.563,0.392c-6.251,0.36-13.338,0.77-19.326,0.182
	c-11.318-1.11-20.343-1.005-30.797-0.884C394.534,5.979,390.91,6.021,387,6.021c-5.688,0-11.238,0.224-16.604,0.44
	c-10.168,0.41-19.772,0.796-30.125-0.22c-24.308-2.388-51.331-1.384-77.465-0.414C249.204,6.332,235.138,6.854,222,6.854
	c-4.722,0-9.537,0.283-14.192,0.557C203.186,7.683,198.493,7.959,193.815,7.959z"/>
<path fill="#143854" d="M152.128,8.499c-13.79,0-27.914-1.894-40.97-3.644l-4.442-0.593c-4.65-0.616-10.29,0.121-15.745,0.833
	c-3.279,0.428-6.668,0.87-9.889,1.031c-8.731,0.438-18.245,0.65-29.084,0.65c-7,0-16.663-0.27-26.008-0.531
	C16.644,5.984,6.979,5.714,0,5.715v-4c7.035,0,16.728,0.271,26.101,0.532c9.318,0.26,18.953,0.529,25.897,0.529
	c10.771,0,20.219-0.211,28.884-0.646c3.062-0.153,6.371-0.585,9.572-1.002c5.712-0.745,11.619-1.516,16.787-0.832l4.45,0.594
	c20.939,2.809,44.674,5.991,64.826,0.954c10.141-2.534,20.893-1.903,31.292-1.291c4.656,0.273,9.471,0.557,14.193,0.557
	c13.137,0,27.203,0.522,40.806,1.027c26.134,0.97,53.157,1.973,77.464-0.414c10.355-1.017,19.958-0.63,30.125-0.22
	c5.367,0.216,10.916,0.44,16.604,0.44c3.91,0,7.534,0.042,11.008,0.083c10.451,0.122,19.478,0.226,30.797-0.884
	c5.788-0.569,12.615,0,18.64,0.5c3.765,0.313,7.32,0.608,10.25,0.608v4c-3.096,0-6.731-0.302-10.581-0.622
	c-5.854-0.487-12.492-1.037-17.918-0.506c-11.536,1.133-20.667,1.028-31.233,0.903c-3.459-0.04-7.068-0.082-10.962-0.082
	c-5.77,0-11.359-0.225-16.765-0.443c-10.024-0.404-19.494-0.786-29.573,0.204c-24.576,2.415-51.737,1.407-78.004,0.431
	C248.467,5.607,235.063,5.109,222,5.109c-4.839,0-9.713-0.287-14.427-0.563c-10.564-0.621-20.541-1.208-30.088,1.178
	C169.401,7.744,160.831,8.499,152.128,8.499z"/>
</svg>
